<svg width="880" height="188" fill="none" xmlns="http://www.w3.org/2000/svg"><path d="M0 8c0-2.8 0-4.2.545-5.27A5 5 0 0 1 2.73.545C3.8 0 5.2 0 8 0h864c2.8 0 4.2 0 5.27.545a4.997 4.997 0 0 1 2.185 2.185C880 3.8 880 5.2 880 8v172c0 2.8 0 4.2-.545 5.27a4.994 4.994 0 0 1-2.185 2.185c-1.07.545-2.47.545-5.27.545H8c-2.8 0-4.2 0-5.27-.545a4.997 4.997 0 0 1-2.185-2.185C0 184.2 0 182.8 0 180V8z" fill="#fff"/><path d="M585.8 79.4h4.32c.828 0 1.548.096 2.16.288.612.192 1.116.462 1.512.81.408.336.708.744.9 1.224.192.468.288.984.288 1.548 0 .564-.096 1.086-.288 1.566a3.184 3.184 0 0 1-.9 1.224c-.396.336-.9.6-1.512.792-.612.192-1.332.288-2.16.288h-2.628V92H585.8V79.4zm4.23 6.264c.6 0 1.104-.054 1.512-.162.42-.12.756-.282 1.008-.486.264-.204.45-.456.558-.756.12-.3.18-.63.18-.99s-.06-.69-.18-.99a1.646 1.646 0 0 0-.558-.756c-.252-.204-.588-.36-1.008-.468-.408-.12-.912-.18-1.512-.18h-2.538v4.788h2.538zM601.019 92.18a5.277 5.277 0 0 1-1.746-.288 4.03 4.03 0 0 1-1.458-.882 4.474 4.474 0 0 1-1.008-1.53c-.252-.612-.378-1.332-.378-2.16v-.36c0-.792.12-1.476.36-2.052.24-.588.558-1.074.954-1.458.408-.396.876-.69 1.404-.882a5.013 5.013 0 0 1 1.692-.288c1.404 0 2.49.384 3.258 1.152.768.768 1.152 1.854 1.152 3.258v1.008h-7.236c0 .564.09 1.038.27 1.422a2.67 2.67 0 0 0 1.656 1.458c.36.108.72.162 1.08.162.72 0 1.272-.12 1.656-.36.396-.24.678-.57.846-.99h1.548c-.096.456-.27.858-.522 1.206-.24.348-.54.642-.9.882-.348.228-.75.402-1.206.522a5.43 5.43 0 0 1-1.422.18zm-.09-8.46c-.372 0-.732.054-1.08.162a2.49 2.49 0 0 0-1.584 1.314c-.168.336-.252.738-.252 1.206h5.742c-.012-.492-.096-.906-.252-1.242a2.045 2.045 0 0 0-.594-.828 2.302 2.302 0 0 0-.9-.468 3.915 3.915 0 0 0-1.08-.144zM610.74 92.18c-1.2 0-2.142-.252-2.826-.756-.684-.504-1.062-1.212-1.134-2.124h1.584c.084.468.33.828.738 1.08.42.24.966.36 1.638.36.828 0 1.428-.138 1.8-.414.384-.288.576-.63.576-1.026 0-.468-.156-.834-.468-1.098-.312-.276-.852-.414-1.62-.414h-1.638v-1.296h1.53c.66 0 1.128-.126 1.404-.378.288-.252.432-.606.432-1.062 0-.36-.168-.672-.504-.936-.336-.264-.84-.396-1.512-.396-.732 0-1.266.12-1.602.36-.324.228-.522.558-.594.99h-1.584c.036-.396.144-.762.324-1.098.192-.348.45-.648.774-.9a3.461 3.461 0 0 1 1.152-.576 5.068 5.068 0 0 1 1.53-.216c.612 0 1.14.072 1.584.216.456.132.834.324 1.134.576.3.24.522.528.666.864.144.336.216.708.216 1.116 0 .456-.114.858-.342 1.206-.228.336-.594.6-1.098.792.672.18 1.14.468 1.404.864.264.396.396.858.396 1.386 0 .396-.084.768-.252 1.116-.168.348-.42.654-.756.918-.324.252-.738.456-1.242.612-.492.156-1.062.234-1.71.234zM617.866 95.78c-.18 0-.36-.018-.54-.054v-1.44c.18.036.36.054.54.054.18 0 .336-.03.468-.09a.991.991 0 0 0 .378-.342c.12-.168.246-.408.378-.72.144-.3.306-.696.486-1.188l-4.05-9.54h1.764l3.096 7.74 2.808-7.74h1.692l-3.6 9.54a22.481 22.481 0 0 1-.72 1.728c-.228.48-.474.87-.738 1.17a2.194 2.194 0 0 1-.846.666c-.312.144-.684.216-1.116.216zM625.877 92.18c-.18 0-.36-.018-.54-.054v-1.584c.06.012.15.018.27.018.264 0 .492-.084.684-.252.204-.168.366-.462.486-.882s.21-.99.27-1.71c.06-.72.09-1.632.09-2.736v-2.52h6.84V92h-1.584v-8.136h-3.672v1.476c0 1.332-.06 2.436-.18 3.312-.12.876-.3 1.578-.54 2.106-.228.516-.522.882-.882 1.098-.36.216-.774.324-1.242.324zM636.856 82.46h1.584v3.6h2.286c1.2 0 2.082.264 2.646.792.576.528.864 1.26.864 2.196 0 .912-.288 1.632-.864 2.16-.564.528-1.446.792-2.646.792h-3.87v-9.54zm3.78 8.136c.744 0 1.266-.132 1.566-.396.3-.264.45-.654.45-1.17 0-.516-.15-.906-.45-1.17-.3-.264-.822-.396-1.566-.396h-2.196v3.132h2.196zM647.594 83.864h-3.258V82.46h8.1v1.404h-3.258V92h-1.584v-8.136zM656.607 92.18c-.528 0-.996-.072-1.404-.216a3.062 3.062 0 0 1-1.008-.63 2.632 2.632 0 0 1-.63-.936 3.171 3.171 0 0 1-.216-1.188c0-.948.276-1.632.828-2.052.564-.42 1.368-.63 2.412-.63h3.096v-.648c0-.816-.186-1.38-.558-1.692-.36-.312-.906-.468-1.638-.468-.684 0-1.182.132-1.494.396-.312.252-.486.54-.522.864h-1.584c.024-.384.126-.738.306-1.062a2.89 2.89 0 0 1 .756-.864c.324-.24.708-.426 1.152-.558a4.766 4.766 0 0 1 1.476-.216c1.128 0 2.022.27 2.682.81.672.528 1.008 1.398 1.008 2.61v5.202c.012.372.042.738.09 1.098h-1.386a9.786 9.786 0 0 1-.072-.774 17.934 17.934 0 0 1-.018-.846c-.252.504-.66.93-1.224 1.278s-1.248.522-2.052.522zm.342-1.44c.372 0 .72-.048 1.044-.144.336-.108.63-.258.882-.45.252-.204.45-.45.594-.738.144-.288.216-.624.216-1.008v-.648h-2.826c-.588 0-1.05.12-1.386.36-.336.228-.504.594-.504 1.098 0 .444.156.81.468 1.098.324.288.828.432 1.512.432zM666.069 83.864h-3.258V82.46h8.1v1.404h-3.258V92h-1.584v-8.136z" fill="#01764C"/><path d="M585.8 52.4h4.5c.756 0 1.404.084 1.944.252.54.168.984.402 1.332.702.36.288.624.642.792 1.062.168.408.252.858.252 1.35 0 .648-.18 1.206-.54 1.674-.36.456-.804.786-1.332.99.744.168 1.332.51 1.764 1.026.432.504.648 1.164.648 1.98 0 .516-.084.99-.252 1.422a2.95 2.95 0 0 1-.792 1.134c-.36.312-.828.558-1.404.738-.564.18-1.248.27-2.052.27h-4.86V52.4zm4.86 11.124c.54 0 .99-.048 1.35-.144.36-.108.648-.252.864-.432a1.52 1.52 0 0 0 .45-.684c.096-.264.144-.558.144-.882 0-.324-.048-.618-.144-.882a1.401 1.401 0 0 0-.45-.684c-.216-.192-.51-.336-.882-.432-.36-.108-.81-.162-1.35-.162h-3.15v4.302h3.168zm-.36-5.706c.504 0 .924-.048 1.26-.144.336-.096.606-.234.81-.414.204-.18.348-.39.432-.63.084-.24.126-.504.126-.792 0-.288-.042-.552-.126-.792a1.355 1.355 0 0 0-.432-.63c-.204-.168-.474-.3-.81-.396-.336-.096-.756-.144-1.26-.144h-2.808v3.942h2.808zM597.498 55.46h1.584v3.6h1.926c1.2 0 2.082.264 2.646.792.576.528.864 1.26.864 2.196 0 .912-.288 1.632-.864 2.16-.564.528-1.446.792-2.646.792h-3.51v-9.54zm3.42 8.136c.744 0 1.266-.132 1.566-.396.3-.264.45-.654.45-1.17 0-.516-.15-.906-.45-1.17-.3-.264-.822-.396-1.566-.396h-1.836v3.132h1.836zm5.076-8.136h1.584V65h-1.584v-9.54zM613.045 60.158l-3.402-4.698h1.836l2.52 3.474 2.52-3.474h1.764l-3.402 4.608L618.463 65h-1.872l-2.664-3.726L611.263 65h-1.8l3.582-4.842zM623.958 65.18a5.277 5.277 0 0 1-1.746-.288 4.249 4.249 0 0 1-1.458-.9 4.474 4.474 0 0 1-1.008-1.53c-.252-.612-.378-1.326-.378-2.142v-.36c0-.768.126-1.446.378-2.034a4.164 4.164 0 0 1 2.466-2.34 4.996 4.996 0 0 1 1.746-.306c.612 0 1.194.102 1.746.306a4.164 4.164 0 0 1 2.466 2.34c.252.588.378 1.266.378 2.034v.36c0 .816-.126 1.53-.378 2.142a4.474 4.474 0 0 1-1.008 1.53c-.42.396-.906.696-1.458.9a5.277 5.277 0 0 1-1.746.288zm0-1.44c.36 0 .72-.06 1.08-.18.36-.132.678-.33.954-.594a3.03 3.03 0 0 0 .666-1.062c.18-.432.27-.96.27-1.584v-.36c0-.576-.09-1.068-.27-1.476a2.898 2.898 0 0 0-.666-1.008 2.515 2.515 0 0 0-.954-.576c-.36-.12-.72-.18-1.08-.18-.36 0-.72.06-1.08.18-.36.12-.678.312-.954.576-.276.264-.504.6-.684 1.008-.168.408-.252.9-.252 1.476v.36c0 .624.084 1.152.252 1.584.18.432.408.786.684 1.062.276.264.594.462.954.594.36.12.72.18 1.08.18zM629.536 63.596h1.17c.132-.18.252-.456.36-.828.108-.372.204-.81.288-1.314.084-.504.144-1.05.18-1.638.048-.6.072-1.212.072-1.836v-2.52h6.66v8.136h1.35v3.654h-1.512V65h-7.056v2.25h-1.512v-3.654zm7.146 0v-6.732h-3.528v1.476c0 .504-.018 1.008-.054 1.512-.036.492-.09.966-.162 1.422-.072.444-.162.87-.27 1.278a6.27 6.27 0 0 1-.342 1.044h4.356zM126.8 65.4h4.5c.756 0 1.404.084 1.944.252.54.168.984.402 1.332.702.36.288.624.642.792 1.062.168.408.252.858.252 1.35 0 .648-.18 1.206-.54 1.674-.36.456-.804.786-1.332.99.744.168 1.332.51 1.764 1.026.432.504.648 1.164.648 1.98 0 .516-.084.99-.252 1.422a2.95 2.95 0 0 1-.792 1.134c-.36.312-.828.558-1.404.738-.564.18-1.248.27-2.052.27h-4.86V65.4zm4.86 11.124c.54 0 .99-.048 1.35-.144.36-.108.648-.252.864-.432a1.52 1.52 0 0 0 .45-.684c.096-.264.144-.558.144-.882 0-.324-.048-.618-.144-.882a1.401 1.401 0 0 0-.45-.684c-.216-.192-.51-.336-.882-.432-.36-.108-.81-.162-1.35-.162h-3.15v4.302h3.168zm-.36-5.706c.504 0 .924-.048 1.26-.144.336-.096.606-.234.81-.414.204-.18.348-.39.432-.63.084-.24.126-.504.126-.792 0-.288-.042-.552-.126-.792a1.355 1.355 0 0 0-.432-.63c-.204-.168-.474-.3-.81-.396-.336-.096-.756-.144-1.26-.144h-2.808v3.942h2.808zM140.915 73.158l-3.402-4.698h1.836l2.52 3.474 2.52-3.474h1.764l-3.402 4.608L146.333 78h-1.872l-2.664-3.726L139.133 78h-1.8l3.582-4.842zM151.828 78.18a5.277 5.277 0 0 1-1.746-.288 4.249 4.249 0 0 1-1.458-.9 4.474 4.474 0 0 1-1.008-1.53c-.252-.612-.378-1.326-.378-2.142v-.36c0-.768.126-1.446.378-2.034a4.164 4.164 0 0 1 2.466-2.34 4.996 4.996 0 0 1 1.746-.306c.612 0 1.194.102 1.746.306a4.164 4.164 0 0 1 2.466 2.34c.252.588.378 1.266.378 2.034v.36c0 .816-.126 1.53-.378 2.142a4.474 4.474 0 0 1-1.008 1.53c-.42.396-.906.696-1.458.9a5.277 5.277 0 0 1-1.746.288zm0-1.44c.36 0 .72-.06 1.08-.18.36-.132.678-.33.954-.594a3.03 3.03 0 0 0 .666-1.062c.18-.432.27-.96.27-1.584v-.36c0-.576-.09-1.068-.27-1.476a2.898 2.898 0 0 0-.666-1.008 2.515 2.515 0 0 0-.954-.576c-.36-.12-.72-.18-1.08-.18-.36 0-.72.06-1.08.18-.36.12-.678.312-.954.576-.276.264-.504.6-.684 1.008-.168.408-.252.9-.252 1.476v.36c0 .624.084 1.152.252 1.584.18.432.408.786.684 1.062.276.264.594.462.954.594.36.12.72.18 1.08.18zM157.405 76.596h1.17c.132-.18.252-.456.36-.828.108-.372.204-.81.288-1.314.084-.504.144-1.05.18-1.638.048-.6.072-1.212.072-1.836v-2.52h6.66v8.136h1.35v3.654h-1.512V78h-7.056v2.25h-1.512v-3.654zm7.146 0v-6.732h-3.528v1.476c0 .504-.018 1.008-.054 1.512-.036.492-.09.966-.162 1.422-.072.444-.162.87-.27 1.278a6.27 6.27 0 0 1-.342 1.044h4.356z" fill="#001357"/><path d="M200.778 60.18c-.744 0-1.404-.09-1.98-.27a4.566 4.566 0 0 1-1.476-.792 3.85 3.85 0 0 1-.972-1.188 4.097 4.097 0 0 1-.432-1.53h1.692c.096.684.42 1.236.972 1.656.552.408 1.284.612 2.196.612 1.116 0 1.92-.198 2.412-.594.504-.396.756-.93.756-1.602 0-.648-.24-1.182-.72-1.602-.48-.432-1.266-.648-2.358-.648h-1.71v-1.404h1.71c.9 0 1.56-.192 1.98-.576a1.94 1.94 0 0 0 .648-1.494c0-.6-.228-1.086-.684-1.458-.456-.372-1.134-.558-2.034-.558-.96 0-1.668.186-2.124.558-.444.36-.702.84-.774 1.44h-1.692c.048-.504.174-.972.378-1.404.216-.432.516-.804.9-1.116a4.084 4.084 0 0 1 1.404-.72c.552-.18 1.188-.27 1.908-.27 1.452 0 2.55.324 3.294.972.744.648 1.116 1.5 1.116 2.556 0 .66-.192 1.224-.576 1.692-.372.456-.87.786-1.494.99.756.18 1.362.528 1.818 1.044.468.516.702 1.182.702 1.998 0 .54-.108 1.038-.324 1.494a3.211 3.211 0 0 1-.936 1.17c-.408.324-.912.582-1.512.774-.6.18-1.296.27-2.088.27zM207.954 50.46h1.584v3.978h4.932V50.46h1.584V60h-1.584v-4.158h-4.932V60h-1.584v-9.54zM221.658 60.18c-.528 0-.996-.072-1.404-.216a3.062 3.062 0 0 1-1.008-.63 2.632 2.632 0 0 1-.63-.936 3.171 3.171 0 0 1-.216-1.188c0-.948.276-1.632.828-2.052.564-.42 1.368-.63 2.412-.63h3.096v-.648c0-.816-.186-1.38-.558-1.692-.36-.312-.906-.468-1.638-.468-.684 0-1.182.132-1.494.396-.312.252-.486.54-.522.864h-1.584c.024-.384.126-.738.306-1.062a2.89 2.89 0 0 1 .756-.864c.324-.24.708-.426 1.152-.558a4.766 4.766 0 0 1 1.476-.216c1.128 0 2.022.27 2.682.81.672.528 1.008 1.398 1.008 2.61v5.202c.012.372.042.738.09 1.098h-1.386a9.786 9.786 0 0 1-.072-.774 17.934 17.934 0 0 1-.018-.846c-.252.504-.66.93-1.224 1.278s-1.248.522-2.052.522zm.342-1.44c.372 0 .72-.048 1.044-.144.336-.108.63-.258.882-.45.252-.204.45-.45.594-.738.144-.288.216-.624.216-1.008v-.648h-2.826c-.588 0-1.05.12-1.386.36-.336.228-.504.594-.504 1.098 0 .444.156.81.468 1.098.324.288.828.432 1.512.432zM234.644 56.202a4.961 4.961 0 0 1-1.008.45c-.384.132-.87.198-1.458.198-.552 0-1.05-.06-1.494-.18a2.747 2.747 0 0 1-1.098-.576 2.493 2.493 0 0 1-.684-1.026c-.156-.42-.234-.936-.234-1.548v-3.06h1.584v2.79c0 .408.036.75.108 1.026.084.276.216.498.396.666.18.168.408.288.684.36.276.072.612.108 1.008.108.54 0 1.002-.054 1.386-.162.384-.108.654-.222.81-.342V50.46h1.584V60h-1.584v-3.798zM243.062 60.18a5.277 5.277 0 0 1-1.746-.288 4.03 4.03 0 0 1-1.458-.882 4.474 4.474 0 0 1-1.008-1.53c-.252-.612-.378-1.332-.378-2.16v-.36c0-.792.12-1.476.36-2.052.24-.588.558-1.074.954-1.458.408-.396.876-.69 1.404-.882a5.013 5.013 0 0 1 1.692-.288c1.404 0 2.49.384 3.258 1.152.768.768 1.152 1.854 1.152 3.258v1.008h-7.236c0 .564.09 1.038.27 1.422a2.67 2.67 0 0 0 1.656 1.458c.36.108.72.162 1.08.162.72 0 1.272-.12 1.656-.36.396-.24.678-.57.846-.99h1.548c-.096.456-.27.858-.522 1.206-.24.348-.54.642-.9.882-.348.228-.75.402-1.206.522a5.43 5.43 0 0 1-1.422.18zm-.09-8.46c-.372 0-.732.054-1.08.162a2.49 2.49 0 0 0-1.584 1.314c-.168.336-.252.738-.252 1.206h5.742c-.012-.492-.096-.906-.252-1.242a2.045 2.045 0 0 0-.594-.828 2.302 2.302 0 0 0-.9-.468 3.915 3.915 0 0 0-1.08-.144zM249.543 50.46h1.584v3.978h4.932V50.46h1.584V60h-1.584v-4.158h-4.932V60h-1.584v-9.54zM260.53 50.46h1.584v7.2l4.932-7.2h1.584V60h-1.584v-7.2l-4.932 7.2h-1.584v-9.54zM275.476 60.18a5.277 5.277 0 0 1-1.746-.288 4.03 4.03 0 0 1-1.458-.882 4.474 4.474 0 0 1-1.008-1.53c-.252-.612-.378-1.332-.378-2.16v-.36c0-.792.12-1.476.36-2.052.24-.588.558-1.074.954-1.458.408-.396.876-.69 1.404-.882a5.013 5.013 0 0 1 1.692-.288c1.404 0 2.49.384 3.258 1.152.768.768 1.152 1.854 1.152 3.258v1.008h-7.236c0 .564.09 1.038.27 1.422a2.67 2.67 0 0 0 1.656 1.458c.36.108.72.162 1.08.162.72 0 1.272-.12 1.656-.36.396-.24.678-.57.846-.99h1.548c-.096.456-.27.858-.522 1.206-.24.348-.54.642-.9.882-.348.228-.75.402-1.206.522a5.43 5.43 0 0 1-1.422.18zm-.09-8.46c-.372 0-.732.054-1.08.162a2.49 2.49 0 0 0-1.584 1.314c-.168.336-.252.738-.252 1.206h5.742c-.012-.492-.096-.906-.252-1.242a2.045 2.045 0 0 0-.594-.828 2.302 2.302 0 0 0-.9-.468 3.915 3.915 0 0 0-1.08-.144zM286.007 58.524h3.006v-9.27l-3.006 2.142V49.56l3.042-2.16h1.692v11.124h2.466V60h-7.2v-1.476zM200.778 94.18c-.744 0-1.404-.09-1.98-.27a4.566 4.566 0 0 1-1.476-.792 3.85 3.85 0 0 1-.972-1.188 4.097 4.097 0 0 1-.432-1.53h1.692c.096.684.42 1.236.972 1.656.552.408 1.284.612 2.196.612 1.116 0 1.92-.198 2.412-.594.504-.396.756-.93.756-1.602 0-.648-.24-1.182-.72-1.602-.48-.432-1.266-.648-2.358-.648h-1.71v-1.404h1.71c.9 0 1.56-.192 1.98-.576a1.94 1.94 0 0 0 .648-1.494c0-.6-.228-1.086-.684-1.458-.456-.372-1.134-.558-2.034-.558-.96 0-1.668.186-2.124.558-.444.36-.702.84-.774 1.44h-1.692c.048-.504.174-.972.378-1.404.216-.432.516-.804.9-1.116a4.084 4.084 0 0 1 1.404-.72c.552-.18 1.188-.27 1.908-.27 1.452 0 2.55.324 3.294.972.744.648 1.116 1.5 1.116 2.556 0 .66-.192 1.224-.576 1.692-.372.456-.87.786-1.494.99.756.18 1.362.528 1.818 1.044.468.516.702 1.182.702 1.998 0 .54-.108 1.038-.324 1.494a3.211 3.211 0 0 1-.936 1.17c-.408.324-.912.582-1.512.774-.6.18-1.296.27-2.088.27zM207.954 84.46h1.584v3.978h4.932V84.46h1.584V94h-1.584v-4.158h-4.932V94h-1.584v-9.54zM221.658 94.18c-.528 0-.996-.072-1.404-.216a3.062 3.062 0 0 1-1.008-.63 2.632 2.632 0 0 1-.63-.936 3.171 3.171 0 0 1-.216-1.188c0-.948.276-1.632.828-2.052.564-.42 1.368-.63 2.412-.63h3.096v-.648c0-.816-.186-1.38-.558-1.692-.36-.312-.906-.468-1.638-.468-.684 0-1.182.132-1.494.396-.312.252-.486.54-.522.864h-1.584c.024-.384.126-.738.306-1.062a2.89 2.89 0 0 1 .756-.864c.324-.24.708-.426 1.152-.558a4.766 4.766 0 0 1 1.476-.216c1.128 0 2.022.27 2.682.81.672.528 1.008 1.398 1.008 2.61v5.202c.012.372.042.738.09 1.098h-1.386a9.786 9.786 0 0 1-.072-.774 17.934 17.934 0 0 1-.018-.846c-.252.504-.66.93-1.224 1.278s-1.248.522-2.052.522zm.342-1.44c.372 0 .72-.048 1.044-.144.336-.108.63-.258.882-.45.252-.204.45-.45.594-.738.144-.288.216-.624.216-1.008v-.648h-2.826c-.588 0-1.05.12-1.386.36-.336.228-.504.594-.504 1.098 0 .444.156.81.468 1.098.324.288.828.432 1.512.432zM234.644 90.202a4.961 4.961 0 0 1-1.008.45c-.384.132-.87.198-1.458.198-.552 0-1.05-.06-1.494-.18a2.747 2.747 0 0 1-1.098-.576 2.493 2.493 0 0 1-.684-1.026c-.156-.42-.234-.936-.234-1.548v-3.06h1.584v2.79c0 .408.036.75.108 1.026.084.276.216.498.396.666.18.168.408.288.684.36.276.072.612.108 1.008.108.54 0 1.002-.054 1.386-.162.384-.108.654-.222.81-.342V84.46h1.584V94h-1.584v-3.798zM243.062 94.18a5.277 5.277 0 0 1-1.746-.288 4.03 4.03 0 0 1-1.458-.882 4.474 4.474 0 0 1-1.008-1.53c-.252-.612-.378-1.332-.378-2.16v-.36c0-.792.12-1.476.36-2.052.24-.588.558-1.074.954-1.458.408-.396.876-.69 1.404-.882a5.013 5.013 0 0 1 1.692-.288c1.404 0 2.49.384 3.258 1.152.768.768 1.152 1.854 1.152 3.258v1.008h-7.236c0 .564.09 1.038.27 1.422a2.67 2.67 0 0 0 1.656 1.458c.36.108.72.162 1.08.162.72 0 1.272-.12 1.656-.36.396-.24.678-.57.846-.99h1.548c-.096.456-.27.858-.522 1.206-.24.348-.54.642-.9.882-.348.228-.75.402-1.206.522a5.43 5.43 0 0 1-1.422.18zm-.09-8.46c-.372 0-.732.054-1.08.162a2.49 2.49 0 0 0-1.584 1.314c-.168.336-.252.738-.252 1.206h5.742c-.012-.492-.096-.906-.252-1.242a2.045 2.045 0 0 0-.594-.828 2.302 2.302 0 0 0-.9-.468 3.915 3.915 0 0 0-1.08-.144zM249.543 84.46h1.584v3.978h4.932V84.46h1.584V94h-1.584v-4.158h-4.932V94h-1.584v-9.54zM260.53 84.46h1.584v7.2l4.932-7.2h1.584V94h-1.584v-7.2l-4.932 7.2h-1.584v-9.54zM275.476 94.18a5.277 5.277 0 0 1-1.746-.288 4.03 4.03 0 0 1-1.458-.882 4.474 4.474 0 0 1-1.008-1.53c-.252-.612-.378-1.332-.378-2.16v-.36c0-.792.12-1.476.36-2.052.24-.588.558-1.074.954-1.458.408-.396.876-.69 1.404-.882a5.013 5.013 0 0 1 1.692-.288c1.404 0 2.49.384 3.258 1.152.768.768 1.152 1.854 1.152 3.258v1.008h-7.236c0 .564.09 1.038.27 1.422a2.67 2.67 0 0 0 1.656 1.458c.36.108.72.162 1.08.162.72 0 1.272-.12 1.656-.36.396-.24.678-.57.846-.99h1.548c-.096.456-.27.858-.522 1.206-.24.348-.54.642-.9.882-.348.228-.75.402-1.206.522a5.43 5.43 0 0 1-1.422.18zm-.09-8.46c-.372 0-.732.054-1.08.162a2.49 2.49 0 0 0-1.584 1.314c-.168.336-.252.738-.252 1.206h5.742c-.012-.492-.096-.906-.252-1.242a2.045 2.045 0 0 0-.594-.828 2.302 2.302 0 0 0-.9-.468 3.915 3.915 0 0 0-1.08-.144zM285.737 92.614l5.04-4.374c.384-.324.696-.618.936-.882.252-.264.45-.51.594-.738.144-.24.24-.474.288-.702.06-.228.09-.474.09-.738 0-.708-.21-1.29-.63-1.746-.42-.468-.996-.702-1.728-.702-.876 0-1.548.24-2.016.72-.468.468-.702 1.134-.702 1.998h-1.692c0-.612.102-1.176.306-1.692.216-.528.516-.978.9-1.35.396-.372.864-.66 1.404-.864a4.807 4.807 0 0 1 1.8-.324c.636 0 1.206.102 1.71.306.504.192.93.468 1.278.828.348.348.612.762.792 1.242.18.48.27 1.008.27 1.584 0 .432-.066.834-.198 1.206a4.29 4.29 0 0 1-.558 1.062c-.228.336-.51.666-.846.99a23.18 23.18 0 0 1-1.08.972l-3.762 3.114h6.624V94h-8.82v-1.386z" fill="#01764C"/><path d="M299.99 150.18c-.18 0-.36-.018-.54-.054v-1.656c.06.012.15.018.27.018.24 0 .45-.036.63-.108a1.11 1.11 0 0 0 .486-.432c.144-.216.264-.516.36-.9.108-.384.192-.876.252-1.476.06-.612.102-1.35.126-2.214.024-.864.036-1.89.036-3.078v-2.88h8.46V150h-1.692v-11.124h-5.076v1.764c0 1.332-.03 2.496-.09 3.492-.06.984-.15 1.83-.27 2.538-.12.708-.27 1.29-.45 1.746-.18.456-.396.816-.648 1.08-.24.252-.516.426-.828.522a3.118 3.118 0 0 1-1.026.162zM317.267 150.18a5.277 5.277 0 0 1-1.746-.288 4.249 4.249 0 0 1-1.458-.9 4.474 4.474 0 0 1-1.008-1.53c-.252-.612-.378-1.326-.378-2.142v-.36c0-.768.126-1.446.378-2.034a4.164 4.164 0 0 1 2.466-2.34 4.996 4.996 0 0 1 1.746-.306c.612 0 1.194.102 1.746.306a4.164 4.164 0 0 1 2.466 2.34c.252.588.378 1.266.378 2.034v.36c0 .816-.126 1.53-.378 2.142a4.474 4.474 0 0 1-1.008 1.53c-.42.396-.906.696-1.458.9a5.277 5.277 0 0 1-1.746.288zm0-1.44c.36 0 .72-.06 1.08-.18.36-.132.678-.33.954-.594a3.03 3.03 0 0 0 .666-1.062c.18-.432.27-.96.27-1.584v-.36c0-.576-.09-1.068-.27-1.476a2.898 2.898 0 0 0-.666-1.008 2.515 2.515 0 0 0-.954-.576c-.36-.12-.72-.18-1.08-.18-.36 0-.72.06-1.08.18-.36.12-.678.312-.954.576-.276.264-.504.6-.684 1.008-.168.408-.252.9-.252 1.476v.36c0 .624.084 1.152.252 1.584.18.432.408.786.684 1.062.276.264.594.462.954.594.36.12.72.18 1.08.18zM324.1 140.46h6.48v1.404h-4.896V150H324.1v-9.54zM332.379 140.46h1.584v7.2l4.932-7.2h1.584V150h-1.584v-7.2l-4.932 7.2h-1.584v-9.54zM348.892 146.202a4.961 4.961 0 0 1-1.008.45c-.384.132-.87.198-1.458.198-.552 0-1.05-.06-1.494-.18a2.747 2.747 0 0 1-1.098-.576 2.493 2.493 0 0 1-.684-1.026c-.156-.42-.234-.936-.234-1.548v-3.06h1.584v2.79c0 .408.036.75.108 1.026.084.276.216.498.396.666.18.168.408.288.684.36.276.072.612.108 1.008.108.54 0 1.002-.054 1.386-.162.384-.108.654-.222.81-.342v-4.446h1.584V150h-1.584v-3.798zM357.31 150.18a5.277 5.277 0 0 1-1.746-.288 4.03 4.03 0 0 1-1.458-.882 4.474 4.474 0 0 1-1.008-1.53c-.252-.612-.378-1.332-.378-2.16v-.36c0-.792.12-1.476.36-2.052.24-.588.558-1.074.954-1.458.408-.396.876-.69 1.404-.882a5.013 5.013 0 0 1 1.692-.288c1.404 0 2.49.384 3.258 1.152.768.768 1.152 1.854 1.152 3.258v1.008h-7.236c0 .564.09 1.038.27 1.422a2.67 2.67 0 0 0 1.656 1.458c.36.108.72.162 1.08.162.72 0 1.272-.12 1.656-.36.396-.24.678-.57.846-.99h1.548c-.096.456-.27.858-.522 1.206-.24.348-.54.642-.9.882-.348.228-.75.402-1.206.522a5.43 5.43 0 0 1-1.422.18zm-.09-8.46c-.372 0-.732.054-1.08.162a2.49 2.49 0 0 0-1.584 1.314c-.168.336-.252.738-.252 1.206h5.742c-.012-.492-.096-.906-.252-1.242a2.045 2.045 0 0 0-.594-.828 2.302 2.302 0 0 0-.9-.468 3.915 3.915 0 0 0-1.08-.144zM367.481 150.18a4.967 4.967 0 0 1-1.71-.288 3.776 3.776 0 0 1-1.368-.9c-.384-.408-.69-.918-.918-1.53-.216-.612-.324-1.326-.324-2.142v-.36c0-.768.12-1.446.36-2.034.24-.588.558-1.074.954-1.458.396-.396.852-.69 1.368-.882a4.507 4.507 0 0 1 1.638-.306c.564 0 1.068.078 1.512.234.456.156.846.372 1.17.648.336.276.606.6.81.972a4.2 4.2 0 0 1 .468 1.206h-1.62a3.517 3.517 0 0 0-.342-.63 1.767 1.767 0 0 0-.468-.522 2.078 2.078 0 0 0-.648-.342 2.792 2.792 0 0 0-.882-.126c-.348 0-.684.066-1.008.198a2.28 2.28 0 0 0-.864.576c-.252.252-.456.582-.612.99-.144.408-.216.9-.216 1.476v.36c0 .612.072 1.14.216 1.584.156.432.36.786.612 1.062.252.264.54.462.864.594.324.12.66.18 1.008.18.588 0 1.08-.144 1.476-.432a2.3 2.3 0 0 0 .864-1.188h1.62c-.228.948-.696 1.698-1.404 2.25-.708.54-1.56.81-2.556.81zM373.6 140.46h1.584v3.996h1.26l3.564-3.996h1.872l-4.14 4.572 4.32 4.968h-2.016l-3.6-4.176h-1.26V150H373.6v-9.54zM386.496 150.18c-.528 0-.996-.072-1.404-.216a3.062 3.062 0 0 1-1.008-.63 2.632 2.632 0 0 1-.63-.936 3.171 3.171 0 0 1-.216-1.188c0-.948.276-1.632.828-2.052.564-.42 1.368-.63 2.412-.63h3.096v-.648c0-.816-.186-1.38-.558-1.692-.36-.312-.906-.468-1.638-.468-.684 0-1.182.132-1.494.396-.312.252-.486.54-.522.864h-1.584c.024-.384.126-.738.306-1.062a2.89 2.89 0 0 1 .756-.864c.324-.24.708-.426 1.152-.558a4.766 4.766 0 0 1 1.476-.216c1.128 0 2.022.27 2.682.81.672.528 1.008 1.398 1.008 2.61v5.202c.012.372.042.738.09 1.098h-1.386a9.786 9.786 0 0 1-.072-.774 17.934 17.934 0 0 1-.018-.846c-.252.504-.66.93-1.224 1.278s-1.248.522-2.052.522zm.342-1.44c.372 0 .72-.048 1.044-.144.336-.108.63-.258.882-.45.252-.204.45-.45.594-.738.144-.288.216-.624.216-1.008v-.648h-2.826c-.588 0-1.05.12-1.386.36-.336.228-.504.594-.504 1.098 0 .444.156.81.468 1.098.324.288.828.432 1.512.432zM395.827 146.22c-.792-.18-1.362-.504-1.71-.972-.348-.48-.522-1.092-.522-1.836 0-.936.282-1.662.846-2.178.576-.516 1.494-.774 2.754-.774h4.14V150h-1.584v-3.636h-2.43L394.999 150h-1.764l2.592-3.78zm-.648-2.808c0 .504.144.888.432 1.152.3.264.798.396 1.494.396h2.646v-3.096h-2.646c-.696 0-1.194.132-1.494.396-.288.264-.432.648-.432 1.152zM413.149 150.18c-1.656 0-2.916-.42-3.78-1.26-.852-.84-1.278-2.034-1.278-3.582v-.36c0-1.476.426-2.628 1.278-3.456.864-.828 2.124-1.242 3.78-1.242v-2.88h1.584v2.88c1.656 0 2.91.414 3.762 1.242.864.828 1.296 1.98 1.296 3.456v.36c0 1.548-.432 2.742-1.296 3.582-.852.84-2.106 1.26-3.762 1.26v3.42h-1.584v-3.42zm5.022-5.202c0-1.092-.282-1.908-.846-2.448-.552-.54-1.422-.81-2.61-.81v7.02c1.188 0 2.058-.276 2.61-.828.564-.552.846-1.41.846-2.574v-.36zm-8.46.36c0 1.164.276 2.022.828 2.574.564.552 1.44.828 2.628.828v-7.02c-1.188 0-2.064.27-2.628.81-.552.54-.828 1.356-.828 2.448v.36zM422.954 153.78c-.18 0-.36-.018-.54-.054v-1.44c.18.036.36.054.54.054.18 0 .336-.03.468-.09a.991.991 0 0 0 .378-.342c.12-.168.246-.408.378-.72.144-.3.306-.696.486-1.188l-4.05-9.54h1.764l3.096 7.74 2.808-7.74h1.692l-3.6 9.54a22.481 22.481 0 0 1-.72 1.728c-.228.48-.474.87-.738 1.17a2.194 2.194 0 0 1-.846.666c-.312.144-.684.216-1.116.216zM431.766 140.46h1.584v3.978h4.932v-3.978h1.584V150h-1.584v-4.158h-4.932V150h-1.584v-9.54zM442.752 140.46h1.584v3.996h1.26l3.564-3.996h1.872l-4.14 4.572 4.32 4.968h-2.016l-3.6-4.176h-1.26V150h-1.584v-9.54zM460.864 150h-7.758v-9.54h1.584v8.136h4.572v-8.136h1.584v8.136h1.53v3.654h-1.512V150zM464.268 140.46h1.584v7.2l4.932-7.2h1.584V150h-1.584v-7.2l-4.932 7.2h-1.584v-9.54zM477.126 146.22c-.792-.18-1.362-.504-1.71-.972-.348-.48-.522-1.092-.522-1.836 0-.936.282-1.662.846-2.178.576-.516 1.494-.774 2.754-.774h4.14V150h-1.584v-3.636h-2.43L476.298 150h-1.764l2.592-3.78zm-.648-2.808c0 .504.144.888.432 1.152.3.264.798.396 1.494.396h2.646v-3.096h-2.646c-.696 0-1.194.132-1.494.396-.288.264-.432.648-.432 1.152zM490.02 140.46h1.476v1.8c.324-.636.774-1.122 1.35-1.458.588-.348 1.266-.522 2.034-.522 1.2 0 2.16.396 2.88 1.188.72.78 1.08 1.944 1.08 3.492v.36c0 .816-.096 1.53-.288 2.142-.192.6-.462 1.104-.81 1.512a3.376 3.376 0 0 1-1.26.9 4.056 4.056 0 0 1-1.602.306c-.816 0-1.5-.18-2.052-.54-.54-.36-.948-.81-1.224-1.35v5.31h-1.584v-13.14zm4.5 8.316c.384 0 .744-.072 1.08-.216.336-.156.624-.378.864-.666.252-.288.444-.648.576-1.08.144-.432.216-.93.216-1.494v-.36c0-.516-.072-.978-.216-1.386a2.755 2.755 0 0 0-.576-1.026 2.282 2.282 0 0 0-.864-.648 2.712 2.712 0 0 0-1.08-.216c-.432 0-.828.072-1.188.216a2.49 2.49 0 0 0-.918.576c-.252.24-.45.528-.594.864a2.712 2.712 0 0 0-.216 1.08v1.44c0 .432.072.828.216 1.188.144.36.342.666.594.918.252.252.558.45.918.594.36.144.756.216 1.188.216zM503.812 150.18c-.528 0-.996-.072-1.404-.216a3.062 3.062 0 0 1-1.008-.63 2.632 2.632 0 0 1-.63-.936 3.171 3.171 0 0 1-.216-1.188c0-.948.276-1.632.828-2.052.564-.42 1.368-.63 2.412-.63h3.096v-.648c0-.816-.186-1.38-.558-1.692-.36-.312-.906-.468-1.638-.468-.684 0-1.182.132-1.494.396-.312.252-.486.54-.522.864h-1.584c.024-.384.126-.738.306-1.062a2.89 2.89 0 0 1 .756-.864c.324-.24.708-.426 1.152-.558a4.766 4.766 0 0 1 1.476-.216c1.128 0 2.022.27 2.682.81.672.528 1.008 1.398 1.008 2.61v5.202c.012.372.042.738.09 1.098h-1.386a9.786 9.786 0 0 1-.072-.774 17.934 17.934 0 0 1-.018-.846c-.252.504-.66.93-1.224 1.278s-1.248.522-2.052.522zm.342-1.44c.372 0 .72-.048 1.044-.144.336-.108.63-.258.882-.45.252-.204.45-.45.594-.738.144-.288.216-.624.216-1.008v-.648h-2.826c-.588 0-1.05.12-1.386.36-.336.228-.504.594-.504 1.098 0 .444.156.81.468 1.098.324.288.828.432 1.512.432zM511.272 140.46h4.14c1.176 0 2.04.246 2.592.738.552.48.828 1.104.828 1.872 0 .204-.036.414-.108.63a2.22 2.22 0 0 1-.306.576c-.12.18-.27.336-.45.468-.168.132-.36.234-.576.306.588.144 1.032.42 1.332.828.312.396.468.864.468 1.404 0 .828-.276 1.488-.828 1.98-.552.492-1.416.738-2.592.738h-4.5v-9.54zm4.5 8.136c.672 0 1.146-.12 1.422-.36s.414-.582.414-1.026c0-.456-.138-.804-.414-1.044-.276-.252-.75-.378-1.422-.378h-2.916v2.808h2.916zm-.36-4.104c.684 0 1.158-.12 1.422-.36.276-.24.414-.57.414-.99 0-.396-.138-.708-.414-.936-.264-.228-.738-.342-1.422-.342h-2.556v2.628h2.556zM525.41 150.18a5.277 5.277 0 0 1-1.746-.288 4.03 4.03 0 0 1-1.458-.882 4.474 4.474 0 0 1-1.008-1.53c-.252-.612-.378-1.332-.378-2.16v-.36c0-.792.12-1.476.36-2.052.24-.588.558-1.074.954-1.458.408-.396.876-.69 1.404-.882a5.013 5.013 0 0 1 1.692-.288c1.404 0 2.49.384 3.258 1.152.768.768 1.152 1.854 1.152 3.258v1.008h-7.236c0 .564.09 1.038.27 1.422a2.67 2.67 0 0 0 1.656 1.458c.36.108.72.162 1.08.162.72 0 1.272-.12 1.656-.36.396-.24.678-.57.846-.99h1.548c-.096.456-.27.858-.522 1.206-.24.348-.54.642-.9.882-.348.228-.75.402-1.206.522a5.43 5.43 0 0 1-1.422.18zm-.09-8.46c-.372 0-.732.054-1.08.162a2.49 2.49 0 0 0-1.584 1.314c-.168.336-.252.738-.252 1.206h5.742c-.012-.492-.096-.906-.252-1.242a2.045 2.045 0 0 0-.594-.828 2.302 2.302 0 0 0-.9-.468 3.915 3.915 0 0 0-1.08-.144zM531.891 140.46h1.584v3.978h4.932v-3.978h1.584V150h-1.584v-4.158h-4.932V150h-1.584v-9.54zM546.567 150.18a4.967 4.967 0 0 1-1.71-.288 3.776 3.776 0 0 1-1.368-.9c-.384-.408-.69-.918-.918-1.53-.216-.612-.324-1.326-.324-2.142v-.36c0-.768.12-1.446.36-2.034.24-.588.558-1.074.954-1.458.396-.396.852-.69 1.368-.882a4.507 4.507 0 0 1 1.638-.306c.564 0 1.068.078 1.512.234.456.156.846.372 1.17.648.336.276.606.6.81.972a4.2 4.2 0 0 1 .468 1.206h-1.62a3.517 3.517 0 0 0-.342-.63 1.767 1.767 0 0 0-.468-.522 2.078 2.078 0 0 0-.648-.342 2.792 2.792 0 0 0-.882-.126c-.348 0-.684.066-1.008.198a2.28 2.28 0 0 0-.864.576c-.252.252-.456.582-.612.99-.144.408-.216.9-.216 1.476v.36c0 .612.072 1.14.216 1.584.156.432.36.786.612 1.062.252.264.54.462.864.594.324.12.66.18 1.008.18.588 0 1.08-.144 1.476-.432a2.3 2.3 0 0 0 .864-1.188h1.62c-.228.948-.696 1.698-1.404 2.25-.708.54-1.56.81-2.556.81zM554.864 141.864h-3.258v-1.404h8.1v1.404h-3.258V150h-1.584v-8.136zM561.51 140.46h4.14c1.176 0 2.04.246 2.592.738.552.48.828 1.104.828 1.872 0 .204-.036.414-.108.63a2.22 2.22 0 0 1-.306.576c-.12.18-.27.336-.45.468-.168.132-.36.234-.576.306.588.144 1.032.42 1.332.828.312.396.468.864.468 1.404 0 .828-.276 1.488-.828 1.98-.552.492-1.416.738-2.592.738h-4.5v-9.54zm4.5 8.136c.672 0 1.146-.12 1.422-.36s.414-.582.414-1.026c0-.456-.138-.804-.414-1.044-.276-.252-.75-.378-1.422-.378h-2.916v2.808h2.916zm-.36-4.104c.684 0 1.158-.12 1.422-.36.276-.24.414-.57.414-.99 0-.396-.138-.708-.414-.936-.264-.228-.738-.342-1.422-.342h-2.556v2.628h2.556zM574.406 150.18c-.528 0-.996-.072-1.404-.216a3.062 3.062 0 0 1-1.008-.63 2.632 2.632 0 0 1-.63-.936 3.171 3.171 0 0 1-.216-1.188c0-.948.276-1.632.828-2.052.564-.42 1.368-.63 2.412-.63h3.096v-.648c0-.816-.186-1.38-.558-1.692-.36-.312-.906-.468-1.638-.468-.684 0-1.182.132-1.494.396-.312.252-.486.54-.522.864h-1.584c.024-.384.126-.738.306-1.062a2.89 2.89 0 0 1 .756-.864c.324-.24.708-.426 1.152-.558a4.766 4.766 0 0 1 1.476-.216c1.128 0 2.022.27 2.682.81.672.528 1.008 1.398 1.008 2.61v5.202c.012.372.042.738.09 1.098h-1.386a9.786 9.786 0 0 1-.072-.774 17.934 17.934 0 0 1-.018-.846c-.252.504-.66.93-1.224 1.278s-1.248.522-2.052.522zm.342-1.44c.372 0 .72-.048 1.044-.144.336-.108.63-.258.882-.45.252-.204.45-.45.594-.738.144-.288.216-.624.216-1.008v-.648h-2.826c-.588 0-1.05.12-1.386.36-.336.228-.504.594-.504 1.098 0 .444.156.81.468 1.098.324.288.828.432 1.512.432z" fill="#0229B4"/><path fill-rule="evenodd" clip-rule="evenodd" d="M515.2 34H364.8c-.873 0-1.408.002-1.808.034a2.562 2.562 0 0 0-.367.05.601.601 0 0 0-.079.025 1.001 1.001 0 0 0-.437.437l-.007.016c-.003.01-.01.03-.017.063a2.389 2.389 0 0 0-.051.367c-.033.4-.034.935-.034 1.808v72.4c0 .873.001 1.408.034 1.808.015.186.034.299.051.367.007.033.014.053.017.063a1.003 1.003 0 0 0 .459.459.451.451 0 0 0 .064.018c.068.016.181.036.367.051.4.032.935.034 1.808.034h150.4c.873 0 1.407-.002 1.807-.034.187-.015.299-.035.368-.051a.468.468 0 0 0 .063-.018l.013-.005.003-.001c.188-.096.341-.249.437-.437l.006-.016c.004-.01.01-.03.018-.063.016-.068.035-.181.051-.367.032-.4.034-.935.034-1.808V36.8c0-.873-.002-1.408-.034-1.807a2.68 2.68 0 0 0-.051-.368.645.645 0 0 0-.018-.063l-.005-.014-.001-.002a1.001 1.001 0 0 0-.437-.437s-.005-.003-.016-.006a.637.637 0 0 0-.063-.018 2.583 2.583 0 0 0-.368-.05c-.4-.033-.934-.035-1.807-.035zm-154.873-.362C360 34.28 360 35.12 360 36.8v72.4c0 1.68 0 2.52.327 3.162a2.998 2.998 0 0 0 1.311 1.311c.642.327 1.482.327 3.162.327h150.4c1.68 0 2.52 0 3.162-.327a3.009 3.009 0 0 0 1.311-1.311c.327-.642.327-1.482.327-3.162V36.8c0-1.68 0-2.52-.327-3.162a3.004 3.004 0 0 0-1.311-1.311C517.72 32 516.88 32 515.2 32H364.8c-1.68 0-2.52 0-3.162.327a2.994 2.994 0 0 0-1.311 1.311zM568 73h-48v-2h48v2zM360 56h-48v-2h48v2zM360 90h-48v-2h48v2z" fill="#0229B4"/><path d="M429.8 66.4h8.1v1.476h-6.408v3.906h5.868v1.476h-5.868v4.266h6.408V79h-8.1V66.4zM445.558 79.18c-.72 0-1.416-.12-2.088-.36a4.956 4.956 0 0 1-1.782-1.152c-.516-.516-.93-1.176-1.242-1.98-.312-.804-.468-1.77-.468-2.898v-.36c0-1.08.156-2.01.468-2.79.312-.78.726-1.422 1.242-1.926a4.756 4.756 0 0 1 1.782-1.134 6.162 6.162 0 0 1 2.088-.36c.72 0 1.416.12 2.088.36.672.24 1.266.618 1.782 1.134.516.504.93 1.146 1.242 1.926.312.78.468 1.71.468 2.79v.36c0 1.02-.126 1.902-.378 2.646-.252.732-.588 1.356-1.008 1.872l1.206 1.206-1.026 1.026-1.26-1.242a5.12 5.12 0 0 1-1.476.666 6.197 6.197 0 0 1-1.638.216zm0-1.512a4 4 0 0 0 1.008-.126c.336-.096.648-.234.936-.414l-1.944-1.962 1.026-1.026 1.944 1.962c.252-.384.45-.846.594-1.386.144-.552.216-1.194.216-1.926v-.36c0-.828-.108-1.536-.324-2.124-.204-.6-.48-1.086-.828-1.458a3.2 3.2 0 0 0-1.206-.846c-.456-.18-.93-.27-1.422-.27-.492 0-.966.09-1.422.27a3.2 3.2 0 0 0-1.206.846c-.348.372-.63.858-.846 1.458-.204.588-.306 1.296-.306 2.124v.36c0 .876.102 1.626.306 2.25.216.612.498 1.116.846 1.512a3.2 3.2 0 0 0 1.206.846c.456.18.93.27 1.422.27z" fill="#0229B4"/></svg>