<svg width="880" height="188" viewBox="0 0 880 188" fill="none" xmlns="http://www.w3.org/2000/svg">
<path d="M0 8C0 5.19974 0 3.79961 0.544967 2.73005C1.02433 1.78924 1.78924 1.02433 2.73005 0.544967C3.79961 0 5.19974 0 8 0H872C874.8 0 876.2 0 877.27 0.544967C878.211 1.02433 878.976 1.78924 879.455 2.73005C880 3.79961 880 5.19974 880 8V180C880 182.8 880 184.2 879.455 185.27C878.976 186.211 878.211 186.976 877.27 187.455C876.2 188 874.8 188 872 188H7.99999C5.19973 188 3.79961 188 2.73005 187.455C1.78924 186.976 1.02433 186.211 0.544967 185.27C0 184.2 0 182.8 0 180V8Z" fill="white"/>
<path d="M585.8 79.3999H590.12C590.948 79.3999 591.668 79.4959 592.28 79.6879C592.892 79.8799 593.396 80.1499 593.792 80.4979C594.2 80.8339 594.5 81.2419 594.692 81.7219C594.884 82.1899 594.98 82.7059 594.98 83.2699C594.98 83.8339 594.884 84.3559 594.692 84.8359C594.5 85.3039 594.2 85.7119 593.792 86.0599C593.396 86.3959 592.892 86.6599 592.28 86.8519C591.668 87.0439 590.948 87.1399 590.12 87.1399H587.492V91.9999H585.8V79.3999ZM590.03 85.6639C590.63 85.6639 591.134 85.6099 591.542 85.5019C591.962 85.3819 592.298 85.2199 592.55 85.0159C592.814 84.8119 593 84.5599 593.108 84.2599C593.228 83.9599 593.288 83.6299 593.288 83.2699C593.288 82.9099 593.228 82.5799 593.108 82.2799C593 81.9799 592.814 81.7279 592.55 81.5239C592.298 81.3199 591.962 81.1639 591.542 81.0559C591.134 80.9359 590.63 80.8759 590.03 80.8759H587.492V85.6639H590.03Z" fill="#01764C"/>
<path d="M601.019 92.1799C600.407 92.1799 599.825 92.0839 599.273 91.8919C598.721 91.6999 598.235 91.4059 597.815 91.0099C597.395 90.6019 597.059 90.0919 596.807 89.4799C596.555 88.8679 596.429 88.1479 596.429 87.3199V86.9599C596.429 86.1679 596.549 85.4839 596.789 84.9079C597.029 84.3199 597.347 83.8339 597.743 83.4499C598.151 83.0539 598.619 82.7599 599.147 82.5679C599.687 82.3759 600.251 82.2799 600.839 82.2799C602.243 82.2799 603.329 82.6639 604.097 83.4319C604.865 84.1999 605.249 85.2859 605.249 86.6899V87.6979H598.013C598.013 88.2619 598.103 88.7359 598.283 89.1199C598.463 89.5039 598.697 89.8159 598.985 90.0559C599.273 90.2959 599.591 90.4699 599.939 90.5779C600.299 90.6859 600.659 90.7399 601.019 90.7399C601.739 90.7399 602.291 90.6199 602.675 90.3799C603.071 90.1399 603.353 89.8099 603.521 89.3899H605.069C604.973 89.8459 604.799 90.2479 604.547 90.5959C604.307 90.9439 604.007 91.2379 603.647 91.4779C603.299 91.7059 602.897 91.8799 602.441 91.9999C601.997 92.1199 601.523 92.1799 601.019 92.1799ZM600.929 83.7199C600.557 83.7199 600.197 83.7739 599.849 83.8819C599.501 83.9779 599.189 84.1399 598.913 84.3679C598.649 84.5839 598.433 84.8599 598.265 85.1959C598.097 85.5319 598.013 85.9339 598.013 86.4019H603.755C603.743 85.9099 603.659 85.4959 603.503 85.1599C603.359 84.8119 603.161 84.5359 602.909 84.3319C602.657 84.1159 602.357 83.9599 602.009 83.8639C601.673 83.7679 601.313 83.7199 600.929 83.7199Z" fill="#01764C"/>
<path d="M610.74 92.1799C609.54 92.1799 608.598 91.9279 607.914 91.4239C607.23 90.9199 606.852 90.2119 606.78 89.2999H608.364C608.448 89.7679 608.694 90.1279 609.102 90.3799C609.522 90.6199 610.068 90.7399 610.74 90.7399C611.568 90.7399 612.168 90.6019 612.54 90.3259C612.924 90.0379 613.116 89.6959 613.116 89.2999C613.116 88.8319 612.96 88.4659 612.648 88.2019C612.336 87.9259 611.796 87.7879 611.028 87.7879H609.39V86.4919H610.92C611.58 86.4919 612.048 86.3659 612.324 86.1139C612.612 85.8619 612.756 85.5079 612.756 85.0519C612.756 84.6919 612.588 84.3799 612.252 84.1159C611.916 83.8519 611.412 83.7199 610.74 83.7199C610.008 83.7199 609.474 83.8399 609.138 84.0799C608.814 84.3079 608.616 84.6379 608.544 85.0699H606.96C606.996 84.6739 607.104 84.3079 607.284 83.9719C607.476 83.6239 607.734 83.3239 608.058 83.0719C608.382 82.8199 608.766 82.6279 609.21 82.4959C609.666 82.3519 610.176 82.2799 610.74 82.2799C611.352 82.2799 611.88 82.3519 612.324 82.4959C612.78 82.6279 613.158 82.8199 613.458 83.0719C613.758 83.3119 613.98 83.5999 614.124 83.9359C614.268 84.2719 614.34 84.6439 614.34 85.0519C614.34 85.5079 614.226 85.9099 613.998 86.2579C613.77 86.5939 613.404 86.8579 612.9 87.0499C613.572 87.2299 614.04 87.5179 614.304 87.9139C614.568 88.3099 614.7 88.7719 614.7 89.2999C614.7 89.6959 614.616 90.0679 614.448 90.4159C614.28 90.7639 614.028 91.0699 613.692 91.3339C613.368 91.5859 612.954 91.7899 612.45 91.9459C611.958 92.1019 611.388 92.1799 610.74 92.1799Z" fill="#01764C"/>
<path d="M617.866 95.7799C617.686 95.7799 617.506 95.7619 617.326 95.7259V94.2859C617.506 94.3219 617.686 94.3399 617.866 94.3399C618.046 94.3399 618.202 94.3099 618.334 94.2499C618.466 94.1899 618.592 94.0759 618.712 93.9079C618.832 93.7399 618.958 93.4999 619.09 93.1879C619.234 92.8879 619.396 92.4919 619.576 91.9999L615.526 82.4599H617.29L620.386 90.1999L623.194 82.4599H624.886L621.286 91.9999C621.034 92.6719 620.794 93.2479 620.566 93.7279C620.338 94.2079 620.092 94.5979 619.828 94.8979C619.576 95.2099 619.294 95.4319 618.982 95.5639C618.67 95.7079 618.298 95.7799 617.866 95.7799Z" fill="#01764C"/>
<path d="M625.877 92.1799C625.697 92.1799 625.517 92.1619 625.337 92.1259V90.5419C625.397 90.5539 625.487 90.5599 625.607 90.5599C625.871 90.5599 626.099 90.4759 626.291 90.3079C626.495 90.1399 626.657 89.8459 626.777 89.4259C626.897 89.0059 626.987 88.4359 627.047 87.7159C627.107 86.9959 627.137 86.0839 627.137 84.9799V82.4599H633.977V91.9999H632.393V83.8639H628.721V85.3399C628.721 86.6719 628.661 87.7759 628.541 88.6519C628.421 89.5279 628.241 90.2299 628.001 90.7579C627.773 91.2739 627.479 91.6399 627.119 91.8559C626.759 92.0719 626.345 92.1799 625.877 92.1799Z" fill="#01764C"/>
<path d="M636.856 82.4599H638.44V86.0599H640.726C641.926 86.0599 642.808 86.3239 643.372 86.8519C643.948 87.3799 644.236 88.1119 644.236 89.0479C644.236 89.9599 643.948 90.6799 643.372 91.2079C642.808 91.7359 641.926 91.9999 640.726 91.9999H636.856V82.4599ZM640.636 90.5959C641.38 90.5959 641.902 90.4639 642.202 90.1999C642.502 89.9359 642.652 89.5459 642.652 89.0299C642.652 88.5139 642.502 88.1239 642.202 87.8599C641.902 87.5959 641.38 87.4639 640.636 87.4639H638.44V90.5959H640.636Z" fill="#01764C"/>
<path d="M647.594 83.8639H644.336V82.4599H652.436V83.8639H649.178V91.9999H647.594V83.8639Z" fill="#01764C"/>
<path d="M656.607 92.1799C656.079 92.1799 655.611 92.1079 655.203 91.9639C654.807 91.8079 654.471 91.5979 654.195 91.3339C653.919 91.0699 653.709 90.7579 653.565 90.3979C653.421 90.0379 653.349 89.6419 653.349 89.2099C653.349 88.2619 653.625 87.5779 654.177 87.1579C654.741 86.7379 655.545 86.5279 656.589 86.5279H659.685V85.8799C659.685 85.0639 659.499 84.4999 659.127 84.1879C658.767 83.8759 658.221 83.7199 657.489 83.7199C656.805 83.7199 656.307 83.8519 655.995 84.1159C655.683 84.3679 655.509 84.6559 655.473 84.9799H653.889C653.913 84.5959 654.015 84.2419 654.195 83.9179C654.387 83.5819 654.639 83.2939 654.951 83.0539C655.275 82.8139 655.659 82.6279 656.103 82.4959C656.547 82.3519 657.039 82.2799 657.579 82.2799C658.707 82.2799 659.601 82.5499 660.261 83.0899C660.933 83.6179 661.269 84.4879 661.269 85.6999V89.5699C661.269 90.0739 661.269 90.5179 661.269 90.9019C661.281 91.2739 661.311 91.6399 661.359 91.9999H659.973C659.937 91.7239 659.913 91.4659 659.901 91.2259C659.889 90.9739 659.883 90.6919 659.883 90.3799C659.631 90.8839 659.223 91.3099 658.659 91.6579C658.095 92.0059 657.411 92.1799 656.607 92.1799ZM656.949 90.7399C657.321 90.7399 657.669 90.6919 657.993 90.5959C658.329 90.4879 658.623 90.3379 658.875 90.1459C659.127 89.9419 659.325 89.6959 659.469 89.4079C659.613 89.1199 659.685 88.7839 659.685 88.3999V87.7519H656.859C656.271 87.7519 655.809 87.8719 655.473 88.1119C655.137 88.3399 654.969 88.7059 654.969 89.2099C654.969 89.6539 655.125 90.0199 655.437 90.3079C655.761 90.5959 656.265 90.7399 656.949 90.7399Z" fill="#01764C"/>
<path d="M666.069 83.8639H662.811V82.4599H670.911V83.8639H667.653V91.9999H666.069V83.8639Z" fill="#01764C"/>
<path d="M585.8 52.3999H590.3C591.056 52.3999 591.704 52.4839 592.244 52.6519C592.784 52.8199 593.228 53.0539 593.576 53.3539C593.936 53.6419 594.2 53.9959 594.368 54.4159C594.536 54.8239 594.62 55.2739 594.62 55.7659C594.62 56.4139 594.44 56.9719 594.08 57.4399C593.72 57.8959 593.276 58.2259 592.748 58.4299C593.492 58.5979 594.08 58.9399 594.512 59.4559C594.944 59.9599 595.16 60.6199 595.16 61.4359C595.16 61.9519 595.076 62.4259 594.908 62.8579C594.74 63.2899 594.476 63.6679 594.116 63.9919C593.756 64.3039 593.288 64.5499 592.712 64.7299C592.148 64.9099 591.464 64.9999 590.66 64.9999H585.8V52.3999ZM590.66 63.5239C591.2 63.5239 591.65 63.4759 592.01 63.3799C592.37 63.2719 592.658 63.1279 592.874 62.9479C593.09 62.7559 593.24 62.5279 593.324 62.2639C593.42 61.9999 593.468 61.7059 593.468 61.3819C593.468 61.0579 593.42 60.7639 593.324 60.4999C593.24 60.2239 593.09 59.9959 592.874 59.8159C592.658 59.6239 592.364 59.4799 591.992 59.3839C591.632 59.2759 591.182 59.2219 590.642 59.2219H587.492V63.5239H590.66ZM590.3 57.8179C590.804 57.8179 591.224 57.7699 591.56 57.6739C591.896 57.5779 592.166 57.4399 592.37 57.2599C592.574 57.0799 592.718 56.8699 592.802 56.6299C592.886 56.3899 592.928 56.1259 592.928 55.8379C592.928 55.5499 592.886 55.2859 592.802 55.0459C592.718 54.7939 592.574 54.5839 592.37 54.4159C592.166 54.2479 591.896 54.1159 591.56 54.0199C591.224 53.9239 590.804 53.8759 590.3 53.8759H587.492V57.8179H590.3Z" fill="#001357"/>
<path d="M597.498 55.4599H599.082V59.0599H601.008C602.208 59.0599 603.09 59.3239 603.654 59.8519C604.23 60.3799 604.518 61.1119 604.518 62.0479C604.518 62.9599 604.23 63.6799 603.654 64.2079C603.09 64.7359 602.208 64.9999 601.008 64.9999H597.498V55.4599ZM600.918 63.5959C601.662 63.5959 602.184 63.4639 602.484 63.1999C602.784 62.9359 602.934 62.5459 602.934 62.0299C602.934 61.5139 602.784 61.1239 602.484 60.8599C602.184 60.5959 601.662 60.4639 600.918 60.4639H599.082V63.5959H600.918ZM605.994 55.4599H607.578V64.9999H605.994V55.4599Z" fill="#001357"/>
<path d="M613.045 60.1579L609.643 55.4599H611.479L613.999 58.9339L616.519 55.4599H618.283L614.881 60.0679L618.463 64.9999H616.591L613.927 61.2739L611.263 64.9999H609.463L613.045 60.1579Z" fill="#001357"/>
<path d="M623.958 65.1799C623.346 65.1799 622.764 65.0839 622.212 64.8919C621.66 64.6879 621.174 64.3879 620.754 63.9919C620.334 63.5839 619.998 63.0739 619.746 62.4619C619.494 61.8499 619.368 61.1359 619.368 60.3199V59.9599C619.368 59.1919 619.494 58.5139 619.746 57.9259C619.998 57.3379 620.334 56.8519 620.754 56.4679C621.174 56.0719 621.66 55.7779 622.212 55.5859C622.764 55.3819 623.346 55.2799 623.958 55.2799C624.57 55.2799 625.152 55.3819 625.704 55.5859C626.256 55.7779 626.742 56.0719 627.162 56.4679C627.582 56.8519 627.918 57.3379 628.17 57.9259C628.422 58.5139 628.548 59.1919 628.548 59.9599V60.3199C628.548 61.1359 628.422 61.8499 628.17 62.4619C627.918 63.0739 627.582 63.5839 627.162 63.9919C626.742 64.3879 626.256 64.6879 625.704 64.8919C625.152 65.0839 624.57 65.1799 623.958 65.1799ZM623.958 63.7399C624.318 63.7399 624.678 63.6799 625.038 63.5599C625.398 63.4279 625.716 63.2299 625.992 62.9659C626.268 62.6899 626.49 62.3359 626.658 61.9039C626.838 61.4719 626.928 60.9439 626.928 60.3199V59.9599C626.928 59.3839 626.838 58.8919 626.658 58.4839C626.49 58.0759 626.268 57.7399 625.992 57.4759C625.716 57.2119 625.398 57.0199 625.038 56.8999C624.678 56.7799 624.318 56.7199 623.958 56.7199C623.598 56.7199 623.238 56.7799 622.878 56.8999C622.518 57.0199 622.2 57.2119 621.924 57.4759C621.648 57.7399 621.42 58.0759 621.24 58.4839C621.072 58.8919 620.988 59.3839 620.988 59.9599V60.3199C620.988 60.9439 621.072 61.4719 621.24 61.9039C621.42 62.3359 621.648 62.6899 621.924 62.9659C622.2 63.2299 622.518 63.4279 622.878 63.5599C623.238 63.6799 623.598 63.7399 623.958 63.7399Z" fill="#001357"/>
<path d="M629.536 63.5959H630.706C630.838 63.4159 630.958 63.1399 631.066 62.7679C631.174 62.3959 631.27 61.9579 631.354 61.4539C631.438 60.9499 631.498 60.4039 631.534 59.8159C631.582 59.2159 631.606 58.6039 631.606 57.9799V55.4599H638.266V63.5959H639.616V67.2499H638.104V64.9999H631.048V67.2499H629.536V63.5959ZM636.682 63.5959V56.8639H633.154V58.3399C633.154 58.8439 633.136 59.3479 633.1 59.8519C633.064 60.3439 633.01 60.8179 632.938 61.2739C632.866 61.7179 632.776 62.1439 632.668 62.5519C632.572 62.9479 632.458 63.2959 632.326 63.5959H636.682Z" fill="#001357"/>
<path d="M126.8 65.3999H131.3C132.056 65.3999 132.704 65.4839 133.244 65.6519C133.784 65.8199 134.228 66.0539 134.576 66.3539C134.936 66.6419 135.2 66.9959 135.368 67.4159C135.536 67.8239 135.62 68.2739 135.62 68.7659C135.62 69.4139 135.44 69.9719 135.08 70.4399C134.72 70.8959 134.276 71.2259 133.748 71.4299C134.492 71.5979 135.08 71.9399 135.512 72.4559C135.944 72.9599 136.16 73.6199 136.16 74.4359C136.16 74.9519 136.076 75.4259 135.908 75.8579C135.74 76.2899 135.476 76.6679 135.116 76.9919C134.756 77.3039 134.288 77.5499 133.712 77.7299C133.148 77.9099 132.464 77.9999 131.66 77.9999H126.8V65.3999ZM131.66 76.5239C132.2 76.5239 132.65 76.4759 133.01 76.3799C133.37 76.2719 133.658 76.1279 133.874 75.9479C134.09 75.7559 134.24 75.5279 134.324 75.2639C134.42 74.9999 134.468 74.7059 134.468 74.3819C134.468 74.0579 134.42 73.7639 134.324 73.4999C134.24 73.2239 134.09 72.9959 133.874 72.8159C133.658 72.6239 133.364 72.4799 132.992 72.3839C132.632 72.2759 132.182 72.2219 131.642 72.2219H128.492V76.5239H131.66ZM131.3 70.8179C131.804 70.8179 132.224 70.7699 132.56 70.6739C132.896 70.5779 133.166 70.4399 133.37 70.2599C133.574 70.0799 133.718 69.8699 133.802 69.6299C133.886 69.3899 133.928 69.1259 133.928 68.8379C133.928 68.5499 133.886 68.2859 133.802 68.0459C133.718 67.7939 133.574 67.5839 133.37 67.4159C133.166 67.2479 132.896 67.1159 132.56 67.0199C132.224 66.9239 131.804 66.8759 131.3 66.8759H128.492V70.8179H131.3Z" fill="#001357"/>
<path d="M140.915 73.1579L137.513 68.4599H139.349L141.869 71.9339L144.389 68.4599H146.153L142.751 73.0679L146.333 77.9999H144.461L141.797 74.2739L139.133 77.9999H137.333L140.915 73.1579Z" fill="#001357"/>
<path d="M151.828 78.1799C151.216 78.1799 150.634 78.0839 150.082 77.8919C149.53 77.6879 149.044 77.3879 148.624 76.9919C148.204 76.5839 147.868 76.0739 147.616 75.4619C147.364 74.8499 147.238 74.1359 147.238 73.3199V72.9599C147.238 72.1919 147.364 71.5139 147.616 70.9259C147.868 70.3379 148.204 69.8519 148.624 69.4679C149.044 69.0719 149.53 68.7779 150.082 68.5859C150.634 68.3819 151.216 68.2799 151.828 68.2799C152.44 68.2799 153.022 68.3819 153.574 68.5859C154.126 68.7779 154.612 69.0719 155.032 69.4679C155.452 69.8519 155.788 70.3379 156.04 70.9259C156.292 71.5139 156.418 72.1919 156.418 72.9599V73.3199C156.418 74.1359 156.292 74.8499 156.04 75.4619C155.788 76.0739 155.452 76.5839 155.032 76.9919C154.612 77.3879 154.126 77.6879 153.574 77.8919C153.022 78.0839 152.44 78.1799 151.828 78.1799ZM151.828 76.7399C152.188 76.7399 152.548 76.6799 152.908 76.5599C153.268 76.4279 153.586 76.2299 153.862 75.9659C154.138 75.6899 154.36 75.3359 154.528 74.9039C154.708 74.4719 154.798 73.9439 154.798 73.3199V72.9599C154.798 72.3839 154.708 71.8919 154.528 71.4839C154.36 71.0759 154.138 70.7399 153.862 70.4759C153.586 70.2119 153.268 70.0199 152.908 69.8999C152.548 69.7799 152.188 69.7199 151.828 69.7199C151.468 69.7199 151.108 69.7799 150.748 69.8999C150.388 70.0199 150.07 70.2119 149.794 70.4759C149.518 70.7399 149.29 71.0759 149.11 71.4839C148.942 71.8919 148.858 72.3839 148.858 72.9599V73.3199C148.858 73.9439 148.942 74.4719 149.11 74.9039C149.29 75.3359 149.518 75.6899 149.794 75.9659C150.07 76.2299 150.388 76.4279 150.748 76.5599C151.108 76.6799 151.468 76.7399 151.828 76.7399Z" fill="#001357"/>
<path d="M157.405 76.5959H158.575C158.707 76.4159 158.827 76.1399 158.935 75.7679C159.043 75.3959 159.139 74.9579 159.223 74.4539C159.307 73.9499 159.367 73.4039 159.403 72.8159C159.451 72.2159 159.475 71.6039 159.475 70.9799V68.4599H166.135V76.5959H167.485V80.2499H165.973V77.9999H158.917V80.2499H157.405V76.5959ZM164.551 76.5959V69.8639H161.023V71.3399C161.023 71.8439 161.005 72.3479 160.969 72.8519C160.933 73.3439 160.879 73.8179 160.807 74.2739C160.735 74.7179 160.645 75.1439 160.537 75.5519C160.441 75.9479 160.327 76.2959 160.195 76.5959H164.551Z" fill="#001357"/>
<path d="M200.778 60.1802C200.034 60.1802 199.374 60.0902 198.798 59.9102C198.222 59.7182 197.73 59.4542 197.322 59.1182C196.914 58.7822 196.59 58.3862 196.35 57.9302C196.11 57.4622 195.966 56.9522 195.918 56.4002H197.61C197.706 57.0842 198.03 57.6362 198.582 58.0562C199.134 58.4642 199.866 58.6682 200.778 58.6682C201.894 58.6682 202.698 58.4702 203.19 58.0742C203.694 57.6782 203.946 57.1442 203.946 56.4722C203.946 55.8242 203.706 55.2902 203.226 54.8702C202.746 54.4382 201.96 54.2222 200.868 54.2222H199.158V52.8182H200.868C201.768 52.8182 202.428 52.6262 202.848 52.2422C203.28 51.8462 203.496 51.3482 203.496 50.7482C203.496 50.1482 203.268 49.6622 202.812 49.2902C202.356 48.9182 201.678 48.7322 200.778 48.7322C199.818 48.7322 199.11 48.9182 198.654 49.2902C198.21 49.6502 197.952 50.1302 197.88 50.7302H196.188C196.236 50.2262 196.362 49.7582 196.566 49.3262C196.782 48.8942 197.082 48.5222 197.466 48.2102C197.85 47.8982 198.318 47.6582 198.87 47.4902C199.422 47.3102 200.058 47.2202 200.778 47.2202C202.23 47.2202 203.328 47.5442 204.072 48.1922C204.816 48.8402 205.188 49.6922 205.188 50.7482C205.188 51.4082 204.996 51.9722 204.612 52.4402C204.24 52.8962 203.742 53.2262 203.118 53.4302C203.874 53.6102 204.48 53.9582 204.936 54.4742C205.404 54.9902 205.638 55.6562 205.638 56.4722C205.638 57.0122 205.53 57.5102 205.314 57.9662C205.11 58.4102 204.798 58.8002 204.378 59.1362C203.97 59.4602 203.466 59.7182 202.866 59.9102C202.266 60.0902 201.57 60.1802 200.778 60.1802Z" fill="#01764C"/>
<path d="M207.954 50.4602H209.538V54.4382H214.47V50.4602H216.054V60.0002H214.47V55.8422H209.538V60.0002H207.954V50.4602Z" fill="#01764C"/>
<path d="M221.658 60.1802C221.13 60.1802 220.662 60.1082 220.254 59.9642C219.858 59.8082 219.522 59.5982 219.246 59.3342C218.97 59.0702 218.76 58.7582 218.616 58.3982C218.472 58.0382 218.4 57.6422 218.4 57.2102C218.4 56.2622 218.676 55.5782 219.228 55.1582C219.792 54.7382 220.596 54.5282 221.64 54.5282H224.736V53.8802C224.736 53.0642 224.55 52.5002 224.178 52.1882C223.818 51.8762 223.272 51.7202 222.54 51.7202C221.856 51.7202 221.358 51.8522 221.046 52.1162C220.734 52.3682 220.56 52.6562 220.524 52.9802H218.94C218.964 52.5962 219.066 52.2422 219.246 51.9182C219.438 51.5822 219.69 51.2942 220.002 51.0542C220.326 50.8142 220.71 50.6282 221.154 50.4962C221.598 50.3522 222.09 50.2802 222.63 50.2802C223.758 50.2802 224.652 50.5502 225.312 51.0902C225.984 51.6182 226.32 52.4882 226.32 53.7002V57.5702C226.32 58.0742 226.32 58.5182 226.32 58.9022C226.332 59.2742 226.362 59.6402 226.41 60.0002H225.024C224.988 59.7242 224.964 59.4662 224.952 59.2262C224.94 58.9742 224.934 58.6922 224.934 58.3802C224.682 58.8842 224.274 59.3102 223.71 59.6582C223.146 60.0062 222.462 60.1802 221.658 60.1802ZM222 58.7402C222.372 58.7402 222.72 58.6922 223.044 58.5962C223.38 58.4882 223.674 58.3382 223.926 58.1462C224.178 57.9422 224.376 57.6962 224.52 57.4082C224.664 57.1202 224.736 56.7842 224.736 56.4002V55.7522H221.91C221.322 55.7522 220.86 55.8722 220.524 56.1122C220.188 56.3402 220.02 56.7062 220.02 57.2102C220.02 57.6542 220.176 58.0202 220.488 58.3082C220.812 58.5962 221.316 58.7402 222 58.7402Z" fill="#01764C"/>
<path d="M234.644 56.2022C234.368 56.3702 234.032 56.5202 233.636 56.6522C233.252 56.7842 232.766 56.8502 232.178 56.8502C231.626 56.8502 231.128 56.7902 230.684 56.6702C230.252 56.5502 229.886 56.3582 229.586 56.0942C229.286 55.8302 229.058 55.4882 228.902 55.0682C228.746 54.6482 228.668 54.1322 228.668 53.5202V50.4602H230.252V53.2502C230.252 53.6582 230.288 54.0002 230.36 54.2762C230.444 54.5522 230.576 54.7742 230.756 54.9422C230.936 55.1102 231.164 55.2302 231.44 55.3022C231.716 55.3742 232.052 55.4102 232.448 55.4102C232.988 55.4102 233.45 55.3562 233.834 55.2482C234.218 55.1402 234.488 55.0262 234.644 54.9062V50.4602H236.228V60.0002H234.644V56.2022Z" fill="#01764C"/>
<path d="M243.062 60.1802C242.45 60.1802 241.868 60.0842 241.316 59.8922C240.764 59.7002 240.278 59.4062 239.858 59.0102C239.438 58.6022 239.102 58.0922 238.85 57.4802C238.598 56.8682 238.472 56.1482 238.472 55.3202V54.9602C238.472 54.1682 238.592 53.4842 238.832 52.9082C239.072 52.3202 239.39 51.8342 239.786 51.4502C240.194 51.0542 240.662 50.7602 241.19 50.5682C241.73 50.3762 242.294 50.2802 242.882 50.2802C244.286 50.2802 245.372 50.6642 246.14 51.4322C246.908 52.2002 247.292 53.2862 247.292 54.6902V55.6982H240.056C240.056 56.2622 240.146 56.7362 240.326 57.1202C240.506 57.5042 240.74 57.8162 241.028 58.0562C241.316 58.2962 241.634 58.4702 241.982 58.5782C242.342 58.6862 242.702 58.7402 243.062 58.7402C243.782 58.7402 244.334 58.6202 244.718 58.3802C245.114 58.1402 245.396 57.8102 245.564 57.3902H247.112C247.016 57.8462 246.842 58.2482 246.59 58.5962C246.35 58.9442 246.05 59.2382 245.69 59.4782C245.342 59.7062 244.94 59.8802 244.484 60.0002C244.04 60.1202 243.566 60.1802 243.062 60.1802ZM242.972 51.7202C242.6 51.7202 242.24 51.7742 241.892 51.8822C241.544 51.9782 241.232 52.1402 240.956 52.3682C240.692 52.5842 240.476 52.8602 240.308 53.1962C240.14 53.5322 240.056 53.9342 240.056 54.4022H245.798C245.786 53.9102 245.702 53.4962 245.546 53.1602C245.402 52.8122 245.204 52.5362 244.952 52.3322C244.7 52.1162 244.4 51.9602 244.052 51.8642C243.716 51.7682 243.356 51.7202 242.972 51.7202Z" fill="#01764C"/>
<path d="M249.543 50.4602H251.127V54.4382H256.059V50.4602H257.643V60.0002H256.059V55.8422H251.127V60.0002H249.543V50.4602Z" fill="#01764C"/>
<path d="M260.53 50.4602H262.114V57.6602L267.046 50.4602H268.63V60.0002H267.046V52.8002L262.114 60.0002H260.53V50.4602Z" fill="#01764C"/>
<path d="M275.476 60.1802C274.864 60.1802 274.282 60.0842 273.73 59.8922C273.178 59.7002 272.692 59.4062 272.272 59.0102C271.852 58.6022 271.516 58.0922 271.264 57.4802C271.012 56.8682 270.886 56.1482 270.886 55.3202V54.9602C270.886 54.1682 271.006 53.4842 271.246 52.9082C271.486 52.3202 271.804 51.8342 272.2 51.4502C272.608 51.0542 273.076 50.7602 273.604 50.5682C274.144 50.3762 274.708 50.2802 275.296 50.2802C276.7 50.2802 277.786 50.6642 278.554 51.4322C279.322 52.2002 279.706 53.2862 279.706 54.6902V55.6982H272.47C272.47 56.2622 272.56 56.7362 272.74 57.1202C272.92 57.5042 273.154 57.8162 273.442 58.0562C273.73 58.2962 274.048 58.4702 274.396 58.5782C274.756 58.6862 275.116 58.7402 275.476 58.7402C276.196 58.7402 276.748 58.6202 277.132 58.3802C277.528 58.1402 277.81 57.8102 277.978 57.3902H279.526C279.43 57.8462 279.256 58.2482 279.004 58.5962C278.764 58.9442 278.464 59.2382 278.104 59.4782C277.756 59.7062 277.354 59.8802 276.898 60.0002C276.454 60.1202 275.98 60.1802 275.476 60.1802ZM275.386 51.7202C275.014 51.7202 274.654 51.7742 274.306 51.8822C273.958 51.9782 273.646 52.1402 273.37 52.3682C273.106 52.5842 272.89 52.8602 272.722 53.1962C272.554 53.5322 272.47 53.9342 272.47 54.4022H278.212C278.2 53.9102 278.116 53.4962 277.96 53.1602C277.816 52.8122 277.618 52.5362 277.366 52.3322C277.114 52.1162 276.814 51.9602 276.466 51.8642C276.13 51.7682 275.77 51.7202 275.386 51.7202Z" fill="#01764C"/>
<path d="M286.007 58.5242H289.013V49.2542L286.007 51.3962V49.5602L289.049 47.4002H290.741V58.5242H293.207V60.0002H286.007V58.5242Z" fill="#01764C"/>
<path d="M200.778 94.1802C200.034 94.1802 199.374 94.0902 198.798 93.9102C198.222 93.7182 197.73 93.4542 197.322 93.1182C196.914 92.7822 196.59 92.3862 196.35 91.9302C196.11 91.4622 195.966 90.9522 195.918 90.4002H197.61C197.706 91.0842 198.03 91.6362 198.582 92.0562C199.134 92.4642 199.866 92.6682 200.778 92.6682C201.894 92.6682 202.698 92.4702 203.19 92.0742C203.694 91.6782 203.946 91.1442 203.946 90.4722C203.946 89.8242 203.706 89.2902 203.226 88.8702C202.746 88.4382 201.96 88.2222 200.868 88.2222H199.158V86.8182H200.868C201.768 86.8182 202.428 86.6262 202.848 86.2422C203.28 85.8462 203.496 85.3482 203.496 84.7482C203.496 84.1482 203.268 83.6622 202.812 83.2902C202.356 82.9182 201.678 82.7322 200.778 82.7322C199.818 82.7322 199.11 82.9182 198.654 83.2902C198.21 83.6502 197.952 84.1302 197.88 84.7302H196.188C196.236 84.2262 196.362 83.7582 196.566 83.3262C196.782 82.8942 197.082 82.5222 197.466 82.2102C197.85 81.8982 198.318 81.6582 198.87 81.4902C199.422 81.3102 200.058 81.2202 200.778 81.2202C202.23 81.2202 203.328 81.5442 204.072 82.1922C204.816 82.8402 205.188 83.6922 205.188 84.7482C205.188 85.4082 204.996 85.9722 204.612 86.4402C204.24 86.8962 203.742 87.2262 203.118 87.4302C203.874 87.6102 204.48 87.9582 204.936 88.4742C205.404 88.9902 205.638 89.6562 205.638 90.4722C205.638 91.0122 205.53 91.5102 205.314 91.9662C205.11 92.4102 204.798 92.8002 204.378 93.1362C203.97 93.4602 203.466 93.7182 202.866 93.9102C202.266 94.0902 201.57 94.1802 200.778 94.1802Z" fill="#01764C"/>
<path d="M207.954 84.4602H209.538V88.4382H214.47V84.4602H216.054V94.0002H214.47V89.8422H209.538V94.0002H207.954V84.4602Z" fill="#01764C"/>
<path d="M221.658 94.1802C221.13 94.1802 220.662 94.1082 220.254 93.9642C219.858 93.8082 219.522 93.5982 219.246 93.3342C218.97 93.0702 218.76 92.7582 218.616 92.3982C218.472 92.0382 218.4 91.6422 218.4 91.2102C218.4 90.2622 218.676 89.5782 219.228 89.1582C219.792 88.7382 220.596 88.5282 221.64 88.5282H224.736V87.8802C224.736 87.0642 224.55 86.5002 224.178 86.1882C223.818 85.8762 223.272 85.7202 222.54 85.7202C221.856 85.7202 221.358 85.8522 221.046 86.1162C220.734 86.3682 220.56 86.6562 220.524 86.9802H218.94C218.964 86.5962 219.066 86.2422 219.246 85.9182C219.438 85.5822 219.69 85.2942 220.002 85.0542C220.326 84.8142 220.71 84.6282 221.154 84.4962C221.598 84.3522 222.09 84.2802 222.63 84.2802C223.758 84.2802 224.652 84.5502 225.312 85.0902C225.984 85.6182 226.32 86.4882 226.32 87.7002V91.5702C226.32 92.0742 226.32 92.5182 226.32 92.9022C226.332 93.2742 226.362 93.6402 226.41 94.0002H225.024C224.988 93.7242 224.964 93.4662 224.952 93.2262C224.94 92.9742 224.934 92.6922 224.934 92.3802C224.682 92.8842 224.274 93.3102 223.71 93.6582C223.146 94.0062 222.462 94.1802 221.658 94.1802ZM222 92.7402C222.372 92.7402 222.72 92.6922 223.044 92.5962C223.38 92.4882 223.674 92.3382 223.926 92.1462C224.178 91.9422 224.376 91.6962 224.52 91.4082C224.664 91.1202 224.736 90.7842 224.736 90.4002V89.7522H221.91C221.322 89.7522 220.86 89.8722 220.524 90.1122C220.188 90.3402 220.02 90.7062 220.02 91.2102C220.02 91.6542 220.176 92.0202 220.488 92.3082C220.812 92.5962 221.316 92.7402 222 92.7402Z" fill="#01764C"/>
<path d="M234.644 90.2022C234.368 90.3702 234.032 90.5202 233.636 90.6522C233.252 90.7842 232.766 90.8502 232.178 90.8502C231.626 90.8502 231.128 90.7902 230.684 90.6702C230.252 90.5502 229.886 90.3582 229.586 90.0942C229.286 89.8302 229.058 89.4882 228.902 89.0682C228.746 88.6482 228.668 88.1322 228.668 87.5202V84.4602H230.252V87.2502C230.252 87.6582 230.288 88.0002 230.36 88.2762C230.444 88.5522 230.576 88.7742 230.756 88.9422C230.936 89.1102 231.164 89.2302 231.44 89.3022C231.716 89.3742 232.052 89.4102 232.448 89.4102C232.988 89.4102 233.45 89.3562 233.834 89.2482C234.218 89.1402 234.488 89.0262 234.644 88.9062V84.4602H236.228V94.0002H234.644V90.2022Z" fill="#01764C"/>
<path d="M243.062 94.1802C242.45 94.1802 241.868 94.0842 241.316 93.8922C240.764 93.7002 240.278 93.4062 239.858 93.0102C239.438 92.6022 239.102 92.0922 238.85 91.4802C238.598 90.8682 238.472 90.1482 238.472 89.3202V88.9602C238.472 88.1682 238.592 87.4842 238.832 86.9082C239.072 86.3202 239.39 85.8342 239.786 85.4502C240.194 85.0542 240.662 84.7602 241.19 84.5682C241.73 84.3762 242.294 84.2802 242.882 84.2802C244.286 84.2802 245.372 84.6642 246.14 85.4322C246.908 86.2002 247.292 87.2862 247.292 88.6902V89.6982H240.056C240.056 90.2622 240.146 90.7362 240.326 91.1202C240.506 91.5042 240.74 91.8162 241.028 92.0562C241.316 92.2962 241.634 92.4702 241.982 92.5782C242.342 92.6862 242.702 92.7402 243.062 92.7402C243.782 92.7402 244.334 92.6202 244.718 92.3802C245.114 92.1402 245.396 91.8102 245.564 91.3902H247.112C247.016 91.8462 246.842 92.2482 246.59 92.5962C246.35 92.9442 246.05 93.2382 245.69 93.4782C245.342 93.7062 244.94 93.8802 244.484 94.0002C244.04 94.1202 243.566 94.1802 243.062 94.1802ZM242.972 85.7202C242.6 85.7202 242.24 85.7742 241.892 85.8822C241.544 85.9782 241.232 86.1402 240.956 86.3682C240.692 86.5842 240.476 86.8602 240.308 87.1962C240.14 87.5322 240.056 87.9342 240.056 88.4022H245.798C245.786 87.9102 245.702 87.4962 245.546 87.1602C245.402 86.8122 245.204 86.5362 244.952 86.3322C244.7 86.1162 244.4 85.9602 244.052 85.8642C243.716 85.7682 243.356 85.7202 242.972 85.7202Z" fill="#01764C"/>
<path d="M249.543 84.4602H251.127V88.4382H256.059V84.4602H257.643V94.0002H256.059V89.8422H251.127V94.0002H249.543V84.4602Z" fill="#01764C"/>
<path d="M260.53 84.4602H262.114V91.6602L267.046 84.4602H268.63V94.0002H267.046V86.8002L262.114 94.0002H260.53V84.4602Z" fill="#01764C"/>
<path d="M275.476 94.1802C274.864 94.1802 274.282 94.0842 273.73 93.8922C273.178 93.7002 272.692 93.4062 272.272 93.0102C271.852 92.6022 271.516 92.0922 271.264 91.4802C271.012 90.8682 270.886 90.1482 270.886 89.3202V88.9602C270.886 88.1682 271.006 87.4842 271.246 86.9082C271.486 86.3202 271.804 85.8342 272.2 85.4502C272.608 85.0542 273.076 84.7602 273.604 84.5682C274.144 84.3762 274.708 84.2802 275.296 84.2802C276.7 84.2802 277.786 84.6642 278.554 85.4322C279.322 86.2002 279.706 87.2862 279.706 88.6902V89.6982H272.47C272.47 90.2622 272.56 90.7362 272.74 91.1202C272.92 91.5042 273.154 91.8162 273.442 92.0562C273.73 92.2962 274.048 92.4702 274.396 92.5782C274.756 92.6862 275.116 92.7402 275.476 92.7402C276.196 92.7402 276.748 92.6202 277.132 92.3802C277.528 92.1402 277.81 91.8102 277.978 91.3902H279.526C279.43 91.8462 279.256 92.2482 279.004 92.5962C278.764 92.9442 278.464 93.2382 278.104 93.4782C277.756 93.7062 277.354 93.8802 276.898 94.0002C276.454 94.1202 275.98 94.1802 275.476 94.1802ZM275.386 85.7202C275.014 85.7202 274.654 85.7742 274.306 85.8822C273.958 85.9782 273.646 86.1402 273.37 86.3682C273.106 86.5842 272.89 86.8602 272.722 87.1962C272.554 87.5322 272.47 87.9342 272.47 88.4022H278.212C278.2 87.9102 278.116 87.4962 277.96 87.1602C277.816 86.8122 277.618 86.5362 277.366 86.3322C277.114 86.1162 276.814 85.9602 276.466 85.8642C276.13 85.7682 275.77 85.7202 275.386 85.7202Z" fill="#01764C"/>
<path d="M285.737 92.6142L290.777 88.2402C291.161 87.9162 291.473 87.6222 291.713 87.3582C291.965 87.0942 292.163 86.8482 292.307 86.6202C292.451 86.3802 292.547 86.1462 292.595 85.9182C292.655 85.6902 292.685 85.4442 292.685 85.1802C292.685 84.4722 292.475 83.8902 292.055 83.4342C291.635 82.9662 291.059 82.7322 290.327 82.7322C289.451 82.7322 288.779 82.9722 288.311 83.4522C287.843 83.9202 287.609 84.5862 287.609 85.4502H285.917C285.917 84.8382 286.019 84.2742 286.223 83.7582C286.439 83.2302 286.739 82.7802 287.123 82.4082C287.519 82.0362 287.987 81.7482 288.527 81.5442C289.067 81.3282 289.667 81.2202 290.327 81.2202C290.963 81.2202 291.533 81.3222 292.037 81.5262C292.541 81.7182 292.967 81.9942 293.315 82.3542C293.663 82.7022 293.927 83.1162 294.107 83.5962C294.287 84.0762 294.377 84.6042 294.377 85.1802C294.377 85.6122 294.311 86.0142 294.179 86.3862C294.047 86.7582 293.861 87.1122 293.621 87.4482C293.393 87.7842 293.111 88.1142 292.775 88.4382C292.451 88.7502 292.091 89.0742 291.695 89.4102L287.933 92.5242H294.557V94.0002H285.737V92.6142Z" fill="#01764C"/>
<path d="M299.99 150.18C299.81 150.18 299.63 150.162 299.45 150.126V148.47C299.51 148.482 299.6 148.488 299.72 148.488C299.96 148.488 300.17 148.452 300.35 148.38C300.542 148.296 300.704 148.152 300.836 147.948C300.98 147.732 301.1 147.432 301.196 147.048C301.304 146.664 301.388 146.172 301.448 145.572C301.508 144.96 301.55 144.222 301.574 143.358C301.598 142.494 301.61 141.468 301.61 140.28V137.4H310.07V150H308.378V138.876H303.302V140.64C303.302 141.972 303.272 143.136 303.212 144.132C303.152 145.116 303.062 145.962 302.942 146.67C302.822 147.378 302.672 147.96 302.492 148.416C302.312 148.872 302.096 149.232 301.844 149.496C301.604 149.748 301.328 149.922 301.016 150.018C300.704 150.126 300.362 150.18 299.99 150.18Z" fill="#0229B4"/>
<path d="M317.267 150.18C316.655 150.18 316.073 150.084 315.521 149.892C314.969 149.688 314.483 149.388 314.063 148.992C313.643 148.584 313.307 148.074 313.055 147.462C312.803 146.85 312.677 146.136 312.677 145.32V144.96C312.677 144.192 312.803 143.514 313.055 142.926C313.307 142.338 313.643 141.852 314.063 141.468C314.483 141.072 314.969 140.778 315.521 140.586C316.073 140.382 316.655 140.28 317.267 140.28C317.879 140.28 318.461 140.382 319.013 140.586C319.565 140.778 320.051 141.072 320.471 141.468C320.891 141.852 321.227 142.338 321.479 142.926C321.731 143.514 321.857 144.192 321.857 144.96V145.32C321.857 146.136 321.731 146.85 321.479 147.462C321.227 148.074 320.891 148.584 320.471 148.992C320.051 149.388 319.565 149.688 319.013 149.892C318.461 150.084 317.879 150.18 317.267 150.18ZM317.267 148.74C317.627 148.74 317.987 148.68 318.347 148.56C318.707 148.428 319.025 148.23 319.301 147.966C319.577 147.69 319.799 147.336 319.967 146.904C320.147 146.472 320.237 145.944 320.237 145.32V144.96C320.237 144.384 320.147 143.892 319.967 143.484C319.799 143.076 319.577 142.74 319.301 142.476C319.025 142.212 318.707 142.02 318.347 141.9C317.987 141.78 317.627 141.72 317.267 141.72C316.907 141.72 316.547 141.78 316.187 141.9C315.827 142.02 315.509 142.212 315.233 142.476C314.957 142.74 314.729 143.076 314.549 143.484C314.381 143.892 314.297 144.384 314.297 144.96V145.32C314.297 145.944 314.381 146.472 314.549 146.904C314.729 147.336 314.957 147.69 315.233 147.966C315.509 148.23 315.827 148.428 316.187 148.56C316.547 148.68 316.907 148.74 317.267 148.74Z" fill="#0229B4"/>
<path d="M324.1 140.46H330.58V141.864H325.684V150H324.1V140.46Z" fill="#0229B4"/>
<path d="M332.379 140.46H333.963V147.66L338.895 140.46H340.479V150H338.895V142.8L333.963 150H332.379V140.46Z" fill="#0229B4"/>
<path d="M348.892 146.202C348.616 146.37 348.28 146.52 347.884 146.652C347.5 146.784 347.014 146.85 346.426 146.85C345.874 146.85 345.376 146.79 344.932 146.67C344.5 146.55 344.134 146.358 343.834 146.094C343.534 145.83 343.306 145.488 343.15 145.068C342.994 144.648 342.916 144.132 342.916 143.52V140.46H344.5V143.25C344.5 143.658 344.536 144 344.608 144.276C344.692 144.552 344.824 144.774 345.004 144.942C345.184 145.11 345.412 145.23 345.688 145.302C345.964 145.374 346.3 145.41 346.696 145.41C347.236 145.41 347.698 145.356 348.082 145.248C348.466 145.14 348.736 145.026 348.892 144.906V140.46H350.476V150H348.892V146.202Z" fill="#0229B4"/>
<path d="M357.31 150.18C356.698 150.18 356.116 150.084 355.564 149.892C355.012 149.7 354.526 149.406 354.106 149.01C353.686 148.602 353.35 148.092 353.098 147.48C352.846 146.868 352.72 146.148 352.72 145.32V144.96C352.72 144.168 352.84 143.484 353.08 142.908C353.32 142.32 353.638 141.834 354.034 141.45C354.442 141.054 354.91 140.76 355.438 140.568C355.978 140.376 356.542 140.28 357.13 140.28C358.534 140.28 359.62 140.664 360.388 141.432C361.156 142.2 361.54 143.286 361.54 144.69V145.698H354.304C354.304 146.262 354.394 146.736 354.574 147.12C354.754 147.504 354.988 147.816 355.276 148.056C355.564 148.296 355.882 148.47 356.23 148.578C356.59 148.686 356.95 148.74 357.31 148.74C358.03 148.74 358.582 148.62 358.966 148.38C359.362 148.14 359.644 147.81 359.812 147.39H361.36C361.264 147.846 361.09 148.248 360.838 148.596C360.598 148.944 360.298 149.238 359.938 149.478C359.59 149.706 359.188 149.88 358.732 150C358.288 150.12 357.814 150.18 357.31 150.18ZM357.22 141.72C356.848 141.72 356.488 141.774 356.14 141.882C355.792 141.978 355.48 142.14 355.204 142.368C354.94 142.584 354.724 142.86 354.556 143.196C354.388 143.532 354.304 143.934 354.304 144.402H360.046C360.034 143.91 359.95 143.496 359.794 143.16C359.65 142.812 359.452 142.536 359.2 142.332C358.948 142.116 358.648 141.96 358.3 141.864C357.964 141.768 357.604 141.72 357.22 141.72Z" fill="#0229B4"/>
<path d="M367.481 150.18C366.869 150.18 366.299 150.084 365.771 149.892C365.243 149.688 364.787 149.388 364.403 148.992C364.019 148.584 363.713 148.074 363.485 147.462C363.269 146.85 363.161 146.136 363.161 145.32V144.96C363.161 144.192 363.281 143.514 363.521 142.926C363.761 142.338 364.079 141.852 364.475 141.468C364.871 141.072 365.327 140.778 365.843 140.586C366.371 140.382 366.917 140.28 367.481 140.28C368.045 140.28 368.549 140.358 368.993 140.514C369.449 140.67 369.839 140.886 370.163 141.162C370.499 141.438 370.769 141.762 370.973 142.134C371.189 142.506 371.345 142.908 371.441 143.34H369.821C369.725 143.112 369.611 142.902 369.479 142.71C369.359 142.506 369.203 142.332 369.011 142.188C368.831 142.044 368.615 141.93 368.363 141.846C368.111 141.762 367.817 141.72 367.481 141.72C367.133 141.72 366.797 141.786 366.473 141.918C366.149 142.038 365.861 142.23 365.609 142.494C365.357 142.746 365.153 143.076 364.997 143.484C364.853 143.892 364.781 144.384 364.781 144.96V145.32C364.781 145.932 364.853 146.46 364.997 146.904C365.153 147.336 365.357 147.69 365.609 147.966C365.861 148.23 366.149 148.428 366.473 148.56C366.797 148.68 367.133 148.74 367.481 148.74C368.069 148.74 368.561 148.596 368.957 148.308C369.365 148.02 369.653 147.624 369.821 147.12H371.441C371.213 148.068 370.745 148.818 370.037 149.37C369.329 149.91 368.477 150.18 367.481 150.18Z" fill="#0229B4"/>
<path d="M373.6 140.46H375.184V144.456H376.444L380.008 140.46H381.88L377.74 145.032L382.06 150H380.044L376.444 145.824H375.184V150H373.6V140.46Z" fill="#0229B4"/>
<path d="M386.496 150.18C385.968 150.18 385.5 150.108 385.092 149.964C384.696 149.808 384.36 149.598 384.084 149.334C383.808 149.07 383.598 148.758 383.454 148.398C383.31 148.038 383.238 147.642 383.238 147.21C383.238 146.262 383.514 145.578 384.066 145.158C384.63 144.738 385.434 144.528 386.478 144.528H389.574V143.88C389.574 143.064 389.388 142.5 389.016 142.188C388.656 141.876 388.11 141.72 387.378 141.72C386.694 141.72 386.196 141.852 385.884 142.116C385.572 142.368 385.398 142.656 385.362 142.98H383.778C383.802 142.596 383.904 142.242 384.084 141.918C384.276 141.582 384.528 141.294 384.84 141.054C385.164 140.814 385.548 140.628 385.992 140.496C386.436 140.352 386.928 140.28 387.468 140.28C388.596 140.28 389.49 140.55 390.15 141.09C390.822 141.618 391.158 142.488 391.158 143.7V147.57C391.158 148.074 391.158 148.518 391.158 148.902C391.17 149.274 391.2 149.64 391.248 150H389.862C389.826 149.724 389.802 149.466 389.79 149.226C389.778 148.974 389.772 148.692 389.772 148.38C389.52 148.884 389.112 149.31 388.548 149.658C387.984 150.006 387.3 150.18 386.496 150.18ZM386.838 148.74C387.21 148.74 387.558 148.692 387.882 148.596C388.218 148.488 388.512 148.338 388.764 148.146C389.016 147.942 389.214 147.696 389.358 147.408C389.502 147.12 389.574 146.784 389.574 146.4V145.752H386.748C386.16 145.752 385.698 145.872 385.362 146.112C385.026 146.34 384.858 146.706 384.858 147.21C384.858 147.654 385.014 148.02 385.326 148.308C385.65 148.596 386.154 148.74 386.838 148.74Z" fill="#0229B4"/>
<path d="M395.827 146.22C395.035 146.04 394.465 145.716 394.117 145.248C393.769 144.768 393.595 144.156 393.595 143.412C393.595 142.476 393.877 141.75 394.441 141.234C395.017 140.718 395.935 140.46 397.195 140.46H401.335V150H399.751V146.364H397.321L394.999 150H393.235L395.827 146.22ZM395.179 143.412C395.179 143.916 395.323 144.3 395.611 144.564C395.911 144.828 396.409 144.96 397.105 144.96H399.751V141.864H397.105C396.409 141.864 395.911 141.996 395.611 142.26C395.323 142.524 395.179 142.908 395.179 143.412Z" fill="#0229B4"/>
<path d="M413.149 150.18C411.493 150.18 410.233 149.76 409.369 148.92C408.517 148.08 408.091 146.886 408.091 145.338V144.978C408.091 143.502 408.517 142.35 409.369 141.522C410.233 140.694 411.493 140.28 413.149 140.28V137.4H414.733V140.28C416.389 140.28 417.643 140.694 418.495 141.522C419.359 142.35 419.791 143.502 419.791 144.978V145.338C419.791 146.886 419.359 148.08 418.495 148.92C417.643 149.76 416.389 150.18 414.733 150.18V153.6H413.149V150.18ZM418.171 144.978C418.171 143.886 417.889 143.07 417.325 142.53C416.773 141.99 415.903 141.72 414.715 141.72V148.74C415.903 148.74 416.773 148.464 417.325 147.912C417.889 147.36 418.171 146.502 418.171 145.338V144.978ZM409.711 145.338C409.711 146.502 409.987 147.36 410.539 147.912C411.103 148.464 411.979 148.74 413.167 148.74V141.72C411.979 141.72 411.103 141.99 410.539 142.53C409.987 143.07 409.711 143.886 409.711 144.978V145.338Z" fill="#0229B4"/>
<path d="M422.954 153.78C422.774 153.78 422.594 153.762 422.414 153.726V152.286C422.594 152.322 422.774 152.34 422.954 152.34C423.134 152.34 423.29 152.31 423.422 152.25C423.554 152.19 423.68 152.076 423.8 151.908C423.92 151.74 424.046 151.5 424.178 151.188C424.322 150.888 424.484 150.492 424.664 150L420.614 140.46H422.378L425.474 148.2L428.282 140.46H429.974L426.374 150C426.122 150.672 425.882 151.248 425.654 151.728C425.426 152.208 425.18 152.598 424.916 152.898C424.664 153.21 424.382 153.432 424.07 153.564C423.758 153.708 423.386 153.78 422.954 153.78Z" fill="#0229B4"/>
<path d="M431.766 140.46H433.35V144.438H438.282V140.46H439.866V150H438.282V145.842H433.35V150H431.766V140.46Z" fill="#0229B4"/>
<path d="M442.752 140.46H444.336V144.456H445.596L449.16 140.46H451.032L446.892 145.032L451.212 150H449.196L445.596 145.824H444.336V150H442.752V140.46Z" fill="#0229B4"/>
<path d="M460.864 150H453.106V140.46H454.69V148.596H459.262V140.46H460.846V148.596H462.376V152.25H460.864V150Z" fill="#0229B4"/>
<path d="M464.268 140.46H465.852V147.66L470.784 140.46H472.368V150H470.784V142.8L465.852 150H464.268V140.46Z" fill="#0229B4"/>
<path d="M477.126 146.22C476.334 146.04 475.764 145.716 475.416 145.248C475.068 144.768 474.894 144.156 474.894 143.412C474.894 142.476 475.176 141.75 475.74 141.234C476.316 140.718 477.234 140.46 478.494 140.46H482.634V150H481.05V146.364H478.62L476.298 150H474.534L477.126 146.22ZM476.478 143.412C476.478 143.916 476.622 144.3 476.91 144.564C477.21 144.828 477.708 144.96 478.404 144.96H481.05V141.864H478.404C477.708 141.864 477.21 141.996 476.91 142.26C476.622 142.524 476.478 142.908 476.478 143.412Z" fill="#0229B4"/>
<path d="M490.02 140.46H491.496V142.26C491.82 141.624 492.27 141.138 492.846 140.802C493.434 140.454 494.112 140.28 494.88 140.28C496.08 140.28 497.04 140.676 497.76 141.468C498.48 142.248 498.84 143.412 498.84 144.96V145.32C498.84 146.136 498.744 146.85 498.552 147.462C498.36 148.062 498.09 148.566 497.742 148.974C497.394 149.37 496.974 149.67 496.482 149.874C496.002 150.078 495.468 150.18 494.88 150.18C494.064 150.18 493.38 150 492.828 149.64C492.288 149.28 491.88 148.83 491.604 148.29V153.6H490.02V140.46ZM494.52 148.776C494.904 148.776 495.264 148.704 495.6 148.56C495.936 148.404 496.224 148.182 496.464 147.894C496.716 147.606 496.908 147.246 497.04 146.814C497.184 146.382 497.256 145.884 497.256 145.32V144.96C497.256 144.444 497.184 143.982 497.04 143.574C496.908 143.166 496.716 142.824 496.464 142.548C496.224 142.26 495.936 142.044 495.6 141.9C495.264 141.756 494.904 141.684 494.52 141.684C494.088 141.684 493.692 141.756 493.332 141.9C492.972 142.032 492.666 142.224 492.414 142.476C492.162 142.716 491.964 143.004 491.82 143.34C491.676 143.676 491.604 144.036 491.604 144.42V145.86C491.604 146.292 491.676 146.688 491.82 147.048C491.964 147.408 492.162 147.714 492.414 147.966C492.666 148.218 492.972 148.416 493.332 148.56C493.692 148.704 494.088 148.776 494.52 148.776Z" fill="#0229B4"/>
<path d="M503.812 150.18C503.284 150.18 502.816 150.108 502.408 149.964C502.012 149.808 501.676 149.598 501.4 149.334C501.124 149.07 500.914 148.758 500.77 148.398C500.626 148.038 500.554 147.642 500.554 147.21C500.554 146.262 500.83 145.578 501.382 145.158C501.946 144.738 502.75 144.528 503.794 144.528H506.89V143.88C506.89 143.064 506.704 142.5 506.332 142.188C505.972 141.876 505.426 141.72 504.694 141.72C504.01 141.72 503.512 141.852 503.2 142.116C502.888 142.368 502.714 142.656 502.678 142.98H501.094C501.118 142.596 501.22 142.242 501.4 141.918C501.592 141.582 501.844 141.294 502.156 141.054C502.48 140.814 502.864 140.628 503.308 140.496C503.752 140.352 504.244 140.28 504.784 140.28C505.912 140.28 506.806 140.55 507.466 141.09C508.138 141.618 508.474 142.488 508.474 143.7V147.57C508.474 148.074 508.474 148.518 508.474 148.902C508.486 149.274 508.516 149.64 508.564 150H507.178C507.142 149.724 507.118 149.466 507.106 149.226C507.094 148.974 507.088 148.692 507.088 148.38C506.836 148.884 506.428 149.31 505.864 149.658C505.3 150.006 504.616 150.18 503.812 150.18ZM504.154 148.74C504.526 148.74 504.874 148.692 505.198 148.596C505.534 148.488 505.828 148.338 506.08 148.146C506.332 147.942 506.53 147.696 506.674 147.408C506.818 147.12 506.89 146.784 506.89 146.4V145.752H504.064C503.476 145.752 503.014 145.872 502.678 146.112C502.342 146.34 502.174 146.706 502.174 147.21C502.174 147.654 502.33 148.02 502.642 148.308C502.966 148.596 503.47 148.74 504.154 148.74Z" fill="#0229B4"/>
<path d="M511.272 140.46H515.412C516.588 140.46 517.452 140.706 518.004 141.198C518.556 141.678 518.832 142.302 518.832 143.07C518.832 143.274 518.796 143.484 518.724 143.7C518.652 143.904 518.55 144.096 518.418 144.276C518.298 144.456 518.148 144.612 517.968 144.744C517.8 144.876 517.608 144.978 517.392 145.05C517.98 145.194 518.424 145.47 518.724 145.878C519.036 146.274 519.192 146.742 519.192 147.282C519.192 148.11 518.916 148.77 518.364 149.262C517.812 149.754 516.948 150 515.772 150H511.272V140.46ZM515.772 148.596C516.444 148.596 516.918 148.476 517.194 148.236C517.47 147.996 517.608 147.654 517.608 147.21C517.608 146.754 517.47 146.406 517.194 146.166C516.918 145.914 516.444 145.788 515.772 145.788H512.856V148.596H515.772ZM515.412 144.492C516.096 144.492 516.57 144.372 516.834 144.132C517.11 143.892 517.248 143.562 517.248 143.142C517.248 142.746 517.11 142.434 516.834 142.206C516.57 141.978 516.096 141.864 515.412 141.864H512.856V144.492H515.412Z" fill="#0229B4"/>
<path d="M525.41 150.18C524.798 150.18 524.216 150.084 523.664 149.892C523.112 149.7 522.626 149.406 522.206 149.01C521.786 148.602 521.45 148.092 521.198 147.48C520.946 146.868 520.82 146.148 520.82 145.32V144.96C520.82 144.168 520.94 143.484 521.18 142.908C521.42 142.32 521.738 141.834 522.134 141.45C522.542 141.054 523.01 140.76 523.538 140.568C524.078 140.376 524.642 140.28 525.23 140.28C526.634 140.28 527.72 140.664 528.488 141.432C529.256 142.2 529.64 143.286 529.64 144.69V145.698H522.404C522.404 146.262 522.494 146.736 522.674 147.12C522.854 147.504 523.088 147.816 523.376 148.056C523.664 148.296 523.982 148.47 524.33 148.578C524.69 148.686 525.05 148.74 525.41 148.74C526.13 148.74 526.682 148.62 527.066 148.38C527.462 148.14 527.744 147.81 527.912 147.39H529.46C529.364 147.846 529.19 148.248 528.938 148.596C528.698 148.944 528.398 149.238 528.038 149.478C527.69 149.706 527.288 149.88 526.832 150C526.388 150.12 525.914 150.18 525.41 150.18ZM525.32 141.72C524.948 141.72 524.588 141.774 524.24 141.882C523.892 141.978 523.58 142.14 523.304 142.368C523.04 142.584 522.824 142.86 522.656 143.196C522.488 143.532 522.404 143.934 522.404 144.402H528.146C528.134 143.91 528.05 143.496 527.894 143.16C527.75 142.812 527.552 142.536 527.3 142.332C527.048 142.116 526.748 141.96 526.4 141.864C526.064 141.768 525.704 141.72 525.32 141.72Z" fill="#0229B4"/>
<path d="M531.891 140.46H533.475V144.438H538.407V140.46H539.991V150H538.407V145.842H533.475V150H531.891V140.46Z" fill="#0229B4"/>
<path d="M546.567 150.18C545.955 150.18 545.385 150.084 544.857 149.892C544.329 149.688 543.873 149.388 543.489 148.992C543.105 148.584 542.799 148.074 542.571 147.462C542.355 146.85 542.247 146.136 542.247 145.32V144.96C542.247 144.192 542.367 143.514 542.607 142.926C542.847 142.338 543.165 141.852 543.561 141.468C543.957 141.072 544.413 140.778 544.929 140.586C545.457 140.382 546.003 140.28 546.567 140.28C547.131 140.28 547.635 140.358 548.079 140.514C548.535 140.67 548.925 140.886 549.249 141.162C549.585 141.438 549.855 141.762 550.059 142.134C550.275 142.506 550.431 142.908 550.527 143.34H548.907C548.811 143.112 548.697 142.902 548.565 142.71C548.445 142.506 548.289 142.332 548.097 142.188C547.917 142.044 547.701 141.93 547.449 141.846C547.197 141.762 546.903 141.72 546.567 141.72C546.219 141.72 545.883 141.786 545.559 141.918C545.235 142.038 544.947 142.23 544.695 142.494C544.443 142.746 544.239 143.076 544.083 143.484C543.939 143.892 543.867 144.384 543.867 144.96V145.32C543.867 145.932 543.939 146.46 544.083 146.904C544.239 147.336 544.443 147.69 544.695 147.966C544.947 148.23 545.235 148.428 545.559 148.56C545.883 148.68 546.219 148.74 546.567 148.74C547.155 148.74 547.647 148.596 548.043 148.308C548.451 148.02 548.739 147.624 548.907 147.12H550.527C550.299 148.068 549.831 148.818 549.123 149.37C548.415 149.91 547.563 150.18 546.567 150.18Z" fill="#0229B4"/>
<path d="M554.864 141.864H551.606V140.46H559.706V141.864H556.448V150H554.864V141.864Z" fill="#0229B4"/>
<path d="M561.51 140.46H565.65C566.826 140.46 567.69 140.706 568.242 141.198C568.794 141.678 569.07 142.302 569.07 143.07C569.07 143.274 569.034 143.484 568.962 143.7C568.89 143.904 568.788 144.096 568.656 144.276C568.536 144.456 568.386 144.612 568.206 144.744C568.038 144.876 567.846 144.978 567.63 145.05C568.218 145.194 568.662 145.47 568.962 145.878C569.274 146.274 569.43 146.742 569.43 147.282C569.43 148.11 569.154 148.77 568.602 149.262C568.05 149.754 567.186 150 566.01 150H561.51V140.46ZM566.01 148.596C566.682 148.596 567.156 148.476 567.432 148.236C567.708 147.996 567.846 147.654 567.846 147.21C567.846 146.754 567.708 146.406 567.432 146.166C567.156 145.914 566.682 145.788 566.01 145.788H563.094V148.596H566.01ZM565.65 144.492C566.334 144.492 566.808 144.372 567.072 144.132C567.348 143.892 567.486 143.562 567.486 143.142C567.486 142.746 567.348 142.434 567.072 142.206C566.808 141.978 566.334 141.864 565.65 141.864H563.094V144.492H565.65Z" fill="#0229B4"/>
<path d="M574.406 150.18C573.878 150.18 573.41 150.108 573.002 149.964C572.606 149.808 572.27 149.598 571.994 149.334C571.718 149.07 571.508 148.758 571.364 148.398C571.22 148.038 571.148 147.642 571.148 147.21C571.148 146.262 571.424 145.578 571.976 145.158C572.54 144.738 573.344 144.528 574.388 144.528H577.484V143.88C577.484 143.064 577.298 142.5 576.926 142.188C576.566 141.876 576.02 141.72 575.288 141.72C574.604 141.72 574.106 141.852 573.794 142.116C573.482 142.368 573.308 142.656 573.272 142.98H571.688C571.712 142.596 571.814 142.242 571.994 141.918C572.186 141.582 572.438 141.294 572.75 141.054C573.074 140.814 573.458 140.628 573.902 140.496C574.346 140.352 574.838 140.28 575.378 140.28C576.506 140.28 577.4 140.55 578.06 141.09C578.732 141.618 579.068 142.488 579.068 143.7V147.57C579.068 148.074 579.068 148.518 579.068 148.902C579.08 149.274 579.11 149.64 579.158 150H577.772C577.736 149.724 577.712 149.466 577.7 149.226C577.688 148.974 577.682 148.692 577.682 148.38C577.43 148.884 577.022 149.31 576.458 149.658C575.894 150.006 575.21 150.18 574.406 150.18ZM574.748 148.74C575.12 148.74 575.468 148.692 575.792 148.596C576.128 148.488 576.422 148.338 576.674 148.146C576.926 147.942 577.124 147.696 577.268 147.408C577.412 147.12 577.484 146.784 577.484 146.4V145.752H574.658C574.07 145.752 573.608 145.872 573.272 146.112C572.936 146.34 572.768 146.706 572.768 147.21C572.768 147.654 572.924 148.02 573.236 148.308C573.56 148.596 574.064 148.74 574.748 148.74Z" fill="#0229B4"/>
<path fill-rule="evenodd" clip-rule="evenodd" d="M515.2 34H364.8C363.927 34 363.392 34.0016 362.992 34.0342C362.806 34.0495 362.693 34.0686 362.625 34.0847C362.592 34.0924 362.572 34.0988 362.561 34.1027C362.551 34.1064 362.546 34.109 362.546 34.109C362.358 34.2049 362.205 34.3578 362.109 34.546C362.109 34.546 362.106 34.5512 362.102 34.5616C362.099 34.5724 362.092 34.5924 362.085 34.625C362.068 34.6935 362.049 34.8062 362.034 34.9925C362.001 35.3924 362 35.9269 362 36.8V109.2C362 110.073 362.001 110.608 362.034 111.008C362.049 111.194 362.068 111.307 362.085 111.375C362.092 111.408 362.099 111.428 362.102 111.438C362.106 111.449 362.109 111.454 362.109 111.454C362.205 111.642 362.358 111.795 362.546 111.891C362.546 111.891 362.551 111.894 362.561 111.897C362.572 111.901 362.592 111.908 362.625 111.915C362.693 111.931 362.806 111.951 362.992 111.966C363.392 111.998 363.927 112 364.8 112H515.2C516.073 112 516.607 111.998 517.007 111.966C517.194 111.951 517.306 111.931 517.375 111.915C517.407 111.908 517.427 111.901 517.438 111.897C517.444 111.895 517.448 111.894 517.451 111.892L517.454 111.891C517.642 111.795 517.795 111.642 517.891 111.454C517.891 111.454 517.893 111.449 517.897 111.438C517.901 111.428 517.907 111.408 517.915 111.375C517.931 111.307 517.95 111.194 517.966 111.008C517.998 110.608 518 110.073 518 109.2V36.8C518 35.9269 517.998 35.3924 517.966 34.9925C517.95 34.8062 517.931 34.6935 517.915 34.625C517.907 34.5924 517.901 34.5724 517.897 34.5616C517.895 34.555 517.893 34.5508 517.892 34.5484L517.891 34.546C517.795 34.3578 517.642 34.2049 517.454 34.109C517.454 34.109 517.449 34.1064 517.438 34.1027C517.427 34.0988 517.407 34.0924 517.375 34.0847C517.306 34.0686 517.194 34.0495 517.007 34.0342C516.607 34.0016 516.073 34 515.2 34ZM360.327 33.638C360 34.2798 360 35.1198 360 36.8V109.2C360 110.88 360 111.72 360.327 112.362C360.614 112.926 361.073 113.385 361.638 113.673C362.28 114 363.12 114 364.8 114H515.2C516.88 114 517.72 114 518.362 113.673C518.926 113.385 519.385 112.926 519.673 112.362C520 111.72 520 110.88 520 109.2V36.8C520 35.1198 520 34.2798 519.673 33.638C519.385 33.0735 518.926 32.6146 518.362 32.327C517.72 32 516.88 32 515.2 32H364.8C363.12 32 362.28 32 361.638 32.327C361.073 32.6146 360.614 33.0735 360.327 33.638Z" fill="#0229B4"/>
<path fill-rule="evenodd" clip-rule="evenodd" d="M568 73H520V71H568V73Z" fill="#0229B4"/>
<path fill-rule="evenodd" clip-rule="evenodd" d="M360 56H312V54H360V56Z" fill="#0229B4"/>
<path fill-rule="evenodd" clip-rule="evenodd" d="M360 90H312V88H360V90Z" fill="#0229B4"/>
<path d="M429.8 66.4H437.9V67.876H431.492V71.782H437.36V73.258H431.492V77.524H437.9V79H429.8V66.4Z" fill="#0229B4"/>
<path d="M445.558 79.18C444.838 79.18 444.142 79.06 443.47 78.82C442.798 78.568 442.204 78.184 441.688 77.668C441.172 77.152 440.758 76.492 440.446 75.688C440.134 74.884 439.978 73.918 439.978 72.79V72.43C439.978 71.35 440.134 70.42 440.446 69.64C440.758 68.86 441.172 68.218 441.688 67.714C442.204 67.198 442.798 66.82 443.47 66.58C444.142 66.34 444.838 66.22 445.558 66.22C446.278 66.22 446.974 66.34 447.646 66.58C448.318 66.82 448.912 67.198 449.428 67.714C449.944 68.218 450.358 68.86 450.67 69.64C450.982 70.42 451.138 71.35 451.138 72.43V72.79C451.138 73.81 451.012 74.692 450.76 75.436C450.508 76.168 450.172 76.792 449.752 77.308L450.958 78.514L449.932 79.54L448.672 78.298C448.216 78.598 447.724 78.82 447.196 78.964C446.668 79.108 446.122 79.18 445.558 79.18ZM445.558 77.668C445.906 77.668 446.242 77.626 446.566 77.542C446.902 77.446 447.214 77.308 447.502 77.128L445.558 75.166L446.584 74.14L448.528 76.102C448.78 75.718 448.978 75.256 449.122 74.716C449.266 74.164 449.338 73.522 449.338 72.79V72.43C449.338 71.602 449.23 70.894 449.014 70.306C448.81 69.706 448.534 69.22 448.186 68.848C447.838 68.464 447.436 68.182 446.98 68.002C446.524 67.822 446.05 67.732 445.558 67.732C445.066 67.732 444.592 67.822 444.136 68.002C443.68 68.182 443.278 68.464 442.93 68.848C442.582 69.22 442.3 69.706 442.084 70.306C441.88 70.894 441.778 71.602 441.778 72.43V72.79C441.778 73.666 441.88 74.416 442.084 75.04C442.3 75.652 442.582 76.156 442.93 76.552C443.278 76.936 443.68 77.218 444.136 77.398C444.592 77.578 445.066 77.668 445.558 77.668Z" fill="#0229B4"/>
</svg>
