<svg width="880" height="320" viewBox="0 0 880 320" fill="none" xmlns="http://www.w3.org/2000/svg">
<rect width="880" height="320" rx="5" fill="#EDF1FF"/>
<line x1="181" y1="111.5" x2="661" y2="111.5" stroke="black" stroke-dasharray="2 2"/>
<line x1="181" y1="263.5" x2="661" y2="263.5" stroke="black"/>
<line x1="181" y1="71.5" x2="661" y2="71.5" stroke="black"/>
<line x1="181" y1="223.5" x2="661" y2="223.5" stroke="black" stroke-dasharray="2 2"/>
<path d="M677.8 103.4H687.7V116H686.008V104.876H679.492V116H677.8V103.4Z" fill="#001357"/>
<path d="M690.94 106.46H692.416V108.26C692.74 107.624 693.19 107.138 693.766 106.802C694.354 106.454 695.032 106.28 695.8 106.28C697 106.28 697.96 106.676 698.68 107.468C699.4 108.248 699.76 109.412 699.76 110.96V111.32C699.76 112.136 699.664 112.85 699.472 113.462C699.28 114.062 699.01 114.566 698.662 114.974C698.314 115.37 697.894 115.67 697.402 115.874C696.922 116.078 696.388 116.18 695.8 116.18C694.984 116.18 694.3 116 693.748 115.64C693.208 115.28 692.8 114.83 692.524 114.29V119.6H690.94V106.46ZM695.44 114.776C695.824 114.776 696.184 114.704 696.52 114.56C696.856 114.404 697.144 114.182 697.384 113.894C697.636 113.606 697.828 113.246 697.96 112.814C698.104 112.382 698.176 111.884 698.176 111.32V110.96C698.176 110.444 698.104 109.982 697.96 109.574C697.828 109.166 697.636 108.824 697.384 108.548C697.144 108.26 696.856 108.044 696.52 107.9C696.184 107.756 695.824 107.684 695.44 107.684C695.008 107.684 694.612 107.756 694.252 107.9C693.892 108.032 693.586 108.224 693.334 108.476C693.082 108.716 692.884 109.004 692.74 109.34C692.596 109.676 692.524 110.036 692.524 110.42V111.86C692.524 112.292 692.596 112.688 692.74 113.048C692.884 113.408 693.082 113.714 693.334 113.966C693.586 114.218 693.892 114.416 694.252 114.56C694.612 114.704 695.008 114.776 695.44 114.776Z" fill="#001357"/>
<path d="M705.974 116.18C705.362 116.18 704.78 116.084 704.228 115.892C703.676 115.7 703.19 115.406 702.77 115.01C702.35 114.602 702.014 114.092 701.762 113.48C701.51 112.868 701.384 112.148 701.384 111.32V110.96C701.384 110.168 701.504 109.484 701.744 108.908C701.984 108.32 702.302 107.834 702.698 107.45C703.106 107.054 703.574 106.76 704.102 106.568C704.642 106.376 705.206 106.28 705.794 106.28C707.198 106.28 708.284 106.664 709.052 107.432C709.82 108.2 710.204 109.286 710.204 110.69V111.698H702.968C702.968 112.262 703.058 112.736 703.238 113.12C703.418 113.504 703.652 113.816 703.94 114.056C704.228 114.296 704.546 114.47 704.894 114.578C705.254 114.686 705.614 114.74 705.974 114.74C706.694 114.74 707.246 114.62 707.63 114.38C708.026 114.14 708.308 113.81 708.476 113.39H710.024C709.928 113.846 709.754 114.248 709.502 114.596C709.262 114.944 708.962 115.238 708.602 115.478C708.254 115.706 707.852 115.88 707.396 116C706.952 116.12 706.478 116.18 705.974 116.18ZM705.884 107.72C705.512 107.72 705.152 107.774 704.804 107.882C704.456 107.978 704.144 108.14 703.868 108.368C703.604 108.584 703.388 108.86 703.22 109.196C703.052 109.532 702.968 109.934 702.968 110.402H708.71C708.698 109.91 708.614 109.496 708.458 109.16C708.314 108.812 708.116 108.536 707.864 108.332C707.612 108.116 707.312 107.96 706.964 107.864C706.628 107.768 706.268 107.72 705.884 107.72Z" fill="#001357"/>
<path d="M711.2 114.596H712.37C712.502 114.416 712.622 114.14 712.73 113.768C712.838 113.396 712.934 112.958 713.018 112.454C713.102 111.95 713.162 111.404 713.198 110.816C713.246 110.216 713.27 109.604 713.27 108.98V106.46H719.93V114.596H721.28V118.25H719.768V116H712.712V118.25H711.2V114.596ZM718.346 114.596V107.864H714.818V109.34C714.818 109.844 714.8 110.348 714.764 110.852C714.728 111.344 714.674 111.818 714.602 112.274C714.53 112.718 714.44 113.144 714.332 113.552C714.236 113.948 714.122 114.296 713.99 114.596H718.346Z" fill="#001357"/>
<path d="M724.262 119.78C724.082 119.78 723.902 119.762 723.722 119.726V118.286C723.902 118.322 724.082 118.34 724.262 118.34C724.442 118.34 724.598 118.31 724.73 118.25C724.862 118.19 724.988 118.076 725.108 117.908C725.228 117.74 725.354 117.5 725.486 117.188C725.63 116.888 725.792 116.492 725.972 116L721.922 106.46H723.686L726.782 114.2L729.59 106.46H731.282L727.682 116C727.43 116.672 727.19 117.248 726.962 117.728C726.734 118.208 726.488 118.598 726.224 118.898C725.972 119.21 725.69 119.432 725.378 119.564C725.066 119.708 724.694 119.78 724.262 119.78Z" fill="#001357"/>
<path d="M733.075 106.46H740.995V116H739.411V107.864H734.659V116H733.075V106.46Z" fill="#001357"/>
<path d="M743.868 106.46H745.344V108.26C745.668 107.624 746.118 107.138 746.694 106.802C747.282 106.454 747.96 106.28 748.728 106.28C749.928 106.28 750.888 106.676 751.608 107.468C752.328 108.248 752.688 109.412 752.688 110.96V111.32C752.688 112.136 752.592 112.85 752.4 113.462C752.208 114.062 751.938 114.566 751.59 114.974C751.242 115.37 750.822 115.67 750.33 115.874C749.85 116.078 749.316 116.18 748.728 116.18C747.912 116.18 747.228 116 746.676 115.64C746.136 115.28 745.728 114.83 745.452 114.29V119.6H743.868V106.46ZM748.368 114.776C748.752 114.776 749.112 114.704 749.448 114.56C749.784 114.404 750.072 114.182 750.312 113.894C750.564 113.606 750.756 113.246 750.888 112.814C751.032 112.382 751.104 111.884 751.104 111.32V110.96C751.104 110.444 751.032 109.982 750.888 109.574C750.756 109.166 750.564 108.824 750.312 108.548C750.072 108.26 749.784 108.044 749.448 107.9C749.112 107.756 748.752 107.684 748.368 107.684C747.936 107.684 747.54 107.756 747.18 107.9C746.82 108.032 746.514 108.224 746.262 108.476C746.01 108.716 745.812 109.004 745.668 109.34C745.524 109.676 745.452 110.036 745.452 110.42V111.86C745.452 112.292 745.524 112.688 745.668 113.048C745.812 113.408 746.01 113.714 746.262 113.966C746.514 114.218 746.82 114.416 747.18 114.56C747.54 114.704 747.936 114.776 748.368 114.776Z" fill="#001357"/>
<path d="M758.902 116.18C758.29 116.18 757.708 116.084 757.156 115.892C756.604 115.7 756.118 115.406 755.698 115.01C755.278 114.602 754.942 114.092 754.69 113.48C754.438 112.868 754.312 112.148 754.312 111.32V110.96C754.312 110.168 754.432 109.484 754.672 108.908C754.912 108.32 755.23 107.834 755.626 107.45C756.034 107.054 756.502 106.76 757.03 106.568C757.57 106.376 758.134 106.28 758.722 106.28C760.126 106.28 761.212 106.664 761.98 107.432C762.748 108.2 763.132 109.286 763.132 110.69V111.698H755.896C755.896 112.262 755.986 112.736 756.166 113.12C756.346 113.504 756.58 113.816 756.868 114.056C757.156 114.296 757.474 114.47 757.822 114.578C758.182 114.686 758.542 114.74 758.902 114.74C759.622 114.74 760.174 114.62 760.558 114.38C760.954 114.14 761.236 113.81 761.404 113.39H762.952C762.856 113.846 762.682 114.248 762.43 114.596C762.19 114.944 761.89 115.238 761.53 115.478C761.182 115.706 760.78 115.88 760.324 116C759.88 116.12 759.406 116.18 758.902 116.18ZM758.812 107.72C758.44 107.72 758.08 107.774 757.732 107.882C757.384 107.978 757.072 108.14 756.796 108.368C756.532 108.584 756.316 108.86 756.148 109.196C755.98 109.532 755.896 109.934 755.896 110.402H761.638C761.626 109.91 761.542 109.496 761.386 109.16C761.242 108.812 761.044 108.536 760.792 108.332C760.54 108.116 760.24 107.96 759.892 107.864C759.556 107.768 759.196 107.72 758.812 107.72Z" fill="#001357"/>
<path d="M764.127 114.596H765.297C765.429 114.416 765.549 114.14 765.657 113.768C765.765 113.396 765.861 112.958 765.945 112.454C766.029 111.95 766.089 111.404 766.125 110.816C766.173 110.216 766.197 109.604 766.197 108.98V106.46H772.857V114.596H774.207V118.25H772.695V116H765.639V118.25H764.127V114.596ZM771.273 114.596V107.864H767.745V109.34C767.745 109.844 767.727 110.348 767.691 110.852C767.655 111.344 767.601 111.818 767.529 112.274C767.457 112.718 767.367 113.144 767.259 113.552C767.163 113.948 767.049 114.296 766.917 114.596H771.273Z" fill="#001357"/>
<path d="M776.106 106.46H777.69V113.66L782.622 106.46H784.206V116H782.622V108.8L777.69 116H776.106V106.46Z" fill="#001357"/>
<path d="M789.27 107.864H786.012V106.46H794.112V107.864H790.854V116H789.27V107.864Z" fill="#001357"/>
<path d="M799.701 116.18C799.089 116.18 798.507 116.084 797.955 115.892C797.403 115.7 796.917 115.406 796.497 115.01C796.077 114.602 795.741 114.092 795.489 113.48C795.237 112.868 795.111 112.148 795.111 111.32V110.96C795.111 110.168 795.231 109.484 795.471 108.908C795.711 108.32 796.029 107.834 796.425 107.45C796.833 107.054 797.301 106.76 797.829 106.568C798.369 106.376 798.933 106.28 799.521 106.28C800.925 106.28 802.011 106.664 802.779 107.432C803.547 108.2 803.931 109.286 803.931 110.69V111.698H796.695C796.695 112.262 796.785 112.736 796.965 113.12C797.145 113.504 797.379 113.816 797.667 114.056C797.955 114.296 798.273 114.47 798.621 114.578C798.981 114.686 799.341 114.74 799.701 114.74C800.421 114.74 800.973 114.62 801.357 114.38C801.753 114.14 802.035 113.81 802.203 113.39H803.751C803.655 113.846 803.481 114.248 803.229 114.596C802.989 114.944 802.689 115.238 802.329 115.478C801.981 115.706 801.579 115.88 801.123 116C800.679 116.12 800.205 116.18 799.701 116.18ZM799.611 107.72C799.239 107.72 798.879 107.774 798.531 107.882C798.183 107.978 797.871 108.14 797.595 108.368C797.331 108.584 797.115 108.86 796.947 109.196C796.779 109.532 796.695 109.934 796.695 110.402H802.437C802.425 109.91 802.341 109.496 802.185 109.16C802.041 108.812 801.843 108.536 801.591 108.332C801.339 108.116 801.039 107.96 800.691 107.864C800.355 107.768 799.995 107.72 799.611 107.72Z" fill="#001357"/>
<path d="M805.556 116.18C805.376 116.18 805.196 116.162 805.016 116.126V114.542C805.076 114.554 805.166 114.56 805.286 114.56C805.55 114.56 805.778 114.476 805.97 114.308C806.174 114.14 806.336 113.846 806.456 113.426C806.576 113.006 806.666 112.436 806.726 111.716C806.786 110.996 806.816 110.084 806.816 108.98V106.46H813.656V116H812.072V107.864H808.4V109.34C808.4 110.672 808.34 111.776 808.22 112.652C808.1 113.528 807.92 114.23 807.68 114.758C807.452 115.274 807.158 115.64 806.798 115.856C806.438 116.072 806.024 116.18 805.556 116.18Z" fill="#001357"/>
<path d="M816.536 106.46H818.12V110.06H820.406C821.606 110.06 822.488 110.324 823.052 110.852C823.628 111.38 823.916 112.112 823.916 113.048C823.916 113.96 823.628 114.68 823.052 115.208C822.488 115.736 821.606 116 820.406 116H816.536V106.46ZM820.315 114.596C821.059 114.596 821.582 114.464 821.882 114.2C822.182 113.936 822.331 113.546 822.331 113.03C822.331 112.514 822.182 112.124 821.882 111.86C821.582 111.596 821.059 111.464 820.315 111.464H818.12V114.596H820.315Z" fill="#001357"/>
<path d="M825.993 106.46H827.577V110.438H832.509V106.46H834.093V116H832.509V111.842H827.577V116H825.993V106.46Z" fill="#001357"/>
<path d="M839.697 116.18C839.169 116.18 838.701 116.108 838.293 115.964C837.897 115.808 837.561 115.598 837.285 115.334C837.009 115.07 836.799 114.758 836.655 114.398C836.511 114.038 836.439 113.642 836.439 113.21C836.439 112.262 836.715 111.578 837.267 111.158C837.831 110.738 838.635 110.528 839.679 110.528H842.775V109.88C842.775 109.064 842.589 108.5 842.217 108.188C841.857 107.876 841.311 107.72 840.579 107.72C839.895 107.72 839.397 107.852 839.085 108.116C838.773 108.368 838.599 108.656 838.563 108.98H836.979C837.003 108.596 837.105 108.242 837.285 107.918C837.477 107.582 837.729 107.294 838.041 107.054C838.365 106.814 838.749 106.628 839.193 106.496C839.637 106.352 840.129 106.28 840.669 106.28C841.797 106.28 842.691 106.55 843.351 107.09C844.023 107.618 844.359 108.488 844.359 109.7V113.57C844.359 114.074 844.359 114.518 844.359 114.902C844.371 115.274 844.401 115.64 844.449 116H843.063C843.027 115.724 843.003 115.466 842.991 115.226C842.979 114.974 842.973 114.692 842.973 114.38C842.721 114.884 842.313 115.31 841.749 115.658C841.185 116.006 840.501 116.18 839.697 116.18ZM840.039 114.74C840.411 114.74 840.759 114.692 841.083 114.596C841.419 114.488 841.713 114.338 841.965 114.146C842.217 113.942 842.415 113.696 842.559 113.408C842.703 113.12 842.775 112.784 842.775 112.4V111.752H839.949C839.361 111.752 838.899 111.872 838.563 112.112C838.227 112.34 838.059 112.706 838.059 113.21C838.059 113.654 838.215 114.02 838.527 114.308C838.851 114.596 839.355 114.74 840.039 114.74Z" fill="#001357"/>
<path d="M849.029 112.22C848.237 112.04 847.667 111.716 847.319 111.248C846.971 110.768 846.797 110.156 846.797 109.412C846.797 108.476 847.079 107.75 847.643 107.234C848.219 106.718 849.137 106.46 850.397 106.46H854.537V116H852.953V112.364H850.523L848.201 116H846.437L849.029 112.22ZM848.381 109.412C848.381 109.916 848.525 110.3 848.813 110.564C849.113 110.828 849.611 110.96 850.307 110.96H852.953V107.864H850.307C849.611 107.864 849.113 107.996 848.813 108.26C848.525 108.524 848.381 108.908 848.381 109.412Z" fill="#001357"/>
<path d="M25.7998 103.4H27.5638L31.7758 111.41L35.9878 103.4H37.6798V116H35.9878V106.46L32.3698 113.3H31.1098L27.4918 106.46V116H25.7998V103.4Z" fill="#001357"/>
<path d="M43.6441 116.18C43.1161 116.18 42.6481 116.108 42.2401 115.964C41.8441 115.808 41.5081 115.598 41.2321 115.334C40.9561 115.07 40.7461 114.758 40.6021 114.398C40.4581 114.038 40.3861 113.642 40.3861 113.21C40.3861 112.262 40.6621 111.578 41.2141 111.158C41.7781 110.738 42.5821 110.528 43.6261 110.528H46.7221V109.88C46.7221 109.064 46.5361 108.5 46.1641 108.188C45.8041 107.876 45.2581 107.72 44.5261 107.72C43.8421 107.72 43.3441 107.852 43.0321 108.116C42.7201 108.368 42.5461 108.656 42.5101 108.98H40.9261C40.9501 108.596 41.0521 108.242 41.2321 107.918C41.4241 107.582 41.6761 107.294 41.9881 107.054C42.3121 106.814 42.6961 106.628 43.1401 106.496C43.5841 106.352 44.0761 106.28 44.6161 106.28C45.7441 106.28 46.6381 106.55 47.2981 107.09C47.9701 107.618 48.3061 108.488 48.3061 109.7V113.57C48.3061 114.074 48.3061 114.518 48.3061 114.902C48.3181 115.274 48.3481 115.64 48.3961 116H47.0101C46.9741 115.724 46.9501 115.466 46.9381 115.226C46.9261 114.974 46.9201 114.692 46.9201 114.38C46.6681 114.884 46.2601 115.31 45.6961 115.658C45.1321 116.006 44.4481 116.18 43.6441 116.18ZM43.9861 114.74C44.3581 114.74 44.7061 114.692 45.0301 114.596C45.3661 114.488 45.6601 114.338 45.9121 114.146C46.1641 113.942 46.3621 113.696 46.5061 113.408C46.6501 113.12 46.7221 112.784 46.7221 112.4V111.752H43.8961C43.3081 111.752 42.8461 111.872 42.5101 112.112C42.1741 112.34 42.0061 112.706 42.0061 113.21C42.0061 113.654 42.1621 114.02 42.4741 114.308C42.7981 114.596 43.3021 114.74 43.9861 114.74Z" fill="#001357"/>
<path d="M51.1039 106.46H52.6879V110.456H53.9479L57.5119 106.46H59.3839L55.2439 111.032L59.5639 116H57.5479L53.9479 111.824H52.6879V116H51.1039V106.46Z" fill="#001357"/>
<path d="M64.7958 116.18C64.1838 116.18 63.6138 116.084 63.0858 115.892C62.5578 115.688 62.1018 115.388 61.7178 114.992C61.3338 114.584 61.0278 114.074 60.7998 113.462C60.5838 112.85 60.4758 112.136 60.4758 111.32V110.96C60.4758 110.192 60.5958 109.514 60.8358 108.926C61.0758 108.338 61.3938 107.852 61.7898 107.468C62.1858 107.072 62.6418 106.778 63.1578 106.586C63.6858 106.382 64.2318 106.28 64.7958 106.28C65.3598 106.28 65.8638 106.358 66.3078 106.514C66.7638 106.67 67.1538 106.886 67.4778 107.162C67.8138 107.438 68.0838 107.762 68.2878 108.134C68.5038 108.506 68.6598 108.908 68.7558 109.34H67.1358C67.0398 109.112 66.9258 108.902 66.7938 108.71C66.6738 108.506 66.5178 108.332 66.3258 108.188C66.1458 108.044 65.9298 107.93 65.6778 107.846C65.4258 107.762 65.1318 107.72 64.7958 107.72C64.4478 107.72 64.1118 107.786 63.7878 107.918C63.4638 108.038 63.1758 108.23 62.9238 108.494C62.6718 108.746 62.4678 109.076 62.3118 109.484C62.1678 109.892 62.0958 110.384 62.0958 110.96V111.32C62.0958 111.932 62.1678 112.46 62.3118 112.904C62.4678 113.336 62.6718 113.69 62.9238 113.966C63.1758 114.23 63.4638 114.428 63.7878 114.56C64.1118 114.68 64.4478 114.74 64.7958 114.74C65.3838 114.74 65.8758 114.596 66.2718 114.308C66.6798 114.02 66.9678 113.624 67.1358 113.12H68.7558C68.5278 114.068 68.0598 114.818 67.3518 115.37C66.6438 115.91 65.7918 116.18 64.7958 116.18Z" fill="#001357"/>
<path d="M70.9144 106.46H72.4984V113.66L77.4304 106.46H79.0144V116H77.4304V108.8L72.4984 116H70.9144V106.46Z" fill="#001357"/>
<path d="M81.9007 106.46H83.5927L86.9947 112.4L90.3967 106.46H91.9807V116H90.3967V109.07L87.5707 113.93H86.3107L83.4847 109.07V116H81.9007V106.46Z" fill="#001357"/>
<path d="M96.1158 119.78C95.9358 119.78 95.7558 119.762 95.5758 119.726V118.286C95.7558 118.322 95.9358 118.34 96.1158 118.34C96.2958 118.34 96.4518 118.31 96.5838 118.25C96.7158 118.19 96.8418 118.076 96.9618 117.908C97.0818 117.74 97.2078 117.5 97.3398 117.188C97.4838 116.888 97.6458 116.492 97.8258 116L93.7758 106.46H95.5398L98.6358 114.2L101.444 106.46H103.136L99.5358 116C99.2838 116.672 99.0438 117.248 98.8158 117.728C98.5878 118.208 98.3418 118.598 98.0778 118.898C97.8258 119.21 97.5438 119.432 97.2318 119.564C96.9198 119.708 96.5478 119.78 96.1158 119.78Z" fill="#001357"/>
<path d="M104.928 106.46H106.62L110.022 112.4L113.424 106.46H115.008V116H113.424V109.07L110.598 113.93H109.338L106.512 109.07V116H104.928V106.46Z" fill="#001357"/>
<path d="M478.136 164.16C477.474 164.16 476.888 164.08 476.376 163.92C475.864 163.75 475.426 163.515 475.064 163.216C474.701 162.918 474.413 162.566 474.2 162.16C473.986 161.744 473.858 161.291 473.816 160.8H475.32C475.405 161.408 475.693 161.899 476.184 162.272C476.674 162.635 477.325 162.816 478.136 162.816C479.128 162.816 479.842 162.64 480.28 162.288C480.728 161.936 480.952 161.462 480.952 160.864C480.952 160.288 480.738 159.814 480.312 159.44C479.885 159.056 479.186 158.864 478.216 158.864H476.696V157.616H478.216C479.016 157.616 479.602 157.446 479.976 157.104C480.36 156.752 480.552 156.31 480.552 155.776C480.552 155.243 480.349 154.811 479.944 154.48C479.538 154.15 478.936 153.984 478.136 153.984C477.282 153.984 476.653 154.15 476.248 154.48C475.853 154.8 475.624 155.227 475.56 155.76H474.056C474.098 155.312 474.21 154.896 474.392 154.512C474.584 154.128 474.85 153.798 475.192 153.52C475.533 153.243 475.949 153.03 476.44 152.88C476.93 152.72 477.496 152.64 478.136 152.64C479.426 152.64 480.402 152.928 481.064 153.504C481.725 154.08 482.056 154.838 482.056 155.776C482.056 156.363 481.885 156.864 481.544 157.28C481.213 157.686 480.77 157.979 480.216 158.16C480.888 158.32 481.426 158.63 481.832 159.088C482.248 159.547 482.456 160.139 482.456 160.864C482.456 161.344 482.36 161.787 482.168 162.192C481.986 162.587 481.709 162.934 481.336 163.232C480.973 163.52 480.525 163.75 479.992 163.92C479.458 164.08 478.84 164.16 478.136 164.16Z" fill="#001357"/>
<path d="M484.514 155.52H485.922V159.056H490.306V155.52H491.714V164H490.306V160.304H485.922V164H484.514V155.52Z" fill="#001357"/>
<path d="M496.696 164.16C496.226 164.16 495.81 164.096 495.448 163.968C495.096 163.83 494.797 163.643 494.552 163.408C494.306 163.174 494.12 162.896 493.992 162.576C493.864 162.256 493.8 161.904 493.8 161.52C493.8 160.678 494.045 160.07 494.536 159.696C495.037 159.323 495.752 159.136 496.68 159.136H499.432V158.56C499.432 157.835 499.266 157.334 498.936 157.056C498.616 156.779 498.13 156.64 497.48 156.64C496.872 156.64 496.429 156.758 496.152 156.992C495.874 157.216 495.72 157.472 495.688 157.76H494.28C494.301 157.419 494.392 157.104 494.552 156.816C494.722 156.518 494.946 156.262 495.224 156.048C495.512 155.835 495.853 155.67 496.248 155.552C496.642 155.424 497.08 155.36 497.56 155.36C498.562 155.36 499.357 155.6 499.944 156.08C500.541 156.55 500.84 157.323 500.84 158.4V161.84C500.84 162.288 500.84 162.683 500.84 163.024C500.85 163.355 500.877 163.68 500.92 164H499.688C499.656 163.755 499.634 163.526 499.624 163.312C499.613 163.088 499.608 162.838 499.608 162.56C499.384 163.008 499.021 163.387 498.52 163.696C498.018 164.006 497.41 164.16 496.696 164.16ZM497 162.88C497.33 162.88 497.64 162.838 497.928 162.752C498.226 162.656 498.488 162.523 498.712 162.352C498.936 162.171 499.112 161.952 499.24 161.696C499.368 161.44 499.432 161.142 499.432 160.8V160.224H496.92C496.397 160.224 495.986 160.331 495.688 160.544C495.389 160.747 495.24 161.072 495.24 161.52C495.24 161.915 495.378 162.24 495.656 162.496C495.944 162.752 496.392 162.88 497 162.88Z" fill="#001357"/>
<path d="M508.239 160.624C507.993 160.774 507.695 160.907 507.343 161.024C507.001 161.142 506.569 161.2 506.047 161.2C505.556 161.2 505.113 161.147 504.719 161.04C504.335 160.934 504.009 160.763 503.743 160.528C503.476 160.294 503.273 159.99 503.135 159.616C502.996 159.243 502.927 158.784 502.927 158.24V155.52H504.335V158C504.335 158.363 504.367 158.667 504.431 158.912C504.505 159.158 504.623 159.355 504.783 159.504C504.943 159.654 505.145 159.76 505.391 159.824C505.636 159.888 505.935 159.92 506.287 159.92C506.767 159.92 507.177 159.872 507.519 159.776C507.86 159.68 508.1 159.579 508.239 159.472V155.52H509.647V164H508.239V160.624Z" fill="#001357"/>
<path d="M515.722 164.16C515.178 164.16 514.66 164.075 514.17 163.904C513.679 163.734 513.247 163.472 512.874 163.12C512.5 162.758 512.202 162.304 511.978 161.76C511.754 161.216 511.642 160.576 511.642 159.84V159.52C511.642 158.816 511.748 158.208 511.962 157.696C512.175 157.174 512.458 156.742 512.81 156.4C513.172 156.048 513.588 155.787 514.058 155.616C514.538 155.446 515.039 155.36 515.562 155.36C516.81 155.36 517.775 155.702 518.458 156.384C519.14 157.067 519.482 158.032 519.482 159.28V160.176H513.05C513.05 160.678 513.13 161.099 513.29 161.44C513.45 161.782 513.658 162.059 513.914 162.272C514.17 162.486 514.452 162.64 514.762 162.736C515.082 162.832 515.402 162.88 515.722 162.88C516.362 162.88 516.852 162.774 517.194 162.56C517.546 162.347 517.796 162.054 517.946 161.68H519.322C519.236 162.086 519.082 162.443 518.858 162.752C518.644 163.062 518.378 163.323 518.058 163.536C517.748 163.739 517.391 163.894 516.986 164C516.591 164.107 516.17 164.16 515.722 164.16ZM515.642 156.64C515.311 156.64 514.991 156.688 514.682 156.784C514.372 156.87 514.095 157.014 513.85 157.216C513.615 157.408 513.423 157.654 513.274 157.952C513.124 158.251 513.05 158.608 513.05 159.024H518.154C518.143 158.587 518.068 158.219 517.93 157.92C517.802 157.611 517.626 157.366 517.402 157.184C517.178 156.992 516.911 156.854 516.602 156.768C516.303 156.683 515.983 156.64 515.642 156.64Z" fill="#001357"/>
<path d="M521.483 155.52H522.891V159.056H527.275V155.52H528.683V164H527.275V160.304H522.891V164H521.483V155.52Z" fill="#001357"/>
<path d="M531.249 155.52H532.657V161.92L537.041 155.52H538.449V164H537.041V157.6L532.657 164H531.249V155.52Z" fill="#001357"/>
<path d="M542.678 160.64C541.974 160.48 541.468 160.192 541.158 159.776C540.849 159.35 540.694 158.806 540.694 158.144C540.694 157.312 540.945 156.667 541.446 156.208C541.958 155.75 542.774 155.52 543.894 155.52H547.574V164H546.166V160.768H544.006L541.942 164H540.374L542.678 160.64ZM542.102 158.144C542.102 158.592 542.23 158.934 542.486 159.168C542.753 159.403 543.196 159.52 543.814 159.52H546.166V156.768H543.814C543.196 156.768 542.753 156.886 542.486 157.12C542.23 157.355 542.102 157.696 542.102 158.144Z" fill="#001357"/>
<path d="M474.28 179.52H481.32V188H479.912V180.768H475.688V188H474.28V179.52Z" fill="#001357"/>
<path d="M487.394 188.16C486.85 188.16 486.332 188.075 485.842 187.904C485.351 187.734 484.919 187.472 484.546 187.12C484.172 186.758 483.874 186.304 483.65 185.76C483.426 185.216 483.314 184.576 483.314 183.84V183.52C483.314 182.816 483.42 182.208 483.634 181.696C483.847 181.174 484.13 180.742 484.482 180.4C484.844 180.048 485.26 179.787 485.73 179.616C486.21 179.446 486.711 179.36 487.234 179.36C488.482 179.36 489.447 179.702 490.13 180.384C490.812 181.067 491.154 182.032 491.154 183.28V184.176H484.722C484.722 184.678 484.802 185.099 484.962 185.44C485.122 185.782 485.33 186.059 485.586 186.272C485.842 186.486 486.124 186.64 486.434 186.736C486.754 186.832 487.074 186.88 487.394 186.88C488.034 186.88 488.524 186.774 488.866 186.56C489.218 186.347 489.468 186.054 489.618 185.68H490.994C490.908 186.086 490.754 186.443 490.53 186.752C490.316 187.062 490.05 187.323 489.73 187.536C489.42 187.739 489.063 187.894 488.658 188C488.263 188.107 487.842 188.16 487.394 188.16ZM487.314 180.64C486.983 180.64 486.663 180.688 486.354 180.784C486.044 180.87 485.767 181.014 485.522 181.216C485.287 181.408 485.095 181.654 484.946 181.952C484.796 182.251 484.722 182.608 484.722 183.024H489.826C489.815 182.587 489.74 182.219 489.602 181.92C489.474 181.611 489.298 181.366 489.074 181.184C488.85 180.992 488.583 180.854 488.274 180.768C487.975 180.683 487.655 180.64 487.314 180.64Z" fill="#001357"/>
<path d="M493.155 179.52H494.467V181.12C494.755 180.555 495.155 180.123 495.667 179.824C496.189 179.515 496.792 179.36 497.475 179.36C498.541 179.36 499.395 179.712 500.035 180.416C500.675 181.11 500.995 182.144 500.995 183.52V183.84C500.995 184.566 500.909 185.2 500.739 185.744C500.568 186.278 500.328 186.726 500.019 187.088C499.709 187.44 499.336 187.707 498.899 187.888C498.472 188.07 497.997 188.16 497.475 188.16C496.749 188.16 496.141 188 495.651 187.68C495.171 187.36 494.808 186.96 494.563 186.48V191.2H493.155V179.52ZM497.155 186.912C497.496 186.912 497.816 186.848 498.115 186.72C498.413 186.582 498.669 186.384 498.883 186.128C499.107 185.872 499.277 185.552 499.395 185.168C499.523 184.784 499.587 184.342 499.587 183.84V183.52C499.587 183.062 499.523 182.651 499.395 182.288C499.277 181.926 499.107 181.622 498.883 181.376C498.669 181.12 498.413 180.928 498.115 180.8C497.816 180.672 497.496 180.608 497.155 180.608C496.771 180.608 496.419 180.672 496.099 180.8C495.779 180.918 495.507 181.088 495.283 181.312C495.059 181.526 494.883 181.782 494.755 182.08C494.627 182.379 494.563 182.699 494.563 183.04V184.32C494.563 184.704 494.627 185.056 494.755 185.376C494.883 185.696 495.059 185.968 495.283 186.192C495.507 186.416 495.779 186.592 496.099 186.72C496.419 186.848 496.771 186.912 497.155 186.912Z" fill="#001357"/>
<path d="M506.519 188.16C505.975 188.16 505.457 188.075 504.967 187.904C504.476 187.734 504.044 187.472 503.671 187.12C503.297 186.758 502.999 186.304 502.775 185.76C502.551 185.216 502.439 184.576 502.439 183.84V183.52C502.439 182.816 502.545 182.208 502.759 181.696C502.972 181.174 503.255 180.742 503.607 180.4C503.969 180.048 504.385 179.787 504.855 179.616C505.335 179.446 505.836 179.36 506.359 179.36C507.607 179.36 508.572 179.702 509.255 180.384C509.937 181.067 510.279 182.032 510.279 183.28V184.176H503.847C503.847 184.678 503.927 185.099 504.087 185.44C504.247 185.782 504.455 186.059 504.711 186.272C504.967 186.486 505.249 186.64 505.559 186.736C505.879 186.832 506.199 186.88 506.519 186.88C507.159 186.88 507.649 186.774 507.991 186.56C508.343 186.347 508.593 186.054 508.743 185.68H510.119C510.033 186.086 509.879 186.443 509.655 186.752C509.441 187.062 509.175 187.323 508.855 187.536C508.545 187.739 508.188 187.894 507.783 188C507.388 188.107 506.967 188.16 506.519 188.16ZM506.439 180.64C506.108 180.64 505.788 180.688 505.479 180.784C505.169 180.87 504.892 181.014 504.647 181.216C504.412 181.408 504.22 181.654 504.071 181.952C503.921 182.251 503.847 182.608 503.847 183.024H508.951C508.94 182.587 508.865 182.219 508.727 181.92C508.599 181.611 508.423 181.366 508.199 181.184C507.975 180.992 507.708 180.854 507.399 180.768C507.1 180.683 506.78 180.64 506.439 180.64Z" fill="#001357"/>
<path d="M512.28 179.52H513.784L516.808 184.8L519.832 179.52H521.24V188H519.832V181.84L517.32 186.16H516.2L513.688 181.84V188H512.28V179.52Z" fill="#001357"/>
<path d="M527.315 188.16C526.771 188.16 526.254 188.075 525.763 187.904C525.273 187.734 524.841 187.472 524.467 187.12C524.094 186.758 523.795 186.304 523.571 185.76C523.347 185.216 523.235 184.576 523.235 183.84V183.52C523.235 182.816 523.342 182.208 523.555 181.696C523.769 181.174 524.051 180.742 524.403 180.4C524.766 180.048 525.182 179.787 525.651 179.616C526.131 179.446 526.633 179.36 527.155 179.36C528.403 179.36 529.369 179.702 530.051 180.384C530.734 181.067 531.075 182.032 531.075 183.28V184.176H524.643C524.643 184.678 524.723 185.099 524.883 185.44C525.043 185.782 525.251 186.059 525.507 186.272C525.763 186.486 526.046 186.64 526.355 186.736C526.675 186.832 526.995 186.88 527.315 186.88C527.955 186.88 528.446 186.774 528.787 186.56C529.139 186.347 529.39 186.054 529.539 185.68H530.915C530.83 186.086 530.675 186.443 530.451 186.752C530.238 187.062 529.971 187.323 529.651 187.536C529.342 187.739 528.985 187.894 528.579 188C528.185 188.107 527.763 188.16 527.315 188.16ZM527.235 180.64C526.905 180.64 526.585 180.688 526.275 180.784C525.966 180.87 525.689 181.014 525.443 181.216C525.209 181.408 525.017 181.654 524.867 181.952C524.718 182.251 524.643 182.608 524.643 183.024H529.747C529.737 182.587 529.662 182.219 529.523 181.92C529.395 181.611 529.219 181.366 528.995 181.184C528.771 180.992 528.505 180.854 528.195 180.768C527.897 180.683 527.577 180.64 527.235 180.64Z" fill="#001357"/>
<path d="M533.077 179.52H534.485V183.056H538.869V179.52H540.277V188H538.869V184.304H534.485V188H533.077V179.52Z" fill="#001357"/>
<path d="M542.842 179.52H544.25V183.056H548.634V179.52H550.042V188H548.634V184.304H544.25V188H542.842V179.52Z" fill="#001357"/>
<path d="M556.128 188.16C555.584 188.16 555.067 188.075 554.576 187.904C554.085 187.723 553.653 187.456 553.28 187.104C552.907 186.742 552.608 186.288 552.384 185.744C552.16 185.2 552.048 184.566 552.048 183.84V183.52C552.048 182.838 552.16 182.235 552.384 181.712C552.608 181.19 552.907 180.758 553.28 180.416C553.653 180.064 554.085 179.803 554.576 179.632C555.067 179.451 555.584 179.36 556.128 179.36C556.672 179.36 557.189 179.451 557.68 179.632C558.171 179.803 558.603 180.064 558.976 180.416C559.349 180.758 559.648 181.19 559.872 181.712C560.096 182.235 560.208 182.838 560.208 183.52V183.84C560.208 184.566 560.096 185.2 559.872 185.744C559.648 186.288 559.349 186.742 558.976 187.104C558.603 187.456 558.171 187.723 557.68 187.904C557.189 188.075 556.672 188.16 556.128 188.16ZM556.128 186.88C556.448 186.88 556.768 186.827 557.088 186.72C557.408 186.603 557.691 186.427 557.936 186.192C558.181 185.947 558.379 185.632 558.528 185.248C558.688 184.864 558.768 184.395 558.768 183.84V183.52C558.768 183.008 558.688 182.571 558.528 182.208C558.379 181.846 558.181 181.547 557.936 181.312C557.691 181.078 557.408 180.907 557.088 180.8C556.768 180.694 556.448 180.64 556.128 180.64C555.808 180.64 555.488 180.694 555.168 180.8C554.848 180.907 554.565 181.078 554.32 181.312C554.075 181.547 553.872 181.846 553.712 182.208C553.563 182.571 553.488 183.008 553.488 183.52V183.84C553.488 184.395 553.563 184.864 553.712 185.248C553.872 185.632 554.075 185.947 554.32 186.192C554.565 186.427 554.848 186.603 555.168 186.72C555.488 186.827 555.808 186.88 556.128 186.88Z" fill="#001357"/>
<path d="M562.202 179.52H563.61V185.92L567.994 179.52H569.402V188H567.994V181.6L563.61 188H562.202V179.52ZM565.802 178.48C564.97 178.48 564.362 178.304 563.978 177.952C563.594 177.59 563.402 177.072 563.402 176.4H564.778C564.778 177.126 565.119 177.488 565.802 177.488C566.506 177.488 566.858 177.126 566.858 176.4H568.202C568.202 177.072 568.01 177.59 567.626 177.952C567.242 178.304 566.634 178.48 565.802 178.48Z" fill="#001357"/>
<path d="M677.8 215.4H687.7V228H686.008V216.876H679.492V228H677.8V215.4Z" fill="#001357"/>
<path d="M690.94 218.46H692.416V220.26C692.74 219.624 693.19 219.138 693.766 218.802C694.354 218.454 695.032 218.28 695.8 218.28C697 218.28 697.96 218.676 698.68 219.468C699.4 220.248 699.76 221.412 699.76 222.96V223.32C699.76 224.136 699.664 224.85 699.472 225.462C699.28 226.062 699.01 226.566 698.662 226.974C698.314 227.37 697.894 227.67 697.402 227.874C696.922 228.078 696.388 228.18 695.8 228.18C694.984 228.18 694.3 228 693.748 227.64C693.208 227.28 692.8 226.83 692.524 226.29V231.6H690.94V218.46ZM695.44 226.776C695.824 226.776 696.184 226.704 696.52 226.56C696.856 226.404 697.144 226.182 697.384 225.894C697.636 225.606 697.828 225.246 697.96 224.814C698.104 224.382 698.176 223.884 698.176 223.32V222.96C698.176 222.444 698.104 221.982 697.96 221.574C697.828 221.166 697.636 220.824 697.384 220.548C697.144 220.26 696.856 220.044 696.52 219.9C696.184 219.756 695.824 219.684 695.44 219.684C695.008 219.684 694.612 219.756 694.252 219.9C693.892 220.032 693.586 220.224 693.334 220.476C693.082 220.716 692.884 221.004 692.74 221.34C692.596 221.676 692.524 222.036 692.524 222.42V223.86C692.524 224.292 692.596 224.688 692.74 225.048C692.884 225.408 693.082 225.714 693.334 225.966C693.586 226.218 693.892 226.416 694.252 226.56C694.612 226.704 695.008 226.776 695.44 226.776Z" fill="#001357"/>
<path d="M705.974 228.18C705.362 228.18 704.78 228.084 704.228 227.892C703.676 227.7 703.19 227.406 702.77 227.01C702.35 226.602 702.014 226.092 701.762 225.48C701.51 224.868 701.384 224.148 701.384 223.32V222.96C701.384 222.168 701.504 221.484 701.744 220.908C701.984 220.32 702.302 219.834 702.698 219.45C703.106 219.054 703.574 218.76 704.102 218.568C704.642 218.376 705.206 218.28 705.794 218.28C707.198 218.28 708.284 218.664 709.052 219.432C709.82 220.2 710.204 221.286 710.204 222.69V223.698H702.968C702.968 224.262 703.058 224.736 703.238 225.12C703.418 225.504 703.652 225.816 703.94 226.056C704.228 226.296 704.546 226.47 704.894 226.578C705.254 226.686 705.614 226.74 705.974 226.74C706.694 226.74 707.246 226.62 707.63 226.38C708.026 226.14 708.308 225.81 708.476 225.39H710.024C709.928 225.846 709.754 226.248 709.502 226.596C709.262 226.944 708.962 227.238 708.602 227.478C708.254 227.706 707.852 227.88 707.396 228C706.952 228.12 706.478 228.18 705.974 228.18ZM705.884 219.72C705.512 219.72 705.152 219.774 704.804 219.882C704.456 219.978 704.144 220.14 703.868 220.368C703.604 220.584 703.388 220.86 703.22 221.196C703.052 221.532 702.968 221.934 702.968 222.402H708.71C708.698 221.91 708.614 221.496 708.458 221.16C708.314 220.812 708.116 220.536 707.864 220.332C707.612 220.116 707.312 219.96 706.964 219.864C706.628 219.768 706.268 219.72 705.884 219.72Z" fill="#001357"/>
<path d="M711.2 226.596H712.37C712.502 226.416 712.622 226.14 712.73 225.768C712.838 225.396 712.934 224.958 713.018 224.454C713.102 223.95 713.162 223.404 713.198 222.816C713.246 222.216 713.27 221.604 713.27 220.98V218.46H719.93V226.596H721.28V230.25H719.768V228H712.712V230.25H711.2V226.596ZM718.346 226.596V219.864H714.818V221.34C714.818 221.844 714.8 222.348 714.764 222.852C714.728 223.344 714.674 223.818 714.602 224.274C714.53 224.718 714.44 225.144 714.332 225.552C714.236 225.948 714.122 226.296 713.99 226.596H718.346Z" fill="#001357"/>
<path d="M724.262 231.78C724.082 231.78 723.902 231.762 723.722 231.726V230.286C723.902 230.322 724.082 230.34 724.262 230.34C724.442 230.34 724.598 230.31 724.73 230.25C724.862 230.19 724.988 230.076 725.108 229.908C725.228 229.74 725.354 229.5 725.486 229.188C725.63 228.888 725.792 228.492 725.972 228L721.922 218.46H723.686L726.782 226.2L729.59 218.46H731.282L727.682 228C727.43 228.672 727.19 229.248 726.962 229.728C726.734 230.208 726.488 230.598 726.224 230.898C725.972 231.21 725.69 231.432 725.378 231.564C725.066 231.708 724.694 231.78 724.262 231.78Z" fill="#001357"/>
<path d="M733.075 218.46H740.995V228H739.411V219.864H734.659V228H733.075V218.46Z" fill="#001357"/>
<path d="M743.868 218.46H745.344V220.26C745.668 219.624 746.118 219.138 746.694 218.802C747.282 218.454 747.96 218.28 748.728 218.28C749.928 218.28 750.888 218.676 751.608 219.468C752.328 220.248 752.688 221.412 752.688 222.96V223.32C752.688 224.136 752.592 224.85 752.4 225.462C752.208 226.062 751.938 226.566 751.59 226.974C751.242 227.37 750.822 227.67 750.33 227.874C749.85 228.078 749.316 228.18 748.728 228.18C747.912 228.18 747.228 228 746.676 227.64C746.136 227.28 745.728 226.83 745.452 226.29V231.6H743.868V218.46ZM748.368 226.776C748.752 226.776 749.112 226.704 749.448 226.56C749.784 226.404 750.072 226.182 750.312 225.894C750.564 225.606 750.756 225.246 750.888 224.814C751.032 224.382 751.104 223.884 751.104 223.32V222.96C751.104 222.444 751.032 221.982 750.888 221.574C750.756 221.166 750.564 220.824 750.312 220.548C750.072 220.26 749.784 220.044 749.448 219.9C749.112 219.756 748.752 219.684 748.368 219.684C747.936 219.684 747.54 219.756 747.18 219.9C746.82 220.032 746.514 220.224 746.262 220.476C746.01 220.716 745.812 221.004 745.668 221.34C745.524 221.676 745.452 222.036 745.452 222.42V223.86C745.452 224.292 745.524 224.688 745.668 225.048C745.812 225.408 746.01 225.714 746.262 225.966C746.514 226.218 746.82 226.416 747.18 226.56C747.54 226.704 747.936 226.776 748.368 226.776Z" fill="#001357"/>
<path d="M758.902 228.18C758.29 228.18 757.708 228.084 757.156 227.892C756.604 227.7 756.118 227.406 755.698 227.01C755.278 226.602 754.942 226.092 754.69 225.48C754.438 224.868 754.312 224.148 754.312 223.32V222.96C754.312 222.168 754.432 221.484 754.672 220.908C754.912 220.32 755.23 219.834 755.626 219.45C756.034 219.054 756.502 218.76 757.03 218.568C757.57 218.376 758.134 218.28 758.722 218.28C760.126 218.28 761.212 218.664 761.98 219.432C762.748 220.2 763.132 221.286 763.132 222.69V223.698H755.896C755.896 224.262 755.986 224.736 756.166 225.12C756.346 225.504 756.58 225.816 756.868 226.056C757.156 226.296 757.474 226.47 757.822 226.578C758.182 226.686 758.542 226.74 758.902 226.74C759.622 226.74 760.174 226.62 760.558 226.38C760.954 226.14 761.236 225.81 761.404 225.39H762.952C762.856 225.846 762.682 226.248 762.43 226.596C762.19 226.944 761.89 227.238 761.53 227.478C761.182 227.706 760.78 227.88 760.324 228C759.88 228.12 759.406 228.18 758.902 228.18ZM758.812 219.72C758.44 219.72 758.08 219.774 757.732 219.882C757.384 219.978 757.072 220.14 756.796 220.368C756.532 220.584 756.316 220.86 756.148 221.196C755.98 221.532 755.896 221.934 755.896 222.402H761.638C761.626 221.91 761.542 221.496 761.386 221.16C761.242 220.812 761.044 220.536 760.792 220.332C760.54 220.116 760.24 219.96 759.892 219.864C759.556 219.768 759.196 219.72 758.812 219.72Z" fill="#001357"/>
<path d="M764.127 226.596H765.297C765.429 226.416 765.549 226.14 765.657 225.768C765.765 225.396 765.861 224.958 765.945 224.454C766.029 223.95 766.089 223.404 766.125 222.816C766.173 222.216 766.197 221.604 766.197 220.98V218.46H772.857V226.596H774.207V230.25H772.695V228H765.639V230.25H764.127V226.596ZM771.273 226.596V219.864H767.745V221.34C767.745 221.844 767.727 222.348 767.691 222.852C767.655 223.344 767.601 223.818 767.529 224.274C767.457 224.718 767.367 225.144 767.259 225.552C767.163 225.948 767.049 226.296 766.917 226.596H771.273Z" fill="#001357"/>
<path d="M776.106 218.46H777.69V225.66L782.622 218.46H784.206V228H782.622V220.8L777.69 228H776.106V218.46Z" fill="#001357"/>
<path d="M789.27 219.864H786.012V218.46H794.112V219.864H790.854V228H789.27V219.864Z" fill="#001357"/>
<path d="M799.701 228.18C799.089 228.18 798.507 228.084 797.955 227.892C797.403 227.7 796.917 227.406 796.497 227.01C796.077 226.602 795.741 226.092 795.489 225.48C795.237 224.868 795.111 224.148 795.111 223.32V222.96C795.111 222.168 795.231 221.484 795.471 220.908C795.711 220.32 796.029 219.834 796.425 219.45C796.833 219.054 797.301 218.76 797.829 218.568C798.369 218.376 798.933 218.28 799.521 218.28C800.925 218.28 802.011 218.664 802.779 219.432C803.547 220.2 803.931 221.286 803.931 222.69V223.698H796.695C796.695 224.262 796.785 224.736 796.965 225.12C797.145 225.504 797.379 225.816 797.667 226.056C797.955 226.296 798.273 226.47 798.621 226.578C798.981 226.686 799.341 226.74 799.701 226.74C800.421 226.74 800.973 226.62 801.357 226.38C801.753 226.14 802.035 225.81 802.203 225.39H803.751C803.655 225.846 803.481 226.248 803.229 226.596C802.989 226.944 802.689 227.238 802.329 227.478C801.981 227.706 801.579 227.88 801.123 228C800.679 228.12 800.205 228.18 799.701 228.18ZM799.611 219.72C799.239 219.72 798.879 219.774 798.531 219.882C798.183 219.978 797.871 220.14 797.595 220.368C797.331 220.584 797.115 220.86 796.947 221.196C796.779 221.532 796.695 221.934 796.695 222.402H802.437C802.425 221.91 802.341 221.496 802.185 221.16C802.041 220.812 801.843 220.536 801.591 220.332C801.339 220.116 801.039 219.96 800.691 219.864C800.355 219.768 799.995 219.72 799.611 219.72Z" fill="#001357"/>
<path d="M805.556 228.18C805.376 228.18 805.196 228.162 805.016 228.126V226.542C805.076 226.554 805.166 226.56 805.286 226.56C805.55 226.56 805.778 226.476 805.97 226.308C806.174 226.14 806.336 225.846 806.456 225.426C806.576 225.006 806.666 224.436 806.726 223.716C806.786 222.996 806.816 222.084 806.816 220.98V218.46H813.656V228H812.072V219.864H808.4V221.34C808.4 222.672 808.34 223.776 808.22 224.652C808.1 225.528 807.92 226.23 807.68 226.758C807.452 227.274 807.158 227.64 806.798 227.856C806.438 228.072 806.024 228.18 805.556 228.18Z" fill="#001357"/>
<path d="M816.536 218.46H818.12V222.06H820.406C821.606 222.06 822.488 222.324 823.052 222.852C823.628 223.38 823.916 224.112 823.916 225.048C823.916 225.96 823.628 226.68 823.052 227.208C822.488 227.736 821.606 228 820.406 228H816.536V218.46ZM820.315 226.596C821.059 226.596 821.582 226.464 821.882 226.2C822.182 225.936 822.331 225.546 822.331 225.03C822.331 224.514 822.182 224.124 821.882 223.86C821.582 223.596 821.059 223.464 820.315 223.464H818.12V226.596H820.315Z" fill="#001357"/>
<path d="M825.993 218.46H827.577V222.438H832.509V218.46H834.093V228H832.509V223.842H827.577V228H825.993V218.46Z" fill="#001357"/>
<path d="M839.697 228.18C839.169 228.18 838.701 228.108 838.293 227.964C837.897 227.808 837.561 227.598 837.285 227.334C837.009 227.07 836.799 226.758 836.655 226.398C836.511 226.038 836.439 225.642 836.439 225.21C836.439 224.262 836.715 223.578 837.267 223.158C837.831 222.738 838.635 222.528 839.679 222.528H842.775V221.88C842.775 221.064 842.589 220.5 842.217 220.188C841.857 219.876 841.311 219.72 840.579 219.72C839.895 219.72 839.397 219.852 839.085 220.116C838.773 220.368 838.599 220.656 838.563 220.98H836.979C837.003 220.596 837.105 220.242 837.285 219.918C837.477 219.582 837.729 219.294 838.041 219.054C838.365 218.814 838.749 218.628 839.193 218.496C839.637 218.352 840.129 218.28 840.669 218.28C841.797 218.28 842.691 218.55 843.351 219.09C844.023 219.618 844.359 220.488 844.359 221.7V225.57C844.359 226.074 844.359 226.518 844.359 226.902C844.371 227.274 844.401 227.64 844.449 228H843.063C843.027 227.724 843.003 227.466 842.991 227.226C842.979 226.974 842.973 226.692 842.973 226.38C842.721 226.884 842.313 227.31 841.749 227.658C841.185 228.006 840.501 228.18 839.697 228.18ZM840.039 226.74C840.411 226.74 840.759 226.692 841.083 226.596C841.419 226.488 841.713 226.338 841.965 226.146C842.217 225.942 842.415 225.696 842.559 225.408C842.703 225.12 842.775 224.784 842.775 224.4V223.752H839.949C839.361 223.752 838.899 223.872 838.563 224.112C838.227 224.34 838.059 224.706 838.059 225.21C838.059 225.654 838.215 226.02 838.527 226.308C838.851 226.596 839.355 226.74 840.039 226.74Z" fill="#001357"/>
<path d="M849.029 224.22C848.237 224.04 847.667 223.716 847.319 223.248C846.971 222.768 846.797 222.156 846.797 221.412C846.797 220.476 847.079 219.75 847.643 219.234C848.219 218.718 849.137 218.46 850.397 218.46H854.537V228H852.953V224.364H850.523L848.201 228H846.437L849.029 224.22ZM848.381 221.412C848.381 221.916 848.525 222.3 848.813 222.564C849.113 222.828 849.611 222.96 850.307 222.96H852.953V219.864H850.307C849.611 219.864 849.113 219.996 848.813 220.26C848.525 220.524 848.381 220.908 848.381 221.412Z" fill="#001357"/>
<path d="M25.7998 215.4H27.5638L31.7758 223.41L35.9878 215.4H37.6798V228H35.9878V218.46L32.3698 225.3H31.1098L27.4918 218.46V228H25.7998V215.4Z" fill="#001357"/>
<path d="M40.9261 218.46H42.5101V225.66L47.4421 218.46H49.0261V228H47.4421V220.8L42.5101 228H40.9261V218.46Z" fill="#001357"/>
<path d="M51.9125 218.46H53.4965V222.438H58.4285V218.46H60.0125V228H58.4285V223.842H53.4965V228H51.9125V218.46Z" fill="#001357"/>
<path d="M62.8988 218.46H64.4828V225.66L69.4148 218.46H70.9988V228H69.4148V220.8L64.4828 228H62.8988V218.46Z" fill="#001357"/>
<path d="M73.8851 218.46H75.5771L78.9791 224.4L82.3811 218.46H83.9651V228H82.3811V221.07L79.5551 225.93H78.2951L75.4691 221.07V228H73.8851V218.46Z" fill="#001357"/>
<path d="M88.1002 231.78C87.9202 231.78 87.7402 231.762 87.5602 231.726V230.286C87.7402 230.322 87.9202 230.34 88.1002 230.34C88.2802 230.34 88.4362 230.31 88.5682 230.25C88.7002 230.19 88.8262 230.076 88.9462 229.908C89.0662 229.74 89.1922 229.5 89.3242 229.188C89.4682 228.888 89.6302 228.492 89.8102 228L85.7602 218.46H87.5242L90.6202 226.2L93.4282 218.46H95.1202L91.5202 228C91.2682 228.672 91.0282 229.248 90.8002 229.728C90.5722 230.208 90.3262 230.598 90.0622 230.898C89.8102 231.21 89.5282 231.432 89.2162 231.564C88.9042 231.708 88.5322 231.78 88.1002 231.78Z" fill="#001357"/>
<path d="M96.9125 218.46H98.6045L102.006 224.4L105.408 218.46H106.992V228H105.408V221.07L102.582 225.93H101.322L98.4965 221.07V228H96.9125V218.46Z" fill="#001357"/>
<path d="M677.8 63.4002H687.7V76.0002H686.008V64.8762H679.492V76.0002H677.8V63.4002Z" fill="#A8042B"/>
<path d="M690.94 66.4602H692.416V68.2602C692.74 67.6242 693.19 67.1382 693.766 66.8022C694.354 66.4542 695.032 66.2802 695.8 66.2802C697 66.2802 697.96 66.6762 698.68 67.4682C699.4 68.2482 699.76 69.4122 699.76 70.9602V71.3202C699.76 72.1362 699.664 72.8502 699.472 73.4622C699.28 74.0622 699.01 74.5662 698.662 74.9742C698.314 75.3702 697.894 75.6702 697.402 75.8742C696.922 76.0782 696.388 76.1802 695.8 76.1802C694.984 76.1802 694.3 76.0002 693.748 75.6402C693.208 75.2802 692.8 74.8302 692.524 74.2902V79.6002H690.94V66.4602ZM695.44 74.7762C695.824 74.7762 696.184 74.7042 696.52 74.5602C696.856 74.4042 697.144 74.1822 697.384 73.8942C697.636 73.6062 697.828 73.2462 697.96 72.8142C698.104 72.3822 698.176 71.8842 698.176 71.3202V70.9602C698.176 70.4442 698.104 69.9822 697.96 69.5742C697.828 69.1662 697.636 68.8242 697.384 68.5482C697.144 68.2602 696.856 68.0442 696.52 67.9002C696.184 67.7562 695.824 67.6842 695.44 67.6842C695.008 67.6842 694.612 67.7562 694.252 67.9002C693.892 68.0322 693.586 68.2242 693.334 68.4762C693.082 68.7162 692.884 69.0042 692.74 69.3402C692.596 69.6762 692.524 70.0362 692.524 70.4202V71.8602C692.524 72.2922 692.596 72.6882 692.74 73.0482C692.884 73.4082 693.082 73.7142 693.334 73.9662C693.586 74.2182 693.892 74.4162 694.252 74.5602C694.612 74.7042 695.008 74.7762 695.44 74.7762Z" fill="#A8042B"/>
<path d="M705.974 76.1802C705.362 76.1802 704.78 76.0842 704.228 75.8922C703.676 75.7002 703.19 75.4062 702.77 75.0102C702.35 74.6022 702.014 74.0922 701.762 73.4802C701.51 72.8682 701.384 72.1482 701.384 71.3202V70.9602C701.384 70.1682 701.504 69.4842 701.744 68.9082C701.984 68.3202 702.302 67.8342 702.698 67.4502C703.106 67.0542 703.574 66.7602 704.102 66.5682C704.642 66.3762 705.206 66.2802 705.794 66.2802C707.198 66.2802 708.284 66.6642 709.052 67.4322C709.82 68.2002 710.204 69.2862 710.204 70.6902V71.6982H702.968C702.968 72.2622 703.058 72.7362 703.238 73.1202C703.418 73.5042 703.652 73.8162 703.94 74.0562C704.228 74.2962 704.546 74.4702 704.894 74.5782C705.254 74.6862 705.614 74.7402 705.974 74.7402C706.694 74.7402 707.246 74.6202 707.63 74.3802C708.026 74.1402 708.308 73.8102 708.476 73.3902H710.024C709.928 73.8462 709.754 74.2482 709.502 74.5962C709.262 74.9442 708.962 75.2382 708.602 75.4782C708.254 75.7062 707.852 75.8802 707.396 76.0002C706.952 76.1202 706.478 76.1802 705.974 76.1802ZM705.884 67.7202C705.512 67.7202 705.152 67.7742 704.804 67.8822C704.456 67.9782 704.144 68.1402 703.868 68.3682C703.604 68.5842 703.388 68.8602 703.22 69.1962C703.052 69.5322 702.968 69.9342 702.968 70.4022H708.71C708.698 69.9102 708.614 69.4962 708.458 69.1602C708.314 68.8122 708.116 68.5362 707.864 68.3322C707.612 68.1162 707.312 67.9602 706.964 67.8642C706.628 67.7682 706.268 67.7202 705.884 67.7202Z" fill="#A8042B"/>
<path d="M711.2 74.5962H712.37C712.502 74.4162 712.622 74.1402 712.73 73.7682C712.838 73.3962 712.934 72.9582 713.018 72.4542C713.102 71.9502 713.162 71.4042 713.198 70.8162C713.246 70.2162 713.27 69.6042 713.27 68.9802V66.4602H719.93V74.5962H721.28V78.2502H719.768V76.0002H712.712V78.2502H711.2V74.5962ZM718.346 74.5962V67.8642H714.818V69.3402C714.818 69.8442 714.8 70.3482 714.764 70.8522C714.728 71.3442 714.674 71.8182 714.602 72.2742C714.53 72.7182 714.44 73.1442 714.332 73.5522C714.236 73.9482 714.122 74.2962 713.99 74.5962H718.346Z" fill="#A8042B"/>
<path d="M726.072 76.1802C725.544 76.1802 725.076 76.1082 724.668 75.9642C724.272 75.8082 723.936 75.5982 723.66 75.3342C723.384 75.0702 723.174 74.7582 723.03 74.3982C722.886 74.0382 722.814 73.6422 722.814 73.2102C722.814 72.2622 723.09 71.5782 723.642 71.1582C724.206 70.7382 725.01 70.5282 726.054 70.5282H729.15V69.8802C729.15 69.0642 728.964 68.5002 728.592 68.1882C728.232 67.8762 727.686 67.7202 726.954 67.7202C726.27 67.7202 725.772 67.8522 725.46 68.1162C725.148 68.3682 724.974 68.6562 724.938 68.9802H723.354C723.378 68.5962 723.48 68.2422 723.66 67.9182C723.852 67.5822 724.104 67.2942 724.416 67.0542C724.74 66.8142 725.124 66.6282 725.568 66.4962C726.012 66.3522 726.504 66.2802 727.044 66.2802C728.172 66.2802 729.066 66.5502 729.726 67.0902C730.398 67.6182 730.734 68.4882 730.734 69.7002V73.5702C730.734 74.0742 730.734 74.5182 730.734 74.9022C730.746 75.2742 730.776 75.6402 730.824 76.0002H729.438C729.402 75.7242 729.378 75.4662 729.366 75.2262C729.354 74.9742 729.348 74.6922 729.348 74.3802C729.096 74.8842 728.688 75.3102 728.124 75.6582C727.56 76.0062 726.876 76.1802 726.072 76.1802ZM726.414 74.7402C726.786 74.7402 727.134 74.6922 727.458 74.5962C727.794 74.4882 728.088 74.3382 728.34 74.1462C728.592 73.9422 728.79 73.6962 728.934 73.4082C729.078 73.1202 729.15 72.7842 729.15 72.4002V71.7522H726.324C725.736 71.7522 725.274 71.8722 724.938 72.1122C724.602 72.3402 724.434 72.7062 724.434 73.2102C724.434 73.6542 724.59 74.0202 724.902 74.3082C725.226 74.5962 725.73 74.7402 726.414 74.7402Z" fill="#A8042B"/>
<path d="M733.532 66.4602H737.672C738.848 66.4602 739.712 66.7062 740.264 67.1982C740.816 67.6782 741.092 68.3022 741.092 69.0702C741.092 69.2742 741.056 69.4842 740.984 69.7002C740.912 69.9042 740.81 70.0962 740.678 70.2762C740.558 70.4562 740.408 70.6122 740.228 70.7442C740.06 70.8762 739.868 70.9782 739.652 71.0502C740.24 71.1942 740.684 71.4702 740.984 71.8782C741.296 72.2742 741.452 72.7422 741.452 73.2822C741.452 74.1102 741.176 74.7702 740.624 75.2622C740.072 75.7542 739.208 76.0002 738.032 76.0002H733.532V66.4602ZM738.032 74.5962C738.704 74.5962 739.178 74.4762 739.454 74.2362C739.73 73.9962 739.868 73.6542 739.868 73.2102C739.868 72.7542 739.73 72.4062 739.454 72.1662C739.178 71.9142 738.704 71.7882 738.032 71.7882H735.116V74.5962H738.032ZM737.672 70.4922C738.356 70.4922 738.83 70.3722 739.094 70.1322C739.37 69.8922 739.508 69.5622 739.508 69.1422C739.508 68.7462 739.37 68.4342 739.094 68.2062C738.83 67.9782 738.356 67.8642 737.672 67.8642H735.116V70.4922H737.672Z" fill="#A8042B"/>
<path d="M746.427 76.1802C745.899 76.1802 745.431 76.1082 745.023 75.9642C744.627 75.8082 744.291 75.5982 744.015 75.3342C743.739 75.0702 743.529 74.7582 743.385 74.3982C743.241 74.0382 743.169 73.6422 743.169 73.2102C743.169 72.2622 743.445 71.5782 743.997 71.1582C744.561 70.7382 745.365 70.5282 746.409 70.5282H749.505V69.8802C749.505 69.0642 749.319 68.5002 748.947 68.1882C748.587 67.8762 748.041 67.7202 747.309 67.7202C746.625 67.7202 746.127 67.8522 745.815 68.1162C745.503 68.3682 745.329 68.6562 745.293 68.9802H743.709C743.733 68.5962 743.835 68.2422 744.015 67.9182C744.207 67.5822 744.459 67.2942 744.771 67.0542C745.095 66.8142 745.479 66.6282 745.923 66.4962C746.367 66.3522 746.859 66.2802 747.399 66.2802C748.527 66.2802 749.421 66.5502 750.081 67.0902C750.753 67.6182 751.089 68.4882 751.089 69.7002V73.5702C751.089 74.0742 751.089 74.5182 751.089 74.9022C751.101 75.2742 751.131 75.6402 751.179 76.0002H749.793C749.757 75.7242 749.733 75.4662 749.721 75.2262C749.709 74.9742 749.703 74.6922 749.703 74.3802C749.451 74.8842 749.043 75.3102 748.479 75.6582C747.915 76.0062 747.231 76.1802 746.427 76.1802ZM746.769 74.7402C747.141 74.7402 747.489 74.6922 747.813 74.5962C748.149 74.4882 748.443 74.3382 748.695 74.1462C748.947 73.9422 749.145 73.6962 749.289 73.4082C749.433 73.1202 749.505 72.7842 749.505 72.4002V71.7522H746.679C746.091 71.7522 745.629 71.8722 745.293 72.1122C744.957 72.3402 744.789 72.7062 744.789 73.2102C744.789 73.6542 744.945 74.0202 745.257 74.3082C745.581 74.5962 746.085 74.7402 746.769 74.7402Z" fill="#A8042B"/>
<path d="M753.887 66.4602H755.363V68.2602C755.687 67.6242 756.137 67.1382 756.713 66.8022C757.301 66.4542 757.979 66.2802 758.747 66.2802C759.947 66.2802 760.907 66.6762 761.627 67.4682C762.347 68.2482 762.707 69.4122 762.707 70.9602V71.3202C762.707 72.1362 762.611 72.8502 762.419 73.4622C762.227 74.0622 761.957 74.5662 761.609 74.9742C761.261 75.3702 760.841 75.6702 760.349 75.8742C759.869 76.0782 759.335 76.1802 758.747 76.1802C757.931 76.1802 757.247 76.0002 756.695 75.6402C756.155 75.2802 755.747 74.8302 755.471 74.2902V79.6002H753.887V66.4602ZM758.387 74.7762C758.771 74.7762 759.131 74.7042 759.467 74.5602C759.803 74.4042 760.091 74.1822 760.331 73.8942C760.583 73.6062 760.775 73.2462 760.907 72.8142C761.051 72.3822 761.123 71.8842 761.123 71.3202V70.9602C761.123 70.4442 761.051 69.9822 760.907 69.5742C760.775 69.1662 760.583 68.8242 760.331 68.5482C760.091 68.2602 759.803 68.0442 759.467 67.9002C759.131 67.7562 758.771 67.6842 758.387 67.6842C757.955 67.6842 757.559 67.7562 757.199 67.9002C756.839 68.0322 756.533 68.2242 756.281 68.4762C756.029 68.7162 755.831 69.0042 755.687 69.3402C755.543 69.6762 755.471 70.0362 755.471 70.4202V71.8602C755.471 72.2922 755.543 72.6882 755.687 73.0482C755.831 73.4082 756.029 73.7142 756.281 73.9662C756.533 74.2182 756.839 74.4162 757.199 74.5602C757.559 74.7042 757.955 74.7762 758.387 74.7762Z" fill="#A8042B"/>
<path d="M764.961 66.4602H766.545V73.6602L771.477 66.4602H773.061V76.0002H771.477V68.8002L766.545 76.0002H764.961V66.4602Z" fill="#A8042B"/>
<path d="M775.948 66.4602H777.532V73.6602L782.464 66.4602H784.048V76.0002H782.464V68.8002L777.532 76.0002H775.948V66.4602ZM779.998 65.2902C779.062 65.2902 778.378 65.0922 777.946 64.6962C777.514 64.2882 777.298 63.7062 777.298 62.9502H778.846C778.846 63.7662 779.23 64.1742 779.998 64.1742C780.79 64.1742 781.186 63.7662 781.186 62.9502H782.698C782.698 63.7062 782.482 64.2882 782.05 64.6962C781.618 65.0922 780.934 65.2902 779.998 65.2902Z" fill="#A8042B"/>
<path d="M786.934 66.4602H788.518V70.4382H793.45V66.4602H795.034V76.0002H793.45V71.8422H788.518V76.0002H786.934V66.4602Z" fill="#A8042B"/>
<path d="M800.638 76.1802C800.11 76.1802 799.642 76.1082 799.234 75.9642C798.838 75.8082 798.502 75.5982 798.226 75.3342C797.95 75.0702 797.74 74.7582 797.596 74.3982C797.452 74.0382 797.38 73.6422 797.38 73.2102C797.38 72.2622 797.656 71.5782 798.208 71.1582C798.772 70.7382 799.576 70.5282 800.62 70.5282H803.716V69.8802C803.716 69.0642 803.53 68.5002 803.158 68.1882C802.798 67.8762 802.252 67.7202 801.52 67.7202C800.836 67.7202 800.338 67.8522 800.026 68.1162C799.714 68.3682 799.54 68.6562 799.504 68.9802H797.92C797.944 68.5962 798.046 68.2422 798.226 67.9182C798.418 67.5822 798.67 67.2942 798.982 67.0542C799.306 66.8142 799.69 66.6282 800.134 66.4962C800.578 66.3522 801.07 66.2802 801.61 66.2802C802.738 66.2802 803.632 66.5502 804.292 67.0902C804.964 67.6182 805.3 68.4882 805.3 69.7002V73.5702C805.3 74.0742 805.3 74.5182 805.3 74.9022C805.312 75.2742 805.342 75.6402 805.39 76.0002H804.004C803.968 75.7242 803.944 75.4662 803.932 75.2262C803.92 74.9742 803.914 74.6922 803.914 74.3802C803.662 74.8842 803.254 75.3102 802.69 75.6582C802.126 76.0062 801.442 76.1802 800.638 76.1802ZM800.98 74.7402C801.352 74.7402 801.7 74.6922 802.024 74.5962C802.36 74.4882 802.654 74.3382 802.906 74.1462C803.158 73.9422 803.356 73.6962 803.5 73.4082C803.644 73.1202 803.716 72.7842 803.716 72.4002V71.7522H800.89C800.302 71.7522 799.84 71.8722 799.504 72.1122C799.168 72.3402 799 72.7062 799 73.2102C799 73.6542 799.156 74.0202 799.468 74.3082C799.792 74.5962 800.296 74.7402 800.98 74.7402Z" fill="#A8042B"/>
<path d="M809.97 72.2202C809.178 72.0402 808.608 71.7162 808.26 71.2482C807.912 70.7682 807.738 70.1562 807.738 69.4122C807.738 68.4762 808.02 67.7502 808.584 67.2342C809.16 66.7182 810.078 66.4602 811.338 66.4602H815.478V76.0002H813.894V72.3642H811.464L809.142 76.0002H807.378L809.97 72.2202ZM809.322 69.4122C809.322 69.9162 809.466 70.3002 809.754 70.5642C810.054 70.8282 810.552 70.9602 811.248 70.9602H813.894V67.8642H811.248C810.552 67.8642 810.054 67.9962 809.754 68.2602C809.466 68.5242 809.322 68.9082 809.322 69.4122Z" fill="#A8042B"/>
<path d="M25.7998 63.4002H27.4918V68.8182H28.9318L33.8638 63.4002H35.8798L30.3718 69.4122L36.0598 76.0002H33.8998L28.9318 70.2222H27.4918V76.0002H25.7998V63.4002Z" fill="#A8042B"/>
<path d="M38.0433 66.4602H39.5193V68.2602C39.8433 67.6242 40.2933 67.1382 40.8693 66.8022C41.4573 66.4542 42.1353 66.2802 42.9033 66.2802C44.1033 66.2802 45.0633 66.6762 45.7833 67.4682C46.5033 68.2482 46.8633 69.4122 46.8633 70.9602V71.3202C46.8633 72.1362 46.7673 72.8502 46.5753 73.4622C46.3833 74.0622 46.1133 74.5662 45.7653 74.9742C45.4173 75.3702 44.9973 75.6702 44.5053 75.8742C44.0253 76.0782 43.4913 76.1802 42.9033 76.1802C42.0873 76.1802 41.4033 76.0002 40.8513 75.6402C40.3113 75.2802 39.9033 74.8302 39.6273 74.2902V79.6002H38.0433V66.4602ZM42.5433 74.7762C42.9273 74.7762 43.2873 74.7042 43.6233 74.5602C43.9593 74.4042 44.2473 74.1822 44.4873 73.8942C44.7393 73.6062 44.9313 73.2462 45.0633 72.8142C45.2073 72.3822 45.2793 71.8842 45.2793 71.3202V70.9602C45.2793 70.4442 45.2073 69.9822 45.0633 69.5742C44.9313 69.1662 44.7393 68.8242 44.4873 68.5482C44.2473 68.2602 43.9593 68.0442 43.6233 67.9002C43.2873 67.7562 42.9273 67.6842 42.5433 67.6842C42.1113 67.6842 41.7153 67.7562 41.3553 67.9002C40.9953 68.0322 40.6893 68.2242 40.4373 68.4762C40.1853 68.7162 39.9873 69.0042 39.8433 69.3402C39.6993 69.6762 39.6273 70.0362 39.6273 70.4202V71.8602C39.6273 72.2922 39.6993 72.6882 39.8433 73.0482C39.9873 73.4082 40.1853 73.7142 40.4373 73.9662C40.6893 74.2182 40.9953 74.4162 41.3553 74.5602C41.7153 74.7042 42.1113 74.7762 42.5433 74.7762Z" fill="#A8042B"/>
<path d="M49.1175 66.4602H50.7015V73.6602L55.6335 66.4602H57.2175V76.0002H55.6335V68.8002L50.7015 76.0002H49.1175V66.4602Z" fill="#A8042B"/>
<path d="M62.2819 67.8642H59.0239V66.4602H67.1239V67.8642H63.8659V76.0002H62.2819V67.8642Z" fill="#A8042B"/>
<path d="M68.3951 76.1802C68.0471 76.1802 67.7471 76.0602 67.4951 75.8202C67.2551 75.5682 67.1351 75.2682 67.1351 74.9202C67.1351 74.5602 67.2551 74.2602 67.4951 74.0202C67.7471 73.7802 68.0471 73.6602 68.3951 73.6602C68.7431 73.6602 69.0371 73.7802 69.2771 74.0202C69.5291 74.2602 69.6551 74.5602 69.6551 74.9202C69.6551 75.2682 69.5291 75.5682 69.2771 75.8202C69.0371 76.0602 68.7431 76.1802 68.3951 76.1802Z" fill="#A8042B"/>
<path d="M77.0316 66.4602H78.7236L82.1256 72.4002L85.5276 66.4602H87.1116V76.0002H85.5276V69.0702L82.7016 73.9302H81.4416L78.6156 69.0702V76.0002H77.0316V66.4602Z" fill="#A8042B"/>
<path d="M92.7047 76.1802C92.1767 76.1802 91.7087 76.1082 91.3007 75.9642C90.9047 75.8082 90.5687 75.5982 90.2927 75.3342C90.0167 75.0702 89.8067 74.7582 89.6627 74.3982C89.5187 74.0382 89.4467 73.6422 89.4467 73.2102C89.4467 72.2622 89.7227 71.5782 90.2747 71.1582C90.8387 70.7382 91.6427 70.5282 92.6867 70.5282H95.7827V69.8802C95.7827 69.0642 95.5967 68.5002 95.2247 68.1882C94.8647 67.8762 94.3187 67.7202 93.5867 67.7202C92.9027 67.7202 92.4047 67.8522 92.0927 68.1162C91.7807 68.3682 91.6067 68.6562 91.5707 68.9802H89.9867C90.0107 68.5962 90.1127 68.2422 90.2927 67.9182C90.4847 67.5822 90.7367 67.2942 91.0487 67.0542C91.3727 66.8142 91.7567 66.6282 92.2007 66.4962C92.6447 66.3522 93.1367 66.2802 93.6767 66.2802C94.8047 66.2802 95.6987 66.5502 96.3587 67.0902C97.0307 67.6182 97.3667 68.4882 97.3667 69.7002V73.5702C97.3667 74.0742 97.3667 74.5182 97.3667 74.9022C97.3787 75.2742 97.4087 75.6402 97.4567 76.0002H96.0707C96.0347 75.7242 96.0107 75.4662 95.9987 75.2262C95.9867 74.9742 95.9807 74.6922 95.9807 74.3802C95.7287 74.8842 95.3207 75.3102 94.7567 75.6582C94.1927 76.0062 93.5087 76.1802 92.7047 76.1802ZM93.0467 74.7402C93.4187 74.7402 93.7667 74.6922 94.0907 74.5962C94.4267 74.4882 94.7207 74.3382 94.9727 74.1462C95.2247 73.9422 95.4227 73.6962 95.5667 73.4082C95.7107 73.1202 95.7827 72.7842 95.7827 72.4002V71.7522H92.9567C92.3687 71.7522 91.9067 71.8722 91.5707 72.1122C91.2347 72.3402 91.0667 72.7062 91.0667 73.2102C91.0667 73.6542 91.2227 74.0202 91.5347 74.3082C91.8587 74.5962 92.3627 74.7402 93.0467 74.7402Z" fill="#A8042B"/>
<path d="M100.164 66.4602H101.748V70.4562H103.008L106.572 66.4602H108.444L104.304 71.0322L108.624 76.0002H106.608L103.008 71.8242H101.748V76.0002H100.164V66.4602Z" fill="#A8042B"/>
<path d="M113.856 76.1802C113.244 76.1802 112.674 76.0842 112.146 75.8922C111.618 75.6882 111.162 75.3882 110.778 74.9922C110.394 74.5842 110.088 74.0742 109.86 73.4622C109.644 72.8502 109.536 72.1362 109.536 71.3202V70.9602C109.536 70.1922 109.656 69.5142 109.896 68.9262C110.136 68.3382 110.454 67.8522 110.85 67.4682C111.246 67.0722 111.702 66.7782 112.218 66.5862C112.746 66.3822 113.292 66.2802 113.856 66.2802C114.42 66.2802 114.924 66.3582 115.368 66.5142C115.824 66.6702 116.214 66.8862 116.538 67.1622C116.874 67.4382 117.144 67.7622 117.348 68.1342C117.564 68.5062 117.72 68.9082 117.816 69.3402H116.196C116.1 69.1122 115.986 68.9022 115.854 68.7102C115.734 68.5062 115.578 68.3322 115.386 68.1882C115.206 68.0442 114.99 67.9302 114.738 67.8462C114.486 67.7622 114.192 67.7202 113.856 67.7202C113.508 67.7202 113.172 67.7862 112.848 67.9182C112.524 68.0382 112.236 68.2302 111.984 68.4942C111.732 68.7462 111.528 69.0762 111.372 69.4842C111.228 69.8922 111.156 70.3842 111.156 70.9602V71.3202C111.156 71.9322 111.228 72.4602 111.372 72.9042C111.528 73.3362 111.732 73.6902 111.984 73.9662C112.236 74.2302 112.524 74.4282 112.848 74.5602C113.172 74.6802 113.508 74.7402 113.856 74.7402C114.444 74.7402 114.936 74.5962 115.332 74.3082C115.74 74.0202 116.028 73.6242 116.196 73.1202H117.816C117.588 74.0682 117.12 74.8182 116.412 75.3702C115.704 75.9102 114.852 76.1802 113.856 76.1802Z" fill="#A8042B"/>
<path d="M119.975 66.4602H121.559V73.6602L126.491 66.4602H128.075V76.0002H126.491V68.8002L121.559 76.0002H119.975V66.4602Z" fill="#A8042B"/>
<path d="M130.961 66.4602H132.653L136.055 72.4002L139.457 66.4602H141.041V76.0002H139.457V69.0702L136.631 73.9302H135.371L132.545 69.0702V76.0002H130.961V66.4602Z" fill="#A8042B"/>
<path d="M145.176 79.7802C144.996 79.7802 144.816 79.7622 144.636 79.7262V78.2862C144.816 78.3222 144.996 78.3402 145.176 78.3402C145.356 78.3402 145.512 78.3102 145.644 78.2502C145.776 78.1902 145.902 78.0762 146.022 77.9082C146.142 77.7402 146.268 77.5002 146.4 77.1882C146.544 76.8882 146.706 76.4922 146.886 76.0002L142.836 66.4602H144.6L147.696 74.2002L150.504 66.4602H152.196L148.596 76.0002C148.344 76.6722 148.104 77.2482 147.876 77.7282C147.648 78.2082 147.402 78.5982 147.138 78.8982C146.886 79.2102 146.604 79.4322 146.292 79.5642C145.98 79.7082 145.608 79.7802 145.176 79.7802Z" fill="#A8042B"/>
<path d="M153.989 66.4602H155.681L159.083 72.4002L162.485 66.4602H164.069V76.0002H162.485V69.0702L159.659 73.9302H158.399L155.573 69.0702V76.0002H153.989V66.4602Z" fill="#A8042B"/>
<path d="M677.8 258.4H687.7V271H686.008V259.876H679.492V271H677.8V258.4Z" fill="#A8042B"/>
<path d="M690.94 261.46H692.416V263.26C692.74 262.624 693.19 262.138 693.766 261.802C694.354 261.454 695.032 261.28 695.8 261.28C697 261.28 697.96 261.676 698.68 262.468C699.4 263.248 699.76 264.412 699.76 265.96V266.32C699.76 267.136 699.664 267.85 699.472 268.462C699.28 269.062 699.01 269.566 698.662 269.974C698.314 270.37 697.894 270.67 697.402 270.874C696.922 271.078 696.388 271.18 695.8 271.18C694.984 271.18 694.3 271 693.748 270.64C693.208 270.28 692.8 269.83 692.524 269.29V274.6H690.94V261.46ZM695.44 269.776C695.824 269.776 696.184 269.704 696.52 269.56C696.856 269.404 697.144 269.182 697.384 268.894C697.636 268.606 697.828 268.246 697.96 267.814C698.104 267.382 698.176 266.884 698.176 266.32V265.96C698.176 265.444 698.104 264.982 697.96 264.574C697.828 264.166 697.636 263.824 697.384 263.548C697.144 263.26 696.856 263.044 696.52 262.9C696.184 262.756 695.824 262.684 695.44 262.684C695.008 262.684 694.612 262.756 694.252 262.9C693.892 263.032 693.586 263.224 693.334 263.476C693.082 263.716 692.884 264.004 692.74 264.34C692.596 264.676 692.524 265.036 692.524 265.42V266.86C692.524 267.292 692.596 267.688 692.74 268.048C692.884 268.408 693.082 268.714 693.334 268.966C693.586 269.218 693.892 269.416 694.252 269.56C694.612 269.704 695.008 269.776 695.44 269.776Z" fill="#A8042B"/>
<path d="M705.974 271.18C705.362 271.18 704.78 271.084 704.228 270.892C703.676 270.7 703.19 270.406 702.77 270.01C702.35 269.602 702.014 269.092 701.762 268.48C701.51 267.868 701.384 267.148 701.384 266.32V265.96C701.384 265.168 701.504 264.484 701.744 263.908C701.984 263.32 702.302 262.834 702.698 262.45C703.106 262.054 703.574 261.76 704.102 261.568C704.642 261.376 705.206 261.28 705.794 261.28C707.198 261.28 708.284 261.664 709.052 262.432C709.82 263.2 710.204 264.286 710.204 265.69V266.698H702.968C702.968 267.262 703.058 267.736 703.238 268.12C703.418 268.504 703.652 268.816 703.94 269.056C704.228 269.296 704.546 269.47 704.894 269.578C705.254 269.686 705.614 269.74 705.974 269.74C706.694 269.74 707.246 269.62 707.63 269.38C708.026 269.14 708.308 268.81 708.476 268.39H710.024C709.928 268.846 709.754 269.248 709.502 269.596C709.262 269.944 708.962 270.238 708.602 270.478C708.254 270.706 707.852 270.88 707.396 271C706.952 271.12 706.478 271.18 705.974 271.18ZM705.884 262.72C705.512 262.72 705.152 262.774 704.804 262.882C704.456 262.978 704.144 263.14 703.868 263.368C703.604 263.584 703.388 263.86 703.22 264.196C703.052 264.532 702.968 264.934 702.968 265.402H708.71C708.698 264.91 708.614 264.496 708.458 264.16C708.314 263.812 708.116 263.536 707.864 263.332C707.612 263.116 707.312 262.96 706.964 262.864C706.628 262.768 706.268 262.72 705.884 262.72Z" fill="#A8042B"/>
<path d="M711.2 269.596H712.37C712.502 269.416 712.622 269.14 712.73 268.768C712.838 268.396 712.934 267.958 713.018 267.454C713.102 266.95 713.162 266.404 713.198 265.816C713.246 265.216 713.27 264.604 713.27 263.98V261.46H719.93V269.596H721.28V273.25H719.768V271H712.712V273.25H711.2V269.596ZM718.346 269.596V262.864H714.818V264.34C714.818 264.844 714.8 265.348 714.764 265.852C714.728 266.344 714.674 266.818 714.602 267.274C714.53 267.718 714.44 268.144 714.332 268.552C714.236 268.948 714.122 269.296 713.99 269.596H718.346Z" fill="#A8042B"/>
<path d="M726.072 271.18C725.544 271.18 725.076 271.108 724.668 270.964C724.272 270.808 723.936 270.598 723.66 270.334C723.384 270.07 723.174 269.758 723.03 269.398C722.886 269.038 722.814 268.642 722.814 268.21C722.814 267.262 723.09 266.578 723.642 266.158C724.206 265.738 725.01 265.528 726.054 265.528H729.15V264.88C729.15 264.064 728.964 263.5 728.592 263.188C728.232 262.876 727.686 262.72 726.954 262.72C726.27 262.72 725.772 262.852 725.46 263.116C725.148 263.368 724.974 263.656 724.938 263.98H723.354C723.378 263.596 723.48 263.242 723.66 262.918C723.852 262.582 724.104 262.294 724.416 262.054C724.74 261.814 725.124 261.628 725.568 261.496C726.012 261.352 726.504 261.28 727.044 261.28C728.172 261.28 729.066 261.55 729.726 262.09C730.398 262.618 730.734 263.488 730.734 264.7V268.57C730.734 269.074 730.734 269.518 730.734 269.902C730.746 270.274 730.776 270.64 730.824 271H729.438C729.402 270.724 729.378 270.466 729.366 270.226C729.354 269.974 729.348 269.692 729.348 269.38C729.096 269.884 728.688 270.31 728.124 270.658C727.56 271.006 726.876 271.18 726.072 271.18ZM726.414 269.74C726.786 269.74 727.134 269.692 727.458 269.596C727.794 269.488 728.088 269.338 728.34 269.146C728.592 268.942 728.79 268.696 728.934 268.408C729.078 268.12 729.15 267.784 729.15 267.4V266.752H726.324C725.736 266.752 725.274 266.872 724.938 267.112C724.602 267.34 724.434 267.706 724.434 268.21C724.434 268.654 724.59 269.02 724.902 269.308C725.226 269.596 725.73 269.74 726.414 269.74Z" fill="#A8042B"/>
<path d="M733.532 261.46H737.672C738.848 261.46 739.712 261.706 740.264 262.198C740.816 262.678 741.092 263.302 741.092 264.07C741.092 264.274 741.056 264.484 740.984 264.7C740.912 264.904 740.81 265.096 740.678 265.276C740.558 265.456 740.408 265.612 740.228 265.744C740.06 265.876 739.868 265.978 739.652 266.05C740.24 266.194 740.684 266.47 740.984 266.878C741.296 267.274 741.452 267.742 741.452 268.282C741.452 269.11 741.176 269.77 740.624 270.262C740.072 270.754 739.208 271 738.032 271H733.532V261.46ZM738.032 269.596C738.704 269.596 739.178 269.476 739.454 269.236C739.73 268.996 739.868 268.654 739.868 268.21C739.868 267.754 739.73 267.406 739.454 267.166C739.178 266.914 738.704 266.788 738.032 266.788H735.116V269.596H738.032ZM737.672 265.492C738.356 265.492 738.83 265.372 739.094 265.132C739.37 264.892 739.508 264.562 739.508 264.142C739.508 263.746 739.37 263.434 739.094 263.206C738.83 262.978 738.356 262.864 737.672 262.864H735.116V265.492H737.672Z" fill="#A8042B"/>
<path d="M746.427 271.18C745.899 271.18 745.431 271.108 745.023 270.964C744.627 270.808 744.291 270.598 744.015 270.334C743.739 270.07 743.529 269.758 743.385 269.398C743.241 269.038 743.169 268.642 743.169 268.21C743.169 267.262 743.445 266.578 743.997 266.158C744.561 265.738 745.365 265.528 746.409 265.528H749.505V264.88C749.505 264.064 749.319 263.5 748.947 263.188C748.587 262.876 748.041 262.72 747.309 262.72C746.625 262.72 746.127 262.852 745.815 263.116C745.503 263.368 745.329 263.656 745.293 263.98H743.709C743.733 263.596 743.835 263.242 744.015 262.918C744.207 262.582 744.459 262.294 744.771 262.054C745.095 261.814 745.479 261.628 745.923 261.496C746.367 261.352 746.859 261.28 747.399 261.28C748.527 261.28 749.421 261.55 750.081 262.09C750.753 262.618 751.089 263.488 751.089 264.7V268.57C751.089 269.074 751.089 269.518 751.089 269.902C751.101 270.274 751.131 270.64 751.179 271H749.793C749.757 270.724 749.733 270.466 749.721 270.226C749.709 269.974 749.703 269.692 749.703 269.38C749.451 269.884 749.043 270.31 748.479 270.658C747.915 271.006 747.231 271.18 746.427 271.18ZM746.769 269.74C747.141 269.74 747.489 269.692 747.813 269.596C748.149 269.488 748.443 269.338 748.695 269.146C748.947 268.942 749.145 268.696 749.289 268.408C749.433 268.12 749.505 267.784 749.505 267.4V266.752H746.679C746.091 266.752 745.629 266.872 745.293 267.112C744.957 267.34 744.789 267.706 744.789 268.21C744.789 268.654 744.945 269.02 745.257 269.308C745.581 269.596 746.085 269.74 746.769 269.74Z" fill="#A8042B"/>
<path d="M753.887 261.46H755.363V263.26C755.687 262.624 756.137 262.138 756.713 261.802C757.301 261.454 757.979 261.28 758.747 261.28C759.947 261.28 760.907 261.676 761.627 262.468C762.347 263.248 762.707 264.412 762.707 265.96V266.32C762.707 267.136 762.611 267.85 762.419 268.462C762.227 269.062 761.957 269.566 761.609 269.974C761.261 270.37 760.841 270.67 760.349 270.874C759.869 271.078 759.335 271.18 758.747 271.18C757.931 271.18 757.247 271 756.695 270.64C756.155 270.28 755.747 269.83 755.471 269.29V274.6H753.887V261.46ZM758.387 269.776C758.771 269.776 759.131 269.704 759.467 269.56C759.803 269.404 760.091 269.182 760.331 268.894C760.583 268.606 760.775 268.246 760.907 267.814C761.051 267.382 761.123 266.884 761.123 266.32V265.96C761.123 265.444 761.051 264.982 760.907 264.574C760.775 264.166 760.583 263.824 760.331 263.548C760.091 263.26 759.803 263.044 759.467 262.9C759.131 262.756 758.771 262.684 758.387 262.684C757.955 262.684 757.559 262.756 757.199 262.9C756.839 263.032 756.533 263.224 756.281 263.476C756.029 263.716 755.831 264.004 755.687 264.34C755.543 264.676 755.471 265.036 755.471 265.42V266.86C755.471 267.292 755.543 267.688 755.687 268.048C755.831 268.408 756.029 268.714 756.281 268.966C756.533 269.218 756.839 269.416 757.199 269.56C757.559 269.704 757.955 269.776 758.387 269.776Z" fill="#A8042B"/>
<path d="M764.961 261.46H766.545V268.66L771.477 261.46H773.061V271H771.477V263.8L766.545 271H764.961V261.46Z" fill="#A8042B"/>
<path d="M775.948 261.46H777.532V268.66L782.464 261.46H784.048V271H782.464V263.8L777.532 271H775.948V261.46ZM779.998 260.29C779.062 260.29 778.378 260.092 777.946 259.696C777.514 259.288 777.298 258.706 777.298 257.95H778.846C778.846 258.766 779.23 259.174 779.998 259.174C780.79 259.174 781.186 258.766 781.186 257.95H782.698C782.698 258.706 782.482 259.288 782.05 259.696C781.618 260.092 780.934 260.29 779.998 260.29Z" fill="#A8042B"/>
<path d="M786.934 261.46H788.518V265.438H793.45V261.46H795.034V271H793.45V266.842H788.518V271H786.934V261.46Z" fill="#A8042B"/>
<path d="M800.638 271.18C800.11 271.18 799.642 271.108 799.234 270.964C798.838 270.808 798.502 270.598 798.226 270.334C797.95 270.07 797.74 269.758 797.596 269.398C797.452 269.038 797.38 268.642 797.38 268.21C797.38 267.262 797.656 266.578 798.208 266.158C798.772 265.738 799.576 265.528 800.62 265.528H803.716V264.88C803.716 264.064 803.53 263.5 803.158 263.188C802.798 262.876 802.252 262.72 801.52 262.72C800.836 262.72 800.338 262.852 800.026 263.116C799.714 263.368 799.54 263.656 799.504 263.98H797.92C797.944 263.596 798.046 263.242 798.226 262.918C798.418 262.582 798.67 262.294 798.982 262.054C799.306 261.814 799.69 261.628 800.134 261.496C800.578 261.352 801.07 261.28 801.61 261.28C802.738 261.28 803.632 261.55 804.292 262.09C804.964 262.618 805.3 263.488 805.3 264.7V268.57C805.3 269.074 805.3 269.518 805.3 269.902C805.312 270.274 805.342 270.64 805.39 271H804.004C803.968 270.724 803.944 270.466 803.932 270.226C803.92 269.974 803.914 269.692 803.914 269.38C803.662 269.884 803.254 270.31 802.69 270.658C802.126 271.006 801.442 271.18 800.638 271.18ZM800.98 269.74C801.352 269.74 801.7 269.692 802.024 269.596C802.36 269.488 802.654 269.338 802.906 269.146C803.158 268.942 803.356 268.696 803.5 268.408C803.644 268.12 803.716 267.784 803.716 267.4V266.752H800.89C800.302 266.752 799.84 266.872 799.504 267.112C799.168 267.34 799 267.706 799 268.21C799 268.654 799.156 269.02 799.468 269.308C799.792 269.596 800.296 269.74 800.98 269.74Z" fill="#A8042B"/>
<path d="M809.97 267.22C809.178 267.04 808.608 266.716 808.26 266.248C807.912 265.768 807.738 265.156 807.738 264.412C807.738 263.476 808.02 262.75 808.584 262.234C809.16 261.718 810.078 261.46 811.338 261.46H815.478V271H813.894V267.364H811.464L809.142 271H807.378L809.97 267.22ZM809.322 264.412C809.322 264.916 809.466 265.3 809.754 265.564C810.054 265.828 810.552 265.96 811.248 265.96H813.894V262.864H811.248C810.552 262.864 810.054 262.996 809.754 263.26C809.466 263.524 809.322 263.908 809.322 264.412Z" fill="#A8042B"/>
<path d="M25.7998 258.4H27.4918V263.818H28.9318L33.8638 258.4H35.8798L30.3718 264.412L36.0598 271H33.8998L28.9318 265.222H27.4918V271H25.7998V258.4Z" fill="#A8042B"/>
<path d="M38.0433 261.46H39.5193V263.26C39.8433 262.624 40.2933 262.138 40.8693 261.802C41.4573 261.454 42.1353 261.28 42.9033 261.28C44.1033 261.28 45.0633 261.676 45.7833 262.468C46.5033 263.248 46.8633 264.412 46.8633 265.96V266.32C46.8633 267.136 46.7673 267.85 46.5753 268.462C46.3833 269.062 46.1133 269.566 45.7653 269.974C45.4173 270.37 44.9973 270.67 44.5053 270.874C44.0253 271.078 43.4913 271.18 42.9033 271.18C42.0873 271.18 41.4033 271 40.8513 270.64C40.3113 270.28 39.9033 269.83 39.6273 269.29V274.6H38.0433V261.46ZM42.5433 269.776C42.9273 269.776 43.2873 269.704 43.6233 269.56C43.9593 269.404 44.2473 269.182 44.4873 268.894C44.7393 268.606 44.9313 268.246 45.0633 267.814C45.2073 267.382 45.2793 266.884 45.2793 266.32V265.96C45.2793 265.444 45.2073 264.982 45.0633 264.574C44.9313 264.166 44.7393 263.824 44.4873 263.548C44.2473 263.26 43.9593 263.044 43.6233 262.9C43.2873 262.756 42.9273 262.684 42.5433 262.684C42.1113 262.684 41.7153 262.756 41.3553 262.9C40.9953 263.032 40.6893 263.224 40.4373 263.476C40.1853 263.716 39.9873 264.004 39.8433 264.34C39.6993 264.676 39.6273 265.036 39.6273 265.42V266.86C39.6273 267.292 39.6993 267.688 39.8433 268.048C39.9873 268.408 40.1853 268.714 40.4373 268.966C40.6893 269.218 40.9953 269.416 41.3553 269.56C41.7153 269.704 42.1113 269.776 42.5433 269.776Z" fill="#A8042B"/>
<path d="M49.1175 261.46H50.7015V268.66L55.6335 261.46H57.2175V271H55.6335V263.8L50.7015 271H49.1175V261.46Z" fill="#A8042B"/>
<path d="M62.2819 262.864H59.0239V261.46H67.1239V262.864H63.8659V271H62.2819V262.864Z" fill="#A8042B"/>
<path d="M68.3951 271.18C68.0471 271.18 67.7471 271.06 67.4951 270.82C67.2551 270.568 67.1351 270.268 67.1351 269.92C67.1351 269.56 67.2551 269.26 67.4951 269.02C67.7471 268.78 68.0471 268.66 68.3951 268.66C68.7431 268.66 69.0371 268.78 69.2771 269.02C69.5291 269.26 69.6551 269.56 69.6551 269.92C69.6551 270.268 69.5291 270.568 69.2771 270.82C69.0371 271.06 68.7431 271.18 68.3951 271.18Z" fill="#A8042B"/>
<path d="M77.0316 261.46H78.7236L82.1256 267.4L85.5276 261.46H87.1116V271H85.5276V264.07L82.7016 268.93H81.4416L78.6156 264.07V271H77.0316V261.46Z" fill="#A8042B"/>
<path d="M89.9867 261.46H91.5707V268.66L96.5027 261.46H98.0867V271H96.5027V263.8L91.5707 271H89.9867V261.46Z" fill="#A8042B"/>
<path d="M100.973 261.46H102.557V265.438H107.489V261.46H109.073V271H107.489V266.842H102.557V271H100.973V261.46Z" fill="#A8042B"/>
<path d="M111.959 261.46H113.543V268.66L118.475 261.46H120.059V271H118.475V263.8L113.543 271H111.959V261.46Z" fill="#A8042B"/>
<path d="M122.946 261.46H124.638L128.04 267.4L131.442 261.46H133.026V271H131.442V264.07L128.616 268.93H127.356L124.53 264.07V271H122.946V261.46Z" fill="#A8042B"/>
<path d="M137.161 274.78C136.981 274.78 136.801 274.762 136.621 274.726V273.286C136.801 273.322 136.981 273.34 137.161 273.34C137.341 273.34 137.497 273.31 137.629 273.25C137.761 273.19 137.887 273.076 138.007 272.908C138.127 272.74 138.253 272.5 138.385 272.188C138.529 271.888 138.691 271.492 138.871 271L134.821 261.46H136.585L139.681 269.2L142.489 261.46H144.181L140.581 271C140.329 271.672 140.089 272.248 139.861 272.728C139.633 273.208 139.387 273.598 139.123 273.898C138.871 274.21 138.589 274.432 138.277 274.564C137.965 274.708 137.593 274.78 137.161 274.78Z" fill="#A8042B"/>
<path d="M145.973 261.46H147.665L151.067 267.4L154.469 261.46H156.053V271H154.469V264.07L151.643 268.93H150.383L147.557 264.07V271H145.973V261.46Z" fill="#A8042B"/>
<path d="M241 249.001C241 249.001 296.1 82.1702 332.833 82.1702C369.567 82.1702 387.933 186.848 424.667 186.848C461.4 186.848 492.499 80.0014 516.5 56.0007C540.501 31.9999 571.5 42.5002 592.333 63.3566" stroke="#001357" stroke-width="2"/>
</svg>
