<svg width="880" height="320" viewBox="0 0 880 320" fill="none" xmlns="http://www.w3.org/2000/svg">
<rect width="880" height="320" rx="5" fill="#EDF1FF"/>
<path d="M63.8389 266.4H68.3389C69.0949 266.4 69.7429 266.484 70.2829 266.652C70.8229 266.82 71.2669 267.054 71.6149 267.354C71.9749 267.642 72.2389 267.996 72.4069 268.416C72.5749 268.824 72.6589 269.274 72.6589 269.766C72.6589 270.414 72.4789 270.972 72.1189 271.44C71.7589 271.896 71.3149 272.226 70.7869 272.43C71.5309 272.598 72.1189 272.94 72.5509 273.456C72.9829 273.96 73.1989 274.62 73.1989 275.436C73.1989 275.952 73.1149 276.426 72.9469 276.858C72.7789 277.29 72.5149 277.668 72.1549 277.992C71.7949 278.304 71.3269 278.55 70.7509 278.73C70.1869 278.91 69.5029 279 68.6989 279H63.8389V266.4ZM68.6989 277.524C69.2389 277.524 69.6889 277.476 70.0489 277.38C70.4089 277.272 70.6969 277.128 70.9129 276.948C71.1289 276.756 71.2789 276.528 71.3629 276.264C71.4589 276 71.5069 275.706 71.5069 275.382C71.5069 275.058 71.4589 274.764 71.3629 274.5C71.2789 274.224 71.1289 273.996 70.9129 273.816C70.6969 273.624 70.4029 273.48 70.0309 273.384C69.6709 273.276 69.2209 273.222 68.6809 273.222H65.5309V277.524H68.6989ZM68.3389 271.818C68.8429 271.818 69.2629 271.77 69.5989 271.674C69.9349 271.578 70.2049 271.44 70.4089 271.26C70.6129 271.08 70.7569 270.87 70.8409 270.63C70.9249 270.39 70.9669 270.126 70.9669 269.838C70.9669 269.55 70.9249 269.286 70.8409 269.046C70.7569 268.794 70.6129 268.584 70.4089 268.416C70.2049 268.248 69.9349 268.116 69.5989 268.02C69.2629 267.924 68.8429 267.876 68.3389 267.876H65.5309V271.818H68.3389Z" fill="black"/>
<path d="M77.9537 274.158L74.5517 269.46H76.3877L78.9077 272.934L81.4277 269.46H83.1917L79.7897 274.068L83.3717 279H81.4997L78.8357 275.274L76.1717 279H74.3717L77.9537 274.158Z" fill="black"/>
<path d="M88.8666 279.18C88.2546 279.18 87.6726 279.084 87.1206 278.892C86.5686 278.688 86.0826 278.388 85.6626 277.992C85.2426 277.584 84.9066 277.074 84.6546 276.462C84.4026 275.85 84.2766 275.136 84.2766 274.32V273.96C84.2766 273.192 84.4026 272.514 84.6546 271.926C84.9066 271.338 85.2426 270.852 85.6626 270.468C86.0826 270.072 86.5686 269.778 87.1206 269.586C87.6726 269.382 88.2546 269.28 88.8666 269.28C89.4786 269.28 90.0606 269.382 90.6126 269.586C91.1646 269.778 91.6506 270.072 92.0706 270.468C92.4906 270.852 92.8266 271.338 93.0786 271.926C93.3306 272.514 93.4566 273.192 93.4566 273.96V274.32C93.4566 275.136 93.3306 275.85 93.0786 276.462C92.8266 277.074 92.4906 277.584 92.0706 277.992C91.6506 278.388 91.1646 278.688 90.6126 278.892C90.0606 279.084 89.4786 279.18 88.8666 279.18ZM88.8666 277.74C89.2266 277.74 89.5866 277.68 89.9466 277.56C90.3066 277.428 90.6246 277.23 90.9006 276.966C91.1766 276.69 91.3986 276.336 91.5666 275.904C91.7466 275.472 91.8366 274.944 91.8366 274.32V273.96C91.8366 273.384 91.7466 272.892 91.5666 272.484C91.3986 272.076 91.1766 271.74 90.9006 271.476C90.6246 271.212 90.3066 271.02 89.9466 270.9C89.5866 270.78 89.2266 270.72 88.8666 270.72C88.5066 270.72 88.1466 270.78 87.7866 270.9C87.4266 271.02 87.1086 271.212 86.8326 271.476C86.5566 271.74 86.3286 272.076 86.1486 272.484C85.9806 272.892 85.8966 273.384 85.8966 273.96V274.32C85.8966 274.944 85.9806 275.472 86.1486 275.904C86.3286 276.336 86.5566 276.69 86.8326 276.966C87.1086 277.23 87.4266 277.428 87.7866 277.56C88.1466 277.68 88.5066 277.74 88.8666 277.74Z" fill="black"/>
<path d="M94.4438 277.596H95.6138C95.7458 277.416 95.8658 277.14 95.9738 276.768C96.0818 276.396 96.1778 275.958 96.2618 275.454C96.3458 274.95 96.4058 274.404 96.4418 273.816C96.4898 273.216 96.5138 272.604 96.5138 271.98V269.46H103.174V277.596H104.524V281.25H103.012V279H95.9558V281.25H94.4438V277.596ZM101.59 277.596V270.864H98.0618V272.34C98.0618 272.844 98.0438 273.348 98.0078 273.852C97.9718 274.344 97.9178 274.818 97.8458 275.274C97.7738 275.718 97.6838 276.144 97.5758 276.552C97.4798 276.948 97.3658 277.296 97.2338 277.596H101.59Z" fill="black"/>
<path d="M106.422 269.46H108.006V273.438H112.938V269.46H114.522V279H112.938V274.842H108.006V279H106.422V269.46Z" fill="black"/>
<path d="M120.127 279.18C119.599 279.18 119.131 279.108 118.723 278.964C118.327 278.808 117.991 278.598 117.715 278.334C117.439 278.07 117.229 277.758 117.085 277.398C116.941 277.038 116.869 276.642 116.869 276.21C116.869 275.262 117.145 274.578 117.697 274.158C118.261 273.738 119.065 273.528 120.109 273.528H123.205V272.88C123.205 272.064 123.019 271.5 122.647 271.188C122.287 270.876 121.741 270.72 121.009 270.72C120.325 270.72 119.827 270.852 119.515 271.116C119.203 271.368 119.029 271.656 118.993 271.98H117.409C117.433 271.596 117.535 271.242 117.715 270.918C117.907 270.582 118.159 270.294 118.471 270.054C118.795 269.814 119.179 269.628 119.623 269.496C120.067 269.352 120.559 269.28 121.099 269.28C122.227 269.28 123.121 269.55 123.781 270.09C124.453 270.618 124.789 271.488 124.789 272.7V276.57C124.789 277.074 124.789 277.518 124.789 277.902C124.801 278.274 124.831 278.64 124.879 279H123.493C123.457 278.724 123.433 278.466 123.421 278.226C123.409 277.974 123.403 277.692 123.403 277.38C123.151 277.884 122.743 278.31 122.179 278.658C121.615 279.006 120.931 279.18 120.127 279.18ZM120.469 277.74C120.841 277.74 121.189 277.692 121.513 277.596C121.849 277.488 122.143 277.338 122.395 277.146C122.647 276.942 122.845 276.696 122.989 276.408C123.133 276.12 123.205 275.784 123.205 275.4V274.752H120.379C119.791 274.752 119.329 274.872 118.993 275.112C118.657 275.34 118.489 275.706 118.489 276.21C118.489 276.654 118.645 277.02 118.957 277.308C119.281 277.596 119.785 277.74 120.469 277.74Z" fill="black"/>
<path d="M129.458 275.22C128.666 275.04 128.096 274.716 127.748 274.248C127.4 273.768 127.226 273.156 127.226 272.412C127.226 271.476 127.508 270.75 128.072 270.234C128.648 269.718 129.566 269.46 130.826 269.46H134.966V279H133.382V275.364H130.952L128.63 279H126.866L129.458 275.22ZM128.81 272.412C128.81 272.916 128.954 273.3 129.242 273.564C129.542 273.828 130.04 273.96 130.736 273.96H133.382V270.864H130.736C130.04 270.864 129.542 270.996 129.242 271.26C128.954 271.524 128.81 271.908 128.81 272.412Z" fill="black"/>
<path d="M141.272 277.596H142.442C142.574 277.416 142.694 277.14 142.802 276.768C142.91 276.396 143.006 275.958 143.09 275.454C143.174 274.95 143.234 274.404 143.27 273.816C143.318 273.216 143.342 272.604 143.342 271.98V269.46H150.002V277.596H151.352V281.25H149.84V279H142.784V281.25H141.272V277.596ZM148.418 277.596V270.864H144.89V272.34C144.89 272.844 144.872 273.348 144.836 273.852C144.8 274.344 144.746 274.818 144.674 275.274C144.602 275.718 144.512 276.144 144.404 276.552C144.308 276.948 144.194 277.296 144.062 277.596H148.418Z" fill="black"/>
<path d="M153.25 269.46H157.39C158.566 269.46 159.43 269.706 159.982 270.198C160.534 270.678 160.81 271.302 160.81 272.07C160.81 272.274 160.774 272.484 160.702 272.7C160.63 272.904 160.528 273.096 160.396 273.276C160.276 273.456 160.126 273.612 159.946 273.744C159.778 273.876 159.586 273.978 159.37 274.05C159.958 274.194 160.402 274.47 160.702 274.878C161.014 275.274 161.17 275.742 161.17 276.282C161.17 277.11 160.894 277.77 160.342 278.262C159.79 278.754 158.926 279 157.75 279H153.25V269.46ZM157.75 277.596C158.422 277.596 158.896 277.476 159.172 277.236C159.448 276.996 159.586 276.654 159.586 276.21C159.586 275.754 159.448 275.406 159.172 275.166C158.896 274.914 158.422 274.788 157.75 274.788H154.834V277.596H157.75ZM157.39 273.492C158.074 273.492 158.548 273.372 158.812 273.132C159.088 272.892 159.226 272.562 159.226 272.142C159.226 271.746 159.088 271.434 158.812 271.206C158.548 270.978 158.074 270.864 157.39 270.864H154.834V273.492H157.39Z" fill="black"/>
<path d="M167.388 279.18C166.776 279.18 166.194 279.084 165.642 278.892C165.09 278.7 164.604 278.406 164.184 278.01C163.764 277.602 163.428 277.092 163.176 276.48C162.924 275.868 162.798 275.148 162.798 274.32V273.96C162.798 273.168 162.918 272.484 163.158 271.908C163.398 271.32 163.716 270.834 164.112 270.45C164.52 270.054 164.988 269.76 165.516 269.568C166.056 269.376 166.62 269.28 167.208 269.28C168.612 269.28 169.698 269.664 170.466 270.432C171.234 271.2 171.618 272.286 171.618 273.69V274.698H164.382C164.382 275.262 164.472 275.736 164.652 276.12C164.832 276.504 165.066 276.816 165.354 277.056C165.642 277.296 165.96 277.47 166.308 277.578C166.668 277.686 167.028 277.74 167.388 277.74C168.108 277.74 168.66 277.62 169.044 277.38C169.44 277.14 169.722 276.81 169.89 276.39H171.438C171.342 276.846 171.168 277.248 170.916 277.596C170.676 277.944 170.376 278.238 170.016 278.478C169.668 278.706 169.266 278.88 168.81 279C168.366 279.12 167.892 279.18 167.388 279.18ZM167.298 270.72C166.926 270.72 166.566 270.774 166.218 270.882C165.87 270.978 165.558 271.14 165.282 271.368C165.018 271.584 164.802 271.86 164.634 272.196C164.466 272.532 164.382 272.934 164.382 273.402H170.124C170.112 272.91 170.028 272.496 169.872 272.16C169.728 271.812 169.53 271.536 169.278 271.332C169.026 271.116 168.726 270.96 168.378 270.864C168.042 270.768 167.682 270.72 167.298 270.72Z" fill="black"/>
<path d="M173.869 269.46H175.345V271.26C175.669 270.624 176.119 270.138 176.695 269.802C177.283 269.454 177.961 269.28 178.729 269.28C179.929 269.28 180.889 269.676 181.609 270.468C182.329 271.248 182.689 272.412 182.689 273.96V274.32C182.689 275.136 182.593 275.85 182.401 276.462C182.209 277.062 181.939 277.566 181.591 277.974C181.243 278.37 180.823 278.67 180.331 278.874C179.851 279.078 179.317 279.18 178.729 279.18C177.913 279.18 177.229 279 176.677 278.64C176.137 278.28 175.729 277.83 175.453 277.29V282.6H173.869V269.46ZM178.369 277.776C178.753 277.776 179.113 277.704 179.449 277.56C179.785 277.404 180.073 277.182 180.313 276.894C180.565 276.606 180.757 276.246 180.889 275.814C181.033 275.382 181.105 274.884 181.105 274.32V273.96C181.105 273.444 181.033 272.982 180.889 272.574C180.757 272.166 180.565 271.824 180.313 271.548C180.073 271.26 179.785 271.044 179.449 270.9C179.113 270.756 178.753 270.684 178.369 270.684C177.937 270.684 177.541 270.756 177.181 270.9C176.821 271.032 176.515 271.224 176.263 271.476C176.011 271.716 175.813 272.004 175.669 272.34C175.525 272.676 175.453 273.036 175.453 273.42V274.86C175.453 275.292 175.525 275.688 175.669 276.048C175.813 276.408 176.011 276.714 176.263 276.966C176.515 277.218 176.821 277.416 177.181 277.56C177.541 277.704 177.937 277.776 178.369 277.776Z" fill="black"/>
<path d="M184.944 269.46H186.528V273.06H188.814C190.014 273.06 190.896 273.324 191.46 273.852C192.036 274.38 192.324 275.112 192.324 276.048C192.324 276.96 192.036 277.68 191.46 278.208C190.896 278.736 190.014 279 188.814 279H184.944V269.46ZM188.724 277.596C189.468 277.596 189.99 277.464 190.29 277.2C190.59 276.936 190.74 276.546 190.74 276.03C190.74 275.514 190.59 275.124 190.29 274.86C189.99 274.596 189.468 274.464 188.724 274.464H186.528V277.596H188.724Z" fill="black"/>
<path d="M254.032 266.4H263.932V279H262.24V267.876H255.724V279H254.032V266.4Z" fill="black"/>
<path d="M267.172 269.46H268.648V271.26C268.972 270.624 269.422 270.138 269.998 269.802C270.586 269.454 271.264 269.28 272.032 269.28C273.232 269.28 274.192 269.676 274.912 270.468C275.632 271.248 275.992 272.412 275.992 273.96V274.32C275.992 275.136 275.896 275.85 275.704 276.462C275.512 277.062 275.242 277.566 274.894 277.974C274.546 278.37 274.126 278.67 273.634 278.874C273.154 279.078 272.62 279.18 272.032 279.18C271.216 279.18 270.532 279 269.98 278.64C269.44 278.28 269.032 277.83 268.756 277.29V282.6H267.172V269.46ZM271.672 277.776C272.056 277.776 272.416 277.704 272.752 277.56C273.088 277.404 273.376 277.182 273.616 276.894C273.868 276.606 274.06 276.246 274.192 275.814C274.336 275.382 274.408 274.884 274.408 274.32V273.96C274.408 273.444 274.336 272.982 274.192 272.574C274.06 272.166 273.868 271.824 273.616 271.548C273.376 271.26 273.088 271.044 272.752 270.9C272.416 270.756 272.056 270.684 271.672 270.684C271.24 270.684 270.844 270.756 270.484 270.9C270.124 271.032 269.818 271.224 269.566 271.476C269.314 271.716 269.116 272.004 268.972 272.34C268.828 272.676 268.756 273.036 268.756 273.42V274.86C268.756 275.292 268.828 275.688 268.972 276.048C269.116 276.408 269.314 276.714 269.566 276.966C269.818 277.218 270.124 277.416 270.484 277.56C270.844 277.704 271.24 277.776 271.672 277.776Z" fill="black"/>
<path d="M282.206 279.18C281.594 279.18 281.012 279.084 280.46 278.892C279.908 278.688 279.422 278.388 279.002 277.992C278.582 277.584 278.246 277.074 277.994 276.462C277.742 275.85 277.616 275.136 277.616 274.32V273.96C277.616 273.192 277.742 272.514 277.994 271.926C278.246 271.338 278.582 270.852 279.002 270.468C279.422 270.072 279.908 269.778 280.46 269.586C281.012 269.382 281.594 269.28 282.206 269.28C282.818 269.28 283.4 269.382 283.952 269.586C284.504 269.778 284.99 270.072 285.41 270.468C285.83 270.852 286.166 271.338 286.418 271.926C286.67 272.514 286.796 273.192 286.796 273.96V274.32C286.796 275.136 286.67 275.85 286.418 276.462C286.166 277.074 285.83 277.584 285.41 277.992C284.99 278.388 284.504 278.688 283.952 278.892C283.4 279.084 282.818 279.18 282.206 279.18ZM282.206 277.74C282.566 277.74 282.926 277.68 283.286 277.56C283.646 277.428 283.964 277.23 284.24 276.966C284.516 276.69 284.738 276.336 284.906 275.904C285.086 275.472 285.176 274.944 285.176 274.32V273.96C285.176 273.384 285.086 272.892 284.906 272.484C284.738 272.076 284.516 271.74 284.24 271.476C283.964 271.212 283.646 271.02 283.286 270.9C282.926 270.78 282.566 270.72 282.206 270.72C281.846 270.72 281.486 270.78 281.126 270.9C280.766 271.02 280.448 271.212 280.172 271.476C279.896 271.74 279.668 272.076 279.488 272.484C279.32 272.892 279.236 273.384 279.236 273.96V274.32C279.236 274.944 279.32 275.472 279.488 275.904C279.668 276.336 279.896 276.69 280.172 276.966C280.448 277.23 280.766 277.428 281.126 277.56C281.486 277.68 281.846 277.74 282.206 277.74Z" fill="black"/>
<path d="M289.039 269.46H296.959V279H295.375V270.864H290.623V279H289.039V269.46Z" fill="black"/>
<path d="M301.092 282.78C300.912 282.78 300.732 282.762 300.552 282.726V281.286C300.732 281.322 300.912 281.34 301.092 281.34C301.272 281.34 301.428 281.31 301.56 281.25C301.692 281.19 301.818 281.076 301.938 280.908C302.058 280.74 302.184 280.5 302.316 280.188C302.46 279.888 302.622 279.492 302.802 279L298.752 269.46H300.516L303.612 277.2L306.42 269.46H308.112L304.512 279C304.26 279.672 304.02 280.248 303.792 280.728C303.564 281.208 303.318 281.598 303.054 281.898C302.802 282.21 302.52 282.432 302.208 282.564C301.896 282.708 301.524 282.78 301.092 282.78Z" fill="black"/>
<path d="M313.243 279.18C312.631 279.18 312.061 279.084 311.533 278.892C311.005 278.688 310.549 278.388 310.165 277.992C309.781 277.584 309.475 277.074 309.247 276.462C309.031 275.85 308.923 275.136 308.923 274.32V273.96C308.923 273.192 309.043 272.514 309.283 271.926C309.523 271.338 309.841 270.852 310.237 270.468C310.633 270.072 311.089 269.778 311.605 269.586C312.133 269.382 312.679 269.28 313.243 269.28C313.807 269.28 314.311 269.358 314.755 269.514C315.211 269.67 315.601 269.886 315.925 270.162C316.261 270.438 316.531 270.762 316.735 271.134C316.951 271.506 317.107 271.908 317.203 272.34H315.583C315.487 272.112 315.373 271.902 315.241 271.71C315.121 271.506 314.965 271.332 314.773 271.188C314.593 271.044 314.377 270.93 314.125 270.846C313.873 270.762 313.579 270.72 313.243 270.72C312.895 270.72 312.559 270.786 312.235 270.918C311.911 271.038 311.623 271.23 311.371 271.494C311.119 271.746 310.915 272.076 310.759 272.484C310.615 272.892 310.543 273.384 310.543 273.96V274.32C310.543 274.932 310.615 275.46 310.759 275.904C310.915 276.336 311.119 276.69 311.371 276.966C311.623 277.23 311.911 277.428 312.235 277.56C312.559 277.68 312.895 277.74 313.243 277.74C313.831 277.74 314.323 277.596 314.719 277.308C315.127 277.02 315.415 276.624 315.583 276.12H317.203C316.975 277.068 316.507 277.818 315.799 278.37C315.091 278.91 314.239 279.18 313.243 279.18Z" fill="black"/>
<path d="M319.362 269.46H320.946V273.456H322.206L325.77 269.46H327.642L323.502 274.032L327.822 279H325.806L322.206 274.824H320.946V279H319.362V269.46Z" fill="black"/>
<path d="M329.715 269.46H331.299V273.438H336.231V269.46H337.815V279H336.231V274.842H331.299V279H329.715V269.46Z" fill="black"/>
<path d="M343.42 279.18C342.892 279.18 342.424 279.108 342.016 278.964C341.62 278.808 341.284 278.598 341.008 278.334C340.732 278.07 340.522 277.758 340.378 277.398C340.234 277.038 340.162 276.642 340.162 276.21C340.162 275.262 340.438 274.578 340.99 274.158C341.554 273.738 342.358 273.528 343.402 273.528H346.498V272.88C346.498 272.064 346.312 271.5 345.94 271.188C345.58 270.876 345.034 270.72 344.302 270.72C343.618 270.72 343.12 270.852 342.808 271.116C342.496 271.368 342.322 271.656 342.286 271.98H340.702C340.726 271.596 340.828 271.242 341.008 270.918C341.2 270.582 341.452 270.294 341.764 270.054C342.088 269.814 342.472 269.628 342.916 269.496C343.36 269.352 343.852 269.28 344.392 269.28C345.52 269.28 346.414 269.55 347.074 270.09C347.746 270.618 348.082 271.488 348.082 272.7V276.57C348.082 277.074 348.082 277.518 348.082 277.902C348.094 278.274 348.124 278.64 348.172 279H346.786C346.75 278.724 346.726 278.466 346.714 278.226C346.702 277.974 346.696 277.692 346.696 277.38C346.444 277.884 346.036 278.31 345.472 278.658C344.908 279.006 344.224 279.18 343.42 279.18ZM343.762 277.74C344.134 277.74 344.482 277.692 344.806 277.596C345.142 277.488 345.436 277.338 345.688 277.146C345.94 276.942 346.138 276.696 346.282 276.408C346.426 276.12 346.498 275.784 346.498 275.4V274.752H343.672C343.084 274.752 342.622 274.872 342.286 275.112C341.95 275.34 341.782 275.706 341.782 276.21C341.782 276.654 341.938 277.02 342.25 277.308C342.574 277.596 343.078 277.74 343.762 277.74Z" fill="black"/>
<path d="M352.751 275.22C351.959 275.04 351.389 274.716 351.041 274.248C350.693 273.768 350.519 273.156 350.519 272.412C350.519 271.476 350.801 270.75 351.365 270.234C351.941 269.718 352.859 269.46 354.119 269.46H358.259V279H356.675V275.364H354.245L351.923 279H350.159L352.751 275.22ZM352.103 272.412C352.103 272.916 352.247 273.3 352.535 273.564C352.835 273.828 353.333 273.96 354.029 273.96H356.675V270.864H354.029C353.333 270.864 352.835 270.996 352.535 271.26C352.247 271.524 352.103 271.908 352.103 272.412Z" fill="black"/>
<path d="M365.645 269.46H367.121V271.26C367.445 270.624 367.895 270.138 368.471 269.802C369.059 269.454 369.737 269.28 370.505 269.28C371.705 269.28 372.665 269.676 373.385 270.468C374.105 271.248 374.465 272.412 374.465 273.96V274.32C374.465 275.136 374.369 275.85 374.177 276.462C373.985 277.062 373.715 277.566 373.367 277.974C373.019 278.37 372.599 278.67 372.107 278.874C371.627 279.078 371.093 279.18 370.505 279.18C369.689 279.18 369.005 279 368.453 278.64C367.913 278.28 367.505 277.83 367.229 277.29V282.6H365.645V269.46ZM370.145 277.776C370.529 277.776 370.889 277.704 371.225 277.56C371.561 277.404 371.849 277.182 372.089 276.894C372.341 276.606 372.533 276.246 372.665 275.814C372.809 275.382 372.881 274.884 372.881 274.32V273.96C372.881 273.444 372.809 272.982 372.665 272.574C372.533 272.166 372.341 271.824 372.089 271.548C371.849 271.26 371.561 271.044 371.225 270.9C370.889 270.756 370.529 270.684 370.145 270.684C369.713 270.684 369.317 270.756 368.957 270.9C368.597 271.032 368.291 271.224 368.039 271.476C367.787 271.716 367.589 272.004 367.445 272.34C367.301 272.676 367.229 273.036 367.229 273.42V274.86C367.229 275.292 367.301 275.688 367.445 276.048C367.589 276.408 367.787 276.714 368.039 276.966C368.291 277.218 368.597 277.416 368.957 277.56C369.317 277.704 369.713 277.776 370.145 277.776Z" fill="black"/>
<path d="M379.437 279.18C378.909 279.18 378.441 279.108 378.033 278.964C377.637 278.808 377.301 278.598 377.025 278.334C376.749 278.07 376.539 277.758 376.395 277.398C376.251 277.038 376.179 276.642 376.179 276.21C376.179 275.262 376.455 274.578 377.007 274.158C377.571 273.738 378.375 273.528 379.419 273.528H382.515V272.88C382.515 272.064 382.329 271.5 381.957 271.188C381.597 270.876 381.051 270.72 380.319 270.72C379.635 270.72 379.137 270.852 378.825 271.116C378.513 271.368 378.339 271.656 378.303 271.98H376.719C376.743 271.596 376.845 271.242 377.025 270.918C377.217 270.582 377.469 270.294 377.781 270.054C378.105 269.814 378.489 269.628 378.933 269.496C379.377 269.352 379.869 269.28 380.409 269.28C381.537 269.28 382.431 269.55 383.091 270.09C383.763 270.618 384.099 271.488 384.099 272.7V276.57C384.099 277.074 384.099 277.518 384.099 277.902C384.111 278.274 384.141 278.64 384.189 279H382.803C382.767 278.724 382.743 278.466 382.731 278.226C382.719 277.974 382.713 277.692 382.713 277.38C382.461 277.884 382.053 278.31 381.489 278.658C380.925 279.006 380.241 279.18 379.437 279.18ZM379.779 277.74C380.151 277.74 380.499 277.692 380.823 277.596C381.159 277.488 381.453 277.338 381.705 277.146C381.957 276.942 382.155 276.696 382.299 276.408C382.443 276.12 382.515 275.784 382.515 275.4V274.752H379.689C379.101 274.752 378.639 274.872 378.303 275.112C377.967 275.34 377.799 275.706 377.799 276.21C377.799 276.654 377.955 277.02 378.267 277.308C378.591 277.596 379.095 277.74 379.779 277.74Z" fill="black"/>
<path d="M386.897 269.46H388.589L391.991 275.4L395.393 269.46H396.977V279H395.393V272.07L392.567 276.93H391.307L388.481 272.07V279H386.897V269.46Z" fill="black"/>
<path d="M399.852 269.46H401.436V273.456H402.696L406.26 269.46H408.132L403.992 274.032L408.312 279H406.296L402.696 274.824H401.436V279H399.852V269.46Z" fill="black"/>
<path d="M412.748 279.18C412.22 279.18 411.752 279.108 411.344 278.964C410.948 278.808 410.612 278.598 410.336 278.334C410.06 278.07 409.85 277.758 409.706 277.398C409.562 277.038 409.49 276.642 409.49 276.21C409.49 275.262 409.766 274.578 410.318 274.158C410.882 273.738 411.686 273.528 412.73 273.528H415.826V272.88C415.826 272.064 415.64 271.5 415.268 271.188C414.908 270.876 414.362 270.72 413.63 270.72C412.946 270.72 412.448 270.852 412.136 271.116C411.824 271.368 411.65 271.656 411.614 271.98H410.03C410.054 271.596 410.156 271.242 410.336 270.918C410.528 270.582 410.78 270.294 411.092 270.054C411.416 269.814 411.8 269.628 412.244 269.496C412.688 269.352 413.18 269.28 413.72 269.28C414.848 269.28 415.742 269.55 416.402 270.09C417.074 270.618 417.41 271.488 417.41 272.7V276.57C417.41 277.074 417.41 277.518 417.41 277.902C417.422 278.274 417.452 278.64 417.5 279H416.114C416.078 278.724 416.054 278.466 416.042 278.226C416.03 277.974 416.024 277.692 416.024 277.38C415.772 277.884 415.364 278.31 414.8 278.658C414.236 279.006 413.552 279.18 412.748 279.18ZM413.09 277.74C413.462 277.74 413.81 277.692 414.134 277.596C414.47 277.488 414.764 277.338 415.016 277.146C415.268 276.942 415.466 276.696 415.61 276.408C415.754 276.12 415.826 275.784 415.826 275.4V274.752H413C412.412 274.752 411.95 274.872 411.614 275.112C411.278 275.34 411.11 275.706 411.11 276.21C411.11 276.654 411.266 277.02 411.578 277.308C411.902 277.596 412.406 277.74 413.09 277.74Z" fill="black"/>
<path d="M451.599 279.18C450.891 279.18 450.219 279.06 449.583 278.82C448.947 278.568 448.383 278.184 447.891 277.668C447.399 277.14 447.009 276.474 446.721 275.67C446.433 274.866 446.289 273.906 446.289 272.79V272.43C446.289 271.35 446.433 270.42 446.721 269.64C447.009 268.86 447.399 268.218 447.891 267.714C448.383 267.21 448.947 266.838 449.583 266.598C450.219 266.346 450.891 266.22 451.599 266.22C452.283 266.22 452.907 266.31 453.471 266.49C454.047 266.67 454.551 266.928 454.983 267.264C455.415 267.6 455.763 268.014 456.027 268.506C456.303 268.998 456.477 269.556 456.549 270.18H454.749C454.581 269.364 454.227 268.752 453.687 268.344C453.147 267.936 452.451 267.732 451.599 267.732C451.155 267.732 450.723 267.816 450.303 267.984C449.883 268.152 449.505 268.422 449.169 268.794C448.845 269.154 448.581 269.634 448.377 270.234C448.185 270.834 448.089 271.566 448.089 272.43V272.79C448.089 273.702 448.197 274.47 448.413 275.094C448.629 275.706 448.905 276.204 449.241 276.588C449.577 276.972 449.955 277.248 450.375 277.416C450.795 277.584 451.203 277.668 451.599 277.668C452.535 277.668 453.267 277.44 453.795 276.984C454.323 276.528 454.641 275.94 454.749 275.22H456.549C456.453 275.916 456.261 276.516 455.973 277.02C455.685 277.512 455.319 277.92 454.875 278.244C454.443 278.568 453.945 278.808 453.381 278.964C452.829 279.108 452.235 279.18 451.599 279.18Z" fill="black"/>
<path d="M461.061 270.864H457.803V269.46H465.903V270.864H462.645V279H461.061V270.864Z" fill="black"/>
<path d="M470.074 279.18C469.546 279.18 469.078 279.108 468.67 278.964C468.274 278.808 467.938 278.598 467.662 278.334C467.386 278.07 467.176 277.758 467.032 277.398C466.888 277.038 466.816 276.642 466.816 276.21C466.816 275.262 467.092 274.578 467.644 274.158C468.208 273.738 469.012 273.528 470.056 273.528H473.152V272.88C473.152 272.064 472.966 271.5 472.594 271.188C472.234 270.876 471.688 270.72 470.956 270.72C470.272 270.72 469.774 270.852 469.462 271.116C469.15 271.368 468.976 271.656 468.94 271.98H467.356C467.38 271.596 467.482 271.242 467.662 270.918C467.854 270.582 468.106 270.294 468.418 270.054C468.742 269.814 469.126 269.628 469.57 269.496C470.014 269.352 470.506 269.28 471.046 269.28C472.174 269.28 473.068 269.55 473.728 270.09C474.4 270.618 474.736 271.488 474.736 272.7V276.57C474.736 277.074 474.736 277.518 474.736 277.902C474.748 278.274 474.778 278.64 474.826 279H473.44C473.404 278.724 473.38 278.466 473.368 278.226C473.356 277.974 473.35 277.692 473.35 277.38C473.098 277.884 472.69 278.31 472.126 278.658C471.562 279.006 470.878 279.18 470.074 279.18ZM470.416 277.74C470.788 277.74 471.136 277.692 471.46 277.596C471.796 277.488 472.09 277.338 472.342 277.146C472.594 276.942 472.792 276.696 472.936 276.408C473.08 276.12 473.152 275.784 473.152 275.4V274.752H470.326C469.738 274.752 469.276 274.872 468.94 275.112C468.604 275.34 468.436 275.706 468.436 276.21C468.436 276.654 468.592 277.02 468.904 277.308C469.228 277.596 469.732 277.74 470.416 277.74Z" fill="black"/>
<path d="M477.534 269.46H479.118V273.438H484.05V269.46H485.634V279H484.05V274.842H479.118V279H477.534V269.46Z" fill="black"/>
<path d="M496.278 279H488.52V269.46H490.104V277.596H494.676V269.46H496.26V277.596H497.79V281.25H496.278V279Z" fill="black"/>
<path d="M499.682 269.46H501.266V276.66L506.198 269.46H507.782V279H506.198V271.8L501.266 279H499.682V269.46Z" fill="black"/>
<path d="M512.54 275.22C511.748 275.04 511.178 274.716 510.83 274.248C510.482 273.768 510.308 273.156 510.308 272.412C510.308 271.476 510.59 270.75 511.154 270.234C511.73 269.718 512.648 269.46 513.908 269.46H518.048V279H516.464V275.364H514.034L511.712 279H509.948L512.54 275.22ZM511.892 272.412C511.892 272.916 512.036 273.3 512.324 273.564C512.624 273.828 513.122 273.96 513.818 273.96H516.464V270.864H513.818C513.122 270.864 512.624 270.996 512.324 271.26C512.036 271.524 511.892 271.908 511.892 272.412Z" fill="black"/>
<path d="M529.394 279.18C528.782 279.18 528.2 279.084 527.648 278.892C527.096 278.688 526.61 278.388 526.19 277.992C525.77 277.584 525.434 277.074 525.182 276.462C524.93 275.85 524.804 275.136 524.804 274.32V273.96C524.804 273.192 524.93 272.514 525.182 271.926C525.434 271.338 525.77 270.852 526.19 270.468C526.61 270.072 527.096 269.778 527.648 269.586C528.2 269.382 528.782 269.28 529.394 269.28C530.006 269.28 530.588 269.382 531.14 269.586C531.692 269.778 532.178 270.072 532.598 270.468C533.018 270.852 533.354 271.338 533.606 271.926C533.858 272.514 533.984 273.192 533.984 273.96V274.32C533.984 275.136 533.858 275.85 533.606 276.462C533.354 277.074 533.018 277.584 532.598 277.992C532.178 278.388 531.692 278.688 531.14 278.892C530.588 279.084 530.006 279.18 529.394 279.18ZM529.394 277.74C529.754 277.74 530.114 277.68 530.474 277.56C530.834 277.428 531.152 277.23 531.428 276.966C531.704 276.69 531.926 276.336 532.094 275.904C532.274 275.472 532.364 274.944 532.364 274.32V273.96C532.364 273.384 532.274 272.892 532.094 272.484C531.926 272.076 531.704 271.74 531.428 271.476C531.152 271.212 530.834 271.02 530.474 270.9C530.114 270.78 529.754 270.72 529.394 270.72C529.034 270.72 528.674 270.78 528.314 270.9C527.954 271.02 527.636 271.212 527.36 271.476C527.084 271.74 526.856 272.076 526.676 272.484C526.508 272.892 526.424 273.384 526.424 273.96V274.32C526.424 274.944 526.508 275.472 526.676 275.904C526.856 276.336 527.084 276.69 527.36 276.966C527.636 277.23 527.954 277.428 528.314 277.56C528.674 277.68 529.034 277.74 529.394 277.74Z" fill="black"/>
<path d="M536.227 269.46H544.147V279H542.563V270.864H537.811V279H536.227V269.46Z" fill="black"/>
<path d="M550.98 279.18C550.368 279.18 549.786 279.084 549.234 278.892C548.682 278.7 548.196 278.406 547.776 278.01C547.356 277.602 547.02 277.092 546.768 276.48C546.516 275.868 546.39 275.148 546.39 274.32V273.96C546.39 273.168 546.51 272.484 546.75 271.908C546.99 271.32 547.308 270.834 547.704 270.45C548.112 270.054 548.58 269.76 549.108 269.568C549.648 269.376 550.212 269.28 550.8 269.28C552.204 269.28 553.29 269.664 554.058 270.432C554.826 271.2 555.21 272.286 555.21 273.69V274.698H547.974C547.974 275.262 548.064 275.736 548.244 276.12C548.424 276.504 548.658 276.816 548.946 277.056C549.234 277.296 549.552 277.47 549.9 277.578C550.26 277.686 550.62 277.74 550.98 277.74C551.7 277.74 552.252 277.62 552.636 277.38C553.032 277.14 553.314 276.81 553.482 276.39H555.03C554.934 276.846 554.76 277.248 554.508 277.596C554.268 277.944 553.968 278.238 553.608 278.478C553.26 278.706 552.858 278.88 552.402 279C551.958 279.12 551.484 279.18 550.98 279.18ZM550.89 270.72C550.518 270.72 550.158 270.774 549.81 270.882C549.462 270.978 549.15 271.14 548.874 271.368C548.61 271.584 548.394 271.86 548.226 272.196C548.058 272.532 547.974 272.934 547.974 273.402H553.716C553.704 272.91 553.62 272.496 553.464 272.16C553.32 271.812 553.122 271.536 552.87 271.332C552.618 271.116 552.318 270.96 551.97 270.864C551.634 270.768 551.274 270.72 550.89 270.72Z" fill="black"/>
<path d="M557.461 269.46H558.937V271.26C559.261 270.624 559.711 270.138 560.287 269.802C560.875 269.454 561.553 269.28 562.321 269.28C563.521 269.28 564.481 269.676 565.201 270.468C565.921 271.248 566.281 272.412 566.281 273.96V274.32C566.281 275.136 566.185 275.85 565.993 276.462C565.801 277.062 565.531 277.566 565.183 277.974C564.835 278.37 564.415 278.67 563.923 278.874C563.443 279.078 562.909 279.18 562.321 279.18C561.505 279.18 560.821 279 560.269 278.64C559.729 278.28 559.321 277.83 559.045 277.29V282.6H557.461V269.46ZM561.961 277.776C562.345 277.776 562.705 277.704 563.041 277.56C563.377 277.404 563.665 277.182 563.905 276.894C564.157 276.606 564.349 276.246 564.481 275.814C564.625 275.382 564.697 274.884 564.697 274.32V273.96C564.697 273.444 564.625 272.982 564.481 272.574C564.349 272.166 564.157 271.824 563.905 271.548C563.665 271.26 563.377 271.044 563.041 270.9C562.705 270.756 562.345 270.684 561.961 270.684C561.529 270.684 561.133 270.756 560.773 270.9C560.413 271.032 560.107 271.224 559.855 271.476C559.603 271.716 559.405 272.004 559.261 272.34C559.117 272.676 559.045 273.036 559.045 273.42V274.86C559.045 275.292 559.117 275.688 559.261 276.048C559.405 276.408 559.603 276.714 559.855 276.966C560.107 277.218 560.413 277.416 560.773 277.56C561.133 277.704 561.529 277.776 561.961 277.776Z" fill="black"/>
<path d="M571.254 279.18C570.726 279.18 570.258 279.108 569.85 278.964C569.454 278.808 569.118 278.598 568.842 278.334C568.566 278.07 568.356 277.758 568.212 277.398C568.068 277.038 567.996 276.642 567.996 276.21C567.996 275.262 568.272 274.578 568.824 274.158C569.388 273.738 570.192 273.528 571.236 273.528H574.332V272.88C574.332 272.064 574.145 271.5 573.773 271.188C573.413 270.876 572.867 270.72 572.135 270.72C571.451 270.72 570.954 270.852 570.642 271.116C570.33 271.368 570.156 271.656 570.12 271.98H568.536C568.56 271.596 568.662 271.242 568.842 270.918C569.034 270.582 569.286 270.294 569.598 270.054C569.922 269.814 570.306 269.628 570.75 269.496C571.194 269.352 571.685 269.28 572.225 269.28C573.353 269.28 574.248 269.55 574.908 270.09C575.58 270.618 575.916 271.488 575.916 272.7V276.57C575.916 277.074 575.916 277.518 575.916 277.902C575.928 278.274 575.957 278.64 576.005 279H574.62C574.584 278.724 574.56 278.466 574.548 278.226C574.536 277.974 574.53 277.692 574.53 277.38C574.278 277.884 573.87 278.31 573.306 278.658C572.742 279.006 572.058 279.18 571.254 279.18ZM571.596 277.74C571.968 277.74 572.315 277.692 572.639 277.596C572.975 277.488 573.27 277.338 573.522 277.146C573.774 276.942 573.972 276.696 574.116 276.408C574.26 276.12 574.332 275.784 574.332 275.4V274.752H571.505C570.917 274.752 570.456 274.872 570.12 275.112C569.784 275.34 569.616 275.706 569.616 276.21C569.616 276.654 569.771 277.02 570.083 277.308C570.407 277.596 570.912 277.74 571.596 277.74Z" fill="black"/>
<path d="M580.715 270.864H577.457V269.46H585.557V270.864H582.299V279H580.715V270.864Z" fill="black"/>
<path d="M591.146 279.18C590.534 279.18 589.952 279.084 589.4 278.892C588.848 278.688 588.362 278.388 587.942 277.992C587.522 277.584 587.186 277.074 586.934 276.462C586.682 275.85 586.556 275.136 586.556 274.32V273.96C586.556 273.192 586.682 272.514 586.934 271.926C587.186 271.338 587.522 270.852 587.942 270.468C588.362 270.072 588.848 269.778 589.4 269.586C589.952 269.382 590.534 269.28 591.146 269.28C591.758 269.28 592.34 269.382 592.892 269.586C593.444 269.778 593.93 270.072 594.35 270.468C594.77 270.852 595.106 271.338 595.358 271.926C595.61 272.514 595.736 273.192 595.736 273.96V274.32C595.736 275.136 595.61 275.85 595.358 276.462C595.106 277.074 594.77 277.584 594.35 277.992C593.93 278.388 593.444 278.688 592.892 278.892C592.34 279.084 591.758 279.18 591.146 279.18ZM591.146 277.74C591.506 277.74 591.866 277.68 592.226 277.56C592.586 277.428 592.904 277.23 593.18 276.966C593.456 276.69 593.678 276.336 593.846 275.904C594.026 275.472 594.116 274.944 594.116 274.32V273.96C594.116 273.384 594.026 272.892 593.846 272.484C593.678 272.076 593.456 271.74 593.18 271.476C592.904 271.212 592.586 271.02 592.226 270.9C591.866 270.78 591.506 270.72 591.146 270.72C590.786 270.72 590.426 270.78 590.066 270.9C589.706 271.02 589.388 271.212 589.112 271.476C588.836 271.74 588.608 272.076 588.428 272.484C588.26 272.892 588.176 273.384 588.176 273.96V274.32C588.176 274.944 588.26 275.472 588.428 275.904C588.608 276.336 588.836 276.69 589.112 276.966C589.388 277.23 589.706 277.428 590.066 277.56C590.426 277.68 590.786 277.74 591.146 277.74Z" fill="black"/>
<path d="M597.979 269.46H599.455V271.26C599.779 270.624 600.229 270.138 600.805 269.802C601.393 269.454 602.071 269.28 602.839 269.28C604.039 269.28 604.999 269.676 605.719 270.468C606.439 271.248 606.799 272.412 606.799 273.96V274.32C606.799 275.136 606.703 275.85 606.511 276.462C606.319 277.062 606.049 277.566 605.701 277.974C605.353 278.37 604.933 278.67 604.441 278.874C603.961 279.078 603.427 279.18 602.839 279.18C602.023 279.18 601.339 279 600.787 278.64C600.247 278.28 599.839 277.83 599.563 277.29V282.6H597.979V269.46ZM602.479 277.776C602.863 277.776 603.223 277.704 603.559 277.56C603.895 277.404 604.183 277.182 604.423 276.894C604.675 276.606 604.867 276.246 604.999 275.814C605.143 275.382 605.215 274.884 605.215 274.32V273.96C605.215 273.444 605.143 272.982 604.999 272.574C604.867 272.166 604.675 271.824 604.423 271.548C604.183 271.26 603.895 271.044 603.559 270.9C603.223 270.756 602.863 270.684 602.479 270.684C602.047 270.684 601.651 270.756 601.291 270.9C600.931 271.032 600.625 271.224 600.373 271.476C600.121 271.716 599.923 272.004 599.779 272.34C599.635 272.676 599.563 273.036 599.563 273.42V274.86C599.563 275.292 599.635 275.688 599.779 276.048C599.923 276.408 600.121 276.714 600.373 276.966C600.625 277.218 600.931 277.416 601.291 277.56C601.651 277.704 602.047 277.776 602.479 277.776Z" fill="black"/>
<path d="M611.771 279.18C611.243 279.18 610.775 279.108 610.367 278.964C609.971 278.808 609.635 278.598 609.359 278.334C609.083 278.07 608.873 277.758 608.729 277.398C608.585 277.038 608.513 276.642 608.513 276.21C608.513 275.262 608.789 274.578 609.341 274.158C609.905 273.738 610.709 273.528 611.753 273.528H614.849V272.88C614.849 272.064 614.663 271.5 614.291 271.188C613.931 270.876 613.385 270.72 612.653 270.72C611.969 270.72 611.471 270.852 611.159 271.116C610.847 271.368 610.673 271.656 610.637 271.98H609.053C609.077 271.596 609.179 271.242 609.359 270.918C609.551 270.582 609.803 270.294 610.115 270.054C610.439 269.814 610.823 269.628 611.267 269.496C611.711 269.352 612.203 269.28 612.743 269.28C613.871 269.28 614.765 269.55 615.425 270.09C616.097 270.618 616.433 271.488 616.433 272.7V276.57C616.433 277.074 616.433 277.518 616.433 277.902C616.445 278.274 616.475 278.64 616.523 279H615.137C615.101 278.724 615.077 278.466 615.065 278.226C615.053 277.974 615.047 277.692 615.047 277.38C614.795 277.884 614.387 278.31 613.823 278.658C613.259 279.006 612.575 279.18 611.771 279.18ZM612.113 277.74C612.485 277.74 612.833 277.692 613.157 277.596C613.493 277.488 613.787 277.338 614.039 277.146C614.291 276.942 614.489 276.696 614.633 276.408C614.777 276.12 614.849 275.784 614.849 275.4V274.752H612.023C611.435 274.752 610.973 274.872 610.637 275.112C610.301 275.34 610.133 275.706 610.133 276.21C610.133 276.654 610.289 277.02 610.601 277.308C610.925 277.596 611.429 277.74 612.113 277.74Z" fill="black"/>
<path d="M665.273 266.4H669.773C670.529 266.4 671.177 266.484 671.717 266.652C672.257 266.82 672.701 267.054 673.049 267.354C673.409 267.642 673.673 267.996 673.841 268.416C674.009 268.824 674.093 269.274 674.093 269.766C674.093 270.414 673.913 270.972 673.553 271.44C673.193 271.896 672.749 272.226 672.221 272.43C672.965 272.598 673.553 272.94 673.985 273.456C674.417 273.96 674.633 274.62 674.633 275.436C674.633 275.952 674.549 276.426 674.381 276.858C674.213 277.29 673.949 277.668 673.589 277.992C673.229 278.304 672.761 278.55 672.185 278.73C671.621 278.91 670.937 279 670.133 279H665.273V266.4ZM670.133 277.524C670.673 277.524 671.123 277.476 671.483 277.38C671.843 277.272 672.131 277.128 672.347 276.948C672.563 276.756 672.713 276.528 672.797 276.264C672.893 276 672.941 275.706 672.941 275.382C672.941 275.058 672.893 274.764 672.797 274.5C672.713 274.224 672.563 273.996 672.347 273.816C672.131 273.624 671.837 273.48 671.465 273.384C671.105 273.276 670.655 273.222 670.115 273.222H666.965V277.524H670.133ZM669.773 271.818C670.277 271.818 670.697 271.77 671.033 271.674C671.369 271.578 671.639 271.44 671.843 271.26C672.047 271.08 672.191 270.87 672.275 270.63C672.359 270.39 672.401 270.126 672.401 269.838C672.401 269.55 672.359 269.286 672.275 269.046C672.191 268.794 672.047 268.584 671.843 268.416C671.639 268.248 671.369 268.116 671.033 268.02C670.697 267.924 670.277 267.876 669.773 267.876H666.965V271.818H669.773Z" fill="black"/>
<path d="M676.972 269.46H678.556V273.06H680.482C681.682 273.06 682.564 273.324 683.128 273.852C683.704 274.38 683.992 275.112 683.992 276.048C683.992 276.96 683.704 277.68 683.128 278.208C682.564 278.736 681.682 279 680.482 279H676.972V269.46ZM680.392 277.596C681.136 277.596 681.658 277.464 681.958 277.2C682.258 276.936 682.408 276.546 682.408 276.03C682.408 275.514 682.258 275.124 681.958 274.86C681.658 274.596 681.136 274.464 680.392 274.464H678.556V277.596H680.392ZM685.468 269.46H687.052V279H685.468V269.46Z" fill="black"/>
<path d="M692.519 274.158L689.117 269.46H690.953L693.473 272.934L695.993 269.46H697.757L694.355 274.068L697.937 279H696.065L693.401 275.274L690.737 279H688.937L692.519 274.158Z" fill="black"/>
<path d="M703.432 279.18C702.82 279.18 702.238 279.084 701.686 278.892C701.134 278.688 700.648 278.388 700.228 277.992C699.808 277.584 699.472 277.074 699.22 276.462C698.968 275.85 698.842 275.136 698.842 274.32V273.96C698.842 273.192 698.968 272.514 699.22 271.926C699.472 271.338 699.808 270.852 700.228 270.468C700.648 270.072 701.134 269.778 701.686 269.586C702.238 269.382 702.82 269.28 703.432 269.28C704.044 269.28 704.626 269.382 705.178 269.586C705.73 269.778 706.216 270.072 706.636 270.468C707.056 270.852 707.392 271.338 707.644 271.926C707.896 272.514 708.022 273.192 708.022 273.96V274.32C708.022 275.136 707.896 275.85 707.644 276.462C707.392 277.074 707.056 277.584 706.636 277.992C706.216 278.388 705.73 278.688 705.178 278.892C704.626 279.084 704.044 279.18 703.432 279.18ZM703.432 277.74C703.792 277.74 704.152 277.68 704.512 277.56C704.872 277.428 705.19 277.23 705.466 276.966C705.742 276.69 705.964 276.336 706.132 275.904C706.312 275.472 706.402 274.944 706.402 274.32V273.96C706.402 273.384 706.312 272.892 706.132 272.484C705.964 272.076 705.742 271.74 705.466 271.476C705.19 271.212 704.872 271.02 704.512 270.9C704.152 270.78 703.792 270.72 703.432 270.72C703.072 270.72 702.712 270.78 702.352 270.9C701.992 271.02 701.674 271.212 701.398 271.476C701.122 271.74 700.894 272.076 700.714 272.484C700.546 272.892 700.462 273.384 700.462 273.96V274.32C700.462 274.944 700.546 275.472 700.714 275.904C700.894 276.336 701.122 276.69 701.398 276.966C701.674 277.23 701.992 277.428 702.352 277.56C702.712 277.68 703.072 277.74 703.432 277.74Z" fill="black"/>
<path d="M709.009 277.596H710.179C710.311 277.416 710.431 277.14 710.539 276.768C710.647 276.396 710.743 275.958 710.827 275.454C710.911 274.95 710.971 274.404 711.007 273.816C711.055 273.216 711.079 272.604 711.079 271.98V269.46H717.739V277.596H719.089V281.25H717.577V279H710.521V281.25H709.009V277.596ZM716.155 277.596V270.864H712.627V272.34C712.627 272.844 712.609 273.348 712.573 273.852C712.537 274.344 712.483 274.818 712.411 275.274C712.339 275.718 712.249 276.144 712.141 276.552C712.045 276.948 711.931 277.296 711.799 277.596H716.155Z" fill="black"/>
<path d="M720.988 269.46H722.572V273.438H727.504V269.46H729.088V279H727.504V274.842H722.572V279H720.988V269.46Z" fill="black"/>
<path d="M734.692 279.18C734.164 279.18 733.696 279.108 733.288 278.964C732.892 278.808 732.556 278.598 732.28 278.334C732.004 278.07 731.794 277.758 731.65 277.398C731.506 277.038 731.434 276.642 731.434 276.21C731.434 275.262 731.71 274.578 732.262 274.158C732.826 273.738 733.63 273.528 734.674 273.528H737.77V272.88C737.77 272.064 737.584 271.5 737.212 271.188C736.852 270.876 736.306 270.72 735.574 270.72C734.89 270.72 734.392 270.852 734.08 271.116C733.768 271.368 733.594 271.656 733.558 271.98H731.974C731.998 271.596 732.1 271.242 732.28 270.918C732.472 270.582 732.724 270.294 733.036 270.054C733.36 269.814 733.744 269.628 734.188 269.496C734.632 269.352 735.124 269.28 735.664 269.28C736.792 269.28 737.686 269.55 738.346 270.09C739.018 270.618 739.354 271.488 739.354 272.7V276.57C739.354 277.074 739.354 277.518 739.354 277.902C739.366 278.274 739.396 278.64 739.444 279H738.058C738.022 278.724 737.998 278.466 737.986 278.226C737.974 277.974 737.968 277.692 737.968 277.38C737.716 277.884 737.308 278.31 736.744 278.658C736.18 279.006 735.496 279.18 734.692 279.18ZM735.034 277.74C735.406 277.74 735.754 277.692 736.078 277.596C736.414 277.488 736.708 277.338 736.96 277.146C737.212 276.942 737.41 276.696 737.554 276.408C737.698 276.12 737.77 275.784 737.77 275.4V274.752H734.944C734.356 274.752 733.894 274.872 733.558 275.112C733.222 275.34 733.054 275.706 733.054 276.21C733.054 276.654 733.21 277.02 733.522 277.308C733.846 277.596 734.35 277.74 735.034 277.74Z" fill="black"/>
<path d="M744.024 275.22C743.232 275.04 742.662 274.716 742.314 274.248C741.966 273.768 741.792 273.156 741.792 272.412C741.792 271.476 742.074 270.75 742.638 270.234C743.214 269.718 744.132 269.46 745.392 269.46H749.532V279H747.948V275.364H745.518L743.196 279H741.432L744.024 275.22ZM743.376 272.412C743.376 272.916 743.52 273.3 743.808 273.564C744.108 273.828 744.606 273.96 745.302 273.96H747.948V270.864H745.302C744.606 270.864 744.108 270.996 743.808 271.26C743.52 271.524 743.376 271.908 743.376 272.412Z" fill="black"/>
<path d="M755.837 277.596H757.007C757.139 277.416 757.259 277.14 757.367 276.768C757.475 276.396 757.571 275.958 757.655 275.454C757.739 274.95 757.799 274.404 757.835 273.816C757.883 273.216 757.907 272.604 757.907 271.98V269.46H764.567V277.596H765.917V281.25H764.405V279H757.349V281.25H755.837V277.596ZM762.983 277.596V270.864H759.455V272.34C759.455 272.844 759.437 273.348 759.401 273.852C759.365 274.344 759.311 274.818 759.239 275.274C759.167 275.718 759.077 276.144 758.969 276.552C758.873 276.948 758.759 277.296 758.627 277.596H762.983Z" fill="black"/>
<path d="M767.816 269.46H771.956C773.132 269.46 773.996 269.706 774.548 270.198C775.1 270.678 775.376 271.302 775.376 272.07C775.376 272.274 775.34 272.484 775.268 272.7C775.196 272.904 775.094 273.096 774.962 273.276C774.842 273.456 774.692 273.612 774.512 273.744C774.344 273.876 774.152 273.978 773.936 274.05C774.524 274.194 774.968 274.47 775.268 274.878C775.58 275.274 775.736 275.742 775.736 276.282C775.736 277.11 775.46 277.77 774.908 278.262C774.356 278.754 773.492 279 772.316 279H767.816V269.46ZM772.316 277.596C772.988 277.596 773.462 277.476 773.738 277.236C774.014 276.996 774.152 276.654 774.152 276.21C774.152 275.754 774.014 275.406 773.738 275.166C773.462 274.914 772.988 274.788 772.316 274.788H769.4V277.596H772.316ZM771.956 273.492C772.64 273.492 773.114 273.372 773.378 273.132C773.654 272.892 773.792 272.562 773.792 272.142C773.792 271.746 773.654 271.434 773.378 271.206C773.114 270.978 772.64 270.864 771.956 270.864H769.4V273.492H771.956Z" fill="black"/>
<path d="M781.953 279.18C781.341 279.18 780.76 279.084 780.208 278.892C779.656 278.7 779.17 278.406 778.75 278.01C778.33 277.602 777.994 277.092 777.742 276.48C777.49 275.868 777.364 275.148 777.364 274.32V273.96C777.364 273.168 777.484 272.484 777.724 271.908C777.964 271.32 778.281 270.834 778.677 270.45C779.085 270.054 779.554 269.76 780.082 269.568C780.622 269.376 781.185 269.28 781.773 269.28C783.177 269.28 784.263 269.664 785.031 270.432C785.799 271.2 786.184 272.286 786.184 273.69V274.698H778.948C778.948 275.262 779.038 275.736 779.218 276.12C779.398 276.504 779.631 276.816 779.919 277.056C780.207 277.296 780.526 277.47 780.874 277.578C781.234 277.686 781.593 277.74 781.953 277.74C782.673 277.74 783.225 277.62 783.609 277.38C784.005 277.14 784.288 276.81 784.456 276.39H786.004C785.908 276.846 785.734 277.248 785.482 277.596C785.242 277.944 784.942 278.238 784.582 278.478C784.234 278.706 783.831 278.88 783.375 279C782.931 279.12 782.457 279.18 781.953 279.18ZM781.864 270.72C781.492 270.72 781.132 270.774 780.784 270.882C780.436 270.978 780.124 271.14 779.848 271.368C779.584 271.584 779.368 271.86 779.2 272.196C779.032 272.532 778.948 272.934 778.948 273.402H784.69C784.678 272.91 784.594 272.496 784.438 272.16C784.294 271.812 784.096 271.536 783.844 271.332C783.592 271.116 783.292 270.96 782.944 270.864C782.608 270.768 782.248 270.72 781.864 270.72Z" fill="black"/>
<path d="M788.435 269.46H789.911V271.26C790.235 270.624 790.685 270.138 791.261 269.802C791.849 269.454 792.527 269.28 793.295 269.28C794.495 269.28 795.455 269.676 796.175 270.468C796.895 271.248 797.255 272.412 797.255 273.96V274.32C797.255 275.136 797.159 275.85 796.967 276.462C796.775 277.062 796.505 277.566 796.157 277.974C795.809 278.37 795.389 278.67 794.897 278.874C794.417 279.078 793.883 279.18 793.295 279.18C792.479 279.18 791.795 279 791.243 278.64C790.703 278.28 790.295 277.83 790.019 277.29V282.6H788.435V269.46ZM792.935 277.776C793.319 277.776 793.679 277.704 794.015 277.56C794.351 277.404 794.639 277.182 794.879 276.894C795.131 276.606 795.323 276.246 795.455 275.814C795.599 275.382 795.671 274.884 795.671 274.32V273.96C795.671 273.444 795.599 272.982 795.455 272.574C795.323 272.166 795.131 271.824 794.879 271.548C794.639 271.26 794.351 271.044 794.015 270.9C793.679 270.756 793.319 270.684 792.935 270.684C792.503 270.684 792.107 270.756 791.747 270.9C791.387 271.032 791.081 271.224 790.829 271.476C790.577 271.716 790.379 272.004 790.235 272.34C790.091 272.676 790.019 273.036 790.019 273.42V274.86C790.019 275.292 790.091 275.688 790.235 276.048C790.379 276.408 790.577 276.714 790.829 276.966C791.081 277.218 791.387 277.416 791.747 277.56C792.107 277.704 792.503 277.776 792.935 277.776Z" fill="black"/>
<path d="M799.509 269.46H801.093V273.06H803.379C804.579 273.06 805.461 273.324 806.025 273.852C806.601 274.38 806.889 275.112 806.889 276.048C806.889 276.96 806.601 277.68 806.025 278.208C805.461 278.736 804.579 279 803.379 279H799.509V269.46ZM803.289 277.596C804.033 277.596 804.555 277.464 804.855 277.2C805.155 276.936 805.305 276.546 805.305 276.03C805.305 275.514 805.155 275.124 804.855 274.86C804.555 274.596 804.033 274.464 803.289 274.464H801.093V277.596H803.289Z" fill="black"/>
<path d="M472.776 54.1802C472.068 54.1802 471.396 54.0602 470.76 53.8202C470.124 53.5682 469.56 53.1842 469.068 52.6682C468.576 52.1402 468.186 51.4742 467.898 50.6702C467.61 49.8662 467.466 48.9062 467.466 47.7902V47.4302C467.466 46.3502 467.61 45.4202 467.898 44.6402C468.186 43.8602 468.576 43.2182 469.068 42.7142C469.56 42.2102 470.124 41.8382 470.76 41.5982C471.396 41.3462 472.068 41.2202 472.776 41.2202C473.46 41.2202 474.084 41.3102 474.648 41.4902C475.224 41.6702 475.728 41.9282 476.16 42.2642C476.592 42.6002 476.94 43.0142 477.204 43.5062C477.48 43.9982 477.654 44.5562 477.726 45.1802H475.926C475.758 44.3642 475.404 43.7522 474.864 43.3442C474.324 42.9362 473.628 42.7322 472.776 42.7322C472.332 42.7322 471.9 42.8162 471.48 42.9842C471.06 43.1522 470.682 43.4222 470.346 43.7942C470.022 44.1542 469.758 44.6342 469.554 45.2342C469.362 45.8342 469.266 46.5662 469.266 47.4302V47.7902C469.266 48.7022 469.374 49.4702 469.59 50.0942C469.806 50.7062 470.082 51.2042 470.418 51.5882C470.754 51.9722 471.132 52.2482 471.552 52.4162C471.972 52.5842 472.38 52.6682 472.776 52.6682C473.712 52.6682 474.444 52.4402 474.972 51.9842C475.5 51.5282 475.818 50.9402 475.926 50.2202H477.726C477.63 50.9162 477.438 51.5162 477.15 52.0202C476.862 52.5122 476.496 52.9202 476.052 53.2442C475.62 53.5682 475.122 53.8082 474.558 53.9642C474.006 54.1082 473.412 54.1802 472.776 54.1802Z" fill="black"/>
<path d="M480.06 44.4602H481.644V51.6602L486.576 44.4602H488.16V54.0002H486.576V46.8002L481.644 54.0002H480.06V44.4602Z" fill="black"/>
<path d="M491.046 44.4602H497.526V45.8642H492.63V54.0002H491.046V44.4602Z" fill="black"/>
<path d="M499.326 44.4602H500.91V48.4382H505.842V44.4602H507.426V54.0002H505.842V49.8422H500.91V54.0002H499.326V44.4602Z" fill="black"/>
<path d="M513.03 54.1802C512.502 54.1802 512.034 54.1082 511.626 53.9642C511.23 53.8082 510.894 53.5982 510.618 53.3342C510.342 53.0702 510.132 52.7582 509.988 52.3982C509.844 52.0382 509.772 51.6422 509.772 51.2102C509.772 50.2622 510.048 49.5782 510.6 49.1582C511.164 48.7382 511.968 48.5282 513.012 48.5282H516.108V47.8802C516.108 47.0642 515.922 46.5002 515.55 46.1882C515.19 45.8762 514.644 45.7202 513.912 45.7202C513.228 45.7202 512.73 45.8522 512.418 46.1162C512.106 46.3682 511.932 46.6562 511.896 46.9802H510.312C510.336 46.5962 510.438 46.2422 510.618 45.9182C510.81 45.5822 511.062 45.2942 511.374 45.0542C511.698 44.8142 512.082 44.6282 512.526 44.4962C512.97 44.3522 513.462 44.2802 514.002 44.2802C515.13 44.2802 516.024 44.5502 516.684 45.0902C517.356 45.6182 517.692 46.4882 517.692 47.7002V51.5702C517.692 52.0742 517.692 52.5182 517.692 52.9022C517.704 53.2742 517.734 53.6402 517.782 54.0002H516.396C516.36 53.7242 516.336 53.4662 516.324 53.2262C516.312 52.9742 516.306 52.6922 516.306 52.3802C516.054 52.8842 515.646 53.3102 515.082 53.6582C514.518 54.0062 513.834 54.1802 513.03 54.1802ZM513.372 52.7402C513.744 52.7402 514.092 52.6922 514.416 52.5962C514.752 52.4882 515.046 52.3382 515.298 52.1462C515.55 51.9422 515.748 51.6962 515.892 51.4082C516.036 51.1202 516.108 50.7842 516.108 50.4002V49.7522H513.282C512.694 49.7522 512.232 49.8722 511.896 50.1122C511.56 50.3402 511.392 50.7062 511.392 51.2102C511.392 51.6542 511.548 52.0202 511.86 52.3082C512.184 52.5962 512.688 52.7402 513.372 52.7402Z" fill="black"/>
<path d="M520.04 54.1802C519.86 54.1802 519.68 54.1622 519.5 54.1262V52.5422C519.56 52.5542 519.65 52.5602 519.77 52.5602C520.034 52.5602 520.262 52.4762 520.454 52.3082C520.658 52.1402 520.82 51.8462 520.94 51.4262C521.06 51.0062 521.15 50.4362 521.21 49.7162C521.27 48.9962 521.3 48.0842 521.3 46.9802V44.4602H528.14V54.0002H526.556V45.8642H522.884V47.3402C522.884 48.6722 522.824 49.7762 522.704 50.6522C522.584 51.5282 522.404 52.2302 522.164 52.7582C521.936 53.2742 521.642 53.6402 521.282 53.8562C520.922 54.0722 520.508 54.1802 520.04 54.1802Z" fill="black"/>
<path d="M531.019 44.4602H532.603V51.6602L537.535 44.4602H539.119V54.0002H537.535V46.8002L532.603 54.0002H531.019V44.4602Z" fill="black"/>
<path d="M545.245 54.1802C544.045 54.1802 543.103 53.9282 542.419 53.4242C541.735 52.9202 541.357 52.2122 541.285 51.3002H542.869C542.953 51.7682 543.199 52.1282 543.607 52.3802C544.027 52.6202 544.573 52.7402 545.245 52.7402C546.073 52.7402 546.673 52.6022 547.045 52.3262C547.429 52.0382 547.621 51.6962 547.621 51.3002C547.621 50.8322 547.465 50.4662 547.153 50.2022C546.841 49.9262 546.301 49.7882 545.533 49.7882H543.895V48.4922H545.425C546.085 48.4922 546.553 48.3662 546.829 48.1142C547.117 47.8622 547.261 47.5082 547.261 47.0522C547.261 46.6922 547.093 46.3802 546.757 46.1162C546.421 45.8522 545.917 45.7202 545.245 45.7202C544.513 45.7202 543.979 45.8402 543.643 46.0802C543.319 46.3082 543.121 46.6382 543.049 47.0702H541.465C541.501 46.6742 541.609 46.3082 541.789 45.9722C541.981 45.6242 542.239 45.3242 542.563 45.0722C542.887 44.8202 543.271 44.6282 543.715 44.4962C544.171 44.3522 544.681 44.2802 545.245 44.2802C545.857 44.2802 546.385 44.3522 546.829 44.4962C547.285 44.6282 547.663 44.8202 547.963 45.0722C548.263 45.3122 548.485 45.6002 548.629 45.9362C548.773 46.2722 548.845 46.6442 548.845 47.0522C548.845 47.5082 548.731 47.9102 548.503 48.2582C548.275 48.5942 547.909 48.8582 547.405 49.0502C548.077 49.2302 548.545 49.5182 548.809 49.9142C549.073 50.3102 549.205 50.7722 549.205 51.3002C549.205 51.6962 549.121 52.0682 548.953 52.4162C548.785 52.7642 548.533 53.0702 548.197 53.3342C547.873 53.5862 547.459 53.7902 546.955 53.9462C546.463 54.1022 545.893 54.1802 545.245 54.1802Z" fill="black"/>
<path d="M554.18 54.1802C553.652 54.1802 553.184 54.1082 552.776 53.9642C552.38 53.8082 552.044 53.5982 551.768 53.3342C551.492 53.0702 551.282 52.7582 551.138 52.3982C550.994 52.0382 550.922 51.6422 550.922 51.2102C550.922 50.2622 551.198 49.5782 551.75 49.1582C552.314 48.7382 553.118 48.5282 554.162 48.5282H557.258V47.8802C557.258 47.0642 557.072 46.5002 556.7 46.1882C556.34 45.8762 555.794 45.7202 555.062 45.7202C554.378 45.7202 553.88 45.8522 553.568 46.1162C553.256 46.3682 553.082 46.6562 553.046 46.9802H551.462C551.486 46.5962 551.588 46.2422 551.768 45.9182C551.96 45.5822 552.212 45.2942 552.524 45.0542C552.848 44.8142 553.232 44.6282 553.676 44.4962C554.12 44.3522 554.612 44.2802 555.152 44.2802C556.28 44.2802 557.174 44.5502 557.834 45.0902C558.506 45.6182 558.842 46.4882 558.842 47.7002V51.5702C558.842 52.0742 558.842 52.5182 558.842 52.9022C558.854 53.2742 558.884 53.6402 558.932 54.0002H557.546C557.51 53.7242 557.486 53.4662 557.474 53.2262C557.462 52.9742 557.456 52.6922 557.456 52.3802C557.204 52.8842 556.796 53.3102 556.232 53.6582C555.668 54.0062 554.984 54.1802 554.18 54.1802ZM554.522 52.7402C554.894 52.7402 555.242 52.6922 555.566 52.5962C555.902 52.4882 556.196 52.3382 556.448 52.1462C556.7 51.9422 556.898 51.6962 557.042 51.4082C557.186 51.1202 557.258 50.7842 557.258 50.4002V49.7522H554.432C553.844 49.7522 553.382 49.8722 553.046 50.1122C552.71 50.3402 552.542 50.7062 552.542 51.2102C552.542 51.6542 552.698 52.0202 553.01 52.3082C553.334 52.5962 553.838 52.7402 554.522 52.7402Z" fill="black"/>
<path d="M569.398 54.0002H561.64V44.4602H563.224V52.5962H567.796V44.4602H569.38V52.5962H570.91V56.2502H569.398V54.0002Z" fill="black"/>
<path d="M572.802 44.4602H574.386V51.6602L579.318 44.4602H580.902V54.0002H579.318V46.8002L574.386 54.0002H572.802V44.4602Z" fill="black"/>
<path d="M585.66 50.2202C584.868 50.0402 584.298 49.7162 583.95 49.2482C583.602 48.7682 583.428 48.1562 583.428 47.4122C583.428 46.4762 583.71 45.7502 584.274 45.2342C584.85 44.7182 585.768 44.4602 587.028 44.4602H591.168V54.0002H589.584V50.3642H587.154L584.832 54.0002H583.068L585.66 50.2202ZM585.012 47.4122C585.012 47.9162 585.156 48.3002 585.444 48.5642C585.744 48.8282 586.242 48.9602 586.938 48.9602H589.584V45.8642H586.938C586.242 45.8642 585.744 45.9962 585.444 46.2602C585.156 46.5242 585.012 46.9082 585.012 47.4122Z" fill="black"/>
<rect x="89" y="125" width="78" height="126" stroke="black" stroke-width="2"/>
<rect x="697" y="125" width="78" height="126" stroke="black" stroke-width="2"/>
<circle cx="532" cy="188" r="59" stroke="black" stroke-width="2"/>
<circle cx="433" cy="47" r="16" stroke="black" stroke-width="2"/>
<path d="M256.707 191.707C257.098 191.317 257.098 190.683 256.707 190.293L250.343 183.929C249.953 183.538 249.319 183.538 248.929 183.929C248.538 184.319 248.538 184.953 248.929 185.343L254.586 191L248.929 196.657C248.538 197.047 248.538 197.681 248.929 198.071C249.319 198.462 249.953 198.462 250.343 198.071L256.707 191.707ZM168 192H256V190H168V192Z" fill="black"/>
<path d="M422.293 57.293C422.293 56.7407 421.845 56.293 421.293 56.293H412.293C411.741 56.293 411.293 56.7407 411.293 57.293C411.293 57.8453 411.741 58.293 412.293 58.293H420.293V66.293C420.293 66.8453 420.741 67.293 421.293 67.293C421.845 67.293 422.293 66.8453 422.293 66.293V57.293ZM420.586 56.5859L350.586 126.586L352 128L422 58.0001L420.586 56.5859Z" fill="black"/>
<path d="M445.293 57.707C444.741 57.707 444.293 58.1547 444.293 58.707L444.293 67.707C444.293 68.2593 444.741 68.707 445.293 68.707C445.845 68.707 446.293 68.2593 446.293 67.707V59.707H454.293C454.845 59.707 455.293 59.2593 455.293 58.707C455.293 58.1547 454.845 57.707 454.293 57.707L445.293 57.707ZM518 130L446 57.9999L444.586 59.4141L516.586 131.414L518 130Z" fill="black"/>
<path d="M472.707 191.707C473.098 191.317 473.098 190.683 472.707 190.293L466.343 183.929C465.953 183.538 465.319 183.538 464.929 183.929C464.538 184.319 464.538 184.953 464.929 185.343L470.586 191L464.929 196.657C464.538 197.047 464.538 197.681 464.929 198.071C465.319 198.462 465.953 198.462 466.343 198.071L472.707 191.707ZM416 192H472V190H416V192Z" fill="black"/>
<path d="M696.707 191.707C697.098 191.317 697.098 190.683 696.707 190.293L690.343 183.929C689.953 183.538 689.319 183.538 688.929 183.929C688.538 184.319 688.538 184.953 688.929 185.343L694.586 191L688.929 196.657C688.538 197.047 688.538 197.681 688.929 198.071C689.319 198.462 689.953 198.462 690.343 198.071L696.707 191.707ZM592 192H696V190H592V192Z" fill="black"/>
<rect x="257" y="125" width="158" height="126" fill="#EDF1FF" stroke="black" stroke-width="2"/>
</svg>
