<svg width="518" height="348" viewBox="0 0 518 348" fill="none" xmlns="http://www.w3.org/2000/svg">
<rect width="517" height="347" fill="white"/>
<rect x="337.5" y="138.5" width="69" height="178" transform="rotate(90 337.5 138.5)" stroke="black"/>
<rect x="45.5" y="0.5" width="436" height="274" stroke="black"/>
<rect x="58.5" y="12.5" width="410" height="250" stroke="black"/>
<line x1="159.5" y1="208" x2="159.5" y2="263" stroke="black" stroke-dasharray="2 2"/>
<line x1="159.5" y1="12" x2="159.5" y2="86" stroke="black"/>
<line x1="338.5" y1="12" x2="338.5" y2="86" stroke="black"/>
<line x1="365.354" y1="229.354" x2="338.354" y2="256.354" stroke="black"/>
<line y1="-0.5" x2="38.1838" y2="-0.5" transform="matrix(-0.707107 -0.707107 -0.707107 0.707107 365 120)" stroke="black"/>
<line y1="-0.5" x2="38.1838" y2="-0.5" transform="matrix(-0.707107 -0.707107 -0.707107 0.707107 192 120)" stroke="black"/>
<rect x="40" y="109" width="27" height="64" fill="white"/>
<rect x="465" y="102" width="27" height="64" fill="white"/>
<line x1="0.353553" y1="122.646" x2="45.3536" y2="167.646" stroke="black"/>
<line x1="481.354" y1="107.646" x2="517.354" y2="143.646" stroke="black"/>
<line x1="46" y1="108.5" x2="58" y2="108.5" stroke="black"/>
<line x1="46" y1="173.5" x2="58" y2="173.5" stroke="black"/>
<line x1="469" y1="166.5" x2="481" y2="166.5" stroke="black"/>
<line x1="469" y1="101.5" x2="481" y2="101.5" stroke="black"/>
<rect x="332.5" y="256.5" width="6" height="6" stroke="black"/>
<rect x="332.5" y="86.5" width="6" height="6" stroke="black"/>
<rect x="159.5" y="86.5" width="6" height="6" stroke="black"/>
<rect x="45.5" y="167.5" width="6" height="6" stroke="black"/>
<rect x="475.5" y="101.5" width="6" height="6" stroke="black"/>
<path d="M64.5001 227C64.5001 230.422 61.8563 233.226 58.5001 233.481V220.519C61.8563 220.774 64.5001 223.578 64.5001 227Z" fill="white" stroke="black"/>
<path d="M207 132.5C210.422 132.5 213.226 135.144 213.481 138.5L200.519 138.5C200.774 135.144 203.578 132.5 207 132.5Z" fill="white" stroke="black"/>
<path d="M227 132.5C230.422 132.5 233.226 135.144 233.481 138.5L220.519 138.5C220.774 135.144 223.578 132.5 227 132.5Z" fill="white" stroke="black"/>
<path d="M64.5001 67C64.5001 70.4216 61.8563 73.2257 58.5001 73.4811V60.5189C61.8563 60.7743 64.5001 63.5784 64.5001 67Z" fill="white" stroke="black"/>
<rect x="66.5" y="200.5" width="13" height="8" transform="rotate(90 66.5 200.5)" fill="white" stroke="black"/>
<rect x="275.5" y="130.5" width="13" height="8" fill="white" stroke="black"/>
<path d="M41.0713 132H43.5713C43.9913 132 44.3513 132.047 44.6513 132.14C44.9513 132.233 45.198 132.363 45.3913 132.53C45.5913 132.69 45.738 132.887 45.8313 133.12C45.9246 133.347 45.9713 133.597 45.9713 133.87C45.9713 134.23 45.8713 134.54 45.6713 134.8C45.4713 135.053 45.2246 135.237 44.9313 135.35C45.3446 135.443 45.6713 135.633 45.9113 135.92C46.1513 136.2 46.2713 136.567 46.2713 137.02C46.2713 137.307 46.2246 137.57 46.1313 137.81C46.038 138.05 45.8913 138.26 45.6913 138.44C45.4913 138.613 45.2313 138.75 44.9113 138.85C44.598 138.95 44.218 139 43.7713 139H41.0713V132ZM43.7713 138.18C44.0713 138.18 44.3213 138.153 44.5213 138.1C44.7213 138.04 44.8813 137.96 45.0013 137.86C45.1213 137.753 45.2046 137.627 45.2513 137.48C45.3046 137.333 45.3313 137.17 45.3313 136.99C45.3313 136.81 45.3046 136.647 45.2513 136.5C45.2046 136.347 45.1213 136.22 45.0013 136.12C44.8813 136.013 44.718 135.933 44.5113 135.88C44.3113 135.82 44.0613 135.79 43.7613 135.79H42.0113V138.18H43.7713ZM43.5713 135.01C43.8513 135.01 44.0846 134.983 44.2713 134.93C44.458 134.877 44.608 134.8 44.7213 134.7C44.8346 134.6 44.9146 134.483 44.9613 134.35C45.008 134.217 45.0313 134.07 45.0313 133.91C45.0313 133.75 45.008 133.603 44.9613 133.47C44.9146 133.33 44.8346 133.213 44.7213 133.12C44.608 133.027 44.458 132.953 44.2713 132.9C44.0846 132.847 43.8513 132.82 43.5713 132.82H42.0113V135.01H43.5713Z" fill="black"/>
<path d="M48.9129 136.31L47.0229 133.7H48.0429L49.4429 135.63L50.8429 133.7H51.8229L49.9329 136.26L51.9229 139H50.8829L49.4029 136.93L47.9229 139H46.9229L48.9129 136.31Z" fill="black"/>
<path d="M54.9756 139.1C54.6356 139.1 54.3123 139.047 54.0056 138.94C53.6989 138.827 53.4289 138.66 53.1956 138.44C52.9623 138.213 52.7756 137.93 52.6356 137.59C52.4956 137.25 52.4256 136.853 52.4256 136.4V136.2C52.4256 135.773 52.4956 135.397 52.6356 135.07C52.7756 134.743 52.9623 134.473 53.1956 134.26C53.4289 134.04 53.6989 133.877 54.0056 133.77C54.3123 133.657 54.6356 133.6 54.9756 133.6C55.3156 133.6 55.6389 133.657 55.9456 133.77C56.2523 133.877 56.5223 134.04 56.7556 134.26C56.9889 134.473 57.1756 134.743 57.3156 135.07C57.4556 135.397 57.5256 135.773 57.5256 136.2V136.4C57.5256 136.853 57.4556 137.25 57.3156 137.59C57.1756 137.93 56.9889 138.213 56.7556 138.44C56.5223 138.66 56.2523 138.827 55.9456 138.94C55.6389 139.047 55.3156 139.1 54.9756 139.1ZM54.9756 138.3C55.1756 138.3 55.3756 138.267 55.5756 138.2C55.7756 138.127 55.9523 138.017 56.1056 137.87C56.2589 137.717 56.3823 137.52 56.4756 137.28C56.5756 137.04 56.6256 136.747 56.6256 136.4V136.2C56.6256 135.88 56.5756 135.607 56.4756 135.38C56.3823 135.153 56.2589 134.967 56.1056 134.82C55.9523 134.673 55.7756 134.567 55.5756 134.5C55.3756 134.433 55.1756 134.4 54.9756 134.4C54.7756 134.4 54.5756 134.433 54.3756 134.5C54.1756 134.567 53.9989 134.673 53.8456 134.82C53.6923 134.967 53.5656 135.153 53.4656 135.38C53.3723 135.607 53.3256 135.88 53.3256 136.2V136.4C53.3256 136.747 53.3723 137.04 53.4656 137.28C53.5656 137.52 53.6923 137.717 53.8456 137.87C53.9989 138.017 54.1756 138.127 54.3756 138.2C54.5756 138.267 54.7756 138.3 54.9756 138.3Z" fill="black"/>
<path d="M58.074 138.22H58.724C58.7974 138.12 58.864 137.967 58.924 137.76C58.984 137.553 59.0374 137.31 59.084 137.03C59.1307 136.75 59.164 136.447 59.184 136.12C59.2107 135.787 59.224 135.447 59.224 135.1V133.7H62.924V138.22H63.674V140.25H62.834V139H58.914V140.25H58.074V138.22ZM62.044 138.22V134.48H60.084V135.3C60.084 135.58 60.074 135.86 60.054 136.14C60.034 136.413 60.004 136.677 59.964 136.93C59.924 137.177 59.874 137.413 59.814 137.64C59.7607 137.86 59.6974 138.053 59.624 138.22H62.044Z" fill="black"/>
<path d="M67.6232 58.18H69.2932V53.03L67.6232 54.22V53.2L69.3132 52H70.2532V58.18H71.6232V59H67.6232V58.18Z" fill="black"/>
<path d="M46.55 296.18H48.22V291.03L46.55 292.22V291.2L48.24 290H49.18V296.18H50.55V297H46.55V296.18Z" fill="black"/>
<path d="M51.8035 297V295.9H52.9035V297L51.9035 298.5H51.4035L51.8035 297Z" fill="black"/>
<path d="M56.7516 296.23L59.5516 293.8C59.7649 293.62 59.9382 293.457 60.0716 293.31C60.2116 293.163 60.3216 293.027 60.4016 292.9C60.4816 292.767 60.5349 292.637 60.5616 292.51C60.5949 292.383 60.6116 292.247 60.6116 292.1C60.6116 291.707 60.4949 291.383 60.2616 291.13C60.0282 290.87 59.7082 290.74 59.3016 290.74C58.8149 290.74 58.4416 290.873 58.1816 291.14C57.9216 291.4 57.7916 291.77 57.7916 292.25H56.8516C56.8516 291.91 56.9082 291.597 57.0216 291.31C57.1416 291.017 57.3082 290.767 57.5216 290.56C57.7416 290.353 58.0016 290.193 58.3016 290.08C58.6016 289.96 58.9349 289.9 59.3016 289.9C59.6549 289.9 59.9716 289.957 60.2516 290.07C60.5316 290.177 60.7682 290.33 60.9616 290.53C61.1549 290.723 61.3016 290.953 61.4016 291.22C61.5016 291.487 61.5516 291.78 61.5516 292.1C61.5516 292.34 61.5149 292.563 61.4416 292.77C61.3682 292.977 61.2649 293.173 61.1316 293.36C61.0049 293.547 60.8482 293.73 60.6616 293.91C60.4816 294.083 60.2816 294.263 60.0616 294.45L57.9716 296.18H61.6516V297H56.7516V296.23Z" fill="black"/>
<path d="M65.0523 293.79H71.5523V294.61H65.0523V293.79Z" fill="black"/>
<path d="M75.007 297.1C74.907 297.1 74.807 297.09 74.707 297.07V296.15C74.7404 296.157 74.7904 296.16 74.857 296.16C74.9904 296.16 75.107 296.14 75.207 296.1C75.3137 296.053 75.4037 295.973 75.477 295.86C75.557 295.74 75.6237 295.573 75.677 295.36C75.737 295.147 75.7837 294.873 75.817 294.54C75.8504 294.2 75.8737 293.79 75.887 293.31C75.9004 292.83 75.907 292.26 75.907 291.6V290H80.607V297H79.667V290.82H76.847V291.8C76.847 292.54 76.8304 293.187 76.797 293.74C76.7637 294.287 76.7137 294.757 76.647 295.15C76.5804 295.543 76.497 295.867 76.397 296.12C76.297 296.373 76.177 296.573 76.037 296.72C75.9037 296.86 75.7504 296.957 75.577 297.01C75.4037 297.07 75.2137 297.1 75.007 297.1Z" fill="black"/>
<path d="M83.9155 297.1C83.6221 297.1 83.3621 297.06 83.1355 296.98C82.9155 296.893 82.7288 296.777 82.5755 296.63C82.4221 296.483 82.3055 296.31 82.2255 296.11C82.1455 295.91 82.1055 295.69 82.1055 295.45C82.1055 294.923 82.2588 294.543 82.5655 294.31C82.8788 294.077 83.3255 293.96 83.9055 293.96H85.6255V293.6C85.6255 293.147 85.5221 292.833 85.3155 292.66C85.1155 292.487 84.8121 292.4 84.4055 292.4C84.0255 292.4 83.7488 292.473 83.5755 292.62C83.4021 292.76 83.3055 292.92 83.2855 293.1H82.4055C82.4188 292.887 82.4755 292.69 82.5755 292.51C82.6821 292.323 82.8221 292.163 82.9955 292.03C83.1755 291.897 83.3888 291.793 83.6355 291.72C83.8821 291.64 84.1555 291.6 84.4555 291.6C85.0821 291.6 85.5788 291.75 85.9455 292.05C86.3188 292.343 86.5055 292.827 86.5055 293.5V295.65C86.5055 295.93 86.5055 296.177 86.5055 296.39C86.5121 296.597 86.5288 296.8 86.5555 297H85.7855C85.7655 296.847 85.7521 296.703 85.7455 296.57C85.7388 296.43 85.7355 296.273 85.7355 296.1C85.5955 296.38 85.3688 296.617 85.0555 296.81C84.7421 297.003 84.3621 297.1 83.9155 297.1ZM84.1055 296.3C84.3121 296.3 84.5055 296.273 84.6855 296.22C84.8721 296.16 85.0355 296.077 85.1755 295.97C85.3155 295.857 85.4255 295.72 85.5055 295.56C85.5855 295.4 85.6255 295.213 85.6255 295V294.64H84.0555C83.7288 294.64 83.4721 294.707 83.2855 294.84C83.0988 294.967 83.0055 295.17 83.0055 295.45C83.0055 295.697 83.0921 295.9 83.2655 296.06C83.4455 296.22 83.7255 296.3 84.1055 296.3Z" fill="black"/>
<path d="M88.0598 291.7H88.9998L90.8898 295L92.7798 291.7H93.6598V297H92.7798V293.15L91.2098 295.85H90.5098L88.9398 293.15V297H88.0598V291.7Z" fill="black"/>
<path d="M95.257 291.7H99.657V297H98.777V292.48H96.137V297H95.257V291.7Z" fill="black"/>
<path d="M101.253 291.7H102.133V293.7H103.203C103.87 293.7 104.36 293.847 104.673 294.14C104.993 294.433 105.153 294.84 105.153 295.36C105.153 295.867 104.993 296.267 104.673 296.56C104.36 296.853 103.87 297 103.203 297H101.253V291.7ZM103.153 296.22C103.566 296.22 103.856 296.147 104.023 296C104.19 295.853 104.273 295.637 104.273 295.35C104.273 295.063 104.19 294.847 104.023 294.7C103.856 294.553 103.566 294.48 103.153 294.48H102.133V296.22H103.153ZM105.973 291.7H106.853V297H105.973V291.7Z" fill="black"/>
<path d="M113 297.1C112.66 297.1 112.344 297.047 112.05 296.94C111.757 296.827 111.504 296.66 111.29 296.44C111.077 296.213 110.907 295.93 110.78 295.59C110.66 295.25 110.6 294.853 110.6 294.4V294.2C110.6 293.773 110.667 293.397 110.8 293.07C110.934 292.743 111.11 292.473 111.33 292.26C111.55 292.04 111.804 291.877 112.09 291.77C112.384 291.657 112.687 291.6 113 291.6C113.314 291.6 113.594 291.643 113.84 291.73C114.094 291.817 114.31 291.937 114.49 292.09C114.677 292.243 114.827 292.423 114.94 292.63C115.06 292.837 115.147 293.06 115.2 293.3H114.3C114.247 293.173 114.184 293.057 114.11 292.95C114.044 292.837 113.957 292.74 113.85 292.66C113.75 292.58 113.63 292.517 113.49 292.47C113.35 292.423 113.187 292.4 113 292.4C112.807 292.4 112.62 292.437 112.44 292.51C112.26 292.577 112.1 292.683 111.96 292.83C111.82 292.97 111.707 293.153 111.62 293.38C111.54 293.607 111.5 293.88 111.5 294.2V294.4C111.5 294.74 111.54 295.033 111.62 295.28C111.707 295.52 111.82 295.717 111.96 295.87C112.1 296.017 112.26 296.127 112.44 296.2C112.62 296.267 112.807 296.3 113 296.3C113.327 296.3 113.6 296.22 113.82 296.06C114.047 295.9 114.207 295.68 114.3 295.4H115.2C115.074 295.927 114.814 296.343 114.42 296.65C114.027 296.95 113.554 297.1 113 297.1Z" fill="black"/>
<path d="M116.4 291.7H117.28V295.7L120.02 291.7H120.9V297H120.02V293L117.28 297H116.4V291.7Z" fill="black"/>
<path d="M122.503 291.7H126.103V292.48H123.383V297H122.503V291.7Z" fill="black"/>
<path d="M127.103 291.7H127.983V293.91H130.723V291.7H131.603V297H130.723V294.69H127.983V297H127.103V291.7Z" fill="black"/>
<path d="M134.716 297.1C134.423 297.1 134.163 297.06 133.936 296.98C133.716 296.893 133.53 296.777 133.376 296.63C133.223 296.483 133.106 296.31 133.026 296.11C132.946 295.91 132.906 295.69 132.906 295.45C132.906 294.923 133.06 294.543 133.366 294.31C133.68 294.077 134.126 293.96 134.706 293.96H136.426V293.6C136.426 293.147 136.323 292.833 136.116 292.66C135.916 292.487 135.613 292.4 135.206 292.4C134.826 292.4 134.55 292.473 134.376 292.62C134.203 292.76 134.106 292.92 134.086 293.1H133.206C133.22 292.887 133.276 292.69 133.376 292.51C133.483 292.323 133.623 292.163 133.796 292.03C133.976 291.897 134.19 291.793 134.436 291.72C134.683 291.64 134.956 291.6 135.256 291.6C135.883 291.6 136.38 291.75 136.746 292.05C137.12 292.343 137.306 292.827 137.306 293.5V295.65C137.306 295.93 137.306 296.177 137.306 296.39C137.313 296.597 137.33 296.8 137.356 297H136.586C136.566 296.847 136.553 296.703 136.546 296.57C136.54 296.43 136.536 296.273 136.536 296.1C136.396 296.38 136.17 296.617 135.856 296.81C135.543 297.003 135.163 297.1 134.716 297.1ZM134.906 296.3C135.113 296.3 135.306 296.273 135.486 296.22C135.673 296.16 135.836 296.077 135.976 295.97C136.116 295.857 136.226 295.72 136.306 295.56C136.386 295.4 136.426 295.213 136.426 295V294.64H134.856C134.53 294.64 134.273 294.707 134.086 294.84C133.9 294.967 133.806 295.17 133.806 295.45C133.806 295.697 133.893 295.9 134.066 296.06C134.246 296.22 134.526 296.3 134.906 296.3Z" fill="black"/>
<path d="M138.611 297.1C138.511 297.1 138.411 297.09 138.311 297.07V296.19C138.344 296.197 138.394 296.2 138.461 296.2C138.607 296.2 138.734 296.153 138.841 296.06C138.954 295.967 139.044 295.803 139.111 295.57C139.177 295.337 139.227 295.02 139.261 294.62C139.294 294.22 139.311 293.713 139.311 293.1V291.7H143.111V297H142.231V292.48H140.191V293.3C140.191 294.04 140.157 294.653 140.091 295.14C140.024 295.627 139.924 296.017 139.791 296.31C139.664 296.597 139.501 296.8 139.301 296.92C139.101 297.04 138.871 297.1 138.611 297.1Z" fill="black"/>
<path d="M144.71 291.7H145.59V295.7L148.33 291.7H149.21V297H148.33V293L145.59 297H144.71V291.7Z" fill="black"/>
<path d="M152.614 297.1C151.947 297.1 151.424 296.96 151.044 296.68C150.664 296.4 150.454 296.007 150.414 295.5H151.294C151.34 295.76 151.477 295.96 151.704 296.1C151.937 296.233 152.24 296.3 152.614 296.3C153.074 296.3 153.407 296.223 153.614 296.07C153.827 295.91 153.934 295.72 153.934 295.5C153.934 295.24 153.847 295.037 153.674 294.89C153.5 294.737 153.2 294.66 152.774 294.66H151.864V293.94H152.714C153.08 293.94 153.34 293.87 153.494 293.73C153.654 293.59 153.734 293.393 153.734 293.14C153.734 292.94 153.64 292.767 153.454 292.62C153.267 292.473 152.987 292.4 152.614 292.4C152.207 292.4 151.91 292.467 151.724 292.6C151.544 292.727 151.434 292.91 151.394 293.15H150.514C150.534 292.93 150.594 292.727 150.694 292.54C150.8 292.347 150.944 292.18 151.124 292.04C151.304 291.9 151.517 291.793 151.764 291.72C152.017 291.64 152.3 291.6 152.614 291.6C152.954 291.6 153.247 291.64 153.494 291.72C153.747 291.793 153.957 291.9 154.124 292.04C154.29 292.173 154.414 292.333 154.494 292.52C154.574 292.707 154.614 292.913 154.614 293.14C154.614 293.393 154.55 293.617 154.424 293.81C154.297 293.997 154.094 294.143 153.814 294.25C154.187 294.35 154.447 294.51 154.594 294.73C154.74 294.95 154.814 295.207 154.814 295.5C154.814 295.72 154.767 295.927 154.674 296.12C154.58 296.313 154.44 296.483 154.254 296.63C154.074 296.77 153.844 296.883 153.564 296.97C153.29 297.057 152.974 297.1 152.614 297.1Z" fill="black"/>
<path d="M157.578 297.1C157.284 297.1 157.024 297.06 156.798 296.98C156.578 296.893 156.391 296.777 156.238 296.63C156.084 296.483 155.968 296.31 155.888 296.11C155.808 295.91 155.768 295.69 155.768 295.45C155.768 294.923 155.921 294.543 156.228 294.31C156.541 294.077 156.988 293.96 157.568 293.96H159.288V293.6C159.288 293.147 159.184 292.833 158.978 292.66C158.778 292.487 158.474 292.4 158.068 292.4C157.688 292.4 157.411 292.473 157.238 292.62C157.064 292.76 156.968 292.92 156.948 293.1H156.068C156.081 292.887 156.138 292.69 156.238 292.51C156.344 292.323 156.484 292.163 156.658 292.03C156.838 291.897 157.051 291.793 157.298 291.72C157.544 291.64 157.818 291.6 158.118 291.6C158.744 291.6 159.241 291.75 159.608 292.05C159.981 292.343 160.168 292.827 160.168 293.5V295.65C160.168 295.93 160.168 296.177 160.168 296.39C160.174 296.597 160.191 296.8 160.218 297H159.448C159.428 296.847 159.414 296.703 159.408 296.57C159.401 296.43 159.398 296.273 159.398 296.1C159.258 296.38 159.031 296.617 158.718 296.81C158.404 297.003 158.024 297.1 157.578 297.1ZM157.768 296.3C157.974 296.3 158.168 296.273 158.348 296.22C158.534 296.16 158.698 296.077 158.838 295.97C158.978 295.857 159.088 295.72 159.168 295.56C159.248 295.4 159.288 295.213 159.288 295V294.64H157.718C157.391 294.64 157.134 294.707 156.948 294.84C156.761 294.967 156.668 295.17 156.668 295.45C156.668 295.697 156.754 295.9 156.928 296.06C157.108 296.22 157.388 296.3 157.768 296.3Z" fill="black"/>
<path d="M166.032 297H161.722V291.7H162.602V296.22H165.142V291.7H166.022V296.22H166.872V298.25H166.032V297Z" fill="black"/>
<path d="M167.923 291.7H168.803V295.7L171.543 291.7H172.423V297H171.543V293L168.803 297H167.923V291.7Z" fill="black"/>
<path d="M174.027 291.7H174.907V295.7L177.647 291.7H178.527V297H177.647V293L174.907 297H174.027V291.7Z" fill="black"/>
<path d="M48.85 313.1C48.47 313.1 48.13 313.05 47.83 312.95C47.5367 312.843 47.2867 312.7 47.08 312.52C46.8733 312.34 46.7167 312.13 46.61 311.89C46.5033 311.643 46.45 311.38 46.45 311.1H47.39C47.39 311.44 47.5067 311.72 47.74 311.94C47.9733 312.153 48.3433 312.26 48.85 312.26C49.3567 312.26 49.7267 312.15 49.96 311.93C50.1933 311.703 50.31 311.41 50.31 311.05C50.31 310.677 50.19 310.377 49.95 310.15C49.7167 309.917 49.35 309.8 48.85 309.8H48.1V309H48.85C49.33 309 49.6767 308.9 49.89 308.7C50.1033 308.493 50.21 308.21 50.21 307.85C50.21 307.503 50.1067 307.233 49.9 307.04C49.6933 306.84 49.3433 306.74 48.85 306.74C48.3767 306.74 48.03 306.843 47.81 307.05C47.5967 307.25 47.49 307.5 47.49 307.8H46.55C46.55 307.54 46.6 307.293 46.7 307.06C46.8067 306.827 46.9567 306.627 47.15 306.46C47.35 306.287 47.59 306.15 47.87 306.05C48.1567 305.95 48.4833 305.9 48.85 305.9C49.2167 305.9 49.5433 305.95 49.83 306.05C50.1167 306.15 50.3567 306.283 50.55 306.45C50.75 306.617 50.9 306.813 51 307.04C51.1 307.267 51.15 307.503 51.15 307.75C51.15 308.15 51.0433 308.49 50.83 308.77C50.6233 309.043 50.33 309.237 49.95 309.35C50.35 309.477 50.6667 309.683 50.9 309.97C51.1333 310.257 51.25 310.65 51.25 311.15C51.25 311.417 51.1967 311.67 51.09 311.91C50.9833 312.143 50.8267 312.35 50.62 312.53C50.42 312.703 50.17 312.843 49.87 312.95C49.57 313.05 49.23 313.1 48.85 313.1Z" fill="black"/>
<path d="M54.7496 309.79H61.2496V310.61H54.7496V309.79Z" fill="black"/>
<path d="M67.7043 313.1C67.311 313.1 66.9376 313.033 66.5843 312.9C66.231 312.76 65.9176 312.547 65.6443 312.26C65.371 311.967 65.1543 311.597 64.9943 311.15C64.8343 310.703 64.7543 310.17 64.7543 309.55V309.35C64.7543 308.75 64.8343 308.233 64.9943 307.8C65.1543 307.367 65.371 307.01 65.6443 306.73C65.9176 306.45 66.231 306.243 66.5843 306.11C66.9376 305.97 67.311 305.9 67.7043 305.9C68.0843 305.9 68.431 305.95 68.7443 306.05C69.0643 306.15 69.3443 306.293 69.5843 306.48C69.8243 306.667 70.0176 306.897 70.1643 307.17C70.3176 307.443 70.4143 307.753 70.4543 308.1H69.4543C69.361 307.647 69.1643 307.307 68.8643 307.08C68.5643 306.853 68.1776 306.74 67.7043 306.74C67.4576 306.74 67.2176 306.787 66.9843 306.88C66.751 306.973 66.541 307.123 66.3543 307.33C66.1743 307.53 66.0276 307.797 65.9143 308.13C65.8076 308.463 65.7543 308.87 65.7543 309.35V309.55C65.7543 310.057 65.8143 310.483 65.9343 310.83C66.0543 311.17 66.2076 311.447 66.3943 311.66C66.581 311.873 66.791 312.027 67.0243 312.12C67.2576 312.213 67.4843 312.26 67.7043 312.26C68.2243 312.26 68.631 312.133 68.9243 311.88C69.2176 311.627 69.3943 311.3 69.4543 310.9H70.4543C70.401 311.287 70.2943 311.62 70.1343 311.9C69.9743 312.173 69.771 312.4 69.5243 312.58C69.2843 312.76 69.0076 312.893 68.6943 312.98C68.3876 313.06 68.0576 313.1 67.7043 313.1Z" fill="black"/>
<path d="M71.7512 307.7H72.6312V311.7L75.3712 307.7H76.2512V313H75.3712V309L72.6312 313H71.7512V307.7Z" fill="black"/>
<path d="M77.8547 307.7H78.6747V308.7C78.8547 308.347 79.1047 308.077 79.4247 307.89C79.7514 307.697 80.128 307.6 80.5547 307.6C81.2214 307.6 81.7547 307.82 82.1547 308.26C82.5547 308.693 82.7547 309.34 82.7547 310.2V310.4C82.7547 310.853 82.7014 311.25 82.5947 311.59C82.488 311.923 82.338 312.203 82.1447 312.43C81.9514 312.65 81.718 312.817 81.4447 312.93C81.178 313.043 80.8814 313.1 80.5547 313.1C80.1014 313.1 79.7214 313 79.4147 312.8C79.1147 312.6 78.888 312.35 78.7347 312.05V315H77.8547V307.7ZM80.3547 312.32C80.568 312.32 80.768 312.28 80.9547 312.2C81.1414 312.113 81.3014 311.99 81.4347 311.83C81.5747 311.67 81.6814 311.47 81.7547 311.23C81.8347 310.99 81.8747 310.713 81.8747 310.4V310.2C81.8747 309.913 81.8347 309.657 81.7547 309.43C81.6814 309.203 81.5747 309.013 81.4347 308.86C81.3014 308.7 81.1414 308.58 80.9547 308.5C80.768 308.42 80.568 308.38 80.3547 308.38C80.1147 308.38 79.8947 308.42 79.6947 308.5C79.4947 308.573 79.3247 308.68 79.1847 308.82C79.0447 308.953 78.9347 309.113 78.8547 309.3C78.7747 309.487 78.7347 309.687 78.7347 309.9V310.7C78.7347 310.94 78.7747 311.16 78.8547 311.36C78.9347 311.56 79.0447 311.73 79.1847 311.87C79.3247 312.01 79.4947 312.12 79.6947 312.2C79.8947 312.28 80.1147 312.32 80.3547 312.32Z" fill="black"/>
<path d="M86.207 313.1C85.867 313.1 85.5437 313.047 85.237 312.94C84.9304 312.833 84.6604 312.67 84.427 312.45C84.1937 312.223 84.007 311.94 83.867 311.6C83.727 311.26 83.657 310.86 83.657 310.4V310.2C83.657 309.76 83.7237 309.38 83.857 309.06C83.9904 308.733 84.167 308.463 84.387 308.25C84.6137 308.03 84.8737 307.867 85.167 307.76C85.467 307.653 85.7804 307.6 86.107 307.6C86.887 307.6 87.4904 307.813 87.917 308.24C88.3437 308.667 88.557 309.27 88.557 310.05V310.61H84.537C84.537 310.923 84.587 311.187 84.687 311.4C84.787 311.613 84.917 311.787 85.077 311.92C85.237 312.053 85.4137 312.15 85.607 312.21C85.807 312.27 86.007 312.3 86.207 312.3C86.607 312.3 86.9137 312.233 87.127 312.1C87.347 311.967 87.5037 311.783 87.597 311.55H88.457C88.4037 311.803 88.307 312.027 88.167 312.22C88.0337 312.413 87.867 312.577 87.667 312.71C87.4737 312.837 87.2504 312.933 86.997 313C86.7504 313.067 86.487 313.1 86.207 313.1ZM86.157 308.4C85.9504 308.4 85.7504 308.43 85.557 308.49C85.3637 308.543 85.1904 308.633 85.037 308.76C84.8904 308.88 84.7704 309.033 84.677 309.22C84.5837 309.407 84.537 309.63 84.537 309.89H87.727C87.7204 309.617 87.6737 309.387 87.587 309.2C87.507 309.007 87.397 308.853 87.257 308.74C87.117 308.62 86.9504 308.533 86.757 308.48C86.5704 308.427 86.3704 308.4 86.157 308.4Z" fill="black"/>
<path d="M89.8078 307.7H90.6878V309.91H93.4278V307.7H94.3078V313H93.4278V310.69H90.6878V313H89.8078V307.7Z" fill="black"/>
<path d="M97.4213 313.1C97.128 313.1 96.868 313.06 96.6413 312.98C96.4213 312.893 96.2347 312.777 96.0813 312.63C95.928 312.483 95.8113 312.31 95.7313 312.11C95.6513 311.91 95.6113 311.69 95.6113 311.45C95.6113 310.923 95.7647 310.543 96.0713 310.31C96.3847 310.077 96.8313 309.96 97.4113 309.96H99.1313V309.6C99.1313 309.147 99.028 308.833 98.8213 308.66C98.6213 308.487 98.318 308.4 97.9113 308.4C97.5313 308.4 97.2547 308.473 97.0813 308.62C96.908 308.76 96.8113 308.92 96.7913 309.1H95.9113C95.9247 308.887 95.9813 308.69 96.0813 308.51C96.188 308.323 96.328 308.163 96.5013 308.03C96.6813 307.897 96.8947 307.793 97.1413 307.72C97.388 307.64 97.6613 307.6 97.9613 307.6C98.588 307.6 99.0847 307.75 99.4513 308.05C99.8247 308.343 100.011 308.827 100.011 309.5V311.65C100.011 311.93 100.011 312.177 100.011 312.39C100.018 312.597 100.035 312.8 100.061 313H99.2913C99.2713 312.847 99.258 312.703 99.2513 312.57C99.2447 312.43 99.2413 312.273 99.2413 312.1C99.1013 312.38 98.8747 312.617 98.5613 312.81C98.248 313.003 97.868 313.1 97.4213 313.1ZM97.6113 312.3C97.818 312.3 98.0113 312.273 98.1913 312.22C98.378 312.16 98.5413 312.077 98.6813 311.97C98.8213 311.857 98.9313 311.72 99.0113 311.56C99.0913 311.4 99.1313 311.213 99.1313 311V310.64H97.5613C97.2347 310.64 96.978 310.707 96.7913 310.84C96.6047 310.967 96.5113 311.17 96.5113 311.45C96.5113 311.697 96.598 311.9 96.7713 312.06C96.9513 312.22 97.2313 312.3 97.6113 312.3Z" fill="black"/>
<path d="M49.76 327.31H46.2V326.59L49.66 322H50.7V326.49H51.6V327.31H50.7V329H49.76V327.31ZM49.76 326.49V323.1L47.2 326.49H49.76Z" fill="black"/>
<path d="M55.0035 325.79H61.5035V326.61H55.0035V325.79Z" fill="black"/>
<path d="M65.4082 322H66.3482V327.5L70.0682 322H71.0082V329H70.0682V323.5L66.3482 329H65.4082V322Z" fill="black"/>
<path d="M72.8059 323.7H73.6859V325.91H76.4259V323.7H77.3059V329H76.4259V326.69H73.6859V329H72.8059V323.7Z" fill="black"/>
<path d="M78.3094 328.22H78.9594C79.0327 328.12 79.0994 327.967 79.1594 327.76C79.2194 327.553 79.2727 327.31 79.3194 327.03C79.366 326.75 79.3994 326.447 79.4194 326.12C79.446 325.787 79.4594 325.447 79.4594 325.1V323.7H83.1594V328.22H83.9094V330.25H83.0694V329H79.1494V330.25H78.3094V328.22ZM82.2794 328.22V324.48H80.3194V325.3C80.3194 325.58 80.3094 325.86 80.2894 326.14C80.2694 326.413 80.2394 326.677 80.1994 326.93C80.1594 327.177 80.1094 327.413 80.0494 327.64C79.996 327.86 79.9327 328.053 79.8594 328.22H82.2794Z" fill="black"/>
<path d="M84.9641 323.7H85.8441V327.7L88.5841 323.7H89.4641V329H88.5841V325L85.8441 329H84.9641V323.7Z" fill="black"/>
<path d="M91.0676 323.7H91.9476V325.92H92.6476L94.6276 323.7H95.6676L93.3676 326.24L95.7676 329H94.6476L92.6476 326.68H91.9476V329H91.0676V323.7Z" fill="black"/>
<path d="M98.2319 329.1C97.9385 329.1 97.6785 329.06 97.4519 328.98C97.2319 328.893 97.0452 328.777 96.8919 328.63C96.7385 328.483 96.6219 328.31 96.5419 328.11C96.4619 327.91 96.4219 327.69 96.4219 327.45C96.4219 326.923 96.5752 326.543 96.8819 326.31C97.1952 326.077 97.6419 325.96 98.2219 325.96H99.9419V325.6C99.9419 325.147 99.8385 324.833 99.6319 324.66C99.4319 324.487 99.1285 324.4 98.7219 324.4C98.3419 324.4 98.0652 324.473 97.8919 324.62C97.7185 324.76 97.6219 324.92 97.6019 325.1H96.7219C96.7352 324.887 96.7919 324.69 96.8919 324.51C96.9985 324.323 97.1385 324.163 97.3119 324.03C97.4919 323.897 97.7052 323.793 97.9519 323.72C98.1985 323.64 98.4719 323.6 98.7719 323.6C99.3985 323.6 99.8952 323.75 100.262 324.05C100.635 324.343 100.822 324.827 100.822 325.5V327.65C100.822 327.93 100.822 328.177 100.822 328.39C100.829 328.597 100.845 328.8 100.872 329H100.102C100.082 328.847 100.069 328.703 100.062 328.57C100.055 328.43 100.052 328.273 100.052 328.1C99.9119 328.38 99.6852 328.617 99.3719 328.81C99.0585 329.003 98.6785 329.1 98.2319 329.1ZM98.4219 328.3C98.6285 328.3 98.8219 328.273 99.0019 328.22C99.1885 328.16 99.3519 328.077 99.4919 327.97C99.6319 327.857 99.7419 327.72 99.8219 327.56C99.9019 327.4 99.9419 327.213 99.9419 327V326.64H98.3719C98.0452 326.64 97.7885 326.707 97.6019 326.84C97.4152 326.967 97.3219 327.17 97.3219 327.45C97.3219 327.697 97.4085 327.9 97.5819 328.06C97.7619 328.22 98.0419 328.3 98.4219 328.3Z" fill="black"/>
<path d="M106.686 329H102.376V323.7H103.256V328.22H105.796V323.7H106.676V328.22H107.526V330.25H106.686V329Z" fill="black"/>
<path d="M108.577 323.7H109.457V327.7L112.197 323.7H113.077V329H112.197V325L109.457 329H108.577V323.7Z" fill="black"/>
<path d="M115.721 326.9C115.281 326.8 114.964 326.62 114.771 326.36C114.578 326.093 114.481 325.753 114.481 325.34C114.481 324.82 114.638 324.417 114.951 324.13C115.271 323.843 115.781 323.7 116.481 323.7H118.781V329H117.901V326.98H116.551L115.261 329H114.281L115.721 326.9ZM115.361 325.34C115.361 325.62 115.441 325.833 115.601 325.98C115.768 326.127 116.044 326.2 116.431 326.2H117.901V324.48H116.431C116.044 324.48 115.768 324.553 115.601 324.7C115.441 324.847 115.361 325.06 115.361 325.34Z" fill="black"/>
<path d="M122.884 323.7H127.284V329H126.404V324.48H123.764V329H122.884V323.7Z" fill="black"/>
<path d="M131.08 329.1C130.74 329.1 130.417 329.047 130.11 328.94C129.803 328.827 129.533 328.66 129.3 328.44C129.067 328.213 128.88 327.93 128.74 327.59C128.6 327.25 128.53 326.853 128.53 326.4V326.2C128.53 325.773 128.6 325.397 128.74 325.07C128.88 324.743 129.067 324.473 129.3 324.26C129.533 324.04 129.803 323.877 130.11 323.77C130.417 323.657 130.74 323.6 131.08 323.6C131.42 323.6 131.743 323.657 132.05 323.77C132.357 323.877 132.627 324.04 132.86 324.26C133.093 324.473 133.28 324.743 133.42 325.07C133.56 325.397 133.63 325.773 133.63 326.2V326.4C133.63 326.853 133.56 327.25 133.42 327.59C133.28 327.93 133.093 328.213 132.86 328.44C132.627 328.66 132.357 328.827 132.05 328.94C131.743 329.047 131.42 329.1 131.08 329.1ZM131.08 328.3C131.28 328.3 131.48 328.267 131.68 328.2C131.88 328.127 132.057 328.017 132.21 327.87C132.363 327.717 132.487 327.52 132.58 327.28C132.68 327.04 132.73 326.747 132.73 326.4V326.2C132.73 325.88 132.68 325.607 132.58 325.38C132.487 325.153 132.363 324.967 132.21 324.82C132.057 324.673 131.88 324.567 131.68 324.5C131.48 324.433 131.28 324.4 131.08 324.4C130.88 324.4 130.68 324.433 130.48 324.5C130.28 324.567 130.103 324.673 129.95 324.82C129.797 324.967 129.67 325.153 129.57 325.38C129.477 325.607 129.43 325.88 129.43 326.2V326.4C129.43 326.747 129.477 327.04 129.57 327.28C129.67 327.52 129.797 327.717 129.95 327.87C130.103 328.017 130.28 328.127 130.48 328.2C130.68 328.267 130.88 328.3 131.08 328.3Z" fill="black"/>
<path d="M134.529 329.1C134.429 329.1 134.329 329.09 134.229 329.07V328.19C134.262 328.197 134.312 328.2 134.379 328.2C134.525 328.2 134.652 328.153 134.759 328.06C134.872 327.967 134.962 327.803 135.029 327.57C135.095 327.337 135.145 327.02 135.179 326.62C135.212 326.22 135.229 325.713 135.229 325.1V323.7H139.029V329H138.149V324.48H136.109V325.3C136.109 326.04 136.075 326.653 136.009 327.14C135.942 327.627 135.842 328.017 135.709 328.31C135.582 328.597 135.419 328.8 135.219 328.92C135.019 329.04 134.789 329.1 134.529 329.1Z" fill="black"/>
<path d="M142.828 329.1C142.488 329.1 142.165 329.047 141.858 328.94C141.551 328.827 141.281 328.66 141.048 328.44C140.815 328.213 140.628 327.93 140.488 327.59C140.348 327.25 140.278 326.853 140.278 326.4V326.2C140.278 325.773 140.348 325.397 140.488 325.07C140.628 324.743 140.815 324.473 141.048 324.26C141.281 324.04 141.551 323.877 141.858 323.77C142.165 323.657 142.488 323.6 142.828 323.6C143.168 323.6 143.491 323.657 143.798 323.77C144.105 323.877 144.375 324.04 144.608 324.26C144.841 324.473 145.028 324.743 145.168 325.07C145.308 325.397 145.378 325.773 145.378 326.2V326.4C145.378 326.853 145.308 327.25 145.168 327.59C145.028 327.93 144.841 328.213 144.608 328.44C144.375 328.66 144.105 328.827 143.798 328.94C143.491 329.047 143.168 329.1 142.828 329.1ZM142.828 328.3C143.028 328.3 143.228 328.267 143.428 328.2C143.628 328.127 143.805 328.017 143.958 327.87C144.111 327.717 144.235 327.52 144.328 327.28C144.428 327.04 144.478 326.747 144.478 326.4V326.2C144.478 325.88 144.428 325.607 144.328 325.38C144.235 325.153 144.111 324.967 143.958 324.82C143.805 324.673 143.628 324.567 143.428 324.5C143.228 324.433 143.028 324.4 142.828 324.4C142.628 324.4 142.428 324.433 142.228 324.5C142.028 324.567 141.851 324.673 141.698 324.82C141.545 324.967 141.418 325.153 141.318 325.38C141.225 325.607 141.178 325.88 141.178 326.2V326.4C141.178 326.747 141.225 327.04 141.318 327.28C141.418 327.52 141.545 327.717 141.698 327.87C141.851 328.017 142.028 328.127 142.228 328.2C142.428 328.267 142.628 328.3 142.828 328.3Z" fill="black"/>
<path d="M147.879 326.27L145.979 323.7H146.959L148.579 325.92H149.189V323.7H150.069V325.92H150.669L152.319 323.7H153.279L151.379 326.24L153.379 329H152.339L150.669 326.68H150.069V329H149.189V326.68H148.579L146.899 329H145.879L147.879 326.27Z" fill="black"/>
<path d="M154.427 323.7H155.307V327.7L158.047 323.7H158.927V329H158.047V325L155.307 329H154.427V323.7Z" fill="black"/>
<path d="M161.74 324.48H159.93V323.7H164.43V324.48H162.62V329H161.74V324.48Z" fill="black"/>
<path d="M167.535 329.1C167.195 329.1 166.872 329.047 166.565 328.94C166.258 328.833 165.988 328.67 165.755 328.45C165.522 328.223 165.335 327.94 165.195 327.6C165.055 327.26 164.985 326.86 164.985 326.4V326.2C164.985 325.76 165.052 325.38 165.185 325.06C165.318 324.733 165.495 324.463 165.715 324.25C165.942 324.03 166.202 323.867 166.495 323.76C166.795 323.653 167.108 323.6 167.435 323.6C168.215 323.6 168.818 323.813 169.245 324.24C169.672 324.667 169.885 325.27 169.885 326.05V326.61H165.865C165.865 326.923 165.915 327.187 166.015 327.4C166.115 327.613 166.245 327.787 166.405 327.92C166.565 328.053 166.742 328.15 166.935 328.21C167.135 328.27 167.335 328.3 167.535 328.3C167.935 328.3 168.242 328.233 168.455 328.1C168.675 327.967 168.832 327.783 168.925 327.55H169.785C169.732 327.803 169.635 328.027 169.495 328.22C169.362 328.413 169.195 328.577 168.995 328.71C168.802 328.837 168.578 328.933 168.325 329C168.078 329.067 167.815 329.1 167.535 329.1ZM167.485 324.4C167.278 324.4 167.078 324.43 166.885 324.49C166.692 324.543 166.518 324.633 166.365 324.76C166.218 324.88 166.098 325.033 166.005 325.22C165.912 325.407 165.865 325.63 165.865 325.89H169.055C169.048 325.617 169.002 325.387 168.915 325.2C168.835 325.007 168.725 324.853 168.585 324.74C168.445 324.62 168.278 324.533 168.085 324.48C167.898 324.427 167.698 324.4 167.485 324.4Z" fill="black"/>
<path d="M170.788 329.1C170.688 329.1 170.588 329.09 170.488 329.07V328.19C170.522 328.197 170.572 328.2 170.638 328.2C170.785 328.2 170.912 328.153 171.018 328.06C171.132 327.967 171.222 327.803 171.288 327.57C171.355 327.337 171.405 327.02 171.438 326.62C171.472 326.22 171.488 325.713 171.488 325.1V323.7H175.288V329H174.408V324.48H172.368V325.3C172.368 326.04 172.335 326.653 172.268 327.14C172.202 327.627 172.102 328.017 171.968 328.31C171.842 328.597 171.678 328.8 171.478 328.92C171.278 329.04 171.048 329.1 170.788 329.1Z" fill="black"/>
<path d="M176.888 323.7H177.768V325.7H179.038C179.705 325.7 180.195 325.847 180.508 326.14C180.828 326.433 180.988 326.84 180.988 327.36C180.988 327.867 180.828 328.267 180.508 328.56C180.195 328.853 179.705 329 179.038 329H176.888V323.7ZM178.988 328.22C179.401 328.22 179.691 328.147 179.858 328C180.025 327.853 180.108 327.637 180.108 327.35C180.108 327.063 180.025 326.847 179.858 326.7C179.691 326.553 179.401 326.48 178.988 326.48H177.768V328.22H178.988Z" fill="black"/>
<path d="M182.142 323.7H183.022V325.91H185.762V323.7H186.642V329H185.762V326.69H183.022V329H182.142V323.7Z" fill="black"/>
<path d="M190.445 329.1C190.105 329.1 189.782 329.047 189.475 328.94C189.169 328.827 188.899 328.66 188.665 328.44C188.432 328.213 188.245 327.93 188.105 327.59C187.965 327.25 187.895 326.853 187.895 326.4V326.2C187.895 325.773 187.965 325.397 188.105 325.07C188.245 324.743 188.432 324.473 188.665 324.26C188.899 324.04 189.169 323.877 189.475 323.77C189.782 323.657 190.105 323.6 190.445 323.6C190.785 323.6 191.109 323.657 191.415 323.77C191.722 323.877 191.992 324.04 192.225 324.26C192.459 324.473 192.645 324.743 192.785 325.07C192.925 325.397 192.995 325.773 192.995 326.2V326.4C192.995 326.853 192.925 327.25 192.785 327.59C192.645 327.93 192.459 328.213 192.225 328.44C191.992 328.66 191.722 328.827 191.415 328.94C191.109 329.047 190.785 329.1 190.445 329.1ZM190.445 328.3C190.645 328.3 190.845 328.267 191.045 328.2C191.245 328.127 191.422 328.017 191.575 327.87C191.729 327.717 191.852 327.52 191.945 327.28C192.045 327.04 192.095 326.747 192.095 326.4V326.2C192.095 325.88 192.045 325.607 191.945 325.38C191.852 325.153 191.729 324.967 191.575 324.82C191.422 324.673 191.245 324.567 191.045 324.5C190.845 324.433 190.645 324.4 190.445 324.4C190.245 324.4 190.045 324.433 189.845 324.5C189.645 324.567 189.469 324.673 189.315 324.82C189.162 324.967 189.035 325.153 188.935 325.38C188.842 325.607 188.795 325.88 188.795 326.2V326.4C188.795 326.747 188.842 327.04 188.935 327.28C189.035 327.52 189.162 327.717 189.315 327.87C189.469 328.017 189.645 328.127 189.845 328.2C190.045 328.267 190.245 328.3 190.445 328.3Z" fill="black"/>
<path d="M194.241 323.7H197.841V324.48H195.121V329H194.241V323.7Z" fill="black"/>
<path d="M200.943 329.1C200.603 329.1 200.28 329.047 199.973 328.94C199.667 328.827 199.397 328.66 199.163 328.44C198.93 328.213 198.743 327.93 198.603 327.59C198.463 327.25 198.393 326.853 198.393 326.4V326.2C198.393 325.773 198.463 325.397 198.603 325.07C198.743 324.743 198.93 324.473 199.163 324.26C199.397 324.04 199.667 323.877 199.973 323.77C200.28 323.657 200.603 323.6 200.943 323.6C201.283 323.6 201.607 323.657 201.913 323.77C202.22 323.877 202.49 324.04 202.723 324.26C202.957 324.473 203.143 324.743 203.283 325.07C203.423 325.397 203.493 325.773 203.493 326.2V326.4C203.493 326.853 203.423 327.25 203.283 327.59C203.143 327.93 202.957 328.213 202.723 328.44C202.49 328.66 202.22 328.827 201.913 328.94C201.607 329.047 201.283 329.1 200.943 329.1ZM200.943 328.3C201.143 328.3 201.343 328.267 201.543 328.2C201.743 328.127 201.92 328.017 202.073 327.87C202.227 327.717 202.35 327.52 202.443 327.28C202.543 327.04 202.593 326.747 202.593 326.4V326.2C202.593 325.88 202.543 325.607 202.443 325.38C202.35 325.153 202.227 324.967 202.073 324.82C201.92 324.673 201.743 324.567 201.543 324.5C201.343 324.433 201.143 324.4 200.943 324.4C200.743 324.4 200.543 324.433 200.343 324.5C200.143 324.567 199.967 324.673 199.813 324.82C199.66 324.967 199.533 325.153 199.433 325.38C199.34 325.607 199.293 325.88 199.293 326.2V326.4C199.293 326.747 199.34 327.04 199.433 327.28C199.533 327.52 199.66 327.717 199.813 327.87C199.967 328.017 200.143 328.127 200.343 328.2C200.543 328.267 200.743 328.3 200.943 328.3Z" fill="black"/>
<path d="M207.239 323.7H208.059V324.7C208.239 324.347 208.489 324.077 208.809 323.89C209.136 323.697 209.513 323.6 209.939 323.6C210.606 323.6 211.139 323.82 211.539 324.26C211.939 324.693 212.139 325.34 212.139 326.2V326.4C212.139 326.853 212.086 327.25 211.979 327.59C211.873 327.923 211.723 328.203 211.529 328.43C211.336 328.65 211.103 328.817 210.829 328.93C210.563 329.043 210.266 329.1 209.939 329.1C209.486 329.1 209.106 329 208.799 328.8C208.499 328.6 208.273 328.35 208.119 328.05V331H207.239V323.7ZM209.739 328.32C209.953 328.32 210.153 328.28 210.339 328.2C210.526 328.113 210.686 327.99 210.819 327.83C210.959 327.67 211.066 327.47 211.139 327.23C211.219 326.99 211.259 326.713 211.259 326.4V326.2C211.259 325.913 211.219 325.657 211.139 325.43C211.066 325.203 210.959 325.013 210.819 324.86C210.686 324.7 210.526 324.58 210.339 324.5C210.153 324.42 209.953 324.38 209.739 324.38C209.499 324.38 209.279 324.42 209.079 324.5C208.879 324.573 208.709 324.68 208.569 324.82C208.429 324.953 208.319 325.113 208.239 325.3C208.159 325.487 208.119 325.687 208.119 325.9V326.7C208.119 326.94 208.159 327.16 208.239 327.36C208.319 327.56 208.429 327.73 208.569 327.87C208.709 328.01 208.879 328.12 209.079 328.2C209.279 328.28 209.499 328.32 209.739 328.32Z" fill="black"/>
<path d="M215.592 329.1C215.252 329.1 214.928 329.047 214.622 328.94C214.315 328.833 214.045 328.67 213.812 328.45C213.578 328.223 213.392 327.94 213.252 327.6C213.112 327.26 213.042 326.86 213.042 326.4V326.2C213.042 325.76 213.108 325.38 213.242 325.06C213.375 324.733 213.552 324.463 213.772 324.25C213.998 324.03 214.258 323.867 214.552 323.76C214.852 323.653 215.165 323.6 215.492 323.6C216.272 323.6 216.875 323.813 217.302 324.24C217.728 324.667 217.942 325.27 217.942 326.05V326.61H213.922C213.922 326.923 213.972 327.187 214.072 327.4C214.172 327.613 214.302 327.787 214.462 327.92C214.622 328.053 214.798 328.15 214.992 328.21C215.192 328.27 215.392 328.3 215.592 328.3C215.992 328.3 216.298 328.233 216.512 328.1C216.732 327.967 216.888 327.783 216.982 327.55H217.842C217.788 327.803 217.692 328.027 217.552 328.22C217.418 328.413 217.252 328.577 217.052 328.71C216.858 328.837 216.635 328.933 216.382 329C216.135 329.067 215.872 329.1 215.592 329.1ZM215.542 324.4C215.335 324.4 215.135 324.43 214.942 324.49C214.748 324.543 214.575 324.633 214.422 324.76C214.275 324.88 214.155 325.033 214.062 325.22C213.968 325.407 213.922 325.63 213.922 325.89H217.112C217.105 325.617 217.058 325.387 216.972 325.2C216.892 325.007 216.782 324.853 216.642 324.74C216.502 324.62 216.335 324.533 216.142 324.48C215.955 324.427 215.755 324.4 215.542 324.4Z" fill="black"/>
<path d="M220.993 329.1C220.326 329.1 219.803 328.96 219.423 328.68C219.043 328.4 218.833 328.007 218.793 327.5H219.673C219.719 327.76 219.856 327.96 220.083 328.1C220.316 328.233 220.619 328.3 220.993 328.3C221.453 328.3 221.786 328.223 221.993 328.07C222.206 327.91 222.313 327.72 222.313 327.5C222.313 327.24 222.226 327.037 222.053 326.89C221.879 326.737 221.579 326.66 221.153 326.66H220.243V325.94H221.093C221.459 325.94 221.719 325.87 221.873 325.73C222.033 325.59 222.113 325.393 222.113 325.14C222.113 324.94 222.019 324.767 221.833 324.62C221.646 324.473 221.366 324.4 220.993 324.4C220.586 324.4 220.289 324.467 220.103 324.6C219.923 324.727 219.813 324.91 219.773 325.15H218.893C218.913 324.93 218.973 324.727 219.073 324.54C219.179 324.347 219.323 324.18 219.503 324.04C219.683 323.9 219.896 323.793 220.143 323.72C220.396 323.64 220.679 323.6 220.993 323.6C221.333 323.6 221.626 323.64 221.873 323.72C222.126 323.793 222.336 323.9 222.503 324.04C222.669 324.173 222.793 324.333 222.873 324.52C222.953 324.707 222.993 324.913 222.993 325.14C222.993 325.393 222.929 325.617 222.803 325.81C222.676 325.997 222.473 326.143 222.193 326.25C222.566 326.35 222.826 326.51 222.973 326.73C223.119 326.95 223.193 327.207 223.193 327.5C223.193 327.72 223.146 327.927 223.053 328.12C222.959 328.313 222.819 328.483 222.633 328.63C222.453 328.77 222.223 328.883 221.943 328.97C221.669 329.057 221.353 329.1 220.993 329.1Z" fill="black"/>
<path d="M224.951 331.1C224.851 331.1 224.751 331.09 224.651 331.07V330.27C224.751 330.29 224.851 330.3 224.951 330.3C225.051 330.3 225.138 330.283 225.211 330.25C225.284 330.217 225.355 330.153 225.421 330.06C225.488 329.967 225.558 329.833 225.631 329.66C225.711 329.493 225.801 329.273 225.901 329L223.651 323.7H224.631L226.351 328L227.911 323.7H228.851L226.851 329C226.711 329.373 226.578 329.693 226.451 329.96C226.325 330.227 226.188 330.443 226.041 330.61C225.901 330.783 225.745 330.907 225.571 330.98C225.398 331.06 225.191 331.1 224.951 331.1Z" fill="black"/>
<path d="M229.402 329.1C229.302 329.1 229.202 329.09 229.102 329.07V328.19C229.135 328.197 229.185 328.2 229.252 328.2C229.398 328.2 229.525 328.153 229.632 328.06C229.745 327.967 229.835 327.803 229.902 327.57C229.968 327.337 230.018 327.02 230.052 326.62C230.085 326.22 230.102 325.713 230.102 325.1V323.7H233.902V329H233.022V324.48H230.982V325.3C230.982 326.04 230.948 326.653 230.882 327.14C230.815 327.627 230.715 328.017 230.582 328.31C230.455 328.597 230.292 328.8 230.092 328.92C229.892 329.04 229.662 329.1 229.402 329.1Z" fill="black"/>
<path d="M235.501 323.7H236.381V325.7H237.651C238.318 325.7 238.808 325.847 239.121 326.14C239.441 326.433 239.601 326.84 239.601 327.36C239.601 327.867 239.441 328.267 239.121 328.56C238.808 328.853 238.318 329 237.651 329H235.501V323.7ZM237.601 328.22C238.014 328.22 238.305 328.147 238.471 328C238.638 327.853 238.721 327.637 238.721 327.35C238.721 327.063 238.638 326.847 238.471 326.7C238.305 326.553 238.014 326.48 237.601 326.48H236.381V328.22H237.601Z" fill="black"/>
<path d="M241.467 324.48H239.657V323.7H244.157V324.48H242.347V329H241.467V324.48Z" fill="black"/>
<path d="M246.474 329.1C246.181 329.1 245.921 329.06 245.694 328.98C245.474 328.893 245.287 328.777 245.134 328.63C244.981 328.483 244.864 328.31 244.784 328.11C244.704 327.91 244.664 327.69 244.664 327.45C244.664 326.923 244.817 326.543 245.124 326.31C245.437 326.077 245.884 325.96 246.464 325.96H248.184V325.6C248.184 325.147 248.081 324.833 247.874 324.66C247.674 324.487 247.371 324.4 246.964 324.4C246.584 324.4 246.307 324.473 246.134 324.62C245.961 324.76 245.864 324.92 245.844 325.1H244.964C244.977 324.887 245.034 324.69 245.134 324.51C245.241 324.323 245.381 324.163 245.554 324.03C245.734 323.897 245.947 323.793 246.194 323.72C246.441 323.64 246.714 323.6 247.014 323.6C247.641 323.6 248.137 323.75 248.504 324.05C248.877 324.343 249.064 324.827 249.064 325.5V327.65C249.064 327.93 249.064 328.177 249.064 328.39C249.071 328.597 249.087 328.8 249.114 329H248.344C248.324 328.847 248.311 328.703 248.304 328.57C248.297 328.43 248.294 328.273 248.294 328.1C248.154 328.38 247.927 328.617 247.614 328.81C247.301 329.003 246.921 329.1 246.474 329.1ZM246.664 328.3C246.871 328.3 247.064 328.273 247.244 328.22C247.431 328.16 247.594 328.077 247.734 327.97C247.874 327.857 247.984 327.72 248.064 327.56C248.144 327.4 248.184 327.213 248.184 327V326.64H246.614C246.287 326.64 246.031 326.707 245.844 326.84C245.657 326.967 245.564 327.17 245.564 327.45C245.564 327.697 245.651 327.9 245.824 328.06C246.004 328.22 246.284 328.3 246.664 328.3Z" fill="black"/>
<path d="M251.731 324.48H249.921V323.7H254.421V324.48H252.611V329H251.731V324.48Z" fill="black"/>
<path d="M256.738 329.1C256.444 329.1 256.184 329.06 255.958 328.98C255.738 328.893 255.551 328.777 255.398 328.63C255.244 328.483 255.128 328.31 255.048 328.11C254.968 327.91 254.928 327.69 254.928 327.45C254.928 326.923 255.081 326.543 255.388 326.31C255.701 326.077 256.148 325.96 256.728 325.96H258.448V325.6C258.448 325.147 258.344 324.833 258.138 324.66C257.938 324.487 257.634 324.4 257.228 324.4C256.848 324.4 256.571 324.473 256.398 324.62C256.224 324.76 256.128 324.92 256.108 325.1H255.228C255.241 324.887 255.298 324.69 255.398 324.51C255.504 324.323 255.644 324.163 255.818 324.03C255.998 323.897 256.211 323.793 256.458 323.72C256.704 323.64 256.978 323.6 257.278 323.6C257.904 323.6 258.401 323.75 258.768 324.05C259.141 324.343 259.328 324.827 259.328 325.5V327.65C259.328 327.93 259.328 328.177 259.328 328.39C259.334 328.597 259.351 328.8 259.378 329H258.608C258.588 328.847 258.574 328.703 258.568 328.57C258.561 328.43 258.558 328.273 258.558 328.1C258.418 328.38 258.191 328.617 257.878 328.81C257.564 329.003 257.184 329.1 256.738 329.1ZM256.928 328.3C257.134 328.3 257.328 328.273 257.508 328.22C257.694 328.16 257.858 328.077 257.998 327.97C258.138 327.857 258.248 327.72 258.328 327.56C258.408 327.4 258.448 327.213 258.448 327V326.64H256.878C256.551 326.64 256.294 326.707 256.108 326.84C255.921 326.967 255.828 327.17 255.828 327.45C255.828 327.697 255.914 327.9 256.088 328.06C256.268 328.22 256.548 328.3 256.928 328.3Z" fill="black"/>
<path d="M48.9 345.1C48.52 345.1 48.19 345.05 47.91 344.95C47.63 344.843 47.3933 344.707 47.2 344.54C47.0133 344.367 46.87 344.173 46.77 343.96C46.67 343.747 46.6133 343.527 46.6 343.3H47.54C47.5733 343.553 47.7067 343.777 47.94 343.97C48.18 344.163 48.5 344.26 48.9 344.26C49.3533 344.26 49.71 344.12 49.97 343.84C50.23 343.553 50.36 343.157 50.36 342.65C50.36 342.363 50.3167 342.117 50.23 341.91C50.15 341.703 50.04 341.537 49.9 341.41C49.7667 341.283 49.6133 341.19 49.44 341.13C49.2667 341.07 49.0867 341.04 48.9 341.04C48.54 341.04 48.2567 341.107 48.05 341.24C47.85 341.373 47.6967 341.527 47.59 341.7H46.75V338H50.9V338.82H47.69V340.77C48.0367 340.39 48.49 340.2 49.05 340.2C49.7433 340.2 50.29 340.41 50.69 340.83C51.0967 341.25 51.3 341.857 51.3 342.65C51.3 343.023 51.24 343.363 51.12 343.67C51.0067 343.97 50.8433 344.227 50.63 344.44C50.4233 344.653 50.17 344.817 49.87 344.93C49.5767 345.043 49.2533 345.1 48.9 345.1Z" fill="black"/>
<path d="M54.7008 341.79H61.2008V342.61H54.7008V341.79Z" fill="black"/>
<path d="M65.1055 338H66.0455V343.5L69.7655 338H70.7055V345H69.7655V339.5L66.0455 345H65.1055V338Z" fill="black"/>
<path d="M72.5031 339.7H73.3831V341.91H76.1231V339.7H77.0031V345H76.1231V342.69H73.3831V345H72.5031V339.7Z" fill="black"/>
<path d="M78.0066 344.22H78.6566C78.73 344.12 78.7966 343.967 78.8566 343.76C78.9166 343.553 78.97 343.31 79.0166 343.03C79.0633 342.75 79.0966 342.447 79.1166 342.12C79.1433 341.787 79.1566 341.447 79.1566 341.1V339.7H82.8566V344.22H83.6066V346.25H82.7666V345H78.8466V346.25H78.0066V344.22ZM81.9766 344.22V340.48H80.0166V341.3C80.0166 341.58 80.0066 341.86 79.9866 342.14C79.9666 342.413 79.9366 342.677 79.8966 342.93C79.8566 343.177 79.8066 343.413 79.7466 343.64C79.6933 343.86 79.63 344.053 79.5566 344.22H81.9766Z" fill="black"/>
<path d="M84.6613 339.7H85.5413V343.7L88.2813 339.7H89.1613V345H88.2813V341L85.5413 345H84.6613V339.7Z" fill="black"/>
<path d="M90.7648 339.7H91.6448V341.92H92.3448L94.3248 339.7H95.3648L93.0648 342.24L95.4648 345H94.3448L92.3448 342.68H91.6448V345H90.7648V339.7Z" fill="black"/>
<path d="M97.9291 345.1C97.6358 345.1 97.3758 345.06 97.1491 344.98C96.9291 344.893 96.7425 344.777 96.5891 344.63C96.4358 344.483 96.3191 344.31 96.2391 344.11C96.1591 343.91 96.1191 343.69 96.1191 343.45C96.1191 342.923 96.2725 342.543 96.5791 342.31C96.8925 342.077 97.3391 341.96 97.9191 341.96H99.6391V341.6C99.6391 341.147 99.5358 340.833 99.3291 340.66C99.1291 340.487 98.8258 340.4 98.4191 340.4C98.0391 340.4 97.7625 340.473 97.5891 340.62C97.4158 340.76 97.3191 340.92 97.2991 341.1H96.4191C96.4325 340.887 96.4891 340.69 96.5891 340.51C96.6958 340.323 96.8358 340.163 97.0091 340.03C97.1891 339.897 97.4025 339.793 97.6491 339.72C97.8958 339.64 98.1691 339.6 98.4691 339.6C99.0958 339.6 99.5925 339.75 99.9591 340.05C100.332 340.343 100.519 340.827 100.519 341.5V343.65C100.519 343.93 100.519 344.177 100.519 344.39C100.526 344.597 100.542 344.8 100.569 345H99.7991C99.7791 344.847 99.7658 344.703 99.7591 344.57C99.7525 344.43 99.7491 344.273 99.7491 344.1C99.6091 344.38 99.3825 344.617 99.0691 344.81C98.7558 345.003 98.3758 345.1 97.9291 345.1ZM98.1191 344.3C98.3258 344.3 98.5191 344.273 98.6991 344.22C98.8858 344.16 99.0491 344.077 99.1891 343.97C99.3291 343.857 99.4391 343.72 99.5191 343.56C99.5991 343.4 99.6391 343.213 99.6391 343V342.64H98.0691C97.7425 342.64 97.4858 342.707 97.2991 342.84C97.1125 342.967 97.0191 343.17 97.0191 343.45C97.0191 343.697 97.1058 343.9 97.2791 344.06C97.4591 344.22 97.7391 344.3 98.1191 344.3Z" fill="black"/>
<path d="M106.383 345H102.073V339.7H102.953V344.22H105.493V339.7H106.373V344.22H107.223V346.25H106.383V345Z" fill="black"/>
<path d="M108.275 339.7H109.155V343.7L111.895 339.7H112.775V345H111.895V341L109.155 345H108.275V339.7Z" fill="black"/>
<path d="M115.418 342.9C114.978 342.8 114.661 342.62 114.468 342.36C114.275 342.093 114.178 341.753 114.178 341.34C114.178 340.82 114.335 340.417 114.648 340.13C114.968 339.843 115.478 339.7 116.178 339.7H118.478V345H117.598V342.98H116.248L114.958 345H113.978L115.418 342.9ZM115.058 341.34C115.058 341.62 115.138 341.833 115.298 341.98C115.465 342.127 115.741 342.2 116.128 342.2H117.598V340.48H116.128C115.741 340.48 115.465 340.553 115.298 340.7C115.138 340.847 115.058 341.06 115.058 341.34Z" fill="black"/>
<path d="M124.781 345.1C124.441 345.1 124.118 345.047 123.811 344.94C123.505 344.827 123.235 344.66 123.001 344.44C122.768 344.213 122.581 343.93 122.441 343.59C122.301 343.25 122.231 342.853 122.231 342.4V342.2C122.231 341.773 122.301 341.397 122.441 341.07C122.581 340.743 122.768 340.473 123.001 340.26C123.235 340.04 123.505 339.877 123.811 339.77C124.118 339.657 124.441 339.6 124.781 339.6C125.121 339.6 125.445 339.657 125.751 339.77C126.058 339.877 126.328 340.04 126.561 340.26C126.795 340.473 126.981 340.743 127.121 341.07C127.261 341.397 127.331 341.773 127.331 342.2V342.4C127.331 342.853 127.261 343.25 127.121 343.59C126.981 343.93 126.795 344.213 126.561 344.44C126.328 344.66 126.058 344.827 125.751 344.94C125.445 345.047 125.121 345.1 124.781 345.1ZM124.781 344.3C124.981 344.3 125.181 344.267 125.381 344.2C125.581 344.127 125.758 344.017 125.911 343.87C126.065 343.717 126.188 343.52 126.281 343.28C126.381 343.04 126.431 342.747 126.431 342.4V342.2C126.431 341.88 126.381 341.607 126.281 341.38C126.188 341.153 126.065 340.967 125.911 340.82C125.758 340.673 125.581 340.567 125.381 340.5C125.181 340.433 124.981 340.4 124.781 340.4C124.581 340.4 124.381 340.433 124.181 340.5C123.981 340.567 123.805 340.673 123.651 340.82C123.498 340.967 123.371 341.153 123.271 341.38C123.178 341.607 123.131 341.88 123.131 342.2V342.4C123.131 342.747 123.178 343.04 123.271 343.28C123.371 343.52 123.498 343.717 123.651 343.87C123.805 344.017 123.981 344.127 124.181 344.2C124.381 344.267 124.581 344.3 124.781 344.3Z" fill="black"/>
<path d="M129.69 340.48H127.88V339.7H132.38V340.48H130.57V345H129.69V340.48Z" fill="black"/>
<path d="M133.382 339.7H134.202V340.7C134.382 340.347 134.632 340.077 134.952 339.89C135.279 339.697 135.655 339.6 136.082 339.6C136.749 339.6 137.282 339.82 137.682 340.26C138.082 340.693 138.282 341.34 138.282 342.2V342.4C138.282 342.853 138.229 343.25 138.122 343.59C138.015 343.923 137.865 344.203 137.672 344.43C137.479 344.65 137.245 344.817 136.972 344.93C136.705 345.043 136.409 345.1 136.082 345.1C135.629 345.1 135.249 345 134.942 344.8C134.642 344.6 134.415 344.35 134.262 344.05V347H133.382V339.7ZM135.882 344.32C136.095 344.32 136.295 344.28 136.482 344.2C136.669 344.113 136.829 343.99 136.962 343.83C137.102 343.67 137.209 343.47 137.282 343.23C137.362 342.99 137.402 342.713 137.402 342.4V342.2C137.402 341.913 137.362 341.657 137.282 341.43C137.209 341.203 137.102 341.013 136.962 340.86C136.829 340.7 136.669 340.58 136.482 340.5C136.295 340.42 136.095 340.38 135.882 340.38C135.642 340.38 135.422 340.42 135.222 340.5C135.022 340.573 134.852 340.68 134.712 340.82C134.572 340.953 134.462 341.113 134.382 341.3C134.302 341.487 134.262 341.687 134.262 341.9V342.7C134.262 342.94 134.302 343.16 134.382 343.36C134.462 343.56 134.572 343.73 134.712 343.87C134.852 344.01 135.022 344.12 135.222 344.2C135.422 344.28 135.642 344.32 135.882 344.32Z" fill="black"/>
<path d="M139.534 339.7H140.414V343.7L143.154 339.7H144.034V345H143.154V341L140.414 345H139.534V339.7Z" fill="black"/>
<path d="M149.948 345H145.638V339.7H146.518V344.22H149.058V339.7H149.938V344.22H150.788V346.25H149.948V345Z" fill="black"/>
<path d="M153.447 345.1C153.153 345.1 152.893 345.06 152.667 344.98C152.447 344.893 152.26 344.777 152.107 344.63C151.953 344.483 151.837 344.31 151.757 344.11C151.677 343.91 151.637 343.69 151.637 343.45C151.637 342.923 151.79 342.543 152.097 342.31C152.41 342.077 152.857 341.96 153.437 341.96H155.157V341.6C155.157 341.147 155.053 340.833 154.847 340.66C154.647 340.487 154.343 340.4 153.937 340.4C153.557 340.4 153.28 340.473 153.107 340.62C152.933 340.76 152.837 340.92 152.817 341.1H151.937C151.95 340.887 152.007 340.69 152.107 340.51C152.213 340.323 152.353 340.163 152.527 340.03C152.707 339.897 152.92 339.793 153.167 339.72C153.413 339.64 153.687 339.6 153.987 339.6C154.613 339.6 155.11 339.75 155.477 340.05C155.85 340.343 156.037 340.827 156.037 341.5V343.65C156.037 343.93 156.037 344.177 156.037 344.39C156.043 344.597 156.06 344.8 156.087 345H155.317C155.297 344.847 155.283 344.703 155.277 344.57C155.27 344.43 155.267 344.273 155.267 344.1C155.127 344.38 154.9 344.617 154.587 344.81C154.273 345.003 153.893 345.1 153.447 345.1ZM153.637 344.3C153.843 344.3 154.037 344.273 154.217 344.22C154.403 344.16 154.567 344.077 154.707 343.97C154.847 343.857 154.957 343.72 155.037 343.56C155.117 343.4 155.157 343.213 155.157 343V342.64H153.587C153.26 342.64 153.003 342.707 152.817 342.84C152.63 342.967 152.537 343.17 152.537 343.45C152.537 343.697 152.623 343.9 152.797 344.06C152.977 344.22 153.257 344.3 153.637 344.3Z" fill="black"/>
<path d="M158.703 340.48H156.893V339.7H161.393V340.48H159.583V345H158.703V340.48Z" fill="black"/>
<path d="M164.498 345.1C164.158 345.1 163.835 345.047 163.528 344.94C163.221 344.833 162.951 344.67 162.718 344.45C162.485 344.223 162.298 343.94 162.158 343.6C162.018 343.26 161.948 342.86 161.948 342.4V342.2C161.948 341.76 162.015 341.38 162.148 341.06C162.281 340.733 162.458 340.463 162.678 340.25C162.905 340.03 163.165 339.867 163.458 339.76C163.758 339.653 164.071 339.6 164.398 339.6C165.178 339.6 165.781 339.813 166.208 340.24C166.635 340.667 166.848 341.27 166.848 342.05V342.61H162.828C162.828 342.923 162.878 343.187 162.978 343.4C163.078 343.613 163.208 343.787 163.368 343.92C163.528 344.053 163.705 344.15 163.898 344.21C164.098 344.27 164.298 344.3 164.498 344.3C164.898 344.3 165.205 344.233 165.418 344.1C165.638 343.967 165.795 343.783 165.888 343.55H166.748C166.695 343.803 166.598 344.027 166.458 344.22C166.325 344.413 166.158 344.577 165.958 344.71C165.765 344.837 165.541 344.933 165.288 345C165.041 345.067 164.778 345.1 164.498 345.1ZM164.448 340.4C164.241 340.4 164.041 340.43 163.848 340.49C163.655 340.543 163.481 340.633 163.328 340.76C163.181 340.88 163.061 341.033 162.968 341.22C162.875 341.407 162.828 341.63 162.828 341.89H166.018C166.011 341.617 165.965 341.387 165.878 341.2C165.798 341.007 165.688 340.853 165.548 340.74C165.408 340.62 165.241 340.533 165.048 340.48C164.861 340.427 164.661 340.4 164.448 340.4Z" fill="black"/>
<path d="M167.751 345.1C167.651 345.1 167.551 345.09 167.451 345.07V344.19C167.485 344.197 167.535 344.2 167.601 344.2C167.748 344.2 167.875 344.153 167.981 344.06C168.095 343.967 168.185 343.803 168.251 343.57C168.318 343.337 168.368 343.02 168.401 342.62C168.435 342.22 168.451 341.713 168.451 341.1V339.7H172.251V345H171.371V340.48H169.331V341.3C169.331 342.04 169.298 342.653 169.231 343.14C169.165 343.627 169.065 344.017 168.931 344.31C168.805 344.597 168.641 344.8 168.441 344.92C168.241 345.04 168.011 345.1 167.751 345.1Z" fill="black"/>
<path d="M173.851 339.7H174.731V341.7H176.001C176.667 341.7 177.157 341.847 177.471 342.14C177.791 342.433 177.951 342.84 177.951 343.36C177.951 343.867 177.791 344.267 177.471 344.56C177.157 344.853 176.667 345 176.001 345H173.851V339.7ZM175.951 344.22C176.364 344.22 176.654 344.147 176.821 344C176.987 343.853 177.071 343.637 177.071 343.35C177.071 343.063 176.987 342.847 176.821 342.7C176.654 342.553 176.364 342.48 175.951 342.48H174.731V344.22H175.951Z" fill="black"/>
<path d="M179.105 339.7H179.985V341.91H182.725V339.7H183.605V345H182.725V342.69H179.985V345H179.105V339.7Z" fill="black"/>
<path d="M187.408 345.1C187.068 345.1 186.745 345.047 186.438 344.94C186.132 344.827 185.862 344.66 185.628 344.44C185.395 344.213 185.208 343.93 185.068 343.59C184.928 343.25 184.858 342.853 184.858 342.4V342.2C184.858 341.773 184.928 341.397 185.068 341.07C185.208 340.743 185.395 340.473 185.628 340.26C185.862 340.04 186.132 339.877 186.438 339.77C186.745 339.657 187.068 339.6 187.408 339.6C187.748 339.6 188.072 339.657 188.378 339.77C188.685 339.877 188.955 340.04 189.188 340.26C189.422 340.473 189.608 340.743 189.748 341.07C189.888 341.397 189.958 341.773 189.958 342.2V342.4C189.958 342.853 189.888 343.25 189.748 343.59C189.608 343.93 189.422 344.213 189.188 344.44C188.955 344.66 188.685 344.827 188.378 344.94C188.072 345.047 187.748 345.1 187.408 345.1ZM187.408 344.3C187.608 344.3 187.808 344.267 188.008 344.2C188.208 344.127 188.385 344.017 188.538 343.87C188.692 343.717 188.815 343.52 188.908 343.28C189.008 343.04 189.058 342.747 189.058 342.4V342.2C189.058 341.88 189.008 341.607 188.908 341.38C188.815 341.153 188.692 340.967 188.538 340.82C188.385 340.673 188.208 340.567 188.008 340.5C187.808 340.433 187.608 340.4 187.408 340.4C187.208 340.4 187.008 340.433 186.808 340.5C186.608 340.567 186.432 340.673 186.278 340.82C186.125 340.967 185.998 341.153 185.898 341.38C185.805 341.607 185.758 341.88 185.758 342.2V342.4C185.758 342.747 185.805 343.04 185.898 343.28C185.998 343.52 186.125 343.717 186.278 343.87C186.432 344.017 186.608 344.127 186.808 344.2C187.008 344.267 187.208 344.3 187.408 344.3Z" fill="black"/>
<path d="M191.204 339.7H194.804V340.48H192.084V345H191.204V339.7Z" fill="black"/>
<path d="M197.906 345.1C197.566 345.1 197.243 345.047 196.936 344.94C196.63 344.827 196.36 344.66 196.126 344.44C195.893 344.213 195.706 343.93 195.566 343.59C195.426 343.25 195.356 342.853 195.356 342.4V342.2C195.356 341.773 195.426 341.397 195.566 341.07C195.706 340.743 195.893 340.473 196.126 340.26C196.36 340.04 196.63 339.877 196.936 339.77C197.243 339.657 197.566 339.6 197.906 339.6C198.246 339.6 198.57 339.657 198.876 339.77C199.183 339.877 199.453 340.04 199.686 340.26C199.92 340.473 200.106 340.743 200.246 341.07C200.386 341.397 200.456 341.773 200.456 342.2V342.4C200.456 342.853 200.386 343.25 200.246 343.59C200.106 343.93 199.92 344.213 199.686 344.44C199.453 344.66 199.183 344.827 198.876 344.94C198.57 345.047 198.246 345.1 197.906 345.1ZM197.906 344.3C198.106 344.3 198.306 344.267 198.506 344.2C198.706 344.127 198.883 344.017 199.036 343.87C199.19 343.717 199.313 343.52 199.406 343.28C199.506 343.04 199.556 342.747 199.556 342.4V342.2C199.556 341.88 199.506 341.607 199.406 341.38C199.313 341.153 199.19 340.967 199.036 340.82C198.883 340.673 198.706 340.567 198.506 340.5C198.306 340.433 198.106 340.4 197.906 340.4C197.706 340.4 197.506 340.433 197.306 340.5C197.106 340.567 196.93 340.673 196.776 340.82C196.623 340.967 196.496 341.153 196.396 341.38C196.303 341.607 196.256 341.88 196.256 342.2V342.4C196.256 342.747 196.303 343.04 196.396 343.28C196.496 343.52 196.623 343.717 196.776 343.87C196.93 344.017 197.106 344.127 197.306 344.2C197.506 344.267 197.706 344.3 197.906 344.3Z" fill="black"/>
<path d="M204.202 339.7H205.022V340.7C205.202 340.347 205.452 340.077 205.772 339.89C206.099 339.697 206.476 339.6 206.902 339.6C207.569 339.6 208.102 339.82 208.502 340.26C208.902 340.693 209.102 341.34 209.102 342.2V342.4C209.102 342.853 209.049 343.25 208.942 343.59C208.836 343.923 208.686 344.203 208.492 344.43C208.299 344.65 208.066 344.817 207.792 344.93C207.526 345.043 207.229 345.1 206.902 345.1C206.449 345.1 206.069 345 205.762 344.8C205.462 344.6 205.236 344.35 205.082 344.05V347H204.202V339.7ZM206.702 344.32C206.916 344.32 207.116 344.28 207.302 344.2C207.489 344.113 207.649 343.99 207.782 343.83C207.922 343.67 208.029 343.47 208.102 343.23C208.182 342.99 208.222 342.713 208.222 342.4V342.2C208.222 341.913 208.182 341.657 208.102 341.43C208.029 341.203 207.922 341.013 207.782 340.86C207.649 340.7 207.489 340.58 207.302 340.5C207.116 340.42 206.916 340.38 206.702 340.38C206.462 340.38 206.242 340.42 206.042 340.5C205.842 340.573 205.672 340.68 205.532 340.82C205.392 340.953 205.282 341.113 205.202 341.3C205.122 341.487 205.082 341.687 205.082 341.9V342.7C205.082 342.94 205.122 343.16 205.202 343.36C205.282 343.56 205.392 343.73 205.532 343.87C205.672 344.01 205.842 344.12 206.042 344.2C206.242 344.28 206.462 344.32 206.702 344.32Z" fill="black"/>
<path d="M212.555 345.1C212.215 345.1 211.891 345.047 211.585 344.94C211.278 344.833 211.008 344.67 210.775 344.45C210.541 344.223 210.355 343.94 210.215 343.6C210.075 343.26 210.005 342.86 210.005 342.4V342.2C210.005 341.76 210.071 341.38 210.205 341.06C210.338 340.733 210.515 340.463 210.735 340.25C210.961 340.03 211.221 339.867 211.515 339.76C211.815 339.653 212.128 339.6 212.455 339.6C213.235 339.6 213.838 339.813 214.265 340.24C214.691 340.667 214.905 341.27 214.905 342.05V342.61H210.885C210.885 342.923 210.935 343.187 211.035 343.4C211.135 343.613 211.265 343.787 211.425 343.92C211.585 344.053 211.761 344.15 211.955 344.21C212.155 344.27 212.355 344.3 212.555 344.3C212.955 344.3 213.261 344.233 213.475 344.1C213.695 343.967 213.851 343.783 213.945 343.55H214.805C214.751 343.803 214.655 344.027 214.515 344.22C214.381 344.413 214.215 344.577 214.015 344.71C213.821 344.837 213.598 344.933 213.345 345C213.098 345.067 212.835 345.1 212.555 345.1ZM212.505 340.4C212.298 340.4 212.098 340.43 211.905 340.49C211.711 340.543 211.538 340.633 211.385 340.76C211.238 340.88 211.118 341.033 211.025 341.22C210.931 341.407 210.885 341.63 210.885 341.89H214.075C214.068 341.617 214.021 341.387 213.935 341.2C213.855 341.007 213.745 340.853 213.605 340.74C213.465 340.62 213.298 340.533 213.105 340.48C212.918 340.427 212.718 340.4 212.505 340.4Z" fill="black"/>
<path d="M217.955 345.1C217.289 345.1 216.765 344.96 216.385 344.68C216.005 344.4 215.795 344.007 215.755 343.5H216.635C216.682 343.76 216.819 343.96 217.045 344.1C217.279 344.233 217.582 344.3 217.955 344.3C218.415 344.3 218.749 344.223 218.955 344.07C219.169 343.91 219.275 343.72 219.275 343.5C219.275 343.24 219.189 343.037 219.015 342.89C218.842 342.737 218.542 342.66 218.115 342.66H217.205V341.94H218.055C218.422 341.94 218.682 341.87 218.835 341.73C218.995 341.59 219.075 341.393 219.075 341.14C219.075 340.94 218.982 340.767 218.795 340.62C218.609 340.473 218.329 340.4 217.955 340.4C217.549 340.4 217.252 340.467 217.065 340.6C216.885 340.727 216.775 340.91 216.735 341.15H215.855C215.875 340.93 215.935 340.727 216.035 340.54C216.142 340.347 216.285 340.18 216.465 340.04C216.645 339.9 216.859 339.793 217.105 339.72C217.359 339.64 217.642 339.6 217.955 339.6C218.295 339.6 218.589 339.64 218.835 339.72C219.089 339.793 219.299 339.9 219.465 340.04C219.632 340.173 219.755 340.333 219.835 340.52C219.915 340.707 219.955 340.913 219.955 341.14C219.955 341.393 219.892 341.617 219.765 341.81C219.639 341.997 219.435 342.143 219.155 342.25C219.529 342.35 219.789 342.51 219.935 342.73C220.082 342.95 220.155 343.207 220.155 343.5C220.155 343.72 220.109 343.927 220.015 344.12C219.922 344.313 219.782 344.483 219.595 344.63C219.415 344.77 219.185 344.883 218.905 344.97C218.632 345.057 218.315 345.1 217.955 345.1Z" fill="black"/>
<path d="M221.914 347.1C221.814 347.1 221.714 347.09 221.614 347.07V346.27C221.714 346.29 221.814 346.3 221.914 346.3C222.014 346.3 222.101 346.283 222.174 346.25C222.247 346.217 222.317 346.153 222.384 346.06C222.451 345.967 222.521 345.833 222.594 345.66C222.674 345.493 222.764 345.273 222.864 345L220.614 339.7H221.594L223.314 344L224.874 339.7H225.814L223.814 345C223.674 345.373 223.541 345.693 223.414 345.96C223.287 346.227 223.151 346.443 223.004 346.61C222.864 346.783 222.707 346.907 222.534 346.98C222.361 347.06 222.154 347.1 221.914 347.1Z" fill="black"/>
<path d="M226.364 345.1C226.264 345.1 226.164 345.09 226.064 345.07V344.19C226.098 344.197 226.148 344.2 226.214 344.2C226.361 344.2 226.488 344.153 226.594 344.06C226.708 343.967 226.798 343.803 226.864 343.57C226.931 343.337 226.981 343.02 227.014 342.62C227.048 342.22 227.064 341.713 227.064 341.1V339.7H230.864V345H229.984V340.48H227.944V341.3C227.944 342.04 227.911 342.653 227.844 343.14C227.778 343.627 227.678 344.017 227.544 344.31C227.418 344.597 227.254 344.8 227.054 344.92C226.854 345.04 226.624 345.1 226.364 345.1Z" fill="black"/>
<path d="M232.464 339.7H233.344V341.7H234.614C235.281 341.7 235.771 341.847 236.084 342.14C236.404 342.433 236.564 342.84 236.564 343.36C236.564 343.867 236.404 344.267 236.084 344.56C235.771 344.853 235.281 345 234.614 345H232.464V339.7ZM234.564 344.22C234.977 344.22 235.267 344.147 235.434 344C235.601 343.853 235.684 343.637 235.684 343.35C235.684 343.063 235.601 342.847 235.434 342.7C235.267 342.553 234.977 342.48 234.564 342.48H233.344V344.22H234.564Z" fill="black"/>
<path d="M238.43 340.48H236.62V339.7H241.12V340.48H239.31V345H238.43V340.48Z" fill="black"/>
<path d="M243.437 345.1C243.144 345.1 242.884 345.06 242.657 344.98C242.437 344.893 242.25 344.777 242.097 344.63C241.944 344.483 241.827 344.31 241.747 344.11C241.667 343.91 241.627 343.69 241.627 343.45C241.627 342.923 241.78 342.543 242.087 342.31C242.4 342.077 242.847 341.96 243.427 341.96H245.147V341.6C245.147 341.147 245.044 340.833 244.837 340.66C244.637 340.487 244.334 340.4 243.927 340.4C243.547 340.4 243.27 340.473 243.097 340.62C242.924 340.76 242.827 340.92 242.807 341.1H241.927C241.94 340.887 241.997 340.69 242.097 340.51C242.204 340.323 242.344 340.163 242.517 340.03C242.697 339.897 242.91 339.793 243.157 339.72C243.404 339.64 243.677 339.6 243.977 339.6C244.604 339.6 245.1 339.75 245.467 340.05C245.84 340.343 246.027 340.827 246.027 341.5V343.65C246.027 343.93 246.027 344.177 246.027 344.39C246.034 344.597 246.05 344.8 246.077 345H245.307C245.287 344.847 245.274 344.703 245.267 344.57C245.26 344.43 245.257 344.273 245.257 344.1C245.117 344.38 244.89 344.617 244.577 344.81C244.264 345.003 243.884 345.1 243.437 345.1ZM243.627 344.3C243.834 344.3 244.027 344.273 244.207 344.22C244.394 344.16 244.557 344.077 244.697 343.97C244.837 343.857 244.947 343.72 245.027 343.56C245.107 343.4 245.147 343.213 245.147 343V342.64H243.577C243.25 342.64 242.994 342.707 242.807 342.84C242.62 342.967 242.527 343.17 242.527 343.45C242.527 343.697 242.614 343.9 242.787 344.06C242.967 344.22 243.247 344.3 243.627 344.3Z" fill="black"/>
<path d="M248.694 340.48H246.884V339.7H251.384V340.48H249.574V345H248.694V340.48Z" fill="black"/>
<path d="M253.701 345.1C253.407 345.1 253.147 345.06 252.921 344.98C252.701 344.893 252.514 344.777 252.361 344.63C252.207 344.483 252.091 344.31 252.011 344.11C251.931 343.91 251.891 343.69 251.891 343.45C251.891 342.923 252.044 342.543 252.351 342.31C252.664 342.077 253.111 341.96 253.691 341.96H255.411V341.6C255.411 341.147 255.307 340.833 255.101 340.66C254.901 340.487 254.597 340.4 254.191 340.4C253.811 340.4 253.534 340.473 253.361 340.62C253.187 340.76 253.091 340.92 253.071 341.1H252.191C252.204 340.887 252.261 340.69 252.361 340.51C252.467 340.323 252.607 340.163 252.781 340.03C252.961 339.897 253.174 339.793 253.421 339.72C253.667 339.64 253.941 339.6 254.241 339.6C254.867 339.6 255.364 339.75 255.731 340.05C256.104 340.343 256.291 340.827 256.291 341.5V343.65C256.291 343.93 256.291 344.177 256.291 344.39C256.297 344.597 256.314 344.8 256.341 345H255.571C255.551 344.847 255.537 344.703 255.531 344.57C255.524 344.43 255.521 344.273 255.521 344.1C255.381 344.38 255.154 344.617 254.841 344.81C254.527 345.003 254.147 345.1 253.701 345.1ZM253.891 344.3C254.097 344.3 254.291 344.273 254.471 344.22C254.657 344.16 254.821 344.077 254.961 343.97C255.101 343.857 255.211 343.72 255.291 343.56C255.371 343.4 255.411 343.213 255.411 343V342.64H253.841C253.514 342.64 253.257 342.707 253.071 342.84C252.884 342.967 252.791 343.17 252.791 343.45C252.791 343.697 252.877 343.9 253.051 344.06C253.231 344.22 253.511 344.3 253.891 344.3Z" fill="black"/>
<path d="M207.208 128.31H203.648V127.59L207.108 123H208.148V127.49H209.048V128.31H208.148V130H207.208V128.31ZM207.208 127.49V124.1L204.648 127.49H207.208Z" fill="black"/>
<path d="M227 130.1C226.62 130.1 226.29 130.05 226.01 129.95C225.73 129.843 225.493 129.707 225.3 129.54C225.113 129.367 224.97 129.173 224.87 128.96C224.77 128.747 224.713 128.527 224.7 128.3H225.64C225.673 128.553 225.806 128.777 226.04 128.97C226.28 129.163 226.6 129.26 227 129.26C227.453 129.26 227.81 129.12 228.07 128.84C228.33 128.553 228.46 128.157 228.46 127.65C228.46 127.363 228.416 127.117 228.33 126.91C228.25 126.703 228.14 126.537 228 126.41C227.866 126.283 227.713 126.19 227.54 126.13C227.366 126.07 227.186 126.04 227 126.04C226.64 126.04 226.356 126.107 226.15 126.24C225.95 126.373 225.796 126.527 225.69 126.7H224.85V123H229V123.82H225.79V125.77C226.136 125.39 226.59 125.2 227.15 125.2C227.843 125.2 228.39 125.41 228.79 125.83C229.196 126.25 229.4 126.857 229.4 127.65C229.4 128.023 229.34 128.363 229.22 128.67C229.106 128.97 228.943 129.227 228.73 129.44C228.523 129.653 228.27 129.817 227.97 129.93C227.676 130.043 227.353 130.1 227 130.1Z" fill="black"/>
<path d="M282.623 128.1C282.236 128.1 281.886 128.037 281.573 127.91C281.259 127.783 280.989 127.59 280.763 127.33C280.543 127.063 280.373 126.73 280.253 126.33C280.133 125.93 280.073 125.453 280.073 124.9V124.7C280.073 124.013 280.143 123.43 280.283 122.95C280.423 122.463 280.613 122.07 280.853 121.77C281.093 121.463 281.373 121.243 281.693 121.11C282.013 120.97 282.356 120.9 282.723 120.9C283.263 120.9 283.716 121.03 284.083 121.29C284.456 121.543 284.703 121.93 284.823 122.45H283.883C283.696 121.977 283.309 121.74 282.723 121.74C282.469 121.74 282.236 121.783 282.023 121.87C281.809 121.957 281.623 122.1 281.463 122.3C281.309 122.5 281.186 122.767 281.093 123.1C280.999 123.433 280.946 123.85 280.933 124.35C281.026 124.19 281.139 124.053 281.273 123.94C281.406 123.82 281.549 123.727 281.703 123.66C281.863 123.587 282.026 123.533 282.193 123.5C282.359 123.467 282.519 123.45 282.673 123.45C283.373 123.45 283.929 123.647 284.343 124.04C284.763 124.427 284.973 124.983 284.973 125.71V125.81C284.973 126.143 284.909 126.45 284.783 126.73C284.663 127.01 284.496 127.253 284.283 127.46C284.069 127.66 283.819 127.817 283.533 127.93C283.246 128.043 282.943 128.1 282.623 128.1ZM282.543 127.26C283.029 127.26 283.399 127.137 283.653 126.89C283.906 126.643 284.033 126.287 284.033 125.82V125.72C284.033 125.26 283.906 124.907 283.653 124.66C283.399 124.413 283.029 124.29 282.543 124.29C282.056 124.29 281.686 124.413 281.433 124.66C281.179 124.907 281.053 125.26 281.053 125.72V125.82C281.053 126.28 281.179 126.637 281.433 126.89C281.686 127.137 282.056 127.26 282.543 127.26Z" fill="black"/>
<path d="M67.4996 233.23L70.2996 230.8C70.5129 230.62 70.6863 230.457 70.8196 230.31C70.9596 230.163 71.0696 230.027 71.1496 229.9C71.2296 229.767 71.2829 229.637 71.3096 229.51C71.3429 229.383 71.3596 229.247 71.3596 229.1C71.3596 228.707 71.2429 228.383 71.0096 228.13C70.7763 227.87 70.4563 227.74 70.0496 227.74C69.5629 227.74 69.1896 227.873 68.9296 228.14C68.6696 228.4 68.5396 228.77 68.5396 229.25H67.5996C67.5996 228.91 67.6563 228.597 67.7696 228.31C67.8896 228.017 68.0563 227.767 68.2696 227.56C68.4896 227.353 68.7496 227.193 69.0496 227.08C69.3496 226.96 69.6829 226.9 70.0496 226.9C70.4029 226.9 70.7196 226.957 70.9996 227.07C71.2796 227.177 71.5163 227.33 71.7096 227.53C71.9029 227.723 72.0496 227.953 72.1496 228.22C72.2496 228.487 72.2996 228.78 72.2996 229.1C72.2996 229.34 72.2629 229.563 72.1896 229.77C72.1163 229.977 72.0129 230.173 71.8796 230.36C71.7529 230.547 71.5963 230.73 71.4096 230.91C71.2296 231.083 71.0296 231.263 70.8096 231.45L68.7196 233.18H72.3996V234H67.4996V233.23Z" fill="black"/>
<path d="M71.9252 204.1C71.5452 204.1 71.2052 204.05 70.9052 203.95C70.6119 203.843 70.3619 203.7 70.1552 203.52C69.9485 203.34 69.7919 203.13 69.6852 202.89C69.5785 202.643 69.5252 202.38 69.5252 202.1H70.4652C70.4652 202.44 70.5819 202.72 70.8152 202.94C71.0485 203.153 71.4185 203.26 71.9252 203.26C72.4319 203.26 72.8019 203.15 73.0352 202.93C73.2685 202.703 73.3852 202.41 73.3852 202.05C73.3852 201.677 73.2652 201.377 73.0252 201.15C72.7919 200.917 72.4252 200.8 71.9252 200.8H71.1752V200H71.9252C72.4052 200 72.7519 199.9 72.9652 199.7C73.1785 199.493 73.2852 199.21 73.2852 198.85C73.2852 198.503 73.1819 198.233 72.9752 198.04C72.7685 197.84 72.4185 197.74 71.9252 197.74C71.4519 197.74 71.1052 197.843 70.8852 198.05C70.6719 198.25 70.5652 198.5 70.5652 198.8H69.6252C69.6252 198.54 69.6752 198.293 69.7752 198.06C69.8819 197.827 70.0319 197.627 70.2252 197.46C70.4252 197.287 70.6652 197.15 70.9452 197.05C71.2319 196.95 71.5585 196.9 71.9252 196.9C72.2919 196.9 72.6185 196.95 72.9052 197.05C73.1919 197.15 73.4319 197.283 73.6252 197.45C73.8252 197.617 73.9752 197.813 74.0752 198.04C74.1752 198.267 74.2252 198.503 74.2252 198.75C74.2252 199.15 74.1185 199.49 73.9052 199.77C73.6985 200.043 73.4052 200.237 73.0252 200.35C73.4252 200.477 73.7419 200.683 73.9752 200.97C74.2085 201.257 74.3252 201.65 74.3252 202.15C74.3252 202.417 74.2719 202.67 74.1652 202.91C74.0585 203.143 73.9019 203.35 73.6952 203.53C73.4952 203.703 73.2452 203.843 72.9452 203.95C72.6452 204.05 72.3052 204.1 71.9252 204.1Z" fill="black"/>
<path d="M459.424 132H461.924C462.344 132 462.704 132.047 463.004 132.14C463.304 132.233 463.551 132.363 463.744 132.53C463.944 132.69 464.091 132.887 464.184 133.12C464.277 133.347 464.324 133.597 464.324 133.87C464.324 134.23 464.224 134.54 464.024 134.8C463.824 135.053 463.577 135.237 463.284 135.35C463.697 135.443 464.024 135.633 464.264 135.92C464.504 136.2 464.624 136.567 464.624 137.02C464.624 137.307 464.577 137.57 464.484 137.81C464.39 138.05 464.244 138.26 464.044 138.44C463.844 138.613 463.584 138.75 463.264 138.85C462.95 138.95 462.571 139 462.124 139H459.424V132ZM462.124 138.18C462.424 138.18 462.674 138.153 462.874 138.1C463.074 138.04 463.234 137.96 463.354 137.86C463.474 137.753 463.557 137.627 463.604 137.48C463.657 137.333 463.684 137.17 463.684 136.99C463.684 136.81 463.657 136.647 463.604 136.5C463.557 136.347 463.474 136.22 463.354 136.12C463.234 136.013 463.07 135.933 462.864 135.88C462.664 135.82 462.414 135.79 462.114 135.79H460.364V138.18H462.124ZM461.924 135.01C462.204 135.01 462.437 134.983 462.624 134.93C462.811 134.877 462.96 134.8 463.074 134.7C463.187 134.6 463.267 134.483 463.314 134.35C463.361 134.217 463.384 134.07 463.384 133.91C463.384 133.75 463.361 133.603 463.314 133.47C463.267 133.33 463.187 133.213 463.074 133.12C462.96 133.027 462.811 132.953 462.624 132.9C462.437 132.847 462.204 132.82 461.924 132.82H460.364V135.01H461.924Z" fill="black"/>
<path d="M465.923 133.7H466.803V135.7H467.873C468.54 135.7 469.03 135.847 469.343 136.14C469.663 136.433 469.823 136.84 469.823 137.36C469.823 137.867 469.663 138.267 469.343 138.56C469.03 138.853 468.54 139 467.873 139H465.923V133.7ZM467.823 138.22C468.236 138.22 468.526 138.147 468.693 138C468.86 137.853 468.943 137.637 468.943 137.35C468.943 137.063 468.86 136.847 468.693 136.7C468.526 136.553 468.236 136.48 467.823 136.48H466.803V138.22H467.823ZM470.643 133.7H471.523V139H470.643V133.7Z" fill="black"/>
<path d="M474.56 136.31L472.67 133.7H473.69L475.09 135.63L476.49 133.7H477.47L475.58 136.26L477.57 139H476.53L475.05 136.93L473.57 139H472.57L474.56 136.31Z" fill="black"/>
<path d="M480.623 139.1C480.283 139.1 479.96 139.047 479.653 138.94C479.346 138.827 479.076 138.66 478.843 138.44C478.61 138.213 478.423 137.93 478.283 137.59C478.143 137.25 478.073 136.853 478.073 136.4V136.2C478.073 135.773 478.143 135.397 478.283 135.07C478.423 134.743 478.61 134.473 478.843 134.26C479.076 134.04 479.346 133.877 479.653 133.77C479.96 133.657 480.283 133.6 480.623 133.6C480.963 133.6 481.286 133.657 481.593 133.77C481.9 133.877 482.17 134.04 482.403 134.26C482.636 134.473 482.823 134.743 482.963 135.07C483.103 135.397 483.173 135.773 483.173 136.2V136.4C483.173 136.853 483.103 137.25 482.963 137.59C482.823 137.93 482.636 138.213 482.403 138.44C482.17 138.66 481.9 138.827 481.593 138.94C481.286 139.047 480.963 139.1 480.623 139.1ZM480.623 138.3C480.823 138.3 481.023 138.267 481.223 138.2C481.423 138.127 481.6 138.017 481.753 137.87C481.906 137.717 482.03 137.52 482.123 137.28C482.223 137.04 482.273 136.747 482.273 136.4V136.2C482.273 135.88 482.223 135.607 482.123 135.38C482.03 135.153 481.906 134.967 481.753 134.82C481.6 134.673 481.423 134.567 481.223 134.5C481.023 134.433 480.823 134.4 480.623 134.4C480.423 134.4 480.223 134.433 480.023 134.5C479.823 134.567 479.646 134.673 479.493 134.82C479.34 134.967 479.213 135.153 479.113 135.38C479.02 135.607 478.973 135.88 478.973 136.2V136.4C478.973 136.747 479.02 137.04 479.113 137.28C479.213 137.52 479.34 137.717 479.493 137.87C479.646 138.017 479.823 138.127 480.023 138.2C480.223 138.267 480.423 138.3 480.623 138.3Z" fill="black"/>
<path d="M483.721 138.22H484.371C484.445 138.12 484.511 137.967 484.571 137.76C484.631 137.553 484.685 137.31 484.731 137.03C484.778 136.75 484.811 136.447 484.831 136.12C484.858 135.787 484.871 135.447 484.871 135.1V133.7H488.571V138.22H489.321V140.25H488.481V139H484.561V140.25H483.721V138.22ZM487.691 138.22V134.48H485.731V135.3C485.731 135.58 485.721 135.86 485.701 136.14C485.681 136.413 485.651 136.677 485.611 136.93C485.571 137.177 485.521 137.413 485.461 137.64C485.408 137.86 485.345 138.053 485.271 138.22H487.691Z" fill="black"/>
<path d="M206.816 177.1C206.422 177.1 206.049 177.033 205.696 176.9C205.342 176.76 205.029 176.547 204.756 176.26C204.482 175.967 204.266 175.597 204.106 175.15C203.946 174.703 203.866 174.17 203.866 173.55V173.35C203.866 172.75 203.946 172.233 204.106 171.8C204.266 171.367 204.482 171.01 204.756 170.73C205.029 170.45 205.342 170.243 205.696 170.11C206.049 169.97 206.422 169.9 206.816 169.9C207.196 169.9 207.542 169.95 207.856 170.05C208.176 170.15 208.456 170.293 208.696 170.48C208.936 170.667 209.129 170.897 209.276 171.17C209.429 171.443 209.526 171.753 209.566 172.1H208.566C208.472 171.647 208.276 171.307 207.976 171.08C207.676 170.853 207.289 170.74 206.816 170.74C206.569 170.74 206.329 170.787 206.096 170.88C205.862 170.973 205.652 171.123 205.466 171.33C205.286 171.53 205.139 171.797 205.026 172.13C204.919 172.463 204.866 172.87 204.866 173.35V173.55C204.866 174.057 204.926 174.483 205.046 174.83C205.166 175.17 205.319 175.447 205.506 175.66C205.692 175.873 205.902 176.027 206.136 176.12C206.369 176.213 206.596 176.26 206.816 176.26C207.336 176.26 207.742 176.133 208.036 175.88C208.329 175.627 208.506 175.3 208.566 174.9H209.566C209.512 175.287 209.406 175.62 209.246 175.9C209.086 176.173 208.882 176.4 208.636 176.58C208.396 176.76 208.119 176.893 207.806 176.98C207.499 177.06 207.169 177.1 206.816 177.1Z" fill="black"/>
<path d="M210.863 171.7H211.742V175.7L214.482 171.7H215.363V177H214.482V173L211.742 177H210.863V171.7Z" fill="black"/>
<path d="M219.016 177.1C218.676 177.1 218.359 177.047 218.066 176.94C217.773 176.827 217.519 176.66 217.306 176.44C217.093 176.213 216.923 175.93 216.796 175.59C216.676 175.25 216.616 174.853 216.616 174.4V174.2C216.616 173.773 216.683 173.397 216.816 173.07C216.949 172.743 217.126 172.473 217.346 172.26C217.566 172.04 217.819 171.877 218.106 171.77C218.399 171.657 218.703 171.6 219.016 171.6C219.329 171.6 219.609 171.643 219.856 171.73C220.109 171.817 220.326 171.937 220.506 172.09C220.693 172.243 220.843 172.423 220.956 172.63C221.076 172.837 221.163 173.06 221.216 173.3H220.316C220.263 173.173 220.199 173.057 220.126 172.95C220.059 172.837 219.973 172.74 219.866 172.66C219.766 172.58 219.646 172.517 219.506 172.47C219.366 172.423 219.203 172.4 219.016 172.4C218.823 172.4 218.636 172.437 218.456 172.51C218.276 172.577 218.116 172.683 217.976 172.83C217.836 172.97 217.723 173.153 217.636 173.38C217.556 173.607 217.516 173.88 217.516 174.2V174.4C217.516 174.74 217.556 175.033 217.636 175.28C217.723 175.52 217.836 175.717 217.976 175.87C218.116 176.017 218.276 176.127 218.456 176.2C218.636 176.267 218.823 176.3 219.016 176.3C219.343 176.3 219.616 176.22 219.836 176.06C220.063 175.9 220.223 175.68 220.316 175.4H221.216C221.089 175.927 220.829 176.343 220.436 176.65C220.043 176.95 219.569 177.1 219.016 177.1Z" fill="black"/>
<path d="M223.625 172.48H221.815V171.7H226.315V172.48H224.505V177H223.625V172.48Z" fill="black"/>
<path d="M229.42 177.1C229.08 177.1 228.757 177.047 228.45 176.94C228.143 176.833 227.873 176.67 227.64 176.45C227.407 176.223 227.22 175.94 227.08 175.6C226.94 175.26 226.87 174.86 226.87 174.4V174.2C226.87 173.76 226.937 173.38 227.07 173.06C227.203 172.733 227.38 172.463 227.6 172.25C227.827 172.03 228.087 171.867 228.38 171.76C228.68 171.653 228.993 171.6 229.32 171.6C230.1 171.6 230.703 171.813 231.13 172.24C231.557 172.667 231.77 173.27 231.77 174.05V174.61H227.75C227.75 174.923 227.8 175.187 227.9 175.4C228 175.613 228.13 175.787 228.29 175.92C228.45 176.053 228.627 176.15 228.82 176.21C229.02 176.27 229.22 176.3 229.42 176.3C229.82 176.3 230.127 176.233 230.34 176.1C230.56 175.967 230.717 175.783 230.81 175.55H231.67C231.617 175.803 231.52 176.027 231.38 176.22C231.247 176.413 231.08 176.577 230.88 176.71C230.687 176.837 230.463 176.933 230.21 177C229.963 177.067 229.7 177.1 229.42 177.1ZM229.37 172.4C229.163 172.4 228.963 172.43 228.77 172.49C228.577 172.543 228.403 172.633 228.25 172.76C228.103 172.88 227.983 173.033 227.89 173.22C227.797 173.407 227.75 173.63 227.75 173.89H230.94C230.933 173.617 230.887 173.387 230.8 173.2C230.72 173.007 230.61 172.853 230.47 172.74C230.33 172.62 230.163 172.533 229.97 172.48C229.783 172.427 229.583 172.4 229.37 172.4Z" fill="black"/>
<path d="M233.021 171.7H233.961L235.851 175L237.741 171.7H238.621V177H237.741V173.15L236.171 175.85H235.471L233.901 173.15V177H233.021V171.7Z" fill="black"/>
<path d="M241.728 177.1C241.435 177.1 241.175 177.06 240.948 176.98C240.728 176.893 240.541 176.777 240.388 176.63C240.235 176.483 240.118 176.31 240.038 176.11C239.958 175.91 239.918 175.69 239.918 175.45C239.918 174.923 240.071 174.543 240.378 174.31C240.691 174.077 241.138 173.96 241.718 173.96H243.438V173.6C243.438 173.147 243.335 172.833 243.128 172.66C242.928 172.487 242.625 172.4 242.218 172.4C241.838 172.4 241.561 172.473 241.388 172.62C241.215 172.76 241.118 172.92 241.098 173.1H240.218C240.231 172.887 240.288 172.69 240.388 172.51C240.495 172.323 240.635 172.163 240.808 172.03C240.988 171.897 241.201 171.793 241.448 171.72C241.695 171.64 241.968 171.6 242.268 171.6C242.895 171.6 243.391 171.75 243.758 172.05C244.131 172.343 244.318 172.827 244.318 173.5V175.65C244.318 175.93 244.318 176.177 244.318 176.39C244.325 176.597 244.341 176.8 244.368 177H243.598C243.578 176.847 243.565 176.703 243.558 176.57C243.551 176.43 243.548 176.273 243.548 176.1C243.408 176.38 243.181 176.617 242.868 176.81C242.555 177.003 242.175 177.1 241.728 177.1ZM241.918 176.3C242.125 176.3 242.318 176.273 242.498 176.22C242.685 176.16 242.848 176.077 242.988 175.97C243.128 175.857 243.238 175.72 243.318 175.56C243.398 175.4 243.438 175.213 243.438 175V174.64H241.868C241.541 174.64 241.285 174.707 241.098 174.84C240.911 174.967 240.818 175.17 240.818 175.45C240.818 175.697 240.905 175.9 241.078 176.06C241.258 176.22 241.538 176.3 241.918 176.3Z" fill="black"/>
<path d="M248.372 171.7H249.252V173.92H249.952L251.932 171.7H252.972L250.672 174.24L253.072 177H251.952L249.952 174.68H249.252V177H248.372V171.7Z" fill="black"/>
<path d="M256.129 177.1C255.789 177.1 255.466 177.047 255.159 176.94C254.852 176.827 254.582 176.66 254.349 176.44C254.116 176.213 253.929 175.93 253.789 175.59C253.649 175.25 253.579 174.853 253.579 174.4V174.2C253.579 173.773 253.649 173.397 253.789 173.07C253.929 172.743 254.116 172.473 254.349 172.26C254.582 172.04 254.852 171.877 255.159 171.77C255.466 171.657 255.789 171.6 256.129 171.6C256.469 171.6 256.792 171.657 257.099 171.77C257.406 171.877 257.676 172.04 257.909 172.26C258.142 172.473 258.329 172.743 258.469 173.07C258.609 173.397 258.679 173.773 258.679 174.2V174.4C258.679 174.853 258.609 175.25 258.469 175.59C258.329 175.93 258.142 176.213 257.909 176.44C257.676 176.66 257.406 176.827 257.099 176.94C256.792 177.047 256.469 177.1 256.129 177.1ZM256.129 176.3C256.329 176.3 256.529 176.267 256.729 176.2C256.929 176.127 257.106 176.017 257.259 175.87C257.412 175.717 257.536 175.52 257.629 175.28C257.729 175.04 257.779 174.747 257.779 174.4V174.2C257.779 173.88 257.729 173.607 257.629 173.38C257.536 173.153 257.412 172.967 257.259 172.82C257.106 172.673 256.929 172.567 256.729 172.5C256.529 172.433 256.329 172.4 256.129 172.4C255.929 172.4 255.729 172.433 255.529 172.5C255.329 172.567 255.152 172.673 254.999 172.82C254.846 172.967 254.719 173.153 254.619 173.38C254.526 173.607 254.479 173.88 254.479 174.2V174.4C254.479 174.747 254.526 175.04 254.619 175.28C254.719 175.52 254.846 175.717 254.999 175.87C255.152 176.017 255.329 176.127 255.529 176.2C255.729 176.267 255.929 176.3 256.129 176.3Z" fill="black"/>
<path d="M259.925 171.7H260.805V173.91H263.545V171.7H264.425V177H263.545V174.69H260.805V177H259.925V171.7Z" fill="black"/>
<path d="M267.239 172.48H265.429V171.7H269.929V172.48H268.119V177H267.239V172.48Z" fill="black"/>
<path d="M270.931 171.7H271.751V172.7C271.931 172.347 272.181 172.077 272.501 171.89C272.828 171.697 273.204 171.6 273.631 171.6C274.298 171.6 274.831 171.82 275.231 172.26C275.631 172.693 275.831 173.34 275.831 174.2V174.4C275.831 174.853 275.778 175.25 275.671 175.59C275.564 175.923 275.414 176.203 275.221 176.43C275.028 176.65 274.794 176.817 274.521 176.93C274.254 177.043 273.958 177.1 273.631 177.1C273.178 177.1 272.798 177 272.491 176.8C272.191 176.6 271.964 176.35 271.811 176.05V179H270.931V171.7ZM273.431 176.32C273.644 176.32 273.844 176.28 274.031 176.2C274.218 176.113 274.378 175.99 274.511 175.83C274.651 175.67 274.758 175.47 274.831 175.23C274.911 174.99 274.951 174.713 274.951 174.4V174.2C274.951 173.913 274.911 173.657 274.831 173.43C274.758 173.203 274.651 173.013 274.511 172.86C274.378 172.7 274.218 172.58 274.031 172.5C273.844 172.42 273.644 172.38 273.431 172.38C273.191 172.38 272.971 172.42 272.771 172.5C272.571 172.573 272.401 172.68 272.261 172.82C272.121 172.953 272.011 173.113 271.931 173.3C271.851 173.487 271.811 173.687 271.811 173.9V174.7C271.811 174.94 271.851 175.16 271.931 175.36C272.011 175.56 272.121 175.73 272.261 175.87C272.401 176.01 272.571 176.12 272.771 176.2C272.971 176.28 273.191 176.32 273.431 176.32Z" fill="black"/>
<path d="M279.283 177.1C278.943 177.1 278.62 177.047 278.313 176.94C278.007 176.827 277.737 176.66 277.503 176.44C277.27 176.213 277.083 175.93 276.943 175.59C276.803 175.25 276.733 174.853 276.733 174.4V174.2C276.733 173.773 276.803 173.397 276.943 173.07C277.083 172.743 277.27 172.473 277.503 172.26C277.737 172.04 278.007 171.877 278.313 171.77C278.62 171.657 278.943 171.6 279.283 171.6C279.623 171.6 279.947 171.657 280.253 171.77C280.56 171.877 280.83 172.04 281.063 172.26C281.297 172.473 281.483 172.743 281.623 173.07C281.763 173.397 281.833 173.773 281.833 174.2V174.4C281.833 174.853 281.763 175.25 281.623 175.59C281.483 175.93 281.297 176.213 281.063 176.44C280.83 176.66 280.56 176.827 280.253 176.94C279.947 177.047 279.623 177.1 279.283 177.1ZM279.283 176.3C279.483 176.3 279.683 176.267 279.883 176.2C280.083 176.127 280.26 176.017 280.413 175.87C280.567 175.717 280.69 175.52 280.783 175.28C280.883 175.04 280.933 174.747 280.933 174.4V174.2C280.933 173.88 280.883 173.607 280.783 173.38C280.69 173.153 280.567 172.967 280.413 172.82C280.26 172.673 280.083 172.567 279.883 172.5C279.683 172.433 279.483 172.4 279.283 172.4C279.083 172.4 278.883 172.433 278.683 172.5C278.483 172.567 278.307 172.673 278.153 172.82C278 172.967 277.873 173.153 277.773 173.38C277.68 173.607 277.633 173.88 277.633 174.2V174.4C277.633 174.747 277.68 175.04 277.773 175.28C277.873 175.52 278 175.717 278.153 175.87C278.307 176.017 278.483 176.127 278.683 176.2C278.883 176.267 279.083 176.3 279.283 176.3Z" fill="black"/>
<path d="M282.732 177.1C282.632 177.1 282.532 177.09 282.432 177.07V176.19C282.465 176.197 282.515 176.2 282.582 176.2C282.728 176.2 282.855 176.153 282.962 176.06C283.075 175.967 283.165 175.803 283.232 175.57C283.298 175.337 283.348 175.02 283.382 174.62C283.415 174.22 283.432 173.713 283.432 173.1V171.7H287.232V177H286.352V172.48H284.312V173.3C284.312 174.04 284.278 174.653 284.212 175.14C284.145 175.627 284.045 176.017 283.912 176.31C283.785 176.597 283.622 176.8 283.422 176.92C283.222 177.04 282.992 177.1 282.732 177.1Z" fill="black"/>
<path d="M289.871 174.9C289.431 174.8 289.115 174.62 288.921 174.36C288.728 174.093 288.631 173.753 288.631 173.34C288.631 172.82 288.788 172.417 289.101 172.13C289.421 171.843 289.931 171.7 290.631 171.7H292.931V177H292.051V174.98H290.701L289.411 177H288.431L289.871 174.9ZM289.511 173.34C289.511 173.62 289.591 173.833 289.751 173.98C289.918 174.127 290.195 174.2 290.581 174.2H292.051V172.48H290.581C290.195 172.48 289.918 172.553 289.751 172.7C289.591 172.847 289.511 173.06 289.511 173.34Z" fill="black"/>
<path d="M227.769 253.1C227.369 253.1 226.983 253.033 226.609 252.9C226.236 252.76 225.906 252.547 225.619 252.26C225.333 251.973 225.103 251.607 224.929 251.16C224.756 250.713 224.669 250.177 224.669 249.55V249.35C224.669 248.75 224.756 248.233 224.929 247.8C225.103 247.367 225.333 247.01 225.619 246.73C225.906 246.443 226.236 246.233 226.609 246.1C226.983 245.967 227.369 245.9 227.769 245.9C228.169 245.9 228.556 245.967 228.929 246.1C229.303 246.233 229.633 246.443 229.919 246.73C230.206 247.01 230.436 247.367 230.609 247.8C230.783 248.233 230.869 248.75 230.869 249.35V249.55C230.869 250.177 230.783 250.713 230.609 251.16C230.436 251.607 230.206 251.973 229.919 252.26C229.633 252.547 229.303 252.76 228.929 252.9C228.556 253.033 228.169 253.1 227.769 253.1ZM227.769 252.26C228.043 252.26 228.306 252.21 228.559 252.11C228.813 252.01 229.036 251.853 229.229 251.64C229.423 251.42 229.576 251.14 229.689 250.8C229.809 250.453 229.869 250.037 229.869 249.55V249.35C229.869 248.89 229.809 248.497 229.689 248.17C229.576 247.837 229.423 247.567 229.229 247.36C229.036 247.147 228.813 246.99 228.559 246.89C228.306 246.79 228.043 246.74 227.769 246.74C227.496 246.74 227.233 246.79 226.979 246.89C226.726 246.99 226.503 247.147 226.309 247.36C226.116 247.567 225.959 247.837 225.839 248.17C225.726 248.497 225.669 248.89 225.669 249.35V249.55C225.669 250.037 225.726 250.453 225.839 250.8C225.959 251.14 226.116 251.42 226.309 251.64C226.503 251.853 226.726 252.01 226.979 252.11C227.233 252.21 227.496 252.26 227.769 252.26Z" fill="black"/>
<path d="M232.272 247.7H236.672V253H235.792V248.48H233.152V253H232.272V247.7Z" fill="black"/>
<path d="M240.468 253.1C240.128 253.1 239.804 253.047 239.498 252.94C239.191 252.833 238.921 252.67 238.688 252.45C238.454 252.223 238.268 251.94 238.128 251.6C237.988 251.26 237.918 250.86 237.918 250.4V250.2C237.918 249.76 237.984 249.38 238.118 249.06C238.251 248.733 238.428 248.463 238.648 248.25C238.874 248.03 239.134 247.867 239.428 247.76C239.728 247.653 240.041 247.6 240.368 247.6C241.148 247.6 241.751 247.813 242.178 248.24C242.604 248.667 242.818 249.27 242.818 250.05V250.61H238.798C238.798 250.923 238.848 251.187 238.948 251.4C239.048 251.613 239.178 251.787 239.338 251.92C239.498 252.053 239.674 252.15 239.868 252.21C240.068 252.27 240.268 252.3 240.468 252.3C240.868 252.3 241.174 252.233 241.388 252.1C241.608 251.967 241.764 251.783 241.858 251.55H242.718C242.664 251.803 242.568 252.027 242.428 252.22C242.294 252.413 242.128 252.577 241.928 252.71C241.734 252.837 241.511 252.933 241.258 253C241.011 253.067 240.748 253.1 240.468 253.1ZM240.418 248.4C240.211 248.4 240.011 248.43 239.818 248.49C239.624 248.543 239.451 248.633 239.298 248.76C239.151 248.88 239.031 249.033 238.938 249.22C238.844 249.407 238.798 249.63 238.798 249.89H241.988C241.981 249.617 241.934 249.387 241.848 249.2C241.768 249.007 241.658 248.853 241.518 248.74C241.378 248.62 241.211 248.533 241.018 248.48C240.831 248.427 240.631 248.4 240.418 248.4Z" fill="black"/>
<path d="M244.069 247.7H244.889V248.7C245.069 248.347 245.319 248.077 245.639 247.89C245.965 247.697 246.342 247.6 246.769 247.6C247.435 247.6 247.969 247.82 248.369 248.26C248.769 248.693 248.969 249.34 248.969 250.2V250.4C248.969 250.853 248.915 251.25 248.809 251.59C248.702 251.923 248.552 252.203 248.359 252.43C248.165 252.65 247.932 252.817 247.659 252.93C247.392 253.043 247.095 253.1 246.769 253.1C246.315 253.1 245.935 253 245.629 252.8C245.329 252.6 245.102 252.35 244.949 252.05V255H244.069V247.7ZM246.569 252.32C246.782 252.32 246.982 252.28 247.169 252.2C247.355 252.113 247.515 251.99 247.649 251.83C247.789 251.67 247.895 251.47 247.969 251.23C248.049 250.99 248.089 250.713 248.089 250.4V250.2C248.089 249.913 248.049 249.657 247.969 249.43C247.895 249.203 247.789 249.013 247.649 248.86C247.515 248.7 247.355 248.58 247.169 248.5C246.982 248.42 246.782 248.38 246.569 248.38C246.329 248.38 246.109 248.42 245.909 248.5C245.709 248.573 245.539 248.68 245.399 248.82C245.259 248.953 245.149 249.113 245.069 249.3C244.989 249.487 244.949 249.687 244.949 249.9V250.7C244.949 250.94 244.989 251.16 245.069 251.36C245.149 251.56 245.259 251.73 245.399 251.87C245.539 252.01 245.709 252.12 245.909 252.2C246.109 252.28 246.329 252.32 246.569 252.32Z" fill="black"/>
<path d="M251.731 253.1C251.438 253.1 251.178 253.06 250.951 252.98C250.731 252.893 250.544 252.777 250.391 252.63C250.238 252.483 250.121 252.31 250.041 252.11C249.961 251.91 249.921 251.69 249.921 251.45C249.921 250.923 250.074 250.543 250.381 250.31C250.694 250.077 251.141 249.96 251.721 249.96H253.441V249.6C253.441 249.147 253.338 248.833 253.131 248.66C252.931 248.487 252.628 248.4 252.221 248.4C251.841 248.4 251.564 248.473 251.391 248.62C251.218 248.76 251.121 248.92 251.101 249.1H250.221C250.234 248.887 250.291 248.69 250.391 248.51C250.498 248.323 250.638 248.163 250.811 248.03C250.991 247.897 251.204 247.793 251.451 247.72C251.698 247.64 251.971 247.6 252.271 247.6C252.898 247.6 253.394 247.75 253.761 248.05C254.134 248.343 254.321 248.827 254.321 249.5V251.65C254.321 251.93 254.321 252.177 254.321 252.39C254.328 252.597 254.344 252.8 254.371 253H253.601C253.581 252.847 253.568 252.703 253.561 252.57C253.554 252.43 253.551 252.273 253.551 252.1C253.411 252.38 253.184 252.617 252.871 252.81C252.558 253.003 252.178 253.1 251.731 253.1ZM251.921 252.3C252.128 252.3 252.321 252.273 252.501 252.22C252.688 252.16 252.851 252.077 252.991 251.97C253.131 251.857 253.241 251.72 253.321 251.56C253.401 251.4 253.441 251.213 253.441 251V250.64H251.871C251.544 250.64 251.288 250.707 251.101 250.84C250.914 250.967 250.821 251.17 250.821 251.45C250.821 251.697 250.908 251.9 251.081 252.06C251.261 252.22 251.541 252.3 251.921 252.3Z" fill="black"/>
<path d="M256.988 248.48H255.178V247.7H259.678V248.48H257.868V253H256.988V248.48Z" fill="black"/>
<path d="M262.782 253.1C262.442 253.1 262.119 253.047 261.812 252.94C261.506 252.827 261.236 252.66 261.002 252.44C260.769 252.213 260.582 251.93 260.442 251.59C260.302 251.25 260.232 250.853 260.232 250.4V250.2C260.232 249.773 260.302 249.397 260.442 249.07C260.582 248.743 260.769 248.473 261.002 248.26C261.236 248.04 261.506 247.877 261.812 247.77C262.119 247.657 262.442 247.6 262.782 247.6C263.122 247.6 263.446 247.657 263.752 247.77C264.059 247.877 264.329 248.04 264.562 248.26C264.796 248.473 264.982 248.743 265.122 249.07C265.262 249.397 265.332 249.773 265.332 250.2V250.4C265.332 250.853 265.262 251.25 265.122 251.59C264.982 251.93 264.796 252.213 264.562 252.44C264.329 252.66 264.059 252.827 263.752 252.94C263.446 253.047 263.122 253.1 262.782 253.1ZM262.782 252.3C262.982 252.3 263.182 252.267 263.382 252.2C263.582 252.127 263.759 252.017 263.912 251.87C264.066 251.717 264.189 251.52 264.282 251.28C264.382 251.04 264.432 250.747 264.432 250.4V250.2C264.432 249.88 264.382 249.607 264.282 249.38C264.189 249.153 264.066 248.967 263.912 248.82C263.759 248.673 263.582 248.567 263.382 248.5C263.182 248.433 262.982 248.4 262.782 248.4C262.582 248.4 262.382 248.433 262.182 248.5C261.982 248.567 261.806 248.673 261.652 248.82C261.499 248.967 261.372 249.153 261.272 249.38C261.179 249.607 261.132 249.88 261.132 250.2V250.4C261.132 250.747 261.179 251.04 261.272 251.28C261.372 251.52 261.499 251.717 261.652 251.87C261.806 252.017 261.982 252.127 262.182 252.2C262.382 252.267 262.582 252.3 262.782 252.3Z" fill="black"/>
<path d="M266.578 247.7H267.398V248.7C267.578 248.347 267.828 248.077 268.148 247.89C268.475 247.697 268.852 247.6 269.278 247.6C269.945 247.6 270.478 247.82 270.878 248.26C271.278 248.693 271.478 249.34 271.478 250.2V250.4C271.478 250.853 271.425 251.25 271.318 251.59C271.212 251.923 271.062 252.203 270.868 252.43C270.675 252.65 270.442 252.817 270.168 252.93C269.902 253.043 269.605 253.1 269.278 253.1C268.825 253.1 268.445 253 268.138 252.8C267.838 252.6 267.612 252.35 267.458 252.05V255H266.578V247.7ZM269.078 252.32C269.292 252.32 269.492 252.28 269.678 252.2C269.865 252.113 270.025 251.99 270.158 251.83C270.298 251.67 270.405 251.47 270.478 251.23C270.558 250.99 270.598 250.713 270.598 250.4V250.2C270.598 249.913 270.558 249.657 270.478 249.43C270.405 249.203 270.298 249.013 270.158 248.86C270.025 248.7 269.865 248.58 269.678 248.5C269.492 248.42 269.292 248.38 269.078 248.38C268.838 248.38 268.618 248.42 268.418 248.5C268.218 248.573 268.048 248.68 267.908 248.82C267.768 248.953 267.658 249.113 267.578 249.3C267.498 249.487 267.458 249.687 267.458 249.9V250.7C267.458 250.94 267.498 251.16 267.578 251.36C267.658 251.56 267.768 251.73 267.908 251.87C268.048 252.01 268.218 252.12 268.418 252.2C268.618 252.28 268.838 252.32 269.078 252.32Z" fill="black"/>
<circle cx="248" cy="229" r="13.5" fill="white" stroke="black"/>
</svg>
