<svg width="40" height="40" fill="none" xmlns="http://www.w3.org/2000/svg"><circle cx="20" cy="20" r="20" fill="#E2E8FF"/><path d="M18.776 22.52c0-.608.16-1.152.48-1.632.32-.496.84-1.048 1.56-1.656.576-.496 1.024-.928 1.344-1.296.336-.368.504-.8.504-1.296 0-.608-.2-1.096-.6-1.464-.384-.384-.952-.576-1.704-.576-.688 0-1.248.192-1.68.576-.416.368-.624.896-.624 1.584H14.84c0-.656.136-1.272.408-1.848a5.268 5.268 0 0 1 1.152-1.56 5.51 5.51 0 0 1 1.752-1.056 6.154 6.154 0 0 1 2.208-.384c.864 0 1.632.12 2.304.36.688.224 1.272.544 1.752.96.48.416.84.904 1.08 1.464.256.56.384 1.168.384 1.824 0 .432-.04.824-.12 1.176-.08.352-.216.688-.408 1.008-.176.32-.416.648-.72.984-.304.32-.672.672-1.104 1.056-.368.32-.656.592-.864.816-.208.208-.368.4-.48.576a1.55 1.55 0 0 0-.192.456 1.677 1.677 0 0 0-.048.408v.48h-3.168v-.96zm1.584 6.768c-.56 0-1.04-.2-1.44-.6-.4-.4-.6-.88-.6-1.44 0-.592.2-1.08.6-1.464.4-.384.88-.576 1.44-.576.56 0 1.04.192 1.44.576.4.384.6.872.6 1.464 0 .56-.2 1.04-.6 1.44-.4.4-.88.6-1.44.6z" fill="#001357"/></svg>