<svg width="880" height="160" viewBox="0 0 880 160" fill="none" xmlns="http://www.w3.org/2000/svg">
<path d="M0 0H880V160H0V0Z" fill="white"/>
<path fill-rule="evenodd" clip-rule="evenodd" d="M259.2 50H163.8C162.927 50 162.392 50.0016 161.992 50.0342C161.806 50.0495 161.693 50.0686 161.625 50.0847C161.592 50.0924 161.572 50.0988 161.562 50.1027C161.551 50.1064 161.546 50.109 161.546 50.109C161.358 50.2049 161.205 50.3578 161.109 50.546C161.109 50.546 161.106 50.5512 161.103 50.5616C161.099 50.5724 161.092 50.5924 161.085 50.625C161.069 50.6935 161.049 50.8062 161.034 50.9925C161.002 51.3924 161 51.9269 161 52.8V91.2C161 92.0731 161.002 92.6076 161.034 93.0075C161.049 93.1938 161.069 93.3065 161.085 93.375C161.092 93.4076 161.099 93.4276 161.103 93.4384C161.106 93.4488 161.109 93.454 161.109 93.454C161.205 93.6422 161.358 93.7951 161.546 93.891C161.546 93.891 161.551 93.8936 161.562 93.8973C161.572 93.9012 161.592 93.9076 161.625 93.9153C161.693 93.9314 161.806 93.9506 161.992 93.9658C162.392 93.9984 162.927 94 163.8 94H259.2C260.073 94 260.608 93.9984 261.008 93.9658C261.194 93.9506 261.307 93.9314 261.375 93.9153C261.408 93.9076 261.428 93.9012 261.438 93.8973C261.441 93.8963 261.444 93.8955 261.446 93.8947C261.451 93.8926 261.454 93.891 261.454 93.891C261.642 93.7951 261.795 93.6422 261.891 93.454C261.891 93.454 261.894 93.4488 261.897 93.4384C261.901 93.4276 261.908 93.4076 261.915 93.375C261.931 93.3065 261.951 93.1938 261.966 93.0075C261.998 92.6076 262 92.0731 262 91.2V52.8C262 51.9269 261.998 51.3924 261.966 50.9925C261.951 50.8062 261.931 50.6935 261.915 50.625C261.908 50.5924 261.901 50.5724 261.897 50.5616C261.894 50.5512 261.891 50.546 261.891 50.546C261.795 50.3578 261.642 50.2049 261.454 50.109C261.454 50.109 261.449 50.1064 261.438 50.1027C261.428 50.0988 261.408 50.0924 261.375 50.0847C261.307 50.0686 261.194 50.0495 261.008 50.0342C260.608 50.0016 260.073 50 259.2 50ZM159.327 49.638C159 50.2798 159 51.1198 159 52.8V91.2C159 92.8802 159 93.7202 159.327 94.362C159.615 94.9265 160.074 95.3854 160.638 95.673C161.28 96 162.12 96 163.8 96H259.2C260.88 96 261.72 96 262.362 95.673C262.926 95.3854 263.385 94.9265 263.673 94.362C264 93.7202 264 92.8802 264 91.2V52.8C264 51.1198 264 50.2798 263.673 49.638C263.385 49.0735 262.926 48.6146 262.362 48.327C261.72 48 260.88 48 259.2 48H163.8C162.12 48 161.28 48 160.638 48.327C160.074 48.6146 159.615 49.0735 159.327 49.638Z" fill="#0229B4"/>
<path fill-rule="evenodd" clip-rule="evenodd" d="M691.2 50H540.8C539.927 50 539.392 50.0016 538.992 50.0342C538.806 50.0495 538.693 50.0686 538.625 50.0847C538.592 50.0924 538.572 50.0988 538.562 50.1027C538.551 50.1064 538.546 50.109 538.546 50.109C538.358 50.2049 538.205 50.3578 538.109 50.546C538.109 50.546 538.106 50.5512 538.103 50.5616C538.099 50.5724 538.092 50.5924 538.085 50.625C538.069 50.6935 538.049 50.8062 538.034 50.9925C538.002 51.3924 538 51.9269 538 52.8V91.2C538 92.0731 538.002 92.6076 538.034 93.0075C538.049 93.1938 538.069 93.3065 538.085 93.375C538.092 93.4076 538.099 93.4276 538.103 93.4384C538.106 93.4488 538.109 93.454 538.109 93.454C538.205 93.6422 538.358 93.7951 538.546 93.891C538.546 93.891 538.551 93.8936 538.562 93.8973C538.572 93.9012 538.592 93.9076 538.625 93.9153C538.693 93.9314 538.806 93.9506 538.992 93.9658C539.392 93.9984 539.927 94 540.8 94H691.2C692.073 94 692.608 93.9984 693.008 93.9658C693.194 93.9506 693.307 93.9314 693.375 93.9153C693.395 93.9107 693.41 93.9066 693.421 93.9031C693.428 93.9009 693.434 93.8989 693.438 93.8973C693.449 93.8936 693.454 93.891 693.454 93.891C693.642 93.7951 693.795 93.6422 693.891 93.454C693.891 93.454 693.894 93.4488 693.897 93.4384C693.901 93.4276 693.908 93.4076 693.915 93.375C693.931 93.3065 693.951 93.1938 693.966 93.0075C693.998 92.6076 694 92.0731 694 91.2V52.8C694 51.9269 693.998 51.3924 693.966 50.9925C693.951 50.8062 693.931 50.6935 693.915 50.625C693.908 50.5924 693.901 50.5724 693.897 50.5616C693.895 50.555 693.893 50.5508 693.892 50.5484L693.891 50.546C693.795 50.3578 693.642 50.2049 693.454 50.109C693.454 50.109 693.449 50.1064 693.438 50.1027C693.428 50.0988 693.408 50.0924 693.375 50.0847C693.307 50.0686 693.194 50.0495 693.008 50.0342C692.608 50.0016 692.073 50 691.2 50ZM536.327 49.638C536 50.2798 536 51.1198 536 52.8V91.2C536 92.8802 536 93.7202 536.327 94.362C536.615 94.9265 537.074 95.3854 537.638 95.673C538.28 96 539.12 96 540.8 96H691.2C692.88 96 693.72 96 694.362 95.673C694.926 95.3854 695.385 94.9265 695.673 94.362C696 93.7202 696 92.8802 696 91.2V52.8C696 51.1198 696 50.2798 695.673 49.638C695.385 49.0735 694.926 48.6146 694.362 48.327C693.72 48 692.88 48 691.2 48H540.8C539.12 48 538.28 48 537.638 48.327C537.074 48.6146 536.615 49.0735 536.327 49.638Z" fill="#0229B4"/>
<path fill-rule="evenodd" clip-rule="evenodd" d="M312 72H264V70H312V72Z" fill="#0229B4"/>
<path fill-rule="evenodd" clip-rule="evenodd" d="M744 72H696V70H744V72Z" fill="#0229B4"/>
<path fill-rule="evenodd" clip-rule="evenodd" d="M159 72H111V70H159V72Z" fill="#0229B4"/>
<path d="M25.8 47.3999H30.3C31.056 47.3999 31.704 47.4839 32.244 47.6519C32.784 47.8199 33.228 48.0539 33.576 48.3539C33.936 48.6419 34.2 48.9959 34.368 49.4159C34.536 49.8239 34.62 50.2739 34.62 50.7659C34.62 51.4139 34.44 51.9719 34.08 52.4399C33.72 52.8959 33.276 53.2259 32.748 53.4299C33.492 53.5979 34.08 53.9399 34.512 54.4559C34.944 54.9599 35.16 55.6199 35.16 56.4359C35.16 56.9519 35.076 57.4259 34.908 57.8579C34.74 58.2899 34.476 58.6679 34.116 58.9919C33.756 59.3039 33.288 59.5499 32.712 59.7299C32.148 59.9099 31.464 59.9999 30.66 59.9999H25.8V47.3999ZM30.66 58.5239C31.2 58.5239 31.65 58.4759 32.01 58.3799C32.37 58.2719 32.658 58.1279 32.874 57.9479C33.09 57.7559 33.24 57.5279 33.324 57.2639C33.42 56.9999 33.468 56.7059 33.468 56.3819C33.468 56.0579 33.42 55.7639 33.324 55.4999C33.24 55.2239 33.09 54.9959 32.874 54.8159C32.658 54.6239 32.364 54.4799 31.992 54.3839C31.632 54.2759 31.182 54.2219 30.642 54.2219H27.492V58.5239H30.66ZM30.3 52.8179C30.804 52.8179 31.224 52.7699 31.56 52.6739C31.896 52.5779 32.166 52.4399 32.37 52.2599C32.574 52.0799 32.718 51.8699 32.802 51.6299C32.886 51.3899 32.928 51.1259 32.928 50.8379C32.928 50.5499 32.886 50.2859 32.802 50.0459C32.718 49.7939 32.574 49.5839 32.37 49.4159C32.166 49.2479 31.896 49.1159 31.56 49.0199C31.224 48.9239 30.804 48.8759 30.3 48.8759H27.492V52.8179H30.3Z" fill="#001357"/>
<path d="M39.9148 55.1579L36.5128 50.4599H38.3488L40.8688 53.9339L43.3888 50.4599H45.1528L41.7508 55.0679L45.3328 59.9999H43.4608L40.7968 56.2739L38.1328 59.9999H36.3328L39.9148 55.1579Z" fill="#001357"/>
<path d="M50.8277 60.1799C50.2157 60.1799 49.6337 60.0839 49.0817 59.8919C48.5297 59.6879 48.0437 59.3879 47.6237 58.9919C47.2037 58.5839 46.8677 58.0739 46.6157 57.4619C46.3637 56.8499 46.2377 56.1359 46.2377 55.3199V54.9599C46.2377 54.1919 46.3637 53.5139 46.6157 52.9259C46.8677 52.3379 47.2037 51.8519 47.6237 51.4679C48.0437 51.0719 48.5297 50.7779 49.0817 50.5859C49.6337 50.3819 50.2157 50.2799 50.8277 50.2799C51.4397 50.2799 52.0217 50.3819 52.5737 50.5859C53.1257 50.7779 53.6117 51.0719 54.0317 51.4679C54.4517 51.8519 54.7877 52.3379 55.0397 52.9259C55.2917 53.5139 55.4177 54.1919 55.4177 54.9599V55.3199C55.4177 56.1359 55.2917 56.8499 55.0397 57.4619C54.7877 58.0739 54.4517 58.5839 54.0317 58.9919C53.6117 59.3879 53.1257 59.6879 52.5737 59.8919C52.0217 60.0839 51.4397 60.1799 50.8277 60.1799ZM50.8277 58.7399C51.1877 58.7399 51.5477 58.6799 51.9077 58.5599C52.2677 58.4279 52.5857 58.2299 52.8617 57.9659C53.1377 57.6899 53.3597 57.3359 53.5277 56.9039C53.7077 56.4719 53.7977 55.9439 53.7977 55.3199V54.9599C53.7977 54.3839 53.7077 53.8919 53.5277 53.4839C53.3597 53.0759 53.1377 52.7399 52.8617 52.4759C52.5857 52.2119 52.2677 52.0199 51.9077 51.8999C51.5477 51.7799 51.1877 51.7199 50.8277 51.7199C50.4677 51.7199 50.1077 51.7799 49.7477 51.8999C49.3877 52.0199 49.0697 52.2119 48.7937 52.4759C48.5177 52.7399 48.2897 53.0759 48.1097 53.4839C47.9417 53.8919 47.8577 54.3839 47.8577 54.9599V55.3199C47.8577 55.9439 47.9417 56.4719 48.1097 56.9039C48.2897 57.3359 48.5177 57.6899 48.7937 57.9659C49.0697 58.2299 49.3877 58.4279 49.7477 58.5599C50.1077 58.6799 50.4677 58.7399 50.8277 58.7399Z" fill="#001357"/>
<path d="M56.4049 58.5959H57.5749C57.7069 58.4159 57.8269 58.1399 57.9349 57.7679C58.0429 57.3959 58.1389 56.9579 58.2229 56.4539C58.3069 55.9499 58.3669 55.4039 58.4029 54.8159C58.4509 54.2159 58.4749 53.6039 58.4749 52.9799V50.4599H65.1349V58.5959H66.4849V62.2499H64.9729V59.9999H57.9169V62.2499H56.4049V58.5959ZM63.5509 58.5959V51.8639H60.0229V53.3399C60.0229 53.8439 60.0049 54.3479 59.9689 54.8519C59.9329 55.3439 59.8789 55.8179 59.8069 56.2739C59.7349 56.7179 59.6449 57.1439 59.5369 57.5519C59.4409 57.9479 59.3269 58.2959 59.1949 58.5959H63.5509Z" fill="#001357"/>
<path d="M29.778 87.18C29.034 87.18 28.374 87.09 27.798 86.91C27.222 86.718 26.73 86.454 26.322 86.118C25.914 85.782 25.59 85.386 25.35 84.93C25.11 84.462 24.966 83.952 24.918 83.4H26.61C26.706 84.084 27.03 84.636 27.582 85.056C28.134 85.464 28.866 85.668 29.778 85.668C30.894 85.668 31.698 85.47 32.19 85.074C32.694 84.678 32.946 84.144 32.946 83.472C32.946 82.824 32.706 82.29 32.226 81.87C31.746 81.438 30.96 81.222 29.868 81.222H28.158V79.818H29.868C30.768 79.818 31.428 79.626 31.848 79.242C32.28 78.846 32.496 78.348 32.496 77.748C32.496 77.148 32.268 76.662 31.812 76.29C31.356 75.918 30.678 75.732 29.778 75.732C28.818 75.732 28.11 75.918 27.654 76.29C27.21 76.65 26.952 77.13 26.88 77.73H25.188C25.236 77.226 25.362 76.758 25.566 76.326C25.782 75.894 26.082 75.522 26.466 75.21C26.85 74.898 27.318 74.658 27.87 74.49C28.422 74.31 29.058 74.22 29.778 74.22C31.23 74.22 32.328 74.544 33.072 75.192C33.816 75.84 34.188 76.692 34.188 77.748C34.188 78.408 33.996 78.972 33.612 79.44C33.24 79.896 32.742 80.226 32.118 80.43C32.874 80.61 33.48 80.958 33.936 81.474C34.404 81.99 34.638 82.656 34.638 83.472C34.638 84.012 34.53 84.51 34.314 84.966C34.11 85.41 33.798 85.8 33.378 86.136C32.97 86.46 32.466 86.718 31.866 86.91C31.266 87.09 30.57 87.18 29.778 87.18Z" fill="#01764C"/>
<path d="M39.6716 87.18C39.1436 87.18 38.6756 87.108 38.2676 86.964C37.8716 86.808 37.5356 86.598 37.2596 86.334C36.9836 86.07 36.7736 85.758 36.6296 85.398C36.4856 85.038 36.4136 84.642 36.4136 84.21C36.4136 83.262 36.6896 82.578 37.2416 82.158C37.8056 81.738 38.6096 81.528 39.6536 81.528H42.7496V80.88C42.7496 80.064 42.5636 79.5 42.1916 79.188C41.8316 78.876 41.2856 78.72 40.5536 78.72C39.8696 78.72 39.3716 78.852 39.0596 79.116C38.7476 79.368 38.5736 79.656 38.5376 79.98H36.9536C36.9776 79.596 37.0796 79.242 37.2596 78.918C37.4516 78.582 37.7036 78.294 38.0156 78.054C38.3396 77.814 38.7236 77.628 39.1676 77.496C39.6116 77.352 40.1036 77.28 40.6436 77.28C41.7716 77.28 42.6656 77.55 43.3256 78.09C43.9976 78.618 44.3336 79.488 44.3336 80.7V84.57C44.3336 85.074 44.3336 85.518 44.3336 85.902C44.3456 86.274 44.3756 86.64 44.4236 87H43.0376C43.0016 86.724 42.9776 86.466 42.9656 86.226C42.9536 85.974 42.9476 85.692 42.9476 85.38C42.6956 85.884 42.2876 86.31 41.7236 86.658C41.1596 87.006 40.4756 87.18 39.6716 87.18ZM40.0136 85.74C40.3856 85.74 40.7336 85.692 41.0576 85.596C41.3936 85.488 41.6876 85.338 41.9396 85.146C42.1916 84.942 42.3896 84.696 42.5336 84.408C42.6776 84.12 42.7496 83.784 42.7496 83.4V82.752H39.9236C39.3356 82.752 38.8736 82.872 38.5376 83.112C38.2016 83.34 38.0336 83.706 38.0336 84.21C38.0336 84.654 38.1896 85.02 38.5016 85.308C38.8256 85.596 39.3296 85.74 40.0136 85.74Z" fill="#01764C"/>
<path d="M47.1314 77.46H55.0514V87H53.4674V78.864H48.7154V87H47.1314V77.46Z" fill="#01764C"/>
<path d="M57.9243 77.46H59.5083V84.66L64.4403 77.46H66.0243V87H64.4403V79.8L59.5083 87H57.9243V77.46Z" fill="#01764C"/>
<path d="M72.6007 87.18C71.9887 87.18 71.4187 87.084 70.8907 86.892C70.3627 86.688 69.9067 86.388 69.5227 85.992C69.1387 85.584 68.8327 85.074 68.6047 84.462C68.3887 83.85 68.2807 83.136 68.2807 82.32V81.96C68.2807 81.192 68.4007 80.514 68.6407 79.926C68.8807 79.338 69.1987 78.852 69.5947 78.468C69.9907 78.072 70.4467 77.778 70.9627 77.586C71.4907 77.382 72.0367 77.28 72.6007 77.28C73.1647 77.28 73.6687 77.358 74.1127 77.514C74.5687 77.67 74.9587 77.886 75.2827 78.162C75.6187 78.438 75.8887 78.762 76.0927 79.134C76.3087 79.506 76.4647 79.908 76.5607 80.34H74.9407C74.8447 80.112 74.7307 79.902 74.5987 79.71C74.4787 79.506 74.3227 79.332 74.1307 79.188C73.9507 79.044 73.7347 78.93 73.4827 78.846C73.2307 78.762 72.9367 78.72 72.6007 78.72C72.2527 78.72 71.9167 78.786 71.5927 78.918C71.2687 79.038 70.9807 79.23 70.7287 79.494C70.4767 79.746 70.2727 80.076 70.1167 80.484C69.9727 80.892 69.9007 81.384 69.9007 81.96V82.32C69.9007 82.932 69.9727 83.46 70.1167 83.904C70.2727 84.336 70.4767 84.69 70.7287 84.966C70.9807 85.23 71.2687 85.428 71.5927 85.56C71.9167 85.68 72.2527 85.74 72.6007 85.74C73.1887 85.74 73.6807 85.596 74.0767 85.308C74.4847 85.02 74.7727 84.624 74.9407 84.12H76.5607C76.3327 85.068 75.8647 85.818 75.1567 86.37C74.4487 86.91 73.5967 87.18 72.6007 87.18Z" fill="#01764C"/>
<path d="M78.7193 77.46H80.3033V81.06H82.5893C83.7893 81.06 84.6713 81.324 85.2353 81.852C85.8113 82.38 86.0993 83.112 86.0993 84.048C86.0993 84.96 85.8113 85.68 85.2353 86.208C84.6713 86.736 83.7893 87 82.5893 87H78.7193V77.46ZM82.4993 85.596C83.2433 85.596 83.7653 85.464 84.0653 85.2C84.3653 84.936 84.5153 84.546 84.5153 84.03C84.5153 83.514 84.3653 83.124 84.0653 82.86C83.7653 82.596 83.2433 82.464 82.4993 82.464H80.3033V85.596H82.4993Z" fill="#01764C"/>
<path d="M344.568 81.4559C344.256 81.6599 343.818 81.8459 343.254 82.0139C342.69 82.1819 342.042 82.2659 341.31 82.2659C339.834 82.2659 338.76 81.9359 338.088 81.2759C337.416 80.6039 337.08 79.5419 337.08 78.0899V74.3999H338.772V78.0899C338.772 79.0379 338.982 79.7219 339.402 80.1419C339.822 80.5499 340.518 80.7539 341.49 80.7539C342.234 80.7539 342.852 80.6639 343.344 80.4839C343.848 80.3039 344.256 80.1119 344.568 79.9079V74.3999H346.26V86.9999H344.568V81.4559Z" fill="#01764C"/>
<path d="M351.677 78.8639H348.419V77.4599H356.519V78.8639H353.261V86.9999H351.677V78.8639Z" fill="#01764C"/>
<path d="M362.107 87.1799C361.495 87.1799 360.913 87.0839 360.361 86.8919C359.809 86.6999 359.323 86.4059 358.903 86.0099C358.483 85.6019 358.147 85.0919 357.895 84.4799C357.643 83.8679 357.517 83.1479 357.517 82.3199V81.9599C357.517 81.1679 357.637 80.4839 357.877 79.9079C358.117 79.3199 358.435 78.8339 358.831 78.4499C359.239 78.0539 359.707 77.7599 360.235 77.5679C360.775 77.3759 361.339 77.2799 361.927 77.2799C363.331 77.2799 364.417 77.6639 365.185 78.4319C365.953 79.1999 366.337 80.2859 366.337 81.6899V82.6979H359.101C359.101 83.2619 359.191 83.7359 359.371 84.1199C359.551 84.5039 359.785 84.8159 360.073 85.0559C360.361 85.2959 360.679 85.4699 361.027 85.5779C361.387 85.6859 361.747 85.7399 362.107 85.7399C362.827 85.7399 363.379 85.6199 363.763 85.3799C364.159 85.1399 364.441 84.8099 364.609 84.3899H366.157C366.061 84.8459 365.887 85.2479 365.635 85.5959C365.395 85.9439 365.095 86.2379 364.735 86.4779C364.387 86.7059 363.985 86.8799 363.529 86.9999C363.085 87.1199 362.611 87.1799 362.107 87.1799ZM362.017 78.7199C361.645 78.7199 361.285 78.7739 360.937 78.8819C360.589 78.9779 360.277 79.1399 360.001 79.3679C359.737 79.5839 359.521 79.8599 359.353 80.1959C359.185 80.5319 359.101 80.9339 359.101 81.4019H364.843C364.831 80.9099 364.747 80.4959 364.591 80.1599C364.447 79.8119 364.249 79.5359 363.997 79.3319C363.745 79.1159 363.445 78.9599 363.097 78.8639C362.761 78.7679 362.401 78.7199 362.017 78.7199Z" fill="#01764C"/>
<path d="M368.588 77.4599H370.172V81.4379H375.104V77.4599H376.688V86.9999H375.104V82.8419H370.172V86.9999H368.588V77.4599Z" fill="#01764C"/>
<path d="M379.575 77.4599H381.159V84.6599L386.091 77.4599H387.675V86.9999H386.091V79.7999L381.159 86.9999H379.575V77.4599Z" fill="#01764C"/>
<path d="M394.521 87.1799C393.909 87.1799 393.327 87.0839 392.775 86.8919C392.223 86.6999 391.737 86.4059 391.317 86.0099C390.897 85.6019 390.561 85.0919 390.309 84.4799C390.057 83.8679 389.931 83.1479 389.931 82.3199V81.9599C389.931 81.1679 390.051 80.4839 390.291 79.9079C390.531 79.3199 390.849 78.8339 391.245 78.4499C391.653 78.0539 392.121 77.7599 392.649 77.5679C393.189 77.3759 393.753 77.2799 394.341 77.2799C395.745 77.2799 396.831 77.6639 397.599 78.4319C398.367 79.1999 398.751 80.2859 398.751 81.6899V82.6979H391.515C391.515 83.2619 391.605 83.7359 391.785 84.1199C391.965 84.5039 392.199 84.8159 392.487 85.0559C392.775 85.2959 393.093 85.4699 393.441 85.5779C393.801 85.6859 394.161 85.7399 394.521 85.7399C395.241 85.7399 395.793 85.6199 396.177 85.3799C396.573 85.1399 396.855 84.8099 397.023 84.3899H398.571C398.475 84.8459 398.301 85.2479 398.049 85.5959C397.809 85.9439 397.509 86.2379 397.149 86.4779C396.801 86.7059 396.399 86.8799 395.943 86.9999C395.499 87.1199 395.025 87.1799 394.521 87.1799ZM394.431 78.7199C394.059 78.7199 393.699 78.7739 393.351 78.8819C393.003 78.9779 392.691 79.1399 392.415 79.3679C392.151 79.5839 391.935 79.8599 391.767 80.1959C391.599 80.5319 391.515 80.9339 391.515 81.4019H397.257C397.245 80.9099 397.161 80.4959 397.005 80.1599C396.861 79.8119 396.663 79.5359 396.411 79.3319C396.159 79.1159 395.859 78.9599 395.511 78.8639C395.175 78.7679 394.815 78.7199 394.431 78.7199Z" fill="#01764C"/>
<path d="M768.568 81.4559C768.256 81.6599 767.818 81.8459 767.254 82.0139C766.69 82.1819 766.042 82.2659 765.31 82.2659C763.834 82.2659 762.76 81.9359 762.088 81.2759C761.416 80.6039 761.08 79.5419 761.08 78.0899V74.3999H762.772V78.0899C762.772 79.0379 762.982 79.7219 763.402 80.1419C763.822 80.5499 764.518 80.7539 765.49 80.7539C766.234 80.7539 766.852 80.6639 767.344 80.4839C767.848 80.3039 768.256 80.1119 768.568 79.9079V74.3999H770.26V86.9999H768.568V81.4559Z" fill="#01764C"/>
<path d="M775.677 78.8639H772.419V77.4599H780.518V78.8639H777.26V86.9999H775.677V78.8639Z" fill="#01764C"/>
<path d="M786.107 87.1799C785.495 87.1799 784.913 87.0839 784.361 86.8919C783.809 86.6999 783.323 86.4059 782.903 86.0099C782.483 85.6019 782.147 85.0919 781.895 84.4799C781.643 83.8679 781.517 83.1479 781.517 82.3199V81.9599C781.517 81.1679 781.637 80.4839 781.877 79.9079C782.117 79.3199 782.435 78.8339 782.831 78.4499C783.239 78.0539 783.707 77.7599 784.235 77.5679C784.775 77.3759 785.339 77.2799 785.927 77.2799C787.331 77.2799 788.417 77.6639 789.185 78.4319C789.953 79.1999 790.337 80.2859 790.337 81.6899V82.6979H783.101C783.101 83.2619 783.191 83.7359 783.371 84.1199C783.551 84.5039 783.785 84.8159 784.073 85.0559C784.361 85.2959 784.679 85.4699 785.027 85.5779C785.387 85.6859 785.747 85.7399 786.107 85.7399C786.827 85.7399 787.379 85.6199 787.763 85.3799C788.159 85.1399 788.441 84.8099 788.609 84.3899H790.157C790.061 84.8459 789.887 85.2479 789.635 85.5959C789.395 85.9439 789.095 86.2379 788.735 86.4779C788.387 86.7059 787.985 86.8799 787.529 86.9999C787.085 87.1199 786.611 87.1799 786.107 87.1799ZM786.017 78.7199C785.645 78.7199 785.285 78.7739 784.937 78.8819C784.589 78.9779 784.277 79.1399 784.001 79.3679C783.737 79.5839 783.521 79.8599 783.353 80.1959C783.185 80.5319 783.101 80.9339 783.101 81.4019H788.843C788.831 80.9099 788.747 80.4959 788.591 80.1599C788.447 79.8119 788.249 79.5359 787.997 79.3319C787.745 79.1159 787.445 78.9599 787.097 78.8639C786.761 78.7679 786.401 78.7199 786.017 78.7199Z" fill="#01764C"/>
<path d="M792.588 77.4599H794.172V81.4379H799.104V77.4599H800.688V86.9999H799.104V82.8419H794.172V86.9999H792.588V77.4599Z" fill="#01764C"/>
<path d="M803.575 77.4599H805.159V84.6599L810.091 77.4599H811.675V86.9999H810.091V79.7999L805.159 86.9999H803.575V77.4599Z" fill="#01764C"/>
<path d="M818.521 87.1799C817.909 87.1799 817.327 87.0839 816.775 86.8919C816.223 86.6999 815.737 86.4059 815.317 86.0099C814.897 85.6019 814.561 85.0919 814.309 84.4799C814.057 83.8679 813.931 83.1479 813.931 82.3199V81.9599C813.931 81.1679 814.051 80.4839 814.291 79.9079C814.531 79.3199 814.849 78.8339 815.245 78.4499C815.653 78.0539 816.121 77.7599 816.649 77.5679C817.189 77.3759 817.753 77.2799 818.341 77.2799C819.745 77.2799 820.831 77.6639 821.599 78.4319C822.367 79.1999 822.751 80.2859 822.751 81.6899V82.6979H815.515C815.515 83.2619 815.605 83.7359 815.785 84.1199C815.965 84.5039 816.199 84.8159 816.487 85.0559C816.775 85.2959 817.093 85.4699 817.441 85.5779C817.801 85.6859 818.161 85.7399 818.521 85.7399C819.241 85.7399 819.793 85.6199 820.177 85.3799C820.573 85.1399 820.855 84.8099 821.023 84.3899H822.571C822.475 84.8459 822.301 85.2479 822.049 85.5959C821.809 85.9439 821.509 86.2379 821.149 86.4779C820.801 86.7059 820.399 86.8799 819.943 86.9999C819.499 87.1199 819.025 87.1799 818.521 87.1799ZM818.431 78.7199C818.059 78.7199 817.699 78.7739 817.351 78.8819C817.003 78.9779 816.691 79.1399 816.415 79.3679C816.151 79.5839 815.935 79.8599 815.767 80.1959C815.599 80.5319 815.515 80.9339 815.515 81.4019H821.257C821.245 80.9099 821.161 80.4959 821.005 80.1599C820.861 79.8119 820.663 79.5359 820.411 79.3319C820.159 79.1159 819.859 78.9599 819.511 78.8639C819.175 78.7679 818.815 78.7199 818.431 78.7199Z" fill="#01764C"/>
<path d="M337.8 47.3999H342.3C343.056 47.3999 343.704 47.4839 344.244 47.6519C344.784 47.8199 345.228 48.0539 345.576 48.3539C345.936 48.6419 346.2 48.9959 346.368 49.4159C346.536 49.8239 346.62 50.2739 346.62 50.7659C346.62 51.4139 346.44 51.9719 346.08 52.4399C345.72 52.8959 345.276 53.2259 344.748 53.4299C345.492 53.5979 346.08 53.9399 346.512 54.4559C346.944 54.9599 347.16 55.6199 347.16 56.4359C347.16 56.9519 347.076 57.4259 346.908 57.8579C346.74 58.2899 346.476 58.6679 346.116 58.9919C345.756 59.3039 345.288 59.5499 344.712 59.7299C344.148 59.9099 343.464 59.9999 342.66 59.9999H337.8V47.3999ZM342.66 58.5239C343.2 58.5239 343.65 58.4759 344.01 58.3799C344.37 58.2719 344.658 58.1279 344.874 57.9479C345.09 57.7559 345.24 57.5279 345.324 57.2639C345.42 56.9999 345.468 56.7059 345.468 56.3819C345.468 56.0579 345.42 55.7639 345.324 55.4999C345.24 55.2239 345.09 54.9959 344.874 54.8159C344.658 54.6239 344.364 54.4799 343.992 54.3839C343.632 54.2759 343.182 54.2219 342.642 54.2219H339.492V58.5239H342.66ZM342.3 52.8179C342.804 52.8179 343.224 52.7699 343.56 52.6739C343.896 52.5779 344.166 52.4399 344.37 52.2599C344.574 52.0799 344.718 51.8699 344.802 51.6299C344.886 51.3899 344.928 51.1259 344.928 50.8379C344.928 50.5499 344.886 50.2859 344.802 50.0459C344.718 49.7939 344.574 49.5839 344.37 49.4159C344.166 49.2479 343.896 49.1159 343.56 49.0199C343.224 48.9239 342.804 48.8759 342.3 48.8759H339.492V52.8179H342.3Z" fill="#001357"/>
<path d="M349.499 50.4599H351.083V54.0599H353.009C354.209 54.0599 355.091 54.3239 355.655 54.8519C356.231 55.3799 356.519 56.1119 356.519 57.0479C356.519 57.9599 356.231 58.6799 355.655 59.2079C355.091 59.7359 354.209 59.9999 353.009 59.9999H349.499V50.4599ZM352.919 58.5959C353.663 58.5959 354.185 58.4639 354.485 58.1999C354.785 57.9359 354.935 57.5459 354.935 57.0299C354.935 56.5139 354.785 56.1239 354.485 55.8599C354.185 55.5959 353.663 55.4639 352.919 55.4639H351.083V58.5959H352.919ZM357.995 50.4599H359.579V59.9999H357.995V50.4599Z" fill="#001357"/>
<path d="M365.046 55.1579L361.644 50.4599H363.48L366 53.9339L368.52 50.4599H370.284L366.882 55.0679L370.464 59.9999H368.592L365.928 56.2739L363.264 59.9999H361.464L365.046 55.1579Z" fill="#001357"/>
<path d="M375.959 60.1799C375.347 60.1799 374.765 60.0839 374.213 59.8919C373.661 59.6879 373.175 59.3879 372.755 58.9919C372.335 58.5839 371.999 58.0739 371.747 57.4619C371.495 56.8499 371.369 56.1359 371.369 55.3199V54.9599C371.369 54.1919 371.495 53.5139 371.747 52.9259C371.999 52.3379 372.335 51.8519 372.755 51.4679C373.175 51.0719 373.661 50.7779 374.213 50.5859C374.765 50.3819 375.347 50.2799 375.959 50.2799C376.571 50.2799 377.153 50.3819 377.705 50.5859C378.257 50.7779 378.743 51.0719 379.163 51.4679C379.583 51.8519 379.919 52.3379 380.171 52.9259C380.423 53.5139 380.549 54.1919 380.549 54.9599V55.3199C380.549 56.1359 380.423 56.8499 380.171 57.4619C379.919 58.0739 379.583 58.5839 379.163 58.9919C378.743 59.3879 378.257 59.6879 377.705 59.8919C377.153 60.0839 376.571 60.1799 375.959 60.1799ZM375.959 58.7399C376.319 58.7399 376.679 58.6799 377.039 58.5599C377.399 58.4279 377.717 58.2299 377.993 57.9659C378.269 57.6899 378.491 57.3359 378.659 56.9039C378.839 56.4719 378.929 55.9439 378.929 55.3199V54.9599C378.929 54.3839 378.839 53.8919 378.659 53.4839C378.491 53.0759 378.269 52.7399 377.993 52.4759C377.717 52.2119 377.399 52.0199 377.039 51.8999C376.679 51.7799 376.319 51.7199 375.959 51.7199C375.599 51.7199 375.239 51.7799 374.879 51.8999C374.519 52.0199 374.201 52.2119 373.925 52.4759C373.649 52.7399 373.421 53.0759 373.241 53.4839C373.073 53.8919 372.989 54.3839 372.989 54.9599V55.3199C372.989 55.9439 373.073 56.4719 373.241 56.9039C373.421 57.3359 373.649 57.6899 373.925 57.9659C374.201 58.2299 374.519 58.4279 374.879 58.5599C375.239 58.6799 375.599 58.7399 375.959 58.7399Z" fill="#001357"/>
<path d="M381.536 58.5959H382.706C382.838 58.4159 382.958 58.1399 383.066 57.7679C383.174 57.3959 383.27 56.9579 383.354 56.4539C383.438 55.9499 383.498 55.4039 383.534 54.8159C383.582 54.2159 383.606 53.6039 383.606 52.9799V50.4599H390.266V58.5959H391.616V62.2499H390.104V59.9999H383.048V62.2499H381.536V58.5959ZM388.682 58.5959V51.8639H385.154V53.3399C385.154 53.8439 385.136 54.3479 385.1 54.8519C385.064 55.3439 385.01 55.8179 384.938 56.2739C384.866 56.7179 384.776 57.1439 384.668 57.5519C384.572 57.9479 384.458 58.2959 384.326 58.5959H388.682Z" fill="#001357"/>
<path d="M761.8 47.3999H766.3C767.056 47.3999 767.704 47.4839 768.244 47.6519C768.784 47.8199 769.228 48.0539 769.576 48.3539C769.936 48.6419 770.2 48.9959 770.368 49.4159C770.536 49.8239 770.62 50.2739 770.62 50.7659C770.62 51.4139 770.44 51.9719 770.08 52.4399C769.72 52.8959 769.276 53.2259 768.748 53.4299C769.492 53.5979 770.08 53.9399 770.512 54.4559C770.944 54.9599 771.16 55.6199 771.16 56.4359C771.16 56.9519 771.076 57.4259 770.908 57.8579C770.74 58.2899 770.476 58.6679 770.116 58.9919C769.756 59.3039 769.288 59.5499 768.712 59.7299C768.148 59.9099 767.464 59.9999 766.66 59.9999H761.8V47.3999ZM766.66 58.5239C767.2 58.5239 767.65 58.4759 768.01 58.3799C768.37 58.2719 768.658 58.1279 768.874 57.9479C769.09 57.7559 769.24 57.5279 769.324 57.2639C769.42 56.9999 769.468 56.7059 769.468 56.3819C769.468 56.0579 769.42 55.7639 769.324 55.4999C769.24 55.2239 769.09 54.9959 768.874 54.8159C768.658 54.6239 768.364 54.4799 767.992 54.3839C767.632 54.2759 767.182 54.2219 766.642 54.2219H763.492V58.5239H766.66ZM766.3 52.8179C766.804 52.8179 767.224 52.7699 767.56 52.6739C767.896 52.5779 768.166 52.4399 768.37 52.2599C768.574 52.0799 768.718 51.8699 768.802 51.6299C768.886 51.3899 768.928 51.1259 768.928 50.8379C768.928 50.5499 768.886 50.2859 768.802 50.0459C768.718 49.7939 768.574 49.5839 768.37 49.4159C768.166 49.2479 767.896 49.1159 767.56 49.0199C767.224 48.9239 766.804 48.8759 766.3 48.8759H763.492V52.8179H766.3Z" fill="#001357"/>
<path d="M773.499 50.4599H775.083V54.0599H777.009C778.209 54.0599 779.091 54.3239 779.655 54.8519C780.231 55.3799 780.519 56.1119 780.519 57.0479C780.519 57.9599 780.231 58.6799 779.655 59.2079C779.091 59.7359 778.209 59.9999 777.009 59.9999H773.499V50.4599ZM776.919 58.5959C777.663 58.5959 778.185 58.4639 778.485 58.1999C778.785 57.9359 778.935 57.5459 778.935 57.0299C778.935 56.5139 778.785 56.1239 778.485 55.8599C778.185 55.5959 777.663 55.4639 776.919 55.4639H775.083V58.5959H776.919ZM781.995 50.4599H783.579V59.9999H781.995V50.4599Z" fill="#001357"/>
<path d="M789.046 55.1579L785.644 50.4599H787.48L790 53.9339L792.52 50.4599H794.284L790.882 55.0679L794.464 59.9999H792.592L789.928 56.2739L787.264 59.9999H785.464L789.046 55.1579Z" fill="#001357"/>
<path d="M799.959 60.1799C799.347 60.1799 798.765 60.0839 798.213 59.8919C797.661 59.6879 797.175 59.3879 796.755 58.9919C796.335 58.5839 795.999 58.0739 795.747 57.4619C795.495 56.8499 795.369 56.1359 795.369 55.3199V54.9599C795.369 54.1919 795.495 53.5139 795.747 52.9259C795.999 52.3379 796.335 51.8519 796.755 51.4679C797.175 51.0719 797.661 50.7779 798.213 50.5859C798.765 50.3819 799.347 50.2799 799.959 50.2799C800.571 50.2799 801.153 50.3819 801.705 50.5859C802.257 50.7779 802.743 51.0719 803.163 51.4679C803.583 51.8519 803.919 52.3379 804.171 52.9259C804.423 53.5139 804.549 54.1919 804.549 54.9599V55.3199C804.549 56.1359 804.423 56.8499 804.171 57.4619C803.919 58.0739 803.583 58.5839 803.163 58.9919C802.743 59.3879 802.257 59.6879 801.705 59.8919C801.153 60.0839 800.571 60.1799 799.959 60.1799ZM799.959 58.7399C800.319 58.7399 800.679 58.6799 801.039 58.5599C801.399 58.4279 801.717 58.2299 801.993 57.9659C802.269 57.6899 802.491 57.3359 802.659 56.9039C802.839 56.4719 802.929 55.9439 802.929 55.3199V54.9599C802.929 54.3839 802.839 53.8919 802.659 53.4839C802.491 53.0759 802.269 52.7399 801.993 52.4759C801.717 52.2119 801.399 52.0199 801.039 51.8999C800.679 51.7799 800.319 51.7199 799.959 51.7199C799.599 51.7199 799.239 51.7799 798.879 51.8999C798.519 52.0199 798.201 52.2119 797.925 52.4759C797.649 52.7399 797.421 53.0759 797.241 53.4839C797.073 53.8919 796.989 54.3839 796.989 54.9599V55.3199C796.989 55.9439 797.073 56.4719 797.241 56.9039C797.421 57.3359 797.649 57.6899 797.925 57.9659C798.201 58.2299 798.519 58.4279 798.879 58.5599C799.239 58.6799 799.599 58.7399 799.959 58.7399Z" fill="#001357"/>
<path d="M805.536 58.5959H806.706C806.838 58.4159 806.958 58.1399 807.066 57.7679C807.174 57.3959 807.27 56.9579 807.354 56.4539C807.438 55.9499 807.498 55.4039 807.534 54.8159C807.582 54.2159 807.606 53.6039 807.606 52.9799V50.4599H814.266V58.5959H815.616V62.2499H814.104V59.9999H807.048V62.2499H805.536V58.5959ZM812.682 58.5959V51.8639H809.154V53.3399C809.154 53.8439 809.136 54.3479 809.1 54.8519C809.064 55.3439 809.01 55.8179 808.938 56.2739C808.866 56.7179 808.776 57.1439 808.668 57.5519C808.572 57.9479 808.458 58.2959 808.326 58.5959H812.682Z" fill="#001357"/>
<path d="M157.8 111.4H167.7V124H166.008V112.876H159.492V124H157.8V111.4Z" fill="#0229B4"/>
<path d="M174.9 124.18C174.288 124.18 173.706 124.084 173.154 123.892C172.602 123.7 172.116 123.406 171.696 123.01C171.276 122.602 170.94 122.092 170.688 121.48C170.436 120.868 170.31 120.148 170.31 119.32V118.96C170.31 118.168 170.43 117.484 170.67 116.908C170.91 116.32 171.228 115.834 171.624 115.45C172.032 115.054 172.5 114.76 173.028 114.568C173.568 114.376 174.132 114.28 174.72 114.28C176.124 114.28 177.21 114.664 177.978 115.432C178.746 116.2 179.13 117.286 179.13 118.69V119.698H171.894C171.894 120.262 171.984 120.736 172.164 121.12C172.344 121.504 172.578 121.816 172.866 122.056C173.154 122.296 173.472 122.47 173.82 122.578C174.18 122.686 174.54 122.74 174.9 122.74C175.62 122.74 176.172 122.62 176.556 122.38C176.952 122.14 177.234 121.81 177.402 121.39H178.95C178.854 121.846 178.68 122.248 178.428 122.596C178.188 122.944 177.888 123.238 177.528 123.478C177.18 123.706 176.778 123.88 176.322 124C175.878 124.12 175.404 124.18 174.9 124.18ZM174.81 115.72C174.438 115.72 174.078 115.774 173.73 115.882C173.382 115.978 173.07 116.14 172.794 116.368C172.53 116.584 172.314 116.86 172.146 117.196C171.978 117.532 171.894 117.934 171.894 118.402H177.636C177.624 117.91 177.54 117.496 177.384 117.16C177.24 116.812 177.042 116.536 176.79 116.332C176.538 116.116 176.238 115.96 175.89 115.864C175.554 115.768 175.194 115.72 174.81 115.72Z" fill="#0229B4"/>
<path d="M181.381 114.46H182.857V116.26C183.181 115.624 183.631 115.138 184.207 114.802C184.795 114.454 185.473 114.28 186.241 114.28C187.441 114.28 188.401 114.676 189.121 115.468C189.841 116.248 190.201 117.412 190.201 118.96V119.32C190.201 120.136 190.105 120.85 189.913 121.462C189.721 122.062 189.451 122.566 189.103 122.974C188.755 123.37 188.335 123.67 187.843 123.874C187.363 124.078 186.829 124.18 186.241 124.18C185.425 124.18 184.741 124 184.189 123.64C183.649 123.28 183.241 122.83 182.965 122.29V127.6H181.381V114.46ZM185.881 122.776C186.265 122.776 186.625 122.704 186.961 122.56C187.297 122.404 187.585 122.182 187.825 121.894C188.077 121.606 188.269 121.246 188.401 120.814C188.545 120.382 188.617 119.884 188.617 119.32V118.96C188.617 118.444 188.545 117.982 188.401 117.574C188.269 117.166 188.077 116.824 187.825 116.548C187.585 116.26 187.297 116.044 186.961 115.9C186.625 115.756 186.265 115.684 185.881 115.684C185.449 115.684 185.053 115.756 184.693 115.9C184.333 116.032 184.027 116.224 183.775 116.476C183.523 116.716 183.325 117.004 183.181 117.34C183.037 117.676 182.965 118.036 182.965 118.42V119.86C182.965 120.292 183.037 120.688 183.181 121.048C183.325 121.408 183.523 121.714 183.775 121.966C184.027 122.218 184.333 122.416 184.693 122.56C185.053 122.704 185.449 122.776 185.881 122.776Z" fill="#0229B4"/>
<path d="M196.416 124.18C195.804 124.18 195.222 124.084 194.67 123.892C194.118 123.7 193.632 123.406 193.212 123.01C192.792 122.602 192.456 122.092 192.204 121.48C191.952 120.868 191.826 120.148 191.826 119.32V118.96C191.826 118.168 191.946 117.484 192.186 116.908C192.426 116.32 192.744 115.834 193.14 115.45C193.548 115.054 194.016 114.76 194.544 114.568C195.084 114.376 195.648 114.28 196.236 114.28C197.64 114.28 198.726 114.664 199.494 115.432C200.262 116.2 200.646 117.286 200.646 118.69V119.698H193.41C193.41 120.262 193.5 120.736 193.68 121.12C193.86 121.504 194.094 121.816 194.382 122.056C194.67 122.296 194.988 122.47 195.336 122.578C195.696 122.686 196.056 122.74 196.416 122.74C197.136 122.74 197.688 122.62 198.072 122.38C198.468 122.14 198.75 121.81 198.918 121.39H200.466C200.37 121.846 200.196 122.248 199.944 122.596C199.704 122.944 199.404 123.238 199.044 123.478C198.696 123.706 198.294 123.88 197.838 124C197.394 124.12 196.92 124.18 196.416 124.18ZM196.326 115.72C195.954 115.72 195.594 115.774 195.246 115.882C194.898 115.978 194.586 116.14 194.31 116.368C194.046 116.584 193.83 116.86 193.662 117.196C193.494 117.532 193.41 117.934 193.41 118.402H199.152C199.14 117.91 199.056 117.496 198.9 117.16C198.756 116.812 198.558 116.536 198.306 116.332C198.054 116.116 197.754 115.96 197.406 115.864C197.07 115.768 196.71 115.72 196.326 115.72Z" fill="#0229B4"/>
<path d="M202.897 114.46H204.589L207.991 120.4L211.393 114.46H212.977V124H211.393V117.07L208.567 121.93H207.307L204.481 117.07V124H202.897V114.46Z" fill="#0229B4"/>
<path d="M219.812 124.18C219.2 124.18 218.618 124.084 218.066 123.892C217.514 123.7 217.028 123.406 216.608 123.01C216.188 122.602 215.852 122.092 215.6 121.48C215.348 120.868 215.222 120.148 215.222 119.32V118.96C215.222 118.168 215.342 117.484 215.582 116.908C215.822 116.32 216.14 115.834 216.536 115.45C216.944 115.054 217.412 114.76 217.94 114.568C218.48 114.376 219.044 114.28 219.632 114.28C221.036 114.28 222.122 114.664 222.89 115.432C223.658 116.2 224.042 117.286 224.042 118.69V119.698H216.806C216.806 120.262 216.896 120.736 217.076 121.12C217.256 121.504 217.49 121.816 217.778 122.056C218.066 122.296 218.384 122.47 218.732 122.578C219.092 122.686 219.452 122.74 219.812 122.74C220.532 122.74 221.084 122.62 221.468 122.38C221.864 122.14 222.146 121.81 222.314 121.39H223.862C223.766 121.846 223.592 122.248 223.34 122.596C223.1 122.944 222.8 123.238 222.44 123.478C222.092 123.706 221.69 123.88 221.234 124C220.79 124.12 220.316 124.18 219.812 124.18ZM219.722 115.72C219.35 115.72 218.99 115.774 218.642 115.882C218.294 115.978 217.982 116.14 217.706 116.368C217.442 116.584 217.226 116.86 217.058 117.196C216.89 117.532 216.806 117.934 216.806 118.402H222.548C222.536 117.91 222.452 117.496 222.296 117.16C222.152 116.812 221.954 116.536 221.702 116.332C221.45 116.116 221.15 115.96 220.802 115.864C220.466 115.768 220.106 115.72 219.722 115.72Z" fill="#0229B4"/>
<path d="M226.293 114.46H227.877V118.438H232.809V114.46H234.393V124H232.809V119.842H227.877V124H226.293V114.46Z" fill="#0229B4"/>
<path d="M237.28 114.46H238.864V118.438H243.796V114.46H245.38V124H243.796V119.842H238.864V124H237.28V114.46Z" fill="#0229B4"/>
<path d="M250.984 124.18C250.456 124.18 249.988 124.108 249.58 123.964C249.184 123.808 248.848 123.598 248.572 123.334C248.296 123.07 248.086 122.758 247.942 122.398C247.798 122.038 247.726 121.642 247.726 121.21C247.726 120.262 248.002 119.578 248.554 119.158C249.118 118.738 249.922 118.528 250.966 118.528H254.062V117.88C254.062 117.064 253.876 116.5 253.504 116.188C253.144 115.876 252.598 115.72 251.866 115.72C251.182 115.72 250.684 115.852 250.372 116.116C250.06 116.368 249.886 116.656 249.85 116.98H248.266C248.29 116.596 248.392 116.242 248.572 115.918C248.764 115.582 249.016 115.294 249.328 115.054C249.652 114.814 250.036 114.628 250.48 114.496C250.924 114.352 251.416 114.28 251.956 114.28C253.084 114.28 253.978 114.55 254.638 115.09C255.31 115.618 255.646 116.488 255.646 117.7V121.57C255.646 122.074 255.646 122.518 255.646 122.902C255.658 123.274 255.688 123.64 255.736 124H254.35C254.314 123.724 254.29 123.466 254.278 123.226C254.266 122.974 254.26 122.692 254.26 122.38C254.008 122.884 253.6 123.31 253.036 123.658C252.472 124.006 251.788 124.18 250.984 124.18ZM251.326 122.74C251.698 122.74 252.046 122.692 252.37 122.596C252.706 122.488 253 122.338 253.252 122.146C253.504 121.942 253.702 121.696 253.846 121.408C253.99 121.12 254.062 120.784 254.062 120.4V119.752H251.236C250.648 119.752 250.186 119.872 249.85 120.112C249.514 120.34 249.346 120.706 249.346 121.21C249.346 121.654 249.502 122.02 249.814 122.308C250.138 122.596 250.642 122.74 251.326 122.74Z" fill="#0229B4"/>
<path d="M260.316 120.22C259.524 120.04 258.954 119.716 258.606 119.248C258.258 118.768 258.084 118.156 258.084 117.412C258.084 116.476 258.366 115.75 258.93 115.234C259.506 114.718 260.424 114.46 261.684 114.46H265.824V124H264.24V120.364H261.81L259.488 124H257.724L260.316 120.22ZM259.668 117.412C259.668 117.916 259.812 118.3 260.1 118.564C260.4 118.828 260.898 118.96 261.594 118.96H264.24V115.864H261.594C260.898 115.864 260.4 115.996 260.1 116.26C259.812 116.524 259.668 116.908 259.668 117.412Z" fill="#0229B4"/>
<path d="M566.8 111.4H568.492V116.818H569.932L574.864 111.4H576.88L571.372 117.412L577.06 124H574.9L569.932 118.222H568.492V124H566.8V111.4Z" fill="#0229B4"/>
<path d="M582.652 124.18C582.04 124.18 581.458 124.084 580.906 123.892C580.354 123.688 579.868 123.388 579.448 122.992C579.028 122.584 578.692 122.074 578.44 121.462C578.188 120.85 578.062 120.136 578.062 119.32V118.96C578.062 118.192 578.188 117.514 578.44 116.926C578.692 116.338 579.028 115.852 579.448 115.468C579.868 115.072 580.354 114.778 580.906 114.586C581.458 114.382 582.04 114.28 582.652 114.28C583.264 114.28 583.846 114.382 584.398 114.586C584.95 114.778 585.436 115.072 585.856 115.468C586.276 115.852 586.612 116.338 586.864 116.926C587.116 117.514 587.242 118.192 587.242 118.96V119.32C587.242 120.136 587.116 120.85 586.864 121.462C586.612 122.074 586.276 122.584 585.856 122.992C585.436 123.388 584.95 123.688 584.398 123.892C583.846 124.084 583.264 124.18 582.652 124.18ZM582.652 122.74C583.012 122.74 583.372 122.68 583.732 122.56C584.092 122.428 584.41 122.23 584.686 121.966C584.962 121.69 585.184 121.336 585.352 120.904C585.532 120.472 585.622 119.944 585.622 119.32V118.96C585.622 118.384 585.532 117.892 585.352 117.484C585.184 117.076 584.962 116.74 584.686 116.476C584.41 116.212 584.092 116.02 583.732 115.9C583.372 115.78 583.012 115.72 582.652 115.72C582.292 115.72 581.932 115.78 581.572 115.9C581.212 116.02 580.894 116.212 580.618 116.476C580.342 116.74 580.114 117.076 579.934 117.484C579.766 117.892 579.682 118.384 579.682 118.96V119.32C579.682 119.944 579.766 120.472 579.934 120.904C580.114 121.336 580.342 121.69 580.618 121.966C580.894 122.23 581.212 122.428 581.572 122.56C581.932 122.68 582.292 122.74 582.652 122.74Z" fill="#0229B4"/>
<path d="M589.485 114.46H591.069V118.438H596.001V114.46H597.585V124H596.001V119.842H591.069V124H589.485V114.46Z" fill="#0229B4"/>
<path d="M604.161 124.18C603.549 124.18 602.979 124.084 602.451 123.892C601.923 123.688 601.467 123.388 601.083 122.992C600.699 122.584 600.393 122.074 600.165 121.462C599.949 120.85 599.841 120.136 599.841 119.32V118.96C599.841 118.192 599.961 117.514 600.201 116.926C600.441 116.338 600.759 115.852 601.155 115.468C601.551 115.072 602.007 114.778 602.523 114.586C603.051 114.382 603.597 114.28 604.161 114.28C604.725 114.28 605.229 114.358 605.673 114.514C606.129 114.67 606.519 114.886 606.843 115.162C607.179 115.438 607.449 115.762 607.653 116.134C607.869 116.506 608.025 116.908 608.121 117.34H606.501C606.405 117.112 606.291 116.902 606.159 116.71C606.039 116.506 605.883 116.332 605.691 116.188C605.511 116.044 605.295 115.93 605.043 115.846C604.791 115.762 604.497 115.72 604.161 115.72C603.813 115.72 603.477 115.786 603.153 115.918C602.829 116.038 602.541 116.23 602.289 116.494C602.037 116.746 601.833 117.076 601.677 117.484C601.533 117.892 601.461 118.384 601.461 118.96V119.32C601.461 119.932 601.533 120.46 601.677 120.904C601.833 121.336 602.037 121.69 602.289 121.966C602.541 122.23 602.829 122.428 603.153 122.56C603.477 122.68 603.813 122.74 604.161 122.74C604.749 122.74 605.241 122.596 605.637 122.308C606.045 122.02 606.333 121.624 606.501 121.12H608.121C607.893 122.068 607.425 122.818 606.717 123.37C606.009 123.91 605.157 124.18 604.161 124.18Z" fill="#0229B4"/>
<path d="M612.458 115.864H609.2V114.46H617.3V115.864H614.042V124H612.458V115.864Z" fill="#0229B4"/>
<path d="M621.47 124.18C620.942 124.18 620.474 124.108 620.066 123.964C619.67 123.808 619.334 123.598 619.058 123.334C618.782 123.07 618.572 122.758 618.428 122.398C618.284 122.038 618.212 121.642 618.212 121.21C618.212 120.262 618.488 119.578 619.04 119.158C619.604 118.738 620.408 118.528 621.452 118.528H624.548V117.88C624.548 117.064 624.362 116.5 623.99 116.188C623.63 115.876 623.084 115.72 622.352 115.72C621.668 115.72 621.17 115.852 620.858 116.116C620.546 116.368 620.372 116.656 620.336 116.98H618.752C618.776 116.596 618.878 116.242 619.058 115.918C619.25 115.582 619.502 115.294 619.814 115.054C620.138 114.814 620.522 114.628 620.966 114.496C621.41 114.352 621.902 114.28 622.442 114.28C623.57 114.28 624.464 114.55 625.124 115.09C625.796 115.618 626.132 116.488 626.132 117.7V121.57C626.132 122.074 626.132 122.518 626.132 122.902C626.144 123.274 626.174 123.64 626.222 124H624.836C624.8 123.724 624.776 123.466 624.764 123.226C624.752 122.974 624.746 122.692 624.746 122.38C624.494 122.884 624.086 123.31 623.522 123.658C622.958 124.006 622.274 124.18 621.47 124.18ZM621.812 122.74C622.184 122.74 622.532 122.692 622.856 122.596C623.192 122.488 623.486 122.338 623.738 122.146C623.99 121.942 624.188 121.696 624.332 121.408C624.476 121.12 624.548 120.784 624.548 120.4V119.752H621.722C621.134 119.752 620.672 119.872 620.336 120.112C620 120.34 619.832 120.706 619.832 121.21C619.832 121.654 619.988 122.02 620.3 122.308C620.624 122.596 621.128 122.74 621.812 122.74Z" fill="#0229B4"/>
<path d="M628.93 114.46H630.514V118.438H635.446V114.46H637.03V124H635.446V119.842H630.514V124H628.93V114.46Z" fill="#0229B4"/>
<path d="M642.635 124.18C642.107 124.18 641.639 124.108 641.231 123.964C640.835 123.808 640.499 123.598 640.223 123.334C639.947 123.07 639.737 122.758 639.593 122.398C639.449 122.038 639.377 121.642 639.377 121.21C639.377 120.262 639.653 119.578 640.205 119.158C640.769 118.738 641.573 118.528 642.617 118.528H645.713V117.88C645.713 117.064 645.527 116.5 645.155 116.188C644.795 115.876 644.249 115.72 643.517 115.72C642.833 115.72 642.335 115.852 642.023 116.116C641.711 116.368 641.536 116.656 641.5 116.98H639.917C639.941 116.596 640.043 116.242 640.223 115.918C640.415 115.582 640.667 115.294 640.979 115.054C641.303 114.814 641.686 114.628 642.13 114.496C642.574 114.352 643.067 114.28 643.607 114.28C644.735 114.28 645.629 114.55 646.289 115.09C646.961 115.618 647.297 116.488 647.297 117.7V121.57C647.297 122.074 647.297 122.518 647.297 122.902C647.309 123.274 647.339 123.64 647.387 124H646C645.964 123.724 645.941 123.466 645.929 123.226C645.917 122.974 645.911 122.692 645.911 122.38C645.659 122.884 645.251 123.31 644.687 123.658C644.123 124.006 643.439 124.18 642.635 124.18ZM642.977 122.74C643.349 122.74 643.697 122.692 644.021 122.596C644.357 122.488 644.651 122.338 644.903 122.146C645.155 121.942 645.353 121.696 645.497 121.408C645.641 121.12 645.713 120.784 645.713 120.4V119.752H642.887C642.299 119.752 641.836 119.872 641.5 120.112C641.164 120.34 640.997 120.706 640.997 121.21C640.997 121.654 641.153 122.02 641.465 122.308C641.789 122.596 642.293 122.74 642.977 122.74Z" fill="#0229B4"/>
<path d="M652.096 115.864H648.839V114.46H656.938V115.864H653.68V124H652.096V115.864Z" fill="#0229B4"/>
<path d="M661.109 124.18C660.581 124.18 660.113 124.108 659.705 123.964C659.309 123.808 658.973 123.598 658.697 123.334C658.421 123.07 658.211 122.758 658.067 122.398C657.923 122.038 657.851 121.642 657.851 121.21C657.851 120.262 658.127 119.578 658.679 119.158C659.243 118.738 660.047 118.528 661.091 118.528H664.187V117.88C664.187 117.064 664.001 116.5 663.629 116.188C663.269 115.876 662.723 115.72 661.991 115.72C661.307 115.72 660.809 115.852 660.497 116.116C660.185 116.368 660.011 116.656 659.975 116.98H658.391C658.415 116.596 658.517 116.242 658.697 115.918C658.889 115.582 659.141 115.294 659.453 115.054C659.777 114.814 660.161 114.628 660.605 114.496C661.049 114.352 661.541 114.28 662.081 114.28C663.209 114.28 664.103 114.55 664.763 115.09C665.435 115.618 665.771 116.488 665.771 117.7V121.57C665.771 122.074 665.771 122.518 665.771 122.902C665.783 123.274 665.813 123.64 665.861 124H664.475C664.439 123.724 664.415 123.466 664.403 123.226C664.391 122.974 664.385 122.692 664.385 122.38C664.133 122.884 663.725 123.31 663.161 123.658C662.597 124.006 661.913 124.18 661.109 124.18ZM661.451 122.74C661.823 122.74 662.171 122.692 662.495 122.596C662.831 122.488 663.125 122.338 663.377 122.146C663.629 121.942 663.827 121.696 663.971 121.408C664.115 121.12 664.187 120.784 664.187 120.4V119.752H661.361C660.773 119.752 660.311 119.872 659.975 120.112C659.639 120.34 659.471 120.706 659.471 121.21C659.471 121.654 659.627 122.02 659.939 122.308C660.263 122.596 660.767 122.74 661.451 122.74Z" fill="#0229B4"/>
<path d="M196.8 65.3999H201.3C202.056 65.3999 202.704 65.4839 203.244 65.6519C203.784 65.8199 204.228 66.0539 204.576 66.3539C204.936 66.6419 205.2 66.9959 205.368 67.4159C205.536 67.8239 205.62 68.2739 205.62 68.7659C205.62 69.4139 205.44 69.9719 205.08 70.4399C204.72 70.8959 204.276 71.2259 203.748 71.4299C204.492 71.5979 205.08 71.9399 205.512 72.4559C205.944 72.9599 206.16 73.6199 206.16 74.4359C206.16 74.9519 206.076 75.4259 205.908 75.8579C205.74 76.2899 205.476 76.6679 205.116 76.9919C204.756 77.3039 204.288 77.5499 203.712 77.7299C203.148 77.9099 202.464 77.9999 201.66 77.9999H196.8V65.3999ZM201.66 76.5239C202.2 76.5239 202.65 76.4759 203.01 76.3799C203.37 76.2719 203.658 76.1279 203.874 75.9479C204.09 75.7559 204.24 75.5279 204.324 75.2639C204.42 74.9999 204.468 74.7059 204.468 74.3819C204.468 74.0579 204.42 73.7639 204.324 73.4999C204.24 73.2239 204.09 72.9959 203.874 72.8159C203.658 72.6239 203.364 72.4799 202.992 72.3839C202.632 72.2759 202.182 72.2219 201.642 72.2219H198.492V76.5239H201.66ZM201.3 70.8179C201.804 70.8179 202.224 70.7699 202.56 70.6739C202.896 70.5779 203.166 70.4399 203.37 70.2599C203.574 70.0799 203.718 69.8699 203.802 69.6299C203.886 69.3899 203.928 69.1259 203.928 68.8379C203.928 68.5499 203.886 68.2859 203.802 68.0459C203.718 67.7939 203.574 67.5839 203.37 67.4159C203.166 67.2479 202.896 67.1159 202.56 67.0199C202.224 66.9239 201.804 66.8759 201.3 66.8759H198.492V70.8179H201.3Z" fill="#0229B4"/>
<path d="M215.365 74.8679H210.037L208.831 77.9999H207.067L211.891 65.3999H213.583L218.407 77.9999H216.571L215.365 74.8679ZM210.595 73.3919H214.807L212.701 67.5599L210.595 73.3919Z" fill="#0229B4"/>
<path d="M219.756 76.5239H222.762V67.2539L219.756 69.3959V67.5599L222.798 65.3999H224.49V76.5239H226.956V77.9999H219.756V76.5239Z" fill="#0229B4"/>
<path d="M601.734 66.8759H597.36V65.3999H607.8V66.8759H603.426V77.9999H601.734V66.8759Z" fill="#0229B4"/>
<path d="M607.985 68.4599H609.461V70.2599C609.665 69.6959 610.001 69.2279 610.469 68.8559C610.949 68.4719 611.531 68.2799 612.215 68.2799C612.455 68.2799 612.647 68.2919 612.791 68.3159C612.947 68.3399 613.085 68.3699 613.205 68.4059V69.8819C613.049 69.8219 612.893 69.7799 612.737 69.7559C612.593 69.7319 612.389 69.7199 612.125 69.7199C611.765 69.7199 611.429 69.7859 611.117 69.9179C610.805 70.0499 610.535 70.2359 610.307 70.4759C610.079 70.7039 609.899 70.9859 609.767 71.3219C609.635 71.6579 609.569 72.0239 609.569 72.4199V77.9999H607.985V68.4599Z" fill="#0229B4"/>
<path d="M618.365 78.1799C617.213 78.1799 616.349 77.8499 615.773 77.1899C615.197 76.5299 614.909 75.5099 614.909 74.1299V68.4599H616.493V74.0399C616.493 74.9279 616.673 75.5999 617.033 76.0559C617.405 76.5119 618.005 76.7399 618.833 76.7399C619.277 76.7399 619.661 76.6619 619.985 76.5059C620.321 76.3499 620.591 76.1459 620.795 75.8939C621.011 75.6419 621.167 75.3539 621.263 75.0299C621.371 74.7059 621.425 74.3759 621.425 74.0399V68.4599H623.009V77.9999H621.533V76.1999C621.425 76.4639 621.275 76.7159 621.083 76.9559C620.903 77.1959 620.675 77.4059 620.399 77.5859C620.135 77.7659 619.829 77.9099 619.481 78.0179C619.145 78.1259 618.773 78.1799 618.365 78.1799Z" fill="#0229B4"/>
<path d="M629.857 78.1799C629.245 78.1799 628.663 78.0839 628.111 77.8919C627.559 77.6999 627.073 77.4059 626.653 77.0099C626.233 76.6019 625.897 76.0919 625.645 75.4799C625.393 74.8679 625.267 74.1479 625.267 73.3199V72.9599C625.267 72.1679 625.387 71.4839 625.627 70.9079C625.867 70.3199 626.185 69.8339 626.581 69.4499C626.989 69.0539 627.457 68.7599 627.985 68.5679C628.525 68.3759 629.089 68.2799 629.677 68.2799C631.081 68.2799 632.167 68.6639 632.935 69.4319C633.703 70.1999 634.087 71.2859 634.087 72.6899V73.6979H626.851C626.851 74.2619 626.941 74.7359 627.121 75.1199C627.301 75.5039 627.535 75.8159 627.823 76.0559C628.111 76.2959 628.429 76.4699 628.777 76.5779C629.137 76.6859 629.497 76.7399 629.857 76.7399C630.577 76.7399 631.129 76.6199 631.513 76.3799C631.909 76.1399 632.191 75.8099 632.359 75.3899H633.907C633.811 75.8459 633.637 76.2479 633.385 76.5959C633.145 76.9439 632.845 77.2379 632.485 77.4779C632.137 77.7059 631.735 77.8799 631.279 77.9999C630.835 78.1199 630.361 78.1799 629.857 78.1799ZM629.767 69.7199C629.395 69.7199 629.035 69.7739 628.687 69.8819C628.339 69.9779 628.027 70.1399 627.751 70.3679C627.487 70.5839 627.271 70.8599 627.103 71.1959C626.935 71.5319 626.851 71.9339 626.851 72.4019H632.593C632.581 71.9099 632.497 71.4959 632.341 71.1599C632.197 70.8119 631.999 70.5359 631.747 70.3319C631.495 70.1159 631.195 69.9599 630.847 69.8639C630.511 69.7679 630.151 69.7199 629.767 69.7199Z" fill="#0229B4"/>
<path fill-rule="evenodd" clip-rule="evenodd" d="M440 136V24L441 24V136H440Z" fill="#D0D4E3"/>
</svg>
