<svg width="880" height="160" fill="none" xmlns="http://www.w3.org/2000/svg"><path d="M0 0h880v160H0V0z" fill="#fff"/><path fill-rule="evenodd" clip-rule="evenodd" d="M259.2 50h-95.4c-.873 0-1.408.002-1.808.034a2.562 2.562 0 0 0-.367.05.5.5 0 0 0-.079.025 1.001 1.001 0 0 0-.437.437s-.003.005-.006.016a.444.444 0 0 0-.018.063 2.526 2.526 0 0 0-.051.367c-.032.4-.034.935-.034 1.808v38.4c0 .873.002 1.408.034 1.807.015.187.035.3.051.368a.444.444 0 0 0 .018.063l.006.016a1.001 1.001 0 0 0 .453.443.5.5 0 0 0 .063.018c.068.016.181.036.367.05.4.033.935.035 1.808.035h95.4c.873 0 1.408-.002 1.808-.034.186-.015.299-.035.367-.05a.5.5 0 0 0 .063-.019l.008-.002.008-.004c.188-.096.341-.249.437-.437 0 0 .003-.005.006-.016a.444.444 0 0 0 .018-.063c.016-.069.036-.181.051-.368.032-.4.034-.934.034-1.807V52.8c0-.873-.002-1.408-.034-1.807a2.526 2.526 0 0 0-.051-.368.444.444 0 0 0-.018-.063l-.006-.016a1.001 1.001 0 0 0-.437-.437s-.005-.003-.016-.006a.5.5 0 0 0-.063-.018 2.562 2.562 0 0 0-.367-.05c-.4-.033-.935-.035-1.808-.035zm-99.873-.362C159 50.28 159 51.12 159 52.8v38.4c0 1.68 0 2.52.327 3.162a3.004 3.004 0 0 0 1.311 1.311c.642.327 1.482.327 3.162.327h95.4c1.68 0 2.52 0 3.162-.327a3.004 3.004 0 0 0 1.311-1.311C264 93.72 264 92.88 264 91.2V52.8c0-1.68 0-2.52-.327-3.162a3.004 3.004 0 0 0-1.311-1.311C261.72 48 260.88 48 259.2 48h-95.4c-1.68 0-2.52 0-3.162.327a3.004 3.004 0 0 0-1.311 1.311zM691.2 50H540.8c-.873 0-1.408.002-1.808.034a2.562 2.562 0 0 0-.367.05.5.5 0 0 0-.079.025 1.001 1.001 0 0 0-.437.437s-.003.005-.006.016a.444.444 0 0 0-.018.063 2.526 2.526 0 0 0-.051.367c-.032.4-.034.935-.034 1.808v38.4c0 .873.002 1.408.034 1.807.015.187.035.3.051.368a.444.444 0 0 0 .018.063l.006.016a1.001 1.001 0 0 0 .453.443.5.5 0 0 0 .063.018c.068.016.181.036.367.05.4.033.935.035 1.808.035h150.4c.873 0 1.408-.002 1.808-.034a2.548 2.548 0 0 0 .413-.063.264.264 0 0 0 .017-.006 1.001 1.001 0 0 0 .453-.443s.003-.005.006-.016a.444.444 0 0 0 .018-.063c.016-.069.036-.181.051-.368.032-.4.034-.934.034-1.807V52.8c0-.873-.002-1.408-.034-1.807a2.526 2.526 0 0 0-.051-.368.444.444 0 0 0-.018-.063l-.005-.014-.001-.002a1.001 1.001 0 0 0-.437-.437s-.005-.003-.016-.006a.5.5 0 0 0-.063-.018 2.562 2.562 0 0 0-.367-.05c-.4-.033-.935-.035-1.808-.035zm-154.873-.362C536 50.28 536 51.12 536 52.8v38.4c0 1.68 0 2.52.327 3.162a3.004 3.004 0 0 0 1.311 1.311c.642.327 1.482.327 3.162.327h150.4c1.68 0 2.52 0 3.162-.327a3.004 3.004 0 0 0 1.311-1.311C696 93.72 696 92.88 696 91.2V52.8c0-1.68 0-2.52-.327-3.162a3.004 3.004 0 0 0-1.311-1.311C693.72 48 692.88 48 691.2 48H540.8c-1.68 0-2.52 0-3.162.327a3.004 3.004 0 0 0-1.311 1.311zM312 72h-48v-2h48v2zM744 72h-48v-2h48v2zM159 72h-48v-2h48v2z" fill="#0229B4"/><path d="M25.8 47.4h4.5c.756 0 1.404.084 1.944.252.54.168.984.402 1.332.702.36.288.624.642.792 1.062.168.408.252.858.252 1.35 0 .648-.18 1.206-.54 1.674-.36.456-.804.786-1.332.99.744.168 1.332.51 1.764 1.026.432.504.648 1.164.648 1.98 0 .516-.084.99-.252 1.422a2.95 2.95 0 0 1-.792 1.134c-.36.312-.828.558-1.404.738-.564.18-1.248.27-2.052.27H25.8V47.4zm4.86 11.124c.54 0 .99-.048 1.35-.144.36-.108.648-.252.864-.432a1.52 1.52 0 0 0 .45-.684c.096-.264.144-.558.144-.882 0-.324-.048-.618-.144-.882a1.401 1.401 0 0 0-.45-.684c-.216-.192-.51-.336-.882-.432-.36-.108-.81-.162-1.35-.162h-3.15v4.302h3.168zm-.36-5.706c.504 0 .924-.048 1.26-.144.336-.096.606-.234.81-.414.204-.18.348-.39.432-.63.084-.24.126-.504.126-.792 0-.288-.042-.552-.126-.792a1.355 1.355 0 0 0-.432-.63c-.204-.168-.474-.3-.81-.396-.336-.096-.756-.144-1.26-.144h-2.808v3.942H30.3zM39.915 55.158l-3.402-4.698h1.836l2.52 3.474 2.52-3.474h1.764l-3.402 4.608L45.333 60H43.46l-2.664-3.726L38.133 60h-1.8l3.582-4.842zM50.828 60.18a5.277 5.277 0 0 1-1.746-.288 4.249 4.249 0 0 1-1.458-.9 4.474 4.474 0 0 1-1.008-1.53c-.252-.612-.378-1.326-.378-2.142v-.36c0-.768.126-1.446.378-2.034a4.164 4.164 0 0 1 2.466-2.34 4.996 4.996 0 0 1 1.746-.306c.612 0 1.194.102 1.746.306a4.164 4.164 0 0 1 2.466 2.34c.252.588.378 1.266.378 2.034v.36c0 .816-.126 1.53-.378 2.142a4.474 4.474 0 0 1-1.008 1.53c-.42.396-.906.696-1.458.9a5.277 5.277 0 0 1-1.746.288zm0-1.44c.36 0 .72-.06 1.08-.18.36-.132.678-.33.954-.594a3.03 3.03 0 0 0 .666-1.062c.18-.432.27-.96.27-1.584v-.36c0-.576-.09-1.068-.27-1.476a2.898 2.898 0 0 0-.666-1.008 2.515 2.515 0 0 0-.954-.576c-.36-.12-.72-.18-1.08-.18-.36 0-.72.06-1.08.18-.36.12-.678.312-.954.576-.276.264-.504.6-.684 1.008-.168.408-.252.9-.252 1.476v.36c0 .624.084 1.152.252 1.584.18.432.408.786.684 1.062.276.264.594.462.954.594.36.12.72.18 1.08.18zM56.405 58.596h1.17c.132-.18.252-.456.36-.828.108-.372.204-.81.288-1.314.084-.504.144-1.05.18-1.638.048-.6.072-1.212.072-1.836v-2.52h6.66v8.136h1.35v3.654h-1.512V60h-7.056v2.25h-1.512v-3.654zm7.146 0v-6.732h-3.528v1.476c0 .504-.018 1.008-.054 1.512-.036.492-.09.966-.162 1.422-.072.444-.162.87-.27 1.278a6.27 6.27 0 0 1-.342 1.044h4.356z" fill="#001357"/><path d="M29.778 87.18c-.744 0-1.404-.09-1.98-.27a4.566 4.566 0 0 1-1.476-.792 3.85 3.85 0 0 1-.972-1.188 4.097 4.097 0 0 1-.432-1.53h1.692c.096.684.42 1.236.972 1.656.552.408 1.284.612 2.196.612 1.116 0 1.92-.198 2.412-.594.504-.396.756-.93.756-1.602 0-.648-.24-1.182-.72-1.602-.48-.432-1.266-.648-2.358-.648h-1.71v-1.404h1.71c.9 0 1.56-.192 1.98-.576a1.94 1.94 0 0 0 .648-1.494c0-.6-.228-1.086-.684-1.458-.456-.372-1.134-.558-2.034-.558-.96 0-1.668.186-2.124.558-.444.36-.702.84-.774 1.44h-1.692c.048-.504.174-.972.378-1.404.216-.432.516-.804.9-1.116a4.084 4.084 0 0 1 1.404-.72c.552-.18 1.188-.27 1.908-.27 1.452 0 2.55.324 3.294.972.744.648 1.116 1.5 1.116 2.556 0 .66-.192 1.224-.576 1.692-.372.456-.87.786-1.494.99.756.18 1.362.528 1.818 1.044.468.516.702 1.182.702 1.998 0 .54-.108 1.038-.324 1.494a3.211 3.211 0 0 1-.936 1.17c-.408.324-.912.582-1.512.774-.6.18-1.296.27-2.088.27zM39.672 87.18c-.528 0-.996-.072-1.404-.216a3.062 3.062 0 0 1-1.008-.63 2.632 2.632 0 0 1-.63-.936 3.171 3.171 0 0 1-.216-1.188c0-.948.276-1.632.828-2.052.564-.42 1.368-.63 2.412-.63h3.096v-.648c0-.816-.186-1.38-.558-1.692-.36-.312-.906-.468-1.638-.468-.684 0-1.182.132-1.494.396-.312.252-.486.54-.522.864h-1.584c.024-.384.126-.738.306-1.062a2.89 2.89 0 0 1 .756-.864c.324-.24.708-.426 1.152-.558a4.766 4.766 0 0 1 1.476-.216c1.128 0 2.022.27 2.682.81.672.528 1.008 1.398 1.008 2.61v5.202c.012.372.042.738.09 1.098h-1.386a9.786 9.786 0 0 1-.072-.774 17.934 17.934 0 0 1-.018-.846c-.252.504-.66.93-1.224 1.278s-1.248.522-2.052.522zm.342-1.44c.372 0 .72-.048 1.044-.144.336-.108.63-.258.882-.45.252-.204.45-.45.594-.738.144-.288.216-.624.216-1.008v-.648h-2.826c-.588 0-1.05.12-1.386.36-.336.228-.504.594-.504 1.098 0 .444.156.81.468 1.098.324.288.828.432 1.512.432zM47.131 77.46h7.92V87h-1.584v-8.136h-4.752V87h-1.584v-9.54zM57.924 77.46h1.584v7.2l4.932-7.2h1.584V87H64.44v-7.2L59.508 87h-1.584v-9.54zM72.6 87.18a4.967 4.967 0 0 1-1.71-.288 3.776 3.776 0 0 1-1.367-.9c-.384-.408-.69-.918-.918-1.53-.216-.612-.324-1.326-.324-2.142v-.36c0-.768.12-1.446.36-2.034.24-.588.558-1.074.954-1.458.396-.396.852-.69 1.368-.882a4.507 4.507 0 0 1 1.638-.306c.564 0 1.068.078 1.512.234.456.156.846.372 1.17.648.336.276.606.6.81.972a4.2 4.2 0 0 1 .468 1.206h-1.62a3.517 3.517 0 0 0-.342-.63 1.767 1.767 0 0 0-.468-.522 2.078 2.078 0 0 0-.648-.342 2.792 2.792 0 0 0-.882-.126c-.348 0-.684.066-1.008.198a2.28 2.28 0 0 0-.864.576c-.252.252-.456.582-.612.99-.144.408-.216.9-.216 1.476v.36c0 .612.072 1.14.216 1.584.156.432.36.786.612 1.062.252.264.54.462.864.594.324.12.66.18 1.008.18.588 0 1.08-.144 1.476-.432a2.3 2.3 0 0 0 .864-1.188h1.62c-.228.948-.696 1.698-1.404 2.25-.708.54-1.56.81-2.556.81zM78.72 77.46h1.583v3.6h2.286c1.2 0 2.082.264 2.646.792.576.528.864 1.26.864 2.196 0 .912-.288 1.632-.864 2.16-.564.528-1.446.792-2.646.792h-3.87v-9.54zm3.78 8.136c.743 0 1.265-.132 1.565-.396.3-.264.45-.654.45-1.17 0-.516-.15-.906-.45-1.17-.3-.264-.822-.396-1.566-.396h-2.196v3.132H82.5zM344.568 81.456c-.312.204-.75.39-1.314.558-.564.168-1.212.252-1.944.252-1.476 0-2.55-.33-3.222-.99-.672-.672-1.008-1.734-1.008-3.186V74.4h1.692v3.69c0 .948.21 1.632.63 2.052.42.408 1.116.612 2.088.612.744 0 1.362-.09 1.854-.27.504-.18.912-.372 1.224-.576V74.4h1.692V87h-1.692v-5.544zM351.677 78.864h-3.258V77.46h8.1v1.404h-3.258V87h-1.584v-8.136zM362.107 87.18a5.277 5.277 0 0 1-1.746-.288 4.03 4.03 0 0 1-1.458-.882 4.474 4.474 0 0 1-1.008-1.53c-.252-.612-.378-1.332-.378-2.16v-.36c0-.792.12-1.476.36-2.052.24-.588.558-1.074.954-1.458.408-.396.876-.69 1.404-.882a5.013 5.013 0 0 1 1.692-.288c1.404 0 2.49.384 3.258 1.152.768.768 1.152 1.854 1.152 3.258v1.008h-7.236c0 .564.09 1.038.27 1.422a2.67 2.67 0 0 0 1.656 1.458c.36.108.72.162 1.08.162.72 0 1.272-.12 1.656-.36.396-.24.678-.57.846-.99h1.548c-.096.456-.27.858-.522 1.206-.24.348-.54.642-.9.882-.348.228-.75.402-1.206.522a5.43 5.43 0 0 1-1.422.18zm-.09-8.46c-.372 0-.732.054-1.08.162a2.49 2.49 0 0 0-1.584 1.314c-.168.336-.252.738-.252 1.206h5.742c-.012-.492-.096-.906-.252-1.242a2.045 2.045 0 0 0-.594-.828 2.302 2.302 0 0 0-.9-.468 3.915 3.915 0 0 0-1.08-.144zM368.588 77.46h1.584v3.978h4.932V77.46h1.584V87h-1.584v-4.158h-4.932V87h-1.584v-9.54zM379.575 77.46h1.584v7.2l4.932-7.2h1.584V87h-1.584v-7.2l-4.932 7.2h-1.584v-9.54zM394.521 87.18a5.277 5.277 0 0 1-1.746-.288 4.03 4.03 0 0 1-1.458-.882 4.474 4.474 0 0 1-1.008-1.53c-.252-.612-.378-1.332-.378-2.16v-.36c0-.792.12-1.476.36-2.052.24-.588.558-1.074.954-1.458.408-.396.876-.69 1.404-.882a5.013 5.013 0 0 1 1.692-.288c1.404 0 2.49.384 3.258 1.152.768.768 1.152 1.854 1.152 3.258v1.008h-7.236c0 .564.09 1.038.27 1.422a2.67 2.67 0 0 0 1.656 1.458c.36.108.72.162 1.08.162.72 0 1.272-.12 1.656-.36.396-.24.678-.57.846-.99h1.548c-.096.456-.27.858-.522 1.206-.24.348-.54.642-.9.882-.348.228-.75.402-1.206.522a5.43 5.43 0 0 1-1.422.18zm-.09-8.46c-.372 0-.732.054-1.08.162a2.49 2.49 0 0 0-1.584 1.314c-.168.336-.252.738-.252 1.206h5.742c-.012-.492-.096-.906-.252-1.242a2.045 2.045 0 0 0-.594-.828 2.302 2.302 0 0 0-.9-.468 3.915 3.915 0 0 0-1.08-.144zM768.568 81.456c-.312.204-.75.39-1.314.558-.564.168-1.212.252-1.944.252-1.476 0-2.55-.33-3.222-.99-.672-.672-1.008-1.734-1.008-3.186V74.4h1.692v3.69c0 .948.21 1.632.63 2.052.42.408 1.116.612 2.088.612.744 0 1.362-.09 1.854-.27.504-.18.912-.372 1.224-.576V74.4h1.692V87h-1.692v-5.544zM775.677 78.864h-3.258V77.46h8.099v1.404h-3.258V87h-1.583v-8.136zM786.107 87.18a5.277 5.277 0 0 1-1.746-.288 4.03 4.03 0 0 1-1.458-.882 4.474 4.474 0 0 1-1.008-1.53c-.252-.612-.378-1.332-.378-2.16v-.36c0-.792.12-1.476.36-2.052.24-.588.558-1.074.954-1.458.408-.396.876-.69 1.404-.882a5.013 5.013 0 0 1 1.692-.288c1.404 0 2.49.384 3.258 1.152.768.768 1.152 1.854 1.152 3.258v1.008h-7.236c0 .564.09 1.038.27 1.422a2.67 2.67 0 0 0 1.656 1.458c.36.108.72.162 1.08.162.72 0 1.272-.12 1.656-.36.396-.24.678-.57.846-.99h1.548c-.096.456-.27.858-.522 1.206-.24.348-.54.642-.9.882-.348.228-.75.402-1.206.522a5.43 5.43 0 0 1-1.422.18zm-.09-8.46c-.372 0-.732.054-1.08.162a2.49 2.49 0 0 0-1.584 1.314c-.168.336-.252.738-.252 1.206h5.742c-.012-.492-.096-.906-.252-1.242a2.045 2.045 0 0 0-.594-.828 2.302 2.302 0 0 0-.9-.468 3.915 3.915 0 0 0-1.08-.144zM792.588 77.46h1.584v3.978h4.932V77.46h1.584V87h-1.584v-4.158h-4.932V87h-1.584v-9.54zM803.575 77.46h1.584v7.2l4.932-7.2h1.584V87h-1.584v-7.2l-4.932 7.2h-1.584v-9.54zM818.521 87.18a5.277 5.277 0 0 1-1.746-.288 4.03 4.03 0 0 1-1.458-.882 4.474 4.474 0 0 1-1.008-1.53c-.252-.612-.378-1.332-.378-2.16v-.36c0-.792.12-1.476.36-2.052.24-.588.558-1.074.954-1.458.408-.396.876-.69 1.404-.882a5.013 5.013 0 0 1 1.692-.288c1.404 0 2.49.384 3.258 1.152.768.768 1.152 1.854 1.152 3.258v1.008h-7.236c0 .564.09 1.038.27 1.422a2.67 2.67 0 0 0 1.656 1.458c.36.108.72.162 1.08.162.72 0 1.272-.12 1.656-.36.396-.24.678-.57.846-.99h1.548c-.096.456-.27.858-.522 1.206-.24.348-.54.642-.9.882-.348.228-.75.402-1.206.522a5.43 5.43 0 0 1-1.422.18zm-.09-8.46c-.372 0-.732.054-1.08.162a2.49 2.49 0 0 0-1.584 1.314c-.168.336-.252.738-.252 1.206h5.742c-.012-.492-.096-.906-.252-1.242a2.045 2.045 0 0 0-.594-.828 2.302 2.302 0 0 0-.9-.468 3.915 3.915 0 0 0-1.08-.144z" fill="#01764C"/><path d="M337.8 47.4h4.5c.756 0 1.404.084 1.944.252.54.168.984.402 1.332.702.36.288.624.642.792 1.062.168.408.252.858.252 1.35 0 .648-.18 1.206-.54 1.674-.36.456-.804.786-1.332.99.744.168 1.332.51 1.764 1.026.432.504.648 1.164.648 1.98 0 .516-.084.99-.252 1.422a2.95 2.95 0 0 1-.792 1.134c-.36.312-.828.558-1.404.738-.564.18-1.248.27-2.052.27h-4.86V47.4zm4.86 11.124c.54 0 .99-.048 1.35-.144.36-.108.648-.252.864-.432a1.52 1.52 0 0 0 .45-.684c.096-.264.144-.558.144-.882 0-.324-.048-.618-.144-.882a1.401 1.401 0 0 0-.45-.684c-.216-.192-.51-.336-.882-.432-.36-.108-.81-.162-1.35-.162h-3.15v4.302h3.168zm-.36-5.706c.504 0 .924-.048 1.26-.144.336-.096.606-.234.81-.414.204-.18.348-.39.432-.63.084-.24.126-.504.126-.792 0-.288-.042-.552-.126-.792a1.355 1.355 0 0 0-.432-.63c-.204-.168-.474-.3-.81-.396-.336-.096-.756-.144-1.26-.144h-2.808v3.942h2.808zM349.499 50.46h1.584v3.6h1.926c1.2 0 2.082.264 2.646.792.576.528.864 1.26.864 2.196 0 .912-.288 1.632-.864 2.16-.564.528-1.446.792-2.646.792h-3.51v-9.54zm3.42 8.136c.744 0 1.266-.132 1.566-.396.3-.264.45-.654.45-1.17 0-.516-.15-.906-.45-1.17-.3-.264-.822-.396-1.566-.396h-1.836v3.132h1.836zm5.076-8.136h1.584V60h-1.584v-9.54zM365.046 55.158l-3.402-4.698h1.836l2.52 3.474 2.52-3.474h1.764l-3.402 4.608L370.464 60h-1.872l-2.664-3.726L363.264 60h-1.8l3.582-4.842zM375.959 60.18a5.277 5.277 0 0 1-1.746-.288 4.249 4.249 0 0 1-1.458-.9 4.474 4.474 0 0 1-1.008-1.53c-.252-.612-.378-1.326-.378-2.142v-.36c0-.768.126-1.446.378-2.034a4.164 4.164 0 0 1 2.466-2.34 4.996 4.996 0 0 1 1.746-.306c.612 0 1.194.102 1.746.306a4.164 4.164 0 0 1 2.466 2.34c.252.588.378 1.266.378 2.034v.36c0 .816-.126 1.53-.378 2.142a4.474 4.474 0 0 1-1.008 1.53c-.42.396-.906.696-1.458.9a5.277 5.277 0 0 1-1.746.288zm0-1.44c.36 0 .72-.06 1.08-.18.36-.132.678-.33.954-.594a3.03 3.03 0 0 0 .666-1.062c.18-.432.27-.96.27-1.584v-.36c0-.576-.09-1.068-.27-1.476a2.898 2.898 0 0 0-.666-1.008 2.515 2.515 0 0 0-.954-.576c-.36-.12-.72-.18-1.08-.18-.36 0-.72.06-1.08.18-.36.12-.678.312-.954.576-.276.264-.504.6-.684 1.008-.168.408-.252.9-.252 1.476v.36c0 .624.084 1.152.252 1.584.18.432.408.786.684 1.062.276.264.594.462.954.594.36.12.72.18 1.08.18zM381.536 58.596h1.17c.132-.18.252-.456.36-.828.108-.372.204-.81.288-1.314.084-.504.144-1.05.18-1.638.048-.6.072-1.212.072-1.836v-2.52h6.66v8.136h1.35v3.654h-1.512V60h-7.056v2.25h-1.512v-3.654zm7.146 0v-6.732h-3.528v1.476c0 .504-.018 1.008-.054 1.512-.036.492-.09.966-.162 1.422-.072.444-.162.87-.27 1.278a6.27 6.27 0 0 1-.342 1.044h4.356zM761.8 47.4h4.5c.756 0 1.404.084 1.944.252.54.168.984.402 1.332.702.36.288.624.642.792 1.062.168.408.252.858.252 1.35 0 .648-.18 1.206-.54 1.674-.36.456-.804.786-1.332.99.744.168 1.332.51 1.764 1.026.432.504.648 1.164.648 1.98 0 .516-.084.99-.252 1.422a2.95 2.95 0 0 1-.792 1.134c-.36.312-.828.558-1.404.738-.564.18-1.248.27-2.052.27h-4.86V47.4zm4.86 11.124c.54 0 .99-.048 1.35-.144.36-.108.648-.252.864-.432a1.52 1.52 0 0 0 .45-.684c.096-.264.144-.558.144-.882 0-.324-.048-.618-.144-.882a1.401 1.401 0 0 0-.45-.684c-.216-.192-.51-.336-.882-.432-.36-.108-.81-.162-1.35-.162h-3.15v4.302h3.168zm-.36-5.706c.504 0 .924-.048 1.26-.144.336-.096.606-.234.81-.414.204-.18.348-.39.432-.63.084-.24.126-.504.126-.792 0-.288-.042-.552-.126-.792a1.355 1.355 0 0 0-.432-.63c-.204-.168-.474-.3-.81-.396-.336-.096-.756-.144-1.26-.144h-2.808v3.942h2.808zM773.499 50.46h1.584v3.6h1.926c1.2 0 2.082.264 2.646.792.576.528.864 1.26.864 2.196 0 .912-.288 1.632-.864 2.16-.564.528-1.446.792-2.646.792h-3.51v-9.54zm3.42 8.136c.744 0 1.266-.132 1.566-.396.3-.264.45-.654.45-1.17 0-.516-.15-.906-.45-1.17-.3-.264-.822-.396-1.566-.396h-1.836v3.132h1.836zm5.076-8.136h1.584V60h-1.584v-9.54zM789.046 55.158l-3.402-4.698h1.836l2.52 3.474 2.52-3.474h1.764l-3.402 4.608L794.464 60h-1.872l-2.664-3.726L787.264 60h-1.8l3.582-4.842zM799.959 60.18a5.277 5.277 0 0 1-1.746-.288 4.249 4.249 0 0 1-1.458-.9 4.474 4.474 0 0 1-1.008-1.53c-.252-.612-.378-1.326-.378-2.142v-.36c0-.768.126-1.446.378-2.034a4.164 4.164 0 0 1 2.466-2.34 4.996 4.996 0 0 1 1.746-.306c.612 0 1.194.102 1.746.306a4.164 4.164 0 0 1 2.466 2.34c.252.588.378 1.266.378 2.034v.36c0 .816-.126 1.53-.378 2.142a4.474 4.474 0 0 1-1.008 1.53c-.42.396-.906.696-1.458.9a5.277 5.277 0 0 1-1.746.288zm0-1.44c.36 0 .72-.06 1.08-.18.36-.132.678-.33.954-.594a3.03 3.03 0 0 0 .666-1.062c.18-.432.27-.96.27-1.584v-.36c0-.576-.09-1.068-.27-1.476a2.898 2.898 0 0 0-.666-1.008 2.515 2.515 0 0 0-.954-.576c-.36-.12-.72-.18-1.08-.18-.36 0-.72.06-1.08.18-.36.12-.678.312-.954.576-.276.264-.504.6-.684 1.008-.168.408-.252.9-.252 1.476v.36c0 .624.084 1.152.252 1.584.18.432.408.786.684 1.062.276.264.594.462.954.594.36.12.72.18 1.08.18zM805.536 58.596h1.17c.132-.18.252-.456.36-.828.108-.372.204-.81.288-1.314.084-.504.144-1.05.18-1.638.048-.6.072-1.212.072-1.836v-2.52h6.66v8.136h1.35v3.654h-1.512V60h-7.056v2.25h-1.512v-3.654zm7.146 0v-6.732h-3.528v1.476c0 .504-.018 1.008-.054 1.512-.036.492-.09.966-.162 1.422-.072.444-.162.87-.27 1.278a6.27 6.27 0 0 1-.342 1.044h4.356z" fill="#001357"/><path d="M157.8 111.4h9.9V124h-1.692v-11.124h-6.516V124H157.8v-12.6zM174.9 124.18a5.277 5.277 0 0 1-1.746-.288 4.03 4.03 0 0 1-1.458-.882 4.474 4.474 0 0 1-1.008-1.53c-.252-.612-.378-1.332-.378-2.16v-.36c0-.792.12-1.476.36-2.052.24-.588.558-1.074.954-1.458.408-.396.876-.69 1.404-.882a5.013 5.013 0 0 1 1.692-.288c1.404 0 2.49.384 3.258 1.152.768.768 1.152 1.854 1.152 3.258v1.008h-7.236c0 .564.09 1.038.27 1.422a2.67 2.67 0 0 0 1.656 1.458c.36.108.72.162 1.08.162.72 0 1.272-.12 1.656-.36.396-.24.678-.57.846-.99h1.548c-.096.456-.27.858-.522 1.206-.24.348-.54.642-.9.882-.348.228-.75.402-1.206.522a5.43 5.43 0 0 1-1.422.18zm-.09-8.46c-.372 0-.732.054-1.08.162a2.49 2.49 0 0 0-1.584 1.314c-.168.336-.252.738-.252 1.206h5.742c-.012-.492-.096-.906-.252-1.242a2.045 2.045 0 0 0-.594-.828 2.302 2.302 0 0 0-.9-.468 3.915 3.915 0 0 0-1.08-.144zM181.381 114.46h1.476v1.8c.324-.636.774-1.122 1.35-1.458.588-.348 1.266-.522 2.034-.522 1.2 0 2.16.396 2.88 1.188.72.78 1.08 1.944 1.08 3.492v.36c0 .816-.096 1.53-.288 2.142-.192.6-.462 1.104-.81 1.512a3.376 3.376 0 0 1-1.26.9 4.056 4.056 0 0 1-1.602.306c-.816 0-1.5-.18-2.052-.54-.54-.36-.948-.81-1.224-1.35v5.31h-1.584v-13.14zm4.5 8.316c.384 0 .744-.072 1.08-.216.336-.156.624-.378.864-.666.252-.288.444-.648.576-1.08.144-.432.216-.93.216-1.494v-.36c0-.516-.072-.978-.216-1.386a2.755 2.755 0 0 0-.576-1.026 2.282 2.282 0 0 0-.864-.648 2.712 2.712 0 0 0-1.08-.216c-.432 0-.828.072-1.188.216a2.49 2.49 0 0 0-.918.576c-.252.24-.45.528-.594.864a2.712 2.712 0 0 0-.216 1.08v1.44c0 .432.072.828.216 1.188.144.36.342.666.594.918.252.252.558.45.918.594.36.144.756.216 1.188.216zM196.416 124.18a5.277 5.277 0 0 1-1.746-.288 4.03 4.03 0 0 1-1.458-.882 4.474 4.474 0 0 1-1.008-1.53c-.252-.612-.378-1.332-.378-2.16v-.36c0-.792.12-1.476.36-2.052.24-.588.558-1.074.954-1.458.408-.396.876-.69 1.404-.882a5.013 5.013 0 0 1 1.692-.288c1.404 0 2.49.384 3.258 1.152.768.768 1.152 1.854 1.152 3.258v1.008h-7.236c0 .564.09 1.038.27 1.422a2.67 2.67 0 0 0 1.656 1.458c.36.108.72.162 1.08.162.72 0 1.272-.12 1.656-.36.396-.24.678-.57.846-.99h1.548c-.096.456-.27.858-.522 1.206-.24.348-.54.642-.9.882-.348.228-.75.402-1.206.522a5.43 5.43 0 0 1-1.422.18zm-.09-8.46c-.372 0-.732.054-1.08.162a2.49 2.49 0 0 0-1.584 1.314c-.168.336-.252.738-.252 1.206h5.742c-.012-.492-.096-.906-.252-1.242a2.045 2.045 0 0 0-.594-.828 2.302 2.302 0 0 0-.9-.468 3.915 3.915 0 0 0-1.08-.144zM202.897 114.46h1.692l3.402 5.94 3.402-5.94h1.584V124h-1.584v-6.93l-2.826 4.86h-1.26l-2.826-4.86V124h-1.584v-9.54zM219.812 124.18a5.277 5.277 0 0 1-1.746-.288 4.03 4.03 0 0 1-1.458-.882 4.474 4.474 0 0 1-1.008-1.53c-.252-.612-.378-1.332-.378-2.16v-.36c0-.792.12-1.476.36-2.052.24-.588.558-1.074.954-1.458.408-.396.876-.69 1.404-.882a5.013 5.013 0 0 1 1.692-.288c1.404 0 2.49.384 3.258 1.152.768.768 1.152 1.854 1.152 3.258v1.008h-7.236c0 .564.09 1.038.27 1.422a2.67 2.67 0 0 0 1.656 1.458c.36.108.72.162 1.08.162.72 0 1.272-.12 1.656-.36.396-.24.678-.57.846-.99h1.548c-.096.456-.27.858-.522 1.206-.24.348-.54.642-.9.882-.348.228-.75.402-1.206.522a5.43 5.43 0 0 1-1.422.18zm-.09-8.46c-.372 0-.732.054-1.08.162a2.49 2.49 0 0 0-1.584 1.314c-.168.336-.252.738-.252 1.206h5.742c-.012-.492-.096-.906-.252-1.242a2.045 2.045 0 0 0-.594-.828 2.302 2.302 0 0 0-.9-.468 3.915 3.915 0 0 0-1.08-.144zM226.293 114.46h1.584v3.978h4.932v-3.978h1.584V124h-1.584v-4.158h-4.932V124h-1.584v-9.54zM237.28 114.46h1.584v3.978h4.932v-3.978h1.584V124h-1.584v-4.158h-4.932V124h-1.584v-9.54zM250.984 124.18c-.528 0-.996-.072-1.404-.216a3.062 3.062 0 0 1-1.008-.63 2.632 2.632 0 0 1-.63-.936 3.171 3.171 0 0 1-.216-1.188c0-.948.276-1.632.828-2.052.564-.42 1.368-.63 2.412-.63h3.096v-.648c0-.816-.186-1.38-.558-1.692-.36-.312-.906-.468-1.638-.468-.684 0-1.182.132-1.494.396-.312.252-.486.54-.522.864h-1.584c.024-.384.126-.738.306-1.062a2.89 2.89 0 0 1 .756-.864c.324-.24.708-.426 1.152-.558a4.766 4.766 0 0 1 1.476-.216c1.128 0 2.022.27 2.682.81.672.528 1.008 1.398 1.008 2.61v5.202c.012.372.042.738.09 1.098h-1.386a9.786 9.786 0 0 1-.072-.774 17.934 17.934 0 0 1-.018-.846c-.252.504-.66.93-1.224 1.278s-1.248.522-2.052.522zm.342-1.44c.372 0 .72-.048 1.044-.144.336-.108.63-.258.882-.45.252-.204.45-.45.594-.738.144-.288.216-.624.216-1.008v-.648h-2.826c-.588 0-1.05.12-1.386.36-.336.228-.504.594-.504 1.098 0 .444.156.81.468 1.098.324.288.828.432 1.512.432zM260.316 120.22c-.792-.18-1.362-.504-1.71-.972-.348-.48-.522-1.092-.522-1.836 0-.936.282-1.662.846-2.178.576-.516 1.494-.774 2.754-.774h4.14V124h-1.584v-3.636h-2.43L259.488 124h-1.764l2.592-3.78zm-.648-2.808c0 .504.144.888.432 1.152.3.264.798.396 1.494.396h2.646v-3.096h-2.646c-.696 0-1.194.132-1.494.396-.288.264-.432.648-.432 1.152zM566.8 111.4h1.692v5.418h1.44l4.932-5.418h2.016l-5.508 6.012L577.06 124h-2.16l-4.968-5.778h-1.44V124H566.8v-12.6zM582.652 124.18a5.277 5.277 0 0 1-1.746-.288 4.249 4.249 0 0 1-1.458-.9 4.474 4.474 0 0 1-1.008-1.53c-.252-.612-.378-1.326-.378-2.142v-.36c0-.768.126-1.446.378-2.034a4.164 4.164 0 0 1 2.466-2.34 4.996 4.996 0 0 1 1.746-.306c.612 0 1.194.102 1.746.306a4.164 4.164 0 0 1 2.466 2.34c.252.588.378 1.266.378 2.034v.36c0 .816-.126 1.53-.378 2.142a4.474 4.474 0 0 1-1.008 1.53c-.42.396-.906.696-1.458.9a5.277 5.277 0 0 1-1.746.288zm0-1.44c.36 0 .72-.06 1.08-.18.36-.132.678-.33.954-.594a3.03 3.03 0 0 0 .666-1.062c.18-.432.27-.96.27-1.584v-.36c0-.576-.09-1.068-.27-1.476a2.898 2.898 0 0 0-.666-1.008 2.515 2.515 0 0 0-.954-.576c-.36-.12-.72-.18-1.08-.18-.36 0-.72.06-1.08.18-.36.12-.678.312-.954.576-.276.264-.504.6-.684 1.008-.168.408-.252.9-.252 1.476v.36c0 .624.084 1.152.252 1.584.18.432.408.786.684 1.062.276.264.594.462.954.594.36.12.72.18 1.08.18zM589.485 114.46h1.584v3.978h4.932v-3.978h1.584V124h-1.584v-4.158h-4.932V124h-1.584v-9.54zM604.161 124.18a4.967 4.967 0 0 1-1.71-.288 3.776 3.776 0 0 1-1.368-.9c-.384-.408-.69-.918-.918-1.53-.216-.612-.324-1.326-.324-2.142v-.36c0-.768.12-1.446.36-2.034.24-.588.558-1.074.954-1.458.396-.396.852-.69 1.368-.882a4.507 4.507 0 0 1 1.638-.306c.564 0 1.068.078 1.512.234.456.156.846.372 1.17.648.336.276.606.6.81.972a4.2 4.2 0 0 1 .468 1.206h-1.62a3.517 3.517 0 0 0-.342-.63 1.767 1.767 0 0 0-.468-.522 2.078 2.078 0 0 0-.648-.342 2.792 2.792 0 0 0-.882-.126c-.348 0-.684.066-1.008.198a2.28 2.28 0 0 0-.864.576c-.252.252-.456.582-.612.99-.144.408-.216.9-.216 1.476v.36c0 .612.072 1.14.216 1.584.156.432.36.786.612 1.062.252.264.54.462.864.594.324.12.66.18 1.008.18.588 0 1.08-.144 1.476-.432a2.3 2.3 0 0 0 .864-1.188h1.62c-.228.948-.696 1.698-1.404 2.25-.708.54-1.56.81-2.556.81zM612.458 115.864H609.2v-1.404h8.1v1.404h-3.258V124h-1.584v-8.136zM621.47 124.18c-.528 0-.996-.072-1.404-.216a3.062 3.062 0 0 1-1.008-.63 2.632 2.632 0 0 1-.63-.936 3.171 3.171 0 0 1-.216-1.188c0-.948.276-1.632.828-2.052.564-.42 1.368-.63 2.412-.63h3.096v-.648c0-.816-.186-1.38-.558-1.692-.36-.312-.906-.468-1.638-.468-.684 0-1.182.132-1.494.396-.312.252-.486.54-.522.864h-1.584c.024-.384.126-.738.306-1.062a2.89 2.89 0 0 1 .756-.864c.324-.24.708-.426 1.152-.558a4.766 4.766 0 0 1 1.476-.216c1.128 0 2.022.27 2.682.81.672.528 1.008 1.398 1.008 2.61v5.202c.012.372.042.738.09 1.098h-1.386a9.786 9.786 0 0 1-.072-.774 17.934 17.934 0 0 1-.018-.846c-.252.504-.66.93-1.224 1.278s-1.248.522-2.052.522zm.342-1.44c.372 0 .72-.048 1.044-.144.336-.108.63-.258.882-.45.252-.204.45-.45.594-.738.144-.288.216-.624.216-1.008v-.648h-2.826c-.588 0-1.05.12-1.386.36-.336.228-.504.594-.504 1.098 0 .444.156.81.468 1.098.324.288.828.432 1.512.432zM628.93 114.46h1.584v3.978h4.932v-3.978h1.584V124h-1.584v-4.158h-4.932V124h-1.584v-9.54zM642.635 124.18c-.528 0-.996-.072-1.404-.216a3.062 3.062 0 0 1-1.008-.63 2.632 2.632 0 0 1-.63-.936 3.171 3.171 0 0 1-.216-1.188c0-.948.276-1.632.828-2.052.564-.42 1.368-.63 2.412-.63h3.096v-.648c0-.816-.186-1.38-.558-1.692-.36-.312-.906-.468-1.638-.468-.684 0-1.182.132-1.494.396-.312.252-.487.54-.523.864h-1.583c.024-.384.126-.738.306-1.062a2.89 2.89 0 0 1 .756-.864 3.67 3.67 0 0 1 1.151-.558 4.772 4.772 0 0 1 1.477-.216c1.128 0 2.022.27 2.682.81.672.528 1.008 1.398 1.008 2.61v5.202c.012.372.042.738.09 1.098H646a9.76 9.76 0 0 1-.071-.774 17.934 17.934 0 0 1-.018-.846c-.252.504-.66.93-1.224 1.278s-1.248.522-2.052.522zm.342-1.44c.372 0 .72-.048 1.044-.144.336-.108.63-.258.882-.45.252-.204.45-.45.594-.738.144-.288.216-.624.216-1.008v-.648h-2.826c-.588 0-1.051.12-1.387.36-.336.228-.503.594-.503 1.098 0 .444.156.81.468 1.098.324.288.828.432 1.512.432zM652.096 115.864h-3.257v-1.404h8.099v1.404h-3.258V124h-1.584v-8.136zM661.109 124.18c-.528 0-.996-.072-1.404-.216a3.062 3.062 0 0 1-1.008-.63 2.632 2.632 0 0 1-.63-.936 3.171 3.171 0 0 1-.216-1.188c0-.948.276-1.632.828-2.052.564-.42 1.368-.63 2.412-.63h3.096v-.648c0-.816-.186-1.38-.558-1.692-.36-.312-.906-.468-1.638-.468-.684 0-1.182.132-1.494.396-.312.252-.486.54-.522.864h-1.584c.024-.384.126-.738.306-1.062a2.89 2.89 0 0 1 .756-.864c.324-.24.708-.426 1.152-.558a4.766 4.766 0 0 1 1.476-.216c1.128 0 2.022.27 2.682.81.672.528 1.008 1.398 1.008 2.61v5.202c.012.372.042.738.09 1.098h-1.386a9.786 9.786 0 0 1-.072-.774 17.934 17.934 0 0 1-.018-.846c-.252.504-.66.93-1.224 1.278s-1.248.522-2.052.522zm.342-1.44c.372 0 .72-.048 1.044-.144.336-.108.63-.258.882-.45.252-.204.45-.45.594-.738.144-.288.216-.624.216-1.008v-.648h-2.826c-.588 0-1.05.12-1.386.36-.336.228-.504.594-.504 1.098 0 .444.156.81.468 1.098.324.288.828.432 1.512.432zM196.8 65.4h4.5c.756 0 1.404.084 1.944.252.54.168.984.402 1.332.702.36.288.624.642.792 1.062.168.408.252.858.252 1.35 0 .648-.18 1.206-.54 1.674-.36.456-.804.786-1.332.99.744.168 1.332.51 1.764 1.026.432.504.648 1.164.648 1.98 0 .516-.084.99-.252 1.422a2.95 2.95 0 0 1-.792 1.134c-.36.312-.828.558-1.404.738-.564.18-1.248.27-2.052.27h-4.86V65.4zm4.86 11.124c.54 0 .99-.048 1.35-.144.36-.108.648-.252.864-.432a1.52 1.52 0 0 0 .45-.684c.096-.264.144-.558.144-.882 0-.324-.048-.618-.144-.882a1.401 1.401 0 0 0-.45-.684c-.216-.192-.51-.336-.882-.432-.36-.108-.81-.162-1.35-.162h-3.15v4.302h3.168zm-.36-5.706c.504 0 .924-.048 1.26-.144.336-.096.606-.234.81-.414.204-.18.348-.39.432-.63.084-.24.126-.504.126-.792 0-.288-.042-.552-.126-.792a1.355 1.355 0 0 0-.432-.63c-.204-.168-.474-.3-.81-.396-.336-.096-.756-.144-1.26-.144h-2.808v3.942h2.808zM215.365 74.868h-5.328L208.831 78h-1.764l4.824-12.6h1.692l4.824 12.6h-1.836l-1.206-3.132zm-4.77-1.476h4.212l-2.106-5.832-2.106 5.832zM219.756 76.524h3.006v-9.27l-3.006 2.142V67.56l3.042-2.16h1.692v11.124h2.466V78h-7.2v-1.476zM601.734 66.876h-4.374V65.4h10.44v1.476h-4.374V78h-1.692V66.876zM607.985 68.46h1.476v1.8a3.112 3.112 0 0 1 1.008-1.404c.48-.384 1.062-.576 1.746-.576.24 0 .432.012.576.036.156.024.294.054.414.09v1.476a2.258 2.258 0 0 0-.468-.126 3.962 3.962 0 0 0-.612-.036c-.36 0-.696.066-1.008.198a2.386 2.386 0 0 0-.81.558 2.44 2.44 0 0 0-.54.846 2.977 2.977 0 0 0-.198 1.098V78h-1.584v-9.54zM618.365 78.18c-1.152 0-2.016-.33-2.592-.99-.576-.66-.864-1.68-.864-3.06v-5.67h1.584v5.58c0 .888.18 1.56.54 2.016.372.456.972.684 1.8.684.444 0 .828-.078 1.152-.234.336-.156.606-.36.81-.612.216-.252.372-.54.468-.864.108-.324.162-.654.162-.99v-5.58h1.584V78h-1.476v-1.8a3.07 3.07 0 0 1-.45.756c-.18.24-.408.45-.684.63-.264.18-.57.324-.918.432a3.633 3.633 0 0 1-1.116.162zM629.857 78.18a5.277 5.277 0 0 1-1.746-.288 4.03 4.03 0 0 1-1.458-.882 4.474 4.474 0 0 1-1.008-1.53c-.252-.612-.378-1.332-.378-2.16v-.36c0-.792.12-1.476.36-2.052.24-.588.558-1.074.954-1.458.408-.396.876-.69 1.404-.882a5.013 5.013 0 0 1 1.692-.288c1.404 0 2.49.384 3.258 1.152.768.768 1.152 1.854 1.152 3.258v1.008h-7.236c0 .564.09 1.038.27 1.422a2.67 2.67 0 0 0 1.656 1.458c.36.108.72.162 1.08.162.72 0 1.272-.12 1.656-.36.396-.24.678-.57.846-.99h1.548c-.096.456-.27.858-.522 1.206-.24.348-.54.642-.9.882-.348.228-.75.402-1.206.522a5.43 5.43 0 0 1-1.422.18zm-.09-8.46c-.372 0-.732.054-1.08.162a2.49 2.49 0 0 0-1.584 1.314c-.168.336-.252.738-.252 1.206h5.742c-.012-.492-.096-.906-.252-1.242a2.045 2.045 0 0 0-.594-.828 2.302 2.302 0 0 0-.9-.468 3.915 3.915 0 0 0-1.08-.144z" fill="#0229B4"/><path fill-rule="evenodd" clip-rule="evenodd" d="M440 136V24h1v112h-1z" fill="#D0D4E3"/></svg>